<?xml version="1.0" standalone="no"?>
<!DOCTYPE svg PUBLIC "-//W3C//DTD SVG 1.1//EN" "http://www.w3.org/Graphics/SVG/1.1/DTD/svg11.dtd" >
<svg>
<metadata>
Created by FontForge 20090914 at Sat Jul 10 00:19:49 2021
 By www-data
Copyright by URW++ and Canal+ 2019
</metadata>
<defs>
<font id="Canal+25-Bold" horiz-adv-x="697" >
  <font-face 
    font-family="Canal+25 Bold"
    font-weight="700"
    font-stretch="normal"
    units-per-em="1000"
    panose-1="0 0 8 0 0 0 0 0 0 0"
    ascent="800"
    descent="-200"
    x-height="506"
    cap-height="750"
    bbox="-759 -311 4960 1063"
    underline-thickness="50"
    underline-position="-50"
    unicode-range="U+000D-U+FB02"
  />
<missing-glyph horiz-adv-x="281" 
 />
    <glyph glyph-name="fi" unicode="fi" horiz-adv-x="703" 
d="M551 589c-14 0 -27.168 2.66797 -39.501 8.00098s-23.166 12.666 -32.499 21.999s-16.666 20 -21.999 32s-8 25 -8 39c0 30 9.5 54.833 28.5 74.5s43.5 29.5 73.5 29.5c14 0 27.333 -2.66699 40 -8s23.667 -12.5 33 -21.5s16.666 -19.833 21.999 -32.5s8 -26 8 -40
c0 -29.333 -10 -53.833 -30 -73.5s-44.333 -29.5 -73 -29.5zM76.999 0.000976562l-0.000976562 355.999h-64v149h64v16c0 22 1 41.5 3 58.5s5.33301 32.5 10 46.5s11 27 19 39s17.667 23.667 29 35c23.333 23.333 49.166 41.333 77.499 54s58.5 19 90.5 19
c14.667 0 27.667 -1.5 39 -4.5s25.333 -8.16699 42 -15.5v-157c-15.333 7.33301 -27.666 12.333 -36.999 15s-18.666 4 -27.999 4c-12 0 -23.5 -3.5 -34.5 -10.5s-18.5 -15.167 -22.5 -24.5c-3.33301 -6 -5.5 -13.667 -6.5 -23s-1.5 -21.666 -1.5 -36.999v-15h130v-149h-130
v-356h-180zM461.998 506h180v-506h-180v506z" />
    <glyph glyph-name="fl" unicode="fl" horiz-adv-x="700" 
d="M77 0l-0.000976562 355.999h-64v149h64v16c0 22 1 41.5 3 58.5s5.33301 32.5 10 46.5s11 27 19 39s17.667 23.667 29 35c23.333 23.333 49.166 41.333 77.499 54s58.5 19 90.5 19c14.667 0 27.667 -1.5 39 -4.5s25.333 -8.16699 42 -15.5v-157
c-15.333 7.33301 -27.666 12.333 -36.999 15s-18.666 4 -27.999 4c-12 0 -23.5 -3.5 -34.5 -10.5s-18.5 -15.167 -22.5 -24.5c-3.33301 -6 -5.5 -13.667 -6.5 -23s-1.5 -21.666 -1.5 -36.999v-15h130v-149h-130v-356h-180zM458.999 749.999h180v-750h-180v750z" />
    <glyph glyph-name=".notdef" horiz-adv-x="281" 
 />
    <glyph glyph-name=".null" horiz-adv-x="0" 
 />
    <glyph glyph-name=".null" horiz-adv-x="0" 
 />
    <glyph glyph-name="nonmarkingreturn" unicode="&#xd;" horiz-adv-x="250" 
 />
    <glyph glyph-name="space" unicode=" " horiz-adv-x="281" 
 />
    <glyph glyph-name="exclam" unicode="!" horiz-adv-x="383" 
d="M97 750h188v-496h-188v496zM192 -21c-32.667 0 -60.332 11.333 -82.999 34c-22 23.333 -33 50.666 -33 81.999c0 16 3 31 9 45s14.167 26.333 24.5 37s22.5 19 36.5 25s29 9 45 9c16.667 0 32.167 -3 46.5 -9s26.666 -14.167 36.999 -24.5s18.5 -22.666 24.5 -36.999
s9 -29.5 9 -45.5c0 -32 -11.333 -59.333 -34 -82s-50 -34 -82 -34z" />
    <glyph glyph-name="quotedbl" unicode="&#x22;" horiz-adv-x="467" 
d="M51 750h156l-32 -302h-102zM260 750h156l-32 -302h-103z" />
    <glyph glyph-name="numbersign" unicode="#" horiz-adv-x="712" 
d="M132 206h-103l16 129h111l18 95h-101l16 129h110l37 191h146l-37 -191h82l36 191h149l-38 -191h101l-16 -129h-108l-18 -95h101l-14 -129h-112l-40 -206h-148l40 206h-81l-40 -206h-146zM384 335l19 95h-82l-19 -95h82z" />
    <glyph glyph-name="dollar" unicode="$" horiz-adv-x="675" 
d="M271 0c-41.333 5.33301 -72.998 12.3311 -94.998 20.998c-36 13.333 -65.333 28.666 -88 45.999l-11 9l-13 11l81 150c8.66699 -7.33301 19.667 -15.666 33 -24.999s29.333 -19.666 48 -30.999c37.333 -18 70 -27 98 -27c23.333 0 44.333 5.66699 63 17
c20.667 12.667 31 30.334 31 53.001c0 33.333 -24 56.333 -72 69l-50 15c-60.667 18 -105.667 40.667 -135 68c-36.667 34.667 -55 80.334 -55 137.001c0 76.667 27.333 138 82 184c18 15.333 45.667 29.666 83 42.999v49h168v-47c22 -3.33301 41.667 -7.66602 59 -12.999
s32.666 -11.333 45.999 -18l38 -21l-74 -144c-28 19.333 -51.5 32.333 -70.5 39s-36.833 10 -53.5 10c-20.667 0 -39.334 -4.33301 -56.001 -13c-20.667 -10.667 -31 -25.334 -31 -44.001c0 -23.333 17.333 -43.333 52 -60h2c0 -0.666992 0.333008 -1 1 -1l1 -1h1
c0 -0.666992 0.333008 -1 1 -1c6 -3.33301 29.333 -11.333 70 -24c50.667 -14.667 93 -37 127 -67c39.333 -35.333 59 -83 59 -143c0 -86 -33 -150.667 -99 -194c-20 -13.333 -44.333 -24.333 -73 -33v-57h-168v43z" />
    <glyph glyph-name="percent" unicode="%" horiz-adv-x="1037" 
d="M226 319c-61.333 0 -114.334 20.666 -159.001 61.999c-43.333 42 -65 93.667 -65 155c0 62 22 113.333 66 154c42 40 93.667 60 155 60c46 0 87.667 -11.167 125 -33.5s65.333 -54.5 84 -96.5c11.333 -26.667 17 -55 17 -85c0 -61.333 -22 -112.666 -66 -153.999
c-43.333 -41.333 -95.666 -62 -156.999 -62zM654.999 749.999h165l-436 -750h-165zM225.999 450.999c24 0 43.999 8.33301 59.999 25s24 37 24 61c0 23.333 -8.16699 43.333 -24.5 60s-36.166 25 -59.499 25c-24 0 -44.167 -8.33301 -60.5 -25s-24.5 -37 -24.5 -61
c0 -23.333 8.33301 -43.333 25 -60s36.667 -25 60 -25zM814.998 -0.000976562c-61.333 0 -114.333 20.667 -159 62c-43.333 42 -65 93.667 -65 155s21.333 112.333 64 153c43.333 41.333 95.666 62 156.999 62c46 0 87.667 -11.167 125 -33.5s65.333 -54.5 84 -96.5
c11.333 -26.667 17 -55 17 -85c0 -61.333 -22 -113 -66 -155c-43.333 -41.333 -95.666 -62 -156.999 -62zM814.998 132.999c24 0 43.999 8.33301 59.999 25s24 36.667 24 60s-8.16699 43.333 -24.5 60s-36.166 25 -59.499 25c-24 0 -44.167 -8.16699 -60.5 -24.5
s-24.5 -36.5 -24.5 -60.5c0 -23.333 8.33301 -43.333 25 -60s36.667 -25 60 -25z" />
    <glyph glyph-name="ampersand" unicode="&#x26;" horiz-adv-x="858" 
d="M281 -20c-46.667 0 -89.667 10.6689 -129 32.002c-41.333 22 -71 53.667 -89 95c-12 26 -18 54.333 -18 85c0 66.667 25.667 121.667 77 165c19.333 16 46.666 31.667 81.999 47c6 3.33301 13 6.33301 21 9l-25 31c-30.667 35.333 -46 74.666 -46 117.999
c0 63.333 23.667 114.666 71 153.999c44 36 98 54 162 54c48 0 90.667 -10.333 128 -31c41.333 -22 71.333 -53 90 -93c11.333 -26.667 17 -54.667 17 -84c0 -41.333 -13.333 -76.333 -40 -105c-20.667 -24 -54 -47.667 -100 -71l96 -100l29 29l23 22l25 22l31 27l106 -107
l-110 -102l168 -177h-242l-66 68c-57.333 -35.333 -106.666 -59 -147.999 -71c-40 -11.333 -77.667 -17 -113 -17zM410 485.002c38.667 26 57.999 53.668 57.999 83.001c0 19.333 -6.16699 35.833 -18.5 49.5s-28.166 20.5 -47.499 20.5c-18.667 0 -34 -5.83301 -46 -17.5
s-18 -26.834 -18 -45.501c0 -16 7.66699 -34.667 23 -56l6 -8c6 -8.66699 11 -15 15 -19l8 -8l4 -3l4 -4zM338.999 153.003c28.667 0 60.667 11.333 96 34l-117 126l-22.5 -16c-6.33301 -4.66699 -11.5 -8.66699 -15.5 -12c-16 -12.667 -26 -24.667 -30 -36
c-2 -6 -3 -12.667 -3 -20v-4c0 -9.33301 1 -18 3 -26c12 -30.667 41.667 -46 89 -46z" />
    <glyph glyph-name="quotesingle" unicode="'" horiz-adv-x="258" 
d="M51 750h156l-32 -302h-102z" />
    <glyph glyph-name="parenleft" unicode="(" horiz-adv-x="351" 
d="M193 -147c-2.66699 4.66699 -6.16992 9.99902 -10.5029 15.999s-9.16602 13.333 -14.499 22c-33.333 58.667 -59 121.334 -77 188.001c-27.333 102 -41 206 -41 312c0 105.333 15 208.333 45 309c16.667 55.333 37.667 105.666 63 150.999l15.5 28
c5.66699 10 12.167 20.667 19.5 32l132 -62c-15.333 -30 -28.5 -57 -39.5 -81s-19.833 -45.333 -26.5 -64c-2 -5.33301 -4.16699 -12 -6.5 -20s-4.83301 -17.333 -7.5 -28c-23.333 -88 -35 -178 -35 -270c0 -102.667 14.667 -205.667 44 -309
c6.66699 -23.333 13.834 -44.666 21.501 -63.999s15.834 -37 24.501 -53l11 -21c4 -7.33301 8.66699 -15.333 14 -24z" />
    <glyph glyph-name="parenright" unicode=")" horiz-adv-x="351" 
d="M27 -85c15.333 30 28.5029 56.998 39.5029 80.998s19.833 45.333 26.5 64c2 6 4.16699 13 6.5 21l7.5 27c22.667 84 34 173.667 34 269c0 102.667 -14 203.334 -42 302.001c-6.66699 23.333 -13.834 45.333 -21.501 66s-15.834 39.667 -24.501 57l-26 47l131 62
c11.333 -16.667 28.333 -44.667 51 -84c31.333 -62 55.666 -142 72.999 -240c6.66699 -37.333 11.5 -73.666 14.5 -108.999s4.5 -70.333 4.5 -105c0 -106.667 -15 -209.667 -45 -309c-8.66699 -28.667 -18.167 -55.5 -28.5 -80.5s-21.5 -48.5 -33.5 -70.5l-36 -60z" />
    <glyph glyph-name="asterisk" unicode="*" horiz-adv-x="500" 
d="M201 493l-63 -100l-84 60l78 92l-117 30l33 98l110 -46l-8 120h104l-8 -120l110 45l32 -99l-116 -28l77 -92l-84 -61z" />
    <glyph glyph-name="plus" unicode="+" horiz-adv-x="1160" 
d="M487 0c-7.33301 0 -11 4 -11 12v269c0 10 -4.33301 15 -13 15h-266c-8 0 -12 4.33301 -12 13v205c0 7.33301 3.66699 11 11 11h268c8 0 12 4.66699 12 14v231c0 6.66699 3.33301 10 10 10h204c8.66699 0 13 -3.33301 13 -10v-231c0 -9.33301 3.33301 -14 10 -14h251
c7.33301 0 11 -4.33301 11 -13v-204c0 -8 -3.66699 -12 -11 -12h-248c-8.66699 0 -13 -4.33301 -13 -13v-269c0 -9.33301 -3.66699 -14 -11 -14h-205z" />
    <glyph glyph-name="comma" unicode="," horiz-adv-x="271" 
d="M50 188h171l-24 -355h-137z" />
    <glyph glyph-name="hyphen" unicode="-" horiz-adv-x="253" 
d="M0 303h253v-133h-253v133z" />
    <glyph glyph-name="period" unicode="." horiz-adv-x="341" 
d="M170 -21c-32 0 -59.334 11.333 -82.001 34s-34 49.667 -34 81c0 33.333 11.333 61.333 34 84s50.334 34 83.001 34c32 0 59.333 -11.333 82 -34s34 -50 34 -82c0 -16 -3 -31.167 -9 -45.5s-14.333 -26.833 -25 -37.5s-23.167 -19 -37.5 -25s-29.5 -9 -45.5 -9z" />
    <glyph glyph-name="slash" unicode="/" horiz-adv-x="650" 
d="M453 880h187l-410 -995h-187z" />
    <glyph glyph-name="zero" unicode="0" horiz-adv-x="726" 
d="M364 -28c-73.333 0 -136.333 22.333 -189 67c-49.333 42.667 -85 99.667 -107 171c-15.333 50 -23 104.667 -23 164c0 120 29 217.333 87 292c58.667 74.667 135 112 229 112c74 0 137.333 -22.333 190 -67c48 -41.333 83.667 -98.333 107 -171
c15.333 -51.333 23 -107 23 -167c0 -120.667 -29.333 -217.667 -88 -291c-58 -73.333 -134.333 -110 -229 -110zM364 143c48 0 82.002 28.667 102.002 86c14 39.333 21 87.666 21 144.999c0 153.333 -40.667 230 -122 230c-48.667 0 -83.334 -28.333 -104.001 -85
c-14.667 -37.333 -22 -85.666 -22 -144.999c0 -58.667 7.33301 -107 22 -145c21.333 -57.333 55.666 -86 102.999 -86z" />
    <glyph glyph-name="one" unicode="1" horiz-adv-x="485" 
d="M158 585h-106v165h301v-750h-195v585z" />
    <glyph glyph-name="two" unicode="2" horiz-adv-x="702" 
d="M217 199c25.333 26.667 49.3301 53.498 71.9971 80.498s44.334 54.5 65.001 82.5l19 28c30.667 44.667 46 87.334 46 128.001c0 26.667 -8.16699 49.667 -24.5 69s-37.5 29 -63.5 29c-41.333 0 -68 -20.667 -80 -62c-4.66699 -14 -7 -34.667 -7 -62h-203l4 40
c2 26.667 8.66699 54 20 82c23.333 54.667 58.333 96.167 105 124.5s100.334 42.5 161.001 42.5c84 0 153.333 -25.333 208 -76s82 -114.667 82 -192c0 -45.333 -10.667 -87.666 -32 -126.999c-7.33301 -14.667 -17.666 -30.5 -30.999 -47.5s-29.333 -35.833 -48 -56.5
l-108 -117h227v-165h-602z" />
    <glyph glyph-name="three" unicode="3" horiz-adv-x="741" 
d="M348 -33c-69.333 0 -136.001 22.0029 -200.001 66.0029c-34.667 23.333 -60 51.333 -76 84c-8.66699 16.667 -16 38.334 -22 65.001c-1.33301 5.33301 -2.66602 12.833 -3.99902 22.5s-2.66602 21.5 -3.99902 35.5h199c2.66699 -20.667 5.66699 -35 9 -43
c5.33301 -12.667 13.333 -24.667 24 -36c21.333 -20 46.333 -30 75 -30c30 0 54 9.83301 72 29.5s27 44.5 27 74.5c0 64 -38.333 96 -115 96h-7c-4.66699 0 -8.33398 -0.333008 -11.001 -1v131h11c63.333 0 95 26 95 78c0 53.333 -25.333 80 -76 80
c-52.667 0 -80.334 -29.333 -83.001 -88h-179c6.66699 48 17.667 86.667 33 116c46.667 86.667 126.334 130 239.001 130c74 0 133.333 -20 178 -60c45.333 -40 68 -93 68 -159c0 -44 -12 -81.667 -36 -113c-5.33301 -6.66699 -11.833 -13.334 -19.5 -20.001
s-16.167 -13.334 -25.5 -20.001c27.333 -8.66699 48 -20.334 62 -35.001c40 -38.667 60 -91 60 -157c0 -56.667 -15.5 -104.334 -46.5 -143.001s-73.5 -67 -127.5 -85c-36 -12 -76 -18 -120 -18z" />
    <glyph glyph-name="four" unicode="4" horiz-adv-x="689" 
d="M372 154h-363v125l290 471h253v-436h92v-160h-92v-154h-180v154zM372 314v265l-169 -265h169z" />
    <glyph glyph-name="five" unicode="5" horiz-adv-x="661" 
d="M263 -25c-37.333 0 -79.332 5.6709 -125.999 17.0039c-27.333 6.66699 -54.666 17.667 -81.999 33c-5.33301 2.66699 -10.666 5.66699 -15.999 9s-11.333 6.66602 -18 9.99902l28 166c19.333 -12 48.333 -28 87 -48c39.333 -16 75.666 -24 108.999 -24
c37.333 0 68.333 9 93 27c27.333 21.333 41 49.666 41 84.999c0 28 -10.333 52.333 -31 73c-17.333 17.333 -40.333 30.666 -69 39.999c-20.667 6 -43 9 -67 9c-28 0 -62.667 -5 -104 -15l-16 -4.5c-6 -1.66699 -13 -3.83398 -21 -6.50098l65 404h389v-165h-258l-13 -84
c1.33301 0 3.16602 0.166992 5.49902 0.5s5.16602 0.833008 8.49902 1.5c16 2 32 3 48 3c54.667 0 104 -13.833 148 -41.5s76.333 -66.5 97 -116.5c13.333 -34 20 -69 20 -105c0 -83.333 -28.333 -149 -85 -197c-57.333 -47.333 -135 -71 -233 -71z" />
    <glyph glyph-name="six" unicode="6" horiz-adv-x="745" 
d="M369 -31c-92 0 -167.333 25.3301 -226 75.9971s-88 116.334 -88 197.001c0 90.667 38 186.334 114 287.001l167 221h221l-188 -229c10 4 23.333 6 40 6c80.667 0 147.667 -26.333 201 -79c54 -52.667 81 -118 81 -196c0 -87.333 -33 -157.666 -99 -210.999
c-60 -48 -134.333 -72 -223 -72zM369 122.997c33.333 0 62.001 12.332 86.001 36.999c24.667 24.667 37 53.667 37 87c0 34 -12 63 -36 87c-24 24.667 -53 37 -87 37c-34.667 0 -64 -12 -88 -36s-36 -53.333 -36 -88c0 -33.333 12 -62.666 36 -87.999
c25.333 -24 54.666 -36 87.999 -36z" />
    <glyph glyph-name="seven" unicode="7" horiz-adv-x="689" 
d="M389 585h-344v165h647l-429 -750h-215z" />
    <glyph glyph-name="eight" unicode="8" horiz-adv-x="729" 
d="M362 -27c-85.333 0 -155.333 21.3359 -210 64.0029s-82 98 -82 166c0 64.667 21.667 114.667 65 150c18.667 14.667 47.334 28.667 86.001 42c-16 7.33301 -30 15.166 -42 23.499s-22.333 16.833 -31 25.5c-31.333 33.333 -47 73 -47 119c0 48.667 14.667 90.667 44 126
c27.333 34 65 58.333 113 73c31.333 10.667 66.666 16 105.999 16c77.333 0 139.666 -19.667 186.999 -59c48 -38.667 72 -90.667 72 -156c0 -45.333 -15 -83.666 -45 -114.999c-8 -8.66699 -18.667 -17.334 -32 -26.001s-29.333 -17.667 -48 -27
c36.667 -10.667 65.334 -24.334 86.001 -41.001c46.667 -38.667 70 -89.334 70 -152.001c0 -51.333 -17.333 -96.333 -52 -135c-31.333 -35.333 -72.333 -61 -123 -77c-37.333 -11.333 -76.333 -17 -117 -17zM362 480.003c24 0 44.168 7.5 60.501 22.5s24.5 34.5 24.5 58.5
c0 22.667 -8.33301 41.5 -25 56.5s-36.334 22.5 -59.001 22.5c-24 0 -44.333 -7.33301 -61 -22s-25 -34 -25 -58c0 -23.333 8.33301 -42.5 25 -57.5s36.667 -22.5 60 -22.5zM362.001 136.003c26 0 47.833 8.16699 65.5 24.5s26.5 37.166 26.5 62.499s-8.83301 46 -26.5 62
s-39.167 24 -64.5 24c-26 0 -48 -8 -66 -24s-27 -36.667 -27 -62s9 -46.166 27 -62.499s39.667 -24.5 65 -24.5z" />
    <glyph glyph-name="nine" unicode="9" horiz-adv-x="746" 
d="M369 219l-14.998 -0.00195312l-26 1c-13.333 0.666992 -27.833 2.83398 -43.5 6.50098s-32.834 8.83398 -51.501 15.501c-56.667 21.333 -100.667 53.833 -132 97.5s-47 95.834 -47 156.501c0 89.333 32.667 160 98 212c59.333 48 134 72 224 72
c91.333 0 166.666 -25.667 225.999 -77c58.667 -50.667 88 -115.334 88 -194.001c0 -92.667 -38 -189 -114 -289l-167 -220h-220zM376.002 378.998c17.333 0 33.501 3.16699 48.501 9.5s28.167 15 39.5 26s20.166 24 26.499 39s9.5 31.167 9.5 48.5c0 34 -12 63 -36 87
s-53 36 -87 36c-34.667 0 -64 -12 -88 -36s-36 -53 -36 -87s12 -63 36 -87s53 -36 87 -36z" />
    <glyph glyph-name="colon" unicode=":" horiz-adv-x="412" 
d="M206 315c-32 0 -59.3311 11.333 -81.998 34s-34 49.667 -34 81c0 16 3 31.167 9 45.5s14.167 26.833 24.5 37.5s22.666 19 36.999 25s29.5 9 45.5 9s31.167 -3 45.5 -9s26.666 -14.167 36.999 -24.5s18.5 -22.666 24.5 -36.999s9 -29.5 9 -45.5
c0 -32.667 -11.333 -60.334 -34 -83.001c-22.667 -22 -50 -33 -82 -33zM207.002 -21c-32.667 0 -60.334 11.333 -83.001 34s-34 49.667 -34 81c0 33.333 11 61.333 33 84c22.667 22.667 50.667 34 84 34c32.667 0 60 -11.333 82 -34c22.667 -22.667 34 -50 34 -82
c0 -16 -3 -31.167 -9 -45.5s-14.167 -26.833 -24.5 -37.5s-22.666 -19 -36.999 -25s-29.5 -9 -45.5 -9z" />
    <glyph glyph-name="semicolon" unicode=";" horiz-adv-x="408" 
d="M207 288c-32.667 0 -60.332 11.333 -82.999 34s-34 50 -34 82c0 30.667 11 57 33 79c22 22.667 48.333 34 79 34c16.667 0 32.167 -2.83301 46.5 -8.5s26.666 -13.667 36.999 -24s18.5 -22.5 24.5 -36.5s9 -29 9 -45c0 -30.667 -11 -57.667 -33 -81
c-20.667 -22.667 -47 -34 -79 -34zM124.002 188h172l-25 -355h-137z" />
    <glyph glyph-name="less" unicode="&#x3c;" horiz-adv-x="563" 
d="M38 292v177l487 270v-211l-262 -148l261 -148v-210z" />
    <glyph glyph-name="equal" unicode="=" horiz-adv-x="1072" 
d="M242 653h588v-198h-588v198zM242 376h588v-198h-588v198z" />
    <glyph glyph-name="greater" unicode="&#x3e;" horiz-adv-x="563" 
d="M38 234l262 147l-262 148v210l487 -270v-177l-487 -270v212z" />
    <glyph glyph-name="question" unicode="?" horiz-adv-x="615" 
d="M207 446c14 -4 27.333 -6.00098 40 -6.00098c58 0 98 20.333 120 61c6.66699 11.333 10 24.333 10 39c0 21.333 -7 38.833 -21 52.5s-31.667 20.5 -53 20.5c-41.333 0 -63.666 -25 -66.999 -75h-198c1.33301 73.333 29.333 131.333 84 174
c50.667 39.333 112.334 59 185.001 59c52 0 99.333 -12.333 142 -37c46 -26.667 79.667 -62 101 -106c13.333 -30 20 -60.667 20 -92c0 -67.333 -26.667 -121.666 -80 -162.999c-18.667 -14 -40.667 -26.333 -66 -37c-4.66699 -2 -9.83398 -4 -15.501 -6
s-11.834 -4.33301 -18.501 -7v-69h-183v192zM304 -21.001c-32 0 -59.332 11.334 -81.999 34.001s-34 49.667 -34 81c0 16.667 3 32.167 9 46.5s14.167 26.666 24.5 36.999s22.666 18.5 36.999 24.5s29.5 9 45.5 9c32.667 0 60 -11.333 82 -34c22.667 -22.667 34 -50 34 -82
s-11.333 -59.333 -34 -82s-50 -34 -82 -34z" />
    <glyph glyph-name="at" unicode="@" horiz-adv-x="954" 
d="M504 -130c-128.667 0 -231.667 39.001 -309 117.001c-76.667 76.667 -115 170.667 -115 282c0 114.667 40.667 210.667 122 288c79.333 74.667 176.333 112 291 112c76 0 145 -18 207 -54c66 -37.333 114.333 -89 145 -155c19.333 -44 29 -89.667 29 -137
c0 -50.667 -11.333 -98.334 -34 -143.001c-24 -47.333 -57 -82.666 -99 -105.999c-26.667 -14.667 -55 -22 -85 -22c-35.333 0 -63 15 -83 45l-2 3l-5 -6c-31.333 -29.333 -69 -44 -113 -44c-55.333 0 -100 21.333 -134 64c-31.333 39.333 -47 86.666 -47 141.999
c0 46 10.5 86.667 31.5 122s52.5 61 94.5 77c26 10 55 15 87 15c24.667 0 43 -4 55 -12l10 -7c13.333 -9.33301 22 -14 26 -14h1l6 24h104l-30 -248c-2 -16.667 -3 -32.667 -3 -48c0 -12.667 4.33301 -19 13 -19c19.333 0 39 10.667 59 32
c34.667 36.667 52 84.334 52 143.001c0 77.333 -29 140.333 -87 189c-54.667 46 -120.667 69 -198 69c-86.667 0 -159.667 -30 -219 -90c-58.667 -58.667 -88 -131.334 -88 -218.001c0 -56.667 12.5 -108 37.5 -154s61.5 -83 109.5 -111
c44.667 -26.667 101.334 -40 170.001 -40c62.667 0 121 11.667 175 35l36 16l7 4l10 5l7 3l36 -90c-2 -2 -4 -3.33301 -6 -4s-4.66699 -2 -8 -4l-6 -2l-26 -13c-60.667 -30.667 -135.334 -46 -224.001 -46zM458 156.001c22 0 41.8301 7.33496 59.4971 22.002
s30.834 32.667 39.501 54c6 15.333 9 30.666 9 45.999v7c0 23.333 -8.66699 42.333 -26 57s-38 22 -62 22c-29.333 0 -52.666 -11.667 -69.999 -35c-15.333 -21.333 -23 -47 -23 -77c0 -24.667 5.66699 -46.334 17 -65.001c12.667 -20.667 31.334 -31 56.001 -31z" />
    <glyph glyph-name="A" unicode="A" horiz-adv-x="799" 
d="M296 750h212l283 -750h-208l-49 130h-269l-51 -130h-206zM481 279l-80 239l-82 -239h162z" />
    <glyph glyph-name="B" unicode="B" horiz-adv-x="695" 
d="M79 750h290c140.667 0 211 -65.333 211 -196c0 -42.667 -9.33301 -77.667 -28 -105c-14 -20.667 -32.333 -37 -55 -49c48 -9.33301 82.667 -25 104 -47c32.667 -33.333 49 -80 49 -140c0 -71.333 -26.667 -126 -80 -164c-45.333 -32.667 -105 -49 -179 -49h-312v750z
M309 455c61.333 0 92 24.333 92 73s-30.667 73 -92 73h-35v-146h35zM317 151c90.667 0 136 26.666 136 79.999c0 30.667 -12.333 52.334 -37 65.001c-17.333 9.33301 -51.333 14 -102 14h-40v-159h43z" />
    <glyph glyph-name="C" unicode="C" horiz-adv-x="664" 
d="M443 -20c-69.333 0 -135.667 17.333 -199 52c-64.667 36 -114 82.667 -148 140s-51 123 -51 197c0 80 21.667 153.333 65 220c44 66.667 103 115.334 177 146.001c47.333 20.667 98.666 31 153.999 31c36 0 76 -5.66699 120 -17c6.66699 -1.33301 12.5 -3 17.5 -5
l14.5 -6l11 -5c9.33301 -4 14 -10.667 14 -20v-193c0 -4.66699 -1.66699 -7 -5 -7c-0.666992 0 -3.66699 1.66699 -9 5c-14.667 14.667 -36.667 27 -66 37c-30 10.667 -57.667 16 -83 16c-44 0 -83 -10.833 -117 -32.5s-59.333 -51.834 -76 -90.501
c-10.667 -24 -16 -51 -16 -81c0 -56.667 21 -103 63 -139c39.333 -33.333 87.333 -50 144 -50c64.667 0 115.334 18.333 152.001 55c3.33301 4 6 6 8 6c4 0 6 -6.33301 6 -19v-186c0 -11.333 -9.33301 -20.333 -28 -27c-52.667 -18 -102 -27 -148 -27z" />
    <glyph glyph-name="D" unicode="D" horiz-adv-x="780" 
d="M79 750l286.997 -0.00195312c50 0 97.333 -10.167 142 -30.5s83.834 -47.833 117.501 -82.5s60.334 -74.5 80.001 -119.5s29.5 -92.5 29.5 -142.5s-9.66699 -97.667 -29 -143s-45.666 -85.166 -78.999 -119.499s-72.333 -61.666 -117 -81.999s-92.667 -30.5 -144 -30.5
h-287v750zM317.997 164.998c32 0 61.167 5 87.5 15s48.666 24 66.999 42s32.666 40 42.999 66s15.5 55 15.5 87s-5.16699 61 -15.5 87s-24.666 48 -42.999 66s-40.666 32 -66.999 42s-55.5 15 -87.5 15h-44v-420h44z" />
    <glyph glyph-name="E" unicode="E" horiz-adv-x="550" 
d="M79 750h426v-165h-231v-125h219v-165h-219v-130h231v-165h-426v750z" />
    <glyph glyph-name="F" unicode="F" horiz-adv-x="546" 
d="M79 750h429v-165h-234v-125h213v-165h-213v-295h-195v750z" />
    <glyph glyph-name="G" unicode="G" horiz-adv-x="874" 
d="M445 -27c-117.333 0 -213.667 36.6738 -289 110.007c-74 73.333 -111 169.333 -111 288c0 120 37.333 217 112 291c75.333 74 174 111 296 111c100.667 0 182.334 -28.333 245.001 -85c11.333 -10.667 22.5 -22.834 33.5 -36.501s21.833 -28.834 32.5 -45.501l11.5 -20
l13.5 -24l-185 -77c-14.667 33.333 -31 58.666 -49 75.999c-29.333 29.333 -66 44 -110 44s-82.333 -13.333 -115 -40c-30 -24.667 -52 -58.334 -66 -101.001c-10 -28.667 -15 -60.334 -15 -95.001c0 -68.667 18.667 -125.334 56 -170.001c38 -44 86.667 -66 146 -66
c62 0 105.667 22.667 131 68c9.33301 16 16.333 37.333 21 64h-160v151h386c0 -66.667 -5.33301 -121.334 -16 -164.001c-20.667 -88 -65.334 -157 -134.001 -207c-64.667 -48 -142.667 -72 -234 -72z" />
    <glyph glyph-name="H" unicode="H" horiz-adv-x="829" 
d="M79 750h195v-290h281v290h195v-750h-195v309h-281v-309h-195v750z" />
    <glyph glyph-name="I" unicode="I" horiz-adv-x="353" 
d="M79 750h195v-750h-195v750z" />
    <glyph glyph-name="J" unicode="J" horiz-adv-x="555" 
d="M231 -20c-55.333 0 -103.664 16.999 -144.997 50.999c-24 20 -42.333 44 -55 72c-2.66699 4.66699 -5.33398 10.167 -8.00098 16.5l-9 22.5l149 79c7.33301 -49.333 28.666 -74 63.999 -74c11.333 0 22 3.66699 32 11s16.333 16.333 19 27c2 8 3 24.667 3 50v515h195
v-519c0 -42 -3.33301 -73 -10 -93c-8 -27.333 -23.667 -53.666 -47 -78.999c-48.667 -52.667 -111.334 -79 -188.001 -79z" />
    <glyph glyph-name="K" unicode="K" horiz-adv-x="787" 
d="M79 750h195v-309l237 309h241l-298 -355l326 -395h-253l-253 325v-325h-195v750z" />
    <glyph glyph-name="L" unicode="L" horiz-adv-x="529" 
d="M79 750h195v-585h234v-165h-429v750z" />
    <glyph glyph-name="M" unicode="M" horiz-adv-x="1030" 
d="M172 750h193l152 -400l161 400h193l114 -750h-195l-56 432l-181 -432h-78l-172 432l-64 -432h-194z" />
    <glyph glyph-name="N" unicode="N" horiz-adv-x="906" 
d="M79 750h195l358 -459v459h195v-750h-195l-358 459v-459h-195v750z" />
    <glyph glyph-name="O" unicode="O" horiz-adv-x="920" 
d="M460 -27c-116.667 0 -215.334 37.666 -296.001 112.999c-79.333 76 -119 169.333 -119 280c0 85.333 22 161.333 66 228c44.667 68 105.334 117.333 182.001 148c50 20 104.333 30 163 30c120.667 0 220.667 -37.667 300 -113s119 -170.666 119 -285.999
c0 -117.333 -40.333 -213.333 -121 -288c-79.333 -74.667 -177.333 -112 -294 -112zM460 161.999c58 0 107.669 20.667 149.002 62s62 91 62 149s-20.667 107.667 -62 149c-40.667 40.667 -90.334 61 -149.001 61c-56.667 0 -106.334 -20.667 -149.001 -62
c-41.333 -41.333 -62 -90 -62 -146c0 -60 20.333 -110.333 61 -151c41.333 -41.333 91.333 -62 150 -62z" />
    <glyph glyph-name="P" unicode="P" horiz-adv-x="674" 
d="M79 750h310c80 0 142.333 -21 187 -63c48.667 -46 73 -108 73 -186c0 -168 -84.333 -252 -253 -252h-122v-249h-195v750zM338 406c71.333 0 107 31 107 93c0 62.667 -35.333 94 -106 94h-65v-187h64z" />
    <glyph glyph-name="Q" unicode="Q" horiz-adv-x="919" 
d="M664 23c-15.333 -8.66699 -30.001 -16.1689 -44.001 -22.502s-27.667 -11.166 -41 -14.499c-30 -8 -64.667 -12 -104 -12c-152.667 0 -268 51.333 -346 154c-56 73.333 -84 155 -84 245c0 58 12.333 113.5 37 166.5s59 98.5 103 136.5c73.333 63.333 165 95 275 95
c121.333 0 220.666 -37.667 297.999 -113s116 -171.333 116 -288c0 -68 -15.667 -130.667 -47 -188c-5.33301 -10 -12.166 -21.167 -20.499 -33.5s-18.166 -26.166 -29.499 -41.499l59 -57l-111 -99zM458.999 162.998c17.333 0 37.3301 3 59.9971 9l-67 66l108 100l74 -78
c6.66699 9.33301 12.334 18.833 17.001 28.5s8.66699 19.167 12 28.5c5.33301 16 8 34 8 54c0 58 -20.667 107.667 -62 149s-90.666 62 -147.999 62c-59.333 0 -109.666 -20.667 -150.999 -62c-40.667 -40.667 -61 -90.667 -61 -150c0 -60 20 -109.667 60 -149
c40.667 -38.667 90.667 -58 150 -58z" />
    <glyph glyph-name="R" unicode="R" horiz-adv-x="705" 
d="M79 750h303c81.333 0 143 -22.333 185 -67s63 -99.667 63 -165c0 -35.333 -7.66699 -70 -23 -104c-16.667 -36 -39.667 -62.667 -69 -80c-19.333 -11.333 -43 -20.333 -71 -27l235 -307h-242l-186 288v-288h-195v750zM310 414c80 0 120 31 120 93
c0 32 -12.333 56.333 -37 73c-19.333 13.333 -47 20 -83 20h-36v-186h36z" />
    <glyph glyph-name="S" unicode="S" horiz-adv-x="643" 
d="M306 -20c-54 0 -110.668 11.998 -170.001 35.998c-14.667 6 -27.667 11.833 -39 17.5s-20.666 11.167 -27.999 16.5l-24 16l83 156c58.667 -50.667 116 -76 172 -76c26 0 47.667 5.66699 65 17c19.333 13.333 29 32.333 29 57c0 21.333 -10.333 39.333 -31 54
c-8.66699 6 -24 12.667 -46 20l-40 12l-40 12c-23.333 6.66699 -48 16.667 -74 30c-58.667 30 -88 85.667 -88 167c0 76 23.667 137 71 183c46.667 46.667 108 70 184 70c82 0 161.333 -20.333 238 -61l-78 -152c-40.667 34 -83 51 -127 51c-22 0 -40.667 -5.33301 -56 -16
c-18.667 -12 -28 -28.333 -28 -49c0 -21.333 13.667 -38.666 41 -51.999c4 -2 13.667 -5.66699 29 -11s37 -12.333 65 -21c62 -19.333 107.333 -44.333 136 -75c32 -34 48 -78.667 48 -134s-9.33301 -100.666 -28 -135.999c-23.333 -44.667 -61 -78.667 -113 -102
c-44.667 -20 -95 -30 -151 -30z" />
    <glyph glyph-name="T" unicode="T" horiz-adv-x="530" 
d="M166 585h-158v165h515v-165h-162v-585h-195v585z" />
    <glyph glyph-name="U" unicode="U" horiz-adv-x="812" 
d="M401 -20c-52.667 0 -102.002 8.66602 -148.002 25.999c-52 20 -92.167 49.167 -120.5 87.5s-45.166 87.833 -50.499 148.5c-2 22 -3 47 -3 75v433h195v-406c0 -48 1.33301 -77.333 4 -88c1.33301 -7.33301 3.33301 -15 6 -23s6.33398 -15.667 11.001 -23
c22 -38.667 58.333 -58 109 -58c53.333 0 91.333 20.333 114 61c13.333 24.667 20 68.334 20 131.001v406h195v-433c0 -52.667 -4.33301 -94 -13 -124c-10.667 -38 -30.667 -73.667 -60 -107c-62.667 -70.667 -149 -106 -259 -106z" />
    <glyph glyph-name="V" unicode="V" horiz-adv-x="802" 
d="M8 750h212l180 -456l182 456h212l-320 -750h-151z" />
    <glyph glyph-name="W" unicode="W" horiz-adv-x="1156" 
d="M8 750h203l130 -485l159 485h155l148 -485l142 485h203l-240 -750h-198l-137 434l-144 -434h-198z" />
    <glyph glyph-name="X" unicode="X" horiz-adv-x="807" 
d="M301 400l-240 350h240l112 -195l116 195h239l-244 -350l283 -400h-235l-161 244l-168 -244h-235z" />
    <glyph glyph-name="Y" unicode="Y" horiz-adv-x="747" 
d="M271 360l-271 390h233l142 -204l136 204h236l-281 -390v-360h-195v360z" />
    <glyph glyph-name="Z" unicode="Z" horiz-adv-x="710" 
d="M370 585h-295v165h620l-353 -585h315v-165h-642z" />
    <glyph glyph-name="bracketleft" unicode="[" horiz-adv-x="379" 
d="M90 825h244v-105h-102v-787h102v-105h-244v997z" />
    <glyph glyph-name="backslash" unicode="\" horiz-adv-x="557" 
d="M-66 880h187l409 -995h-187z" />
    <glyph glyph-name="bracketright" unicode="]" horiz-adv-x="379" 
d="M45 -68h101v787h-101v106h244v-997h-244v104z" />
    <glyph glyph-name="asciicircum" unicode="^" horiz-adv-x="562" 
d="M164 756h235l156 -377h-185l-88 233l-89 -233h-186z" />
    <glyph glyph-name="underscore" unicode="_" horiz-adv-x="562" 
d="M0 -55h562v-123h-562v123z" />
    <glyph glyph-name="a" unicode="a" 
d="M299 -17c-75.333 0 -137.334 27.335 -186.001 82.002c-48 53.333 -72 117 -72 191c0 27.333 3.5 53.666 10.5 78.999s17.333 48.833 31 70.5s30.167 41.167 49.5 58.5s41 31.333 65 42c32 13.333 65.333 20 100 20c48.667 0 88.667 -10.333 120 -31
c10 -6.66699 23 -18.334 39 -35.001v50h180v-510h-180v56c-9.33301 -11.333 -15.666 -18.333 -18.999 -21c-34.667 -34.667 -80.667 -52 -138 -52zM344.999 139.002c32 0 59.334 11.333 82.001 34s34 50 34 82s-11.333 59.333 -34 82s-50 34 -82 34s-59.333 -11.333 -82 -34
s-34 -49.667 -34 -81c0 -16 3 -31.167 9 -45.5s14.167 -26.833 24.5 -37.5s22.666 -19 36.999 -25s29.5 -9 45.5 -9z" />
    <glyph glyph-name="b" unicode="b" 
d="M398 -16c-60 0 -106.001 17.001 -138.001 51.001l-9 9c-3.33301 3.33301 -6.66602 7.33301 -9.99902 12v-56h-180v750h180v-294c8 9.33301 16 16.666 24 21.999c35.333 29.333 80.333 44 135 44c74.667 0 136 -26.333 184 -79c48 -52 72 -115 72 -189
c0 -74.667 -24.667 -138.667 -74 -192c-48.667 -52 -110 -78 -184 -78zM352.999 138.001c31.333 0 58.334 11 81.001 33c23.333 23.333 35 50.333 35 81c0 32.667 -11.333 60 -34 82c-22.667 22.667 -50 34 -82 34c-32.667 0 -60.334 -11.333 -83.001 -34
c-22.667 -22 -34 -49 -34 -81c0 -32.667 11.333 -60 34 -82c23.333 -22 51 -33 83 -33z" />
    <glyph glyph-name="c" unicode="c" horiz-adv-x="487" 
d="M320 -17c-56.667 0 -108.165 14.332 -154.498 42.999s-80.5 68.334 -102.5 119.001c-14.667 31.333 -22 66 -22 104c0 80 28 146 84 198c54 50 120.667 75 200 75c32.667 0 61.667 -4.33301 87 -13c4.66699 -1.33301 9.66699 -3.5 15 -6.5s11.666 -6.16699 18.999 -9.5
v-152c-32 22 -63 33 -93 33c-36.667 0 -66.5 -11.333 -89.5 -34s-34.5 -52.334 -34.5 -89.001c0 -36 11.667 -65.333 35 -88s53 -34 89 -34c24 0 46.333 5.33301 67 16c5.33301 2.66699 14 8.66699 26 18v-151c-2.66699 -1.33301 -5.83398 -2.66602 -9.50098 -3.99902
s-8.16699 -3.33301 -13.5 -6c-32 -12.667 -66.333 -19 -103 -19z" />
    <glyph glyph-name="d" unicode="d" 
d="M299 -16c-74.667 0 -136.333 26.333 -185 79s-73 116.334 -73 191.001s24.333 137.667 73 189c48.667 52.667 109.667 79 183 79c48.667 0 88.667 -10.333 120 -31c10 -6.66699 23 -18.334 39 -35.001v294h180v-750h-180v56c-8.66699 -10.667 -15 -18 -19 -22
c-35.333 -33.333 -81.333 -50 -138 -50zM345.001 138c16 0 31.001 2.99902 45.001 8.99902s26.333 14.167 37 24.5s19 22.5 25 36.5s9 29 9 45s-3 31 -9 45s-14.333 26.167 -25 36.5s-23 18.5 -37 24.5s-29 9 -45 9c-32 0 -59.333 -11.333 -82 -34
c-22.667 -22 -34 -48.667 -34 -80c0 -16 3 -31.167 9 -45.5s14.167 -26.666 24.5 -36.999s22.666 -18.5 36.999 -24.5s29.5 -9 45.5 -9z" />
    <glyph glyph-name="e" unicode="e" horiz-adv-x="643" 
d="M332 -20c-88.667 0 -159.334 24.334 -212.001 73.001s-79 114 -79 196c0 83.333 25.333 149.333 76 198s120 73 208 73c86.667 0 154.334 -25 203.001 -75c49.333 -50.667 74 -119.334 74 -206.001v-19h-379c1.33301 -76 38 -114 110 -114c38 0 67.333 16 88 48h174
c-10.667 -36.667 -26 -66.667 -46 -90c-48.667 -56 -121 -84 -217 -84zM435 324.001c-14 54 -49 81 -105 81c-56.667 0 -90.667 -27 -102 -81h207z" />
    <glyph glyph-name="f" unicode="f" horiz-adv-x="388" 
d="M77 0l-0.000976562 355.999h-64v149h64v16c0 22 1 41.5 3 58.5s5.33301 32.5 10 46.5s11 27 19 39s17.667 23.667 29 35c23.333 23.333 49.166 41.333 77.499 54s58.5 19 90.5 19c14.667 0 27.667 -1.5 39 -4.5s25.333 -8.16699 42 -15.5v-157
c-15.333 7.33301 -27.666 12.333 -36.999 15s-18.666 4 -27.999 4c-12 0 -23.5 -3.5 -34.5 -10.5s-18.5 -15.167 -22.5 -24.5c-3.33301 -6 -5.5 -13.667 -6.5 -23s-1.5 -21.666 -1.5 -36.999v-15h130v-149h-130v-356h-180z" />
    <glyph glyph-name="g" unicode="g" horiz-adv-x="693" 
d="M338 -264c-100 0 -178.667 29.665 -236 88.998c-19.333 20.667 -32.333 37 -39 49c-6.66699 12.667 -12 31.334 -16 56.001h203c13.333 -34 41.666 -51 84.999 -51c38 0 67 10.667 87 32s30 51 30 89v56c-46.667 -44 -100 -66 -160 -66c-74 0 -134.667 24 -182 72
c-46 49.333 -69 110.333 -69 183c0 78.667 24.667 144.334 74 197.001c49.333 52 111.333 78 186 78c47.333 0 85.333 -10.333 114 -31c6.66699 -5.33301 19 -17.333 37 -36v53h180v-480c0 -51.333 -3.33301 -89 -10 -113c-10 -36 -29.333 -67.667 -58 -95
c-55.333 -54.667 -130.666 -82 -225.999 -82zM345 138.998c32 0 59.334 11.333 82.001 34s34 50 34 82c0 16 -3 31 -9 45s-14.333 26.167 -25 36.5s-23 18.5 -37 24.5s-29 9 -45 9c-32 0 -59.333 -11.333 -82 -34c-22.667 -22 -34 -48.667 -34 -80c0 -16 3 -31.167 9 -45.5
s14.167 -26.833 24.5 -37.5s22.666 -19 36.999 -25s29.5 -9 45.5 -9z" />
    <glyph glyph-name="h" unicode="h" horiz-adv-x="660" 
d="M61 750l179.999 -0.000976562v-308c44 50 98.667 75 164 75c61.333 0 110.333 -18.333 147 -55c31.333 -31.333 47 -78 47 -140v-322h-180v290c0 34.667 -13.333 59.334 -40 74.001c-13.333 7.33301 -27.666 11 -42.999 11c-63.333 0 -95 -34.667 -95 -104v-271h-180v750
z" />
    <glyph glyph-name="i" unicode="i" horiz-adv-x="302" 
d="M150 589c-14 0 -27.168 2.66797 -39.501 8.00098s-23.166 12.666 -32.499 21.999s-16.666 20 -21.999 32s-8 25 -8 39c0 30 9.5 54.833 28.5 74.5s43.5 29.5 73.5 29.5c14 0 27.333 -2.66699 40 -8s23.667 -12.5 33 -21.5s16.666 -19.833 21.999 -32.5s8 -26 8 -40
c0 -29.333 -10 -53.833 -30 -73.5s-44.333 -29.5 -73 -29.5zM60.999 506.001h180v-506h-180v506z" />
    <glyph glyph-name="j" unicode="j" horiz-adv-x="302" 
d="M150 589c-14 0 -27.168 2.66797 -39.501 8.00098s-23.166 12.666 -32.499 21.999s-16.666 20 -21.999 32s-8 25 -8 39c0 30 9.5 54.833 28.5 74.5s43.5 29.5 73.5 29.5c14 0 27.333 -2.66699 40 -8s23.667 -12.5 33 -21.5s16.666 -19.833 21.999 -32.5s8 -26 8 -40
c0 -29.333 -10 -53.833 -30 -73.5s-44.333 -29.5 -73 -29.5zM60.999 506.001h180v-759h-180v759z" />
    <glyph glyph-name="k" unicode="k" horiz-adv-x="694" 
d="M61 750h180v-426l189 182h247l-255 -234l270 -272h-252l-199 206v-206h-180v750z" />
    <glyph glyph-name="l" unicode="l" horiz-adv-x="302" 
d="M61 750h180v-750h-180v750z" />
    <glyph glyph-name="m" unicode="m" horiz-adv-x="986" 
d="M61 506l179.999 -0.000976562v-62c2.66699 2 5.66699 4.66699 9 8s7.66602 7.33301 12.999 12c40.667 33.333 88.667 50 144 50c75.333 0 133 -31.333 173 -94c40 63.333 97.333 95 172 95c66.667 0 115 -22.667 145 -68c18.667 -27.333 28 -66.666 28 -117.999v-329
h-180v250c0 33.333 -1.66699 55.666 -5 66.999c-7.33301 21.333 -17.166 36.333 -29.499 45s-26.166 13 -41.499 13c-22 0 -40.667 -7.66699 -56 -23s-24.333 -33.666 -27 -54.999c-2 -12 -3 -27.667 -3 -47v-250h-180v250c0 36.667 -1 59.334 -3 68.001
c-5.33301 17.333 -14.833 31.833 -28.5 43.5s-29.5 17.5 -47.5 17.5c-13.333 0 -26.833 -4.16699 -40.5 -12.5s-23.5 -18.5 -29.5 -30.5c-8.66699 -16.667 -13 -45.334 -13 -86.001v-250h-180v506z" />
    <glyph glyph-name="n" unicode="n" horiz-adv-x="660" 
d="M61 506l179.999 -0.000976562v-64c44 50 98.667 75 164 75c61.333 0 110.333 -18.333 147 -55c31.333 -31.333 47 -78 47 -140v-322h-180v290c0 34.667 -13.333 59.334 -40 74.001c-13.333 7.33301 -27.666 11 -42.999 11c-63.333 0 -95 -34.667 -95 -104v-271h-180v506z
" />
    <glyph glyph-name="o" unicode="o" horiz-adv-x="696" 
d="M348 -19c-88.667 0 -162.001 25 -220.001 75c-58 51.333 -87 115.333 -87 192c0 86 30.333 154.333 91 205c57.333 48 128.333 72 213 72c92 0 166.333 -25.333 223 -76c58 -50.667 87 -116 87 -196c0 -84.667 -31 -152 -93 -202
c-57.333 -46.667 -128.666 -70 -213.999 -70zM347.999 138c32 0 59.334 11.333 82.001 34s34 50 34 82c0 32.667 -11.333 60 -34 82c-22.667 22.667 -50 34 -82 34s-59.333 -11.333 -82 -34s-34 -49.667 -34 -81c0 -16 3 -31.167 9 -45.5s14.167 -26.833 24.5 -37.5
s22.666 -19 36.999 -25s29.5 -9 45.5 -9z" />
    <glyph glyph-name="p" unicode="p" 
d="M61 506l180 0.00292969v-56l19 22c35.333 33.333 81.333 50 138 50c74.667 0 136.334 -26.333 185.001 -79s73 -116.334 73 -191.001c0 -54.667 -13.667 -104.334 -41 -149.001s-65.333 -77.334 -114 -98.001c-30.667 -14 -64.334 -21 -101.001 -21
c-27.333 0 -53 4 -77 12c-17.333 6 -31.333 12.5 -42 19.5s-24 18.5 -40 34.5v-312h-180v768zM353 138.003c31.333 0 58.334 11 81.001 33c23.333 23.333 35 50.333 35 81c0 16 -3 31.167 -9 45.5s-14.333 26.666 -25 36.999s-23.167 18.5 -37.5 24.5s-29.5 9 -45.5 9
s-31 -3 -45 -9s-26.333 -14.167 -37 -24.5s-19 -22.5 -25 -36.5s-9 -29 -9 -45c0 -31.333 11.667 -58.666 35 -81.999c23.333 -22 50.666 -33 81.999 -33z" />
    <glyph glyph-name="q" unicode="q" 
d="M456 50l-23.0029 -23c-36.667 -28.667 -82 -43 -136 -43c-74 0 -135.333 26.333 -184 79c-48 53.333 -72 116.333 -72 189c0 76 24.333 139.667 73 191c48.667 52.667 110.334 79 185.001 79c28.667 0 55.334 -4.66699 80.001 -14c30.667 -12 56.334 -31.333 77.001 -58
v56h180v-768h-180v312zM344.997 138c16 0 31.001 2.99902 45.001 8.99902s26.333 14.167 37 24.5s19 22.5 25 36.5s9 29 9 45s-3 31 -9 45s-14.333 26.167 -25 36.5s-23 18.5 -37 24.5s-29 9 -45 9c-32 0 -59.333 -11.333 -82 -34c-22.667 -22 -34 -48.667 -34 -80
c0 -16 3 -31.167 9 -45.5s14.167 -26.666 24.5 -36.999s22.666 -18.5 36.999 -24.5s29.5 -9 45.5 -9z" />
    <glyph glyph-name="r" unicode="r" horiz-adv-x="463" 
d="M61 506h180.001v-83c17.333 26.667 34.666 45.667 51.999 57c32 22 71 33 117 33h15c2 0 4.5 -0.166992 7.5 -0.5s6.83301 -0.833008 11.5 -1.5v-170l-20 9c-16 6 -35 9 -57 9c-38 0 -68.5 -11.5 -91.5 -34.5s-34.5 -58.833 -34.5 -107.5v-217h-180v506z" />
    <glyph glyph-name="s" unicode="s" horiz-adv-x="506" 
d="M234 -19c-68.667 0 -136.667 19.667 -204 59l65 126c52.667 -34.667 100.667 -52 144 -52c14 0 26.333 3 37 9c13.333 7.33301 20 17.333 20 30c0 10 -3.5 18.167 -10.5 24.5s-19.5 11.833 -37.5 16.5l-29 6c-48 10 -83.333 23.667 -106 41
c-29.333 23.333 -44 56.666 -44 99.999c0 61.333 23.333 108.333 70 141c41.333 28 93.666 42 156.999 42c53.333 0 99 -7 137 -21c4 -1.33301 8.33301 -3 13 -5s9.66699 -4.33301 15 -7l-61 -116c-26.667 14 -53 22 -79 24c-3.33301 0.666992 -6.66602 1 -9.99902 1h-9
c-36.667 0 -55 -12 -55 -36c0 -15.333 13.667 -26.666 41 -33.999l17 -4l23 -5c44 -9.33301 76 -22 96 -38c34.667 -26.667 52 -64 52 -112c0 -89.333 -47.333 -148.333 -142 -177c-28.667 -8.66699 -62 -13 -100 -13z" />
    <glyph glyph-name="t" unicode="t" horiz-adv-x="370" 
d="M82 357h-59v149h59v152h180v-152h103v-149h-103v-357h-180v357z" />
    <glyph glyph-name="u" unicode="u" horiz-adv-x="666" 
d="M333 -22c-181.333 0 -272 69 -272 207v321h180v-287c0 -62 30.667 -93 92 -93c60.667 0 91 31 91 93v287h180v-321c0 -137.333 -90.333 -206.333 -271 -207z" />
    <glyph glyph-name="v" unicode="v" horiz-adv-x="649" 
d="M0 506h202l122 -259l123 259h202l-266 -506h-120z" />
    <glyph glyph-name="w" unicode="w" horiz-adv-x="1020" 
d="M0 506h201l122 -267l128 267h113l127 -275l129 275h200l-267 -506h-120l-128 277l-121 -277h-122z" />
    <glyph glyph-name="x" unicode="x" horiz-adv-x="738" 
d="M255 275l-207 231h234l88 -105l90 105h234l-211 -231l255 -275h-238l-131 150l-131 -150h-238z" />
    <glyph glyph-name="y" unicode="y" horiz-adv-x="684" 
d="M246 69l-246 437h209l136 -259l133 259h206l-414 -768h-202z" />
    <glyph glyph-name="z" unicode="z" horiz-adv-x="586" 
d="M263 357h-208v149h508l-238 -357h214v-149h-516z" />
    <glyph glyph-name="braceleft" unicode="{" horiz-adv-x="431" 
d="M301 -176c-55.333 0 -94.333 13.3359 -117 40.0029c-20.667 24.667 -31 65.334 -31 122.001v188c0 27.333 -3.66699 48.333 -11 63c-10 18 -27.333 29.333 -52 34v122c34.667 6.66699 54 23.667 58 51l4 26l1 9v188c0 55.333 10.667 95.666 32 120.999
c23.333 27.333 62 41 116 41h12l36 -2l37 -1v-127h-20c-28 0 -46.667 -3.66699 -56 -11c-8.66699 -6.66699 -13 -24.334 -13 -53.001v-167c0 -54.667 -10.333 -92.334 -31 -113.001c-6.66699 -6.66699 -19 -16.334 -37 -29.001c27.333 -18.667 45.333 -37.667 54 -57
c9.33301 -22 14 -50.333 14 -85v-167c0 -14 1 -25.167 3 -33.5s5.5 -14.833 10.5 -19.5s11.833 -7.66699 20.5 -9s20 -2 34 -2h21v-127z" />
    <glyph glyph-name="bar" unicode="|" horiz-adv-x="302" 
d="M61 750h180v-750h-180v750z" />
    <glyph glyph-name="braceright" unicode="}" horiz-adv-x="431" 
d="M115 -176l-22.502 -0.00195312c-7.66699 0 -16.167 0.333008 -25.5 1c-3.33301 0.666992 -6.66602 1 -9.99902 1h-12v127h21c14.667 0 26.5 0.833008 35.5 2.5s16 4.83398 21 9.50098s8.33301 11.167 10 19.5s2.5 19.5 2.5 33.5v166c0 53.333 10.333 91.333 31 114
c3.33301 3.33301 8 7.5 14 12.5s13.333 10.167 22 15.5c-26.667 18 -44.5 37.333 -53.5 58s-13.5 48.667 -13.5 84v167c0 14 -0.833008 25.167 -2.5 33.5s-5 14.833 -10 19.5s-12 7.83398 -21 9.50098s-20.5 2.5 -34.5 2.5h-8h-5.5
c-2.33301 0 -5.16602 -0.333008 -8.49902 -1v127l38 1l35 2h12c55.333 0 94.333 -13.333 117 -40c21.333 -25.333 32 -66 32 -122v-188c0 -28.667 3.66699 -49.667 11 -63c9.33301 -18 26.333 -29.333 51 -34v-122c-41.333 -9.33301 -62 -38 -62 -86v-188
c0 -56 -10.667 -96.667 -32 -122c-22.667 -26.667 -61.667 -40 -117 -40h-15z" />
    <glyph glyph-name="asciitilde" unicode="~" horiz-adv-x="750" 
d="M101 683l9 18.999l14 31c32 70.667 81 106 147 106c10 0 19 -1 27 -3c18 -2 48 -11 90 -27c6 -2 13 -4.5 21 -7.5l28 -10.5c17.333 -6 33.333 -9 48 -9c28.667 0 51.334 12 68.001 36c1.33301 2.66699 3.16602 5.83398 5.49902 9.50098l8.5 13.5l82 -48
c-7.33301 -16.667 -14.333 -31.167 -21 -43.5s-13 -22.5 -19 -30.5c-36.667 -50 -82.667 -75 -138 -75c-18 0 -41.667 5 -71 15l-74 26c-30 10 -51 15 -63 15c-10 0 -21.333 -2.66699 -34 -8c-20.667 -12.667 -36.667 -33 -48 -61z" />
    <glyph glyph-name="uni00A0" unicode="&#xa0;" horiz-adv-x="281" 
 />
    <glyph glyph-name="exclamdown" unicode="&#xa1;" horiz-adv-x="345" 
d="M171 295c-30.667 0 -56.667 10.666 -78 31.999c-22.667 22.667 -34 50.334 -34 83.001c0 30 11 56 33 78c22 22.667 49 34 81 34c30.667 0 57.334 -11.333 80.001 -34c22 -22.667 33 -49.667 33 -81c0 -29.333 -10.667 -55.333 -32 -78
c-22.667 -22.667 -50.334 -34 -83.001 -34zM73 236.999h204v-483h-204v483z" />
    <glyph glyph-name="cent" unicode="&#xa2;" horiz-adv-x="705" 
d="M360 126c-50 9.33301 -91.001 24.332 -123.001 44.999c-81.333 53.333 -122 134 -122 242v33c0 8.66699 0.333008 14.667 1 18s1.83398 8 3.50098 14s3.83398 13 6.50098 21c18.667 51.333 48 91.333 88 120c42.667 30.667 92 46 148 46h5l2 98h54v-103
c33.333 -6 67.666 -17 102.999 -33l-1 -160c-34.667 22 -69.667 35 -105 39l-3 -216c40 0.666992 75.333 11.334 106 32.001l-2 -168c-27.333 -16.667 -63 -26 -107 -28v-135h-54v135zM364.999 497.999c-40.667 -20 -61 -52.002 -61 -96.002c0 -30 9.33301 -54.667 28 -74
c4 -5.33301 8.66699 -9.66602 14 -12.999s11 -6.66602 17 -9.99902z" />
    <glyph glyph-name="sterling" unicode="&#xa3;" horiz-adv-x="683" 
d="M474 -16c-22.667 0 -50.002 4.3291 -82.002 12.9961c-13.333 4.66699 -30.333 9.66699 -51 15l-73 19c-22 4 -39.667 6 -53 6c-34 0 -55 -12.333 -63 -37h-129c2 8 5 18 9 30l14 42c30.667 66 79.667 100.667 147 104c6.66699 14 10 26.333 10 37
c0 25.333 -6.66699 50.333 -20 75h-149v95h82c-19.333 36.667 -29 76 -29 118c0 28 4.66699 56.667 14 86c39.333 117.333 133.666 176 282.999 176c94 0 162.333 -23.167 205 -69.5s64 -117.166 64 -212.499h-197c3.33301 14.667 5 26.334 5 35.001
c0 26 -8.83301 48.167 -26.5 66.5s-39.5 27.5 -65.5 27.5c-30 0 -53.167 -10.167 -69.5 -30.5s-24.5 -45.5 -24.5 -75.5c0 -28.667 6 -58.667 18 -90c2.66699 -4.66699 5.33398 -9.66699 8.00098 -15l7 -16h168v-95h-141l3.5 -37.5c1 -10.333 1.5 -19.166 1.5 -26.499
c0 -18 -3 -37.667 -9 -59l26 -8c15.333 -4.66699 27.333 -8.16699 36 -10.5s14.334 -3.83301 17.001 -4.5c34 -10 60.667 -15 80 -15c32 0 48.333 16.333 49 49h121c-3.33301 -59.333 -20 -105.666 -50 -138.999c-33.333 -35.333 -78.666 -53 -135.999 -53z" />
    <glyph glyph-name="currency" unicode="&#xa4;" horiz-adv-x="892" 
d="M614 131c-48.667 -28.667 -97.667 -43.001 -147 -43.001c-16.667 0 -31.667 1.33301 -45 4c-38 7.33301 -74.333 20.333 -109 39l-117 -115l-106 104l117 118c-24.667 46.667 -37 94 -37 142c0 46.667 14 96 42 148l-121 119l107 107l123 -123
c24 12.667 45.333 21.667 64 27c25.333 7.33301 51.333 11 78 11c30 0 57.333 -4 82 -12c7.33301 -2.66699 16 -6 26 -10s21 -9 33 -15l120 121l107 -106l-118 -117c28.667 -50.667 43 -100.667 43 -150c0 -25.333 -3.33301 -51 -10 -77c-4 -15.333 -13 -36.666 -27 -63.999
l117 -117l-106 -107zM463 245.999c36.667 0 68 13 94 39c26.667 26 40 58 40 96s-13.333 70 -40 96c-24.667 26 -56 39 -94 39c-36.667 0 -68 -13 -94 -39s-39 -58 -39 -96s13.333 -70 40 -96c25.333 -26 56.333 -39 93 -39z" />
    <glyph glyph-name="yen" unicode="&#xa5;" horiz-adv-x="701" 
d="M256 213h-159v134h159l-24 60h-161v134h78l-123 206h220l109 -223l111 223h209l-124 -206h80v-134h-161l-26 -60h160v-134h-162v-213h-186v213z" />
    <glyph glyph-name="brokenbar" unicode="&#xa6;" horiz-adv-x="306" 
d="M62 769h195v-316h-195v316zM62 316h195v-316h-195v316z" />
    <glyph glyph-name="section" unicode="&#xa7;" horiz-adv-x="659" 
d="M335 -180c-130.667 0 -205 70.6689 -223 212.002l-1 8h160v-8c0 -54.667 23 -82 69 -82c20 0 36.667 6.33301 50 19s20 29 20 49c0 33.333 -19.667 58 -59 74l-45 15.5l-63 22.5c-35.333 12.667 -65.666 31 -90.999 55c-37.333 37.333 -56 85.333 -56 144
c0 56 16 100.333 48 133c13.333 13.333 32 27.333 56 42l5 3c0.666992 0.666992 -15 14.667 -47 42c-10.667 8.66699 -19 25.334 -25 50.001c-5.33301 21.333 -8 40.333 -8 57c0 56 22 100.333 66 133c39.333 29.333 87.333 44 144 44c70.667 0 126.334 -17.5 167.001 -52.5
s61 -84.833 61 -149.5v-9h-156c-0.666992 1.33301 -1 4 -1 8c-2.66699 50.667 -24.667 76 -66 76c-16.667 0 -31.5 -5.66699 -44.5 -17s-19.5 -25.333 -19.5 -42c0 -12.667 5.66699 -25.334 17 -38.001c3.33301 -4.66699 9.16602 -9.33398 17.499 -14.001
s18.833 -9.66699 31.5 -15c11.333 -5.33301 25.5 -11.666 42.5 -18.999l59.5 -25c39.333 -18.667 69.333 -38.667 90 -60c34.667 -34.667 52 -77.334 52 -128.001c0 -42.667 -9.66699 -79.667 -29 -111c-6.66699 -10.667 -13 -18.334 -19 -23.001l-64 -50l-2 -4
c0 -3.33301 15.333 -15.333 46 -36c11.333 -7.33301 20.666 -22 27.999 -44c7.33301 -24 11 -47 11 -69c0 -42 -12.333 -78.167 -37 -108.5s-57 -52.833 -97 -67.5c-26.667 -10 -56 -15 -88 -15zM340 250.002c22.667 0 42.001 8 58.001 24s24 35.333 24 58
s-7.83301 42 -23.5 58s-34.834 24 -57.501 24c-23.333 0 -43 -7.83301 -59 -23.5s-24 -35.167 -24 -58.5c0 -22.667 8 -42 24 -58s35.333 -24 58 -24z" />
    <glyph glyph-name="copyright" unicode="&#xa9;" horiz-adv-x="855" 
d="M428 -17c-108.667 0 -201 38.335 -277 115.002c-75.333 77.333 -113 169.666 -113 276.999c0 106.667 37.667 198.667 113 276c76 77.333 167 116 273 116c110 0 203 -38.333 279 -115s114 -169.334 114 -278.001c0 -108 -38.333 -200.333 -115 -277
c-76 -76 -167.333 -114 -274 -114zM428 53.002c87.333 0 161.333 32.334 222 97.001c59.333 63.333 89 138.333 89 225c0 87.333 -30 162.333 -90 225c-58.667 64 -130.667 96 -216 96c-90 0 -165.333 -31.333 -226 -94s-91 -138.334 -91 -227.001
c0 -64.667 17 -123.667 51 -177c35.333 -54 82 -93.667 140 -119c38.667 -17.333 79 -26 121 -26zM449 138.003c-50 0 -95.334 12.334 -136.001 37.001c-42.667 25.333 -73.667 60.333 -93 105c-12.667 28 -19 58.667 -19 92c0 68 24.333 124.333 73 169
c49.333 45.333 107.333 68 174 68c38 0 75 -7.33301 111 -22l5 -2v-161l-13 15c-26 30 -58.667 45 -98 45c-32.667 0 -59.334 -10.333 -80.001 -31s-31 -47.334 -31 -80.001s10.333 -59.167 31 -79.5s47.334 -30.5 80.001 -30.5c36.667 0 69.334 14.333 98.001 43l13 13
v-157l-5 -2l-13 -4c-38.667 -12 -71 -18 -97 -18z" />
    <glyph glyph-name="ordfeminine" unicode="&#xaa;" 
d="M299 -17c-75.333 0 -137.334 27.335 -186.001 82.002c-48 53.333 -72 117 -72 191c0 27.333 3.5 53.666 10.5 78.999s17.333 48.833 31 70.5s30.167 41.167 49.5 58.5s41 31.333 65 42c32 13.333 65.333 20 100 20c48.667 0 88.667 -10.333 120 -31
c10 -6.66699 23 -18.334 39 -35.001v50h180v-510h-180v56c-9.33301 -11.333 -15.666 -18.333 -18.999 -21c-34.667 -34.667 -80.667 -52 -138 -52zM344.999 139.002c32 0 59.334 11.333 82.001 34s34 50 34 82s-11.333 59.333 -34 82s-50 34 -82 34s-59.333 -11.333 -82 -34
s-34 -49.667 -34 -81c0 -16 3 -31.167 9 -45.5s14.167 -26.833 24.5 -37.5s22.666 -19 36.999 -25s29.5 -9 45.5 -9z" />
    <glyph glyph-name="guillemotleft" unicode="&#xab;" horiz-adv-x="332" 
d="M305 84l-103 -72l-171 245l171 244l100 -69l-125 -175z" />
    <glyph glyph-name="logicalnot" unicode="&#xac;" horiz-adv-x="563" 
d="M317 148h-279v187h487v-335h-208v148z" />
    <glyph glyph-name="uni00AD" unicode="&#xad;" horiz-adv-x="253" 
d="M0 303h253v-133h-253v133z" />
    <glyph glyph-name="registered" unicode="&#xae;" horiz-adv-x="855" 
d="M428 -17c-108.667 0 -201 38.335 -277 115.002c-75.333 77.333 -113 169.666 -113 276.999c0 106.667 37.667 198.667 113 276c76 77.333 167 116 273 116c110 0 203 -38.333 279 -115s114 -169.334 114 -278.001c0 -108 -38.333 -200.333 -115 -277
c-76 -76 -167.333 -114 -274 -114zM428 53.002c87.333 0 161.333 32.334 222 97.001c59.333 63.333 89 138.333 89 225c0 87.333 -30 162.333 -90 225c-58.667 64 -130.667 96 -216 96c-90 0 -165.333 -31.333 -226 -94s-91 -138.334 -91 -227.001
c0 -64.667 17 -123.667 51 -177c35.333 -54 82 -93.667 140 -119c38.667 -17.333 79 -26 121 -26zM230 600.003l196.001 0.00195312c46.667 0 84.667 -11.667 114 -35c31.333 -25.333 47 -61 47 -107c0 -21.333 -5 -42.333 -15 -63s-23.333 -36.334 -40 -47.001
c-10.667 -6.66699 -24.334 -12.334 -41.001 -17.001l149 -181h-170l-104 150v-150h-136v450zM381.001 405.005c44.667 0 67 15.667 67 47c0 30.667 -22.333 46 -67 46h-15v-93h15z" />
    <glyph glyph-name="degree" unicode="&#xb0;" horiz-adv-x="675" 
d="M337 461c-40.667 0 -75.666 14.667 -104.999 44s-44 64.333 -44 105c0 42 14.667 77.667 44 107s64.666 44 105.999 44c42 0 77.333 -15 106 -45c29.333 -29.333 44 -64.333 44 -105c0 -42 -15 -77.667 -45 -107c-28.667 -28.667 -64 -43 -106 -43zM337.001 540
c20 0 37 7 51 21s21 31 21 51s-7 36.833 -21 50.5s-31 20.5 -51 20.5c-19.333 0 -36 -7 -50 -21s-21 -30.667 -21 -50c0 -20 6.83301 -37 20.5 -51s30.5 -21 50.5 -21z" />
    <glyph glyph-name="plusminus" unicode="&#xb1;" horiz-adv-x="705" 
d="M307 331h-202v118h202v207h127v-207h203v-118h-203v-207h-127v207zM105 74h532v-118h-532v118z" />
    <glyph glyph-name="uni00B2" unicode="&#xb2;" horiz-adv-x="375" 
d="M115 662c14.667 15.333 29.668 32.3311 45.001 50.998s27.666 35 36.999 49c16 24.667 24 47.334 24 68.001c0 14 -4.33301 25.833 -13 35.5s-19.667 14.5 -33 14.5c-12 0 -21.833 -4.5 -29.5 -13.5s-11.5 -20.5 -11.5 -34.5v-6.5c0 -2.33301 0.333008 -5.5 1 -9.5h-112
c0 29.333 7.33301 56.333 22 81c12.667 22.667 30.167 40 52.5 52s48.166 18 77.499 18c22 0 42.333 -3.5 61 -10.5s34.834 -16.667 48.501 -29s24.167 -27.166 31.5 -44.499s11 -36.333 11 -57c0 -23.333 -4.66699 -44.333 -14 -63s-24.333 -37.667 -45 -57l-66 -62h129
v-86h-315z" />
    <glyph glyph-name="uni00B3" unicode="&#xb3;" horiz-adv-x="398" 
d="M186 528c-64 0 -111.328 26.333 -141.995 79c-6.66699 12 -11.334 22.667 -14.001 32s-4.33398 20 -5.00098 32h104c3.33301 -36.667 22 -55 56 -55c15.333 0 28 4.83301 38 14.5s15 21.834 15 36.501c0 15.333 -5.16699 28 -15.5 38s-22.833 15 -37.5 15
c-3.33301 0 -6.16602 -0.166992 -8.49902 -0.5s-5.5 -1.16602 -9.5 -2.49902v70l12 -1c13.333 0 23.833 4 31.5 12s11.5 18.667 11.5 32c0 11.333 -3.66699 20.666 -11 27.999s-17 11 -29 11c-26 0 -39.667 -15 -41 -45h-95c1.33301 14.667 3.66602 26.834 6.99902 36.501
s7.66602 19.167 12.999 28.5c11.333 20 28 35.667 50 47s47 17 75 17c38 0 68.5 -10.333 91.5 -31s34.5 -48 34.5 -82c0 -36 -14 -63.333 -42 -82c9.33301 -3.33301 16.5 -6.5 21.5 -9.5s10.167 -7.83301 15.5 -14.5c18 -21.333 27 -47 27 -77
c0 -18.667 -3.66699 -35.834 -11 -51.501s-17.833 -29.334 -31.5 -41.001s-29.834 -20.667 -48.501 -27s-39.334 -9.5 -62.001 -9.5z" />
    <glyph glyph-name="uni00B5" unicode="&#xb5;" horiz-adv-x="560" 
d="M24 538l175 0.000976562v-270c0 -39.333 3.33301 -65.666 10 -78.999c16 -34.667 40.667 -52 74 -52c28 0 48 10.667 60 32c12.667 21.333 19 54.666 19 99.999v269h174v-538h-174v62c-8.66699 -22.667 -18 -39.334 -28 -50.001c-14 -14.667 -32 -22 -54 -22
c-21.333 0 -39 7 -53 21c-10 9.33301 -19.333 22.333 -28 39v-243h-175v731z" />
    <glyph glyph-name="paragraph" unicode="&#xb6;" horiz-adv-x="644" 
d="M208 361h-13c-92 0 -153.667 37.667 -185 113c-10 23.333 -15 49.333 -15 78c0 56 16.667 101.333 50 136c41.333 41.333 111 62 209 62h375v-111h-82v-743h-123v743h-93v-743h-123v465z" />
    <glyph glyph-name="periodcentered" unicode="&#xb7;" horiz-adv-x="135" 
d="M67 317c-18.667 0 -33.999 6.33301 -45.999 19c-14 13.333 -21 30 -21 50c0 18.667 6.66699 34.667 20 48c12 12.667 27.667 19 47 19s35.666 -6.66699 48.999 -20c13.333 -12.667 20 -28 20 -46c0 -19.333 -6.66699 -36.333 -20 -51c-14.667 -12.667 -31 -19 -49 -19z
" />
    <glyph glyph-name="uni00B9" unicode="&#xb9;" horiz-adv-x="268" 
d="M87 864h-56v86h158v-392h-102v306z" />
    <glyph glyph-name="ordmasculine" unicode="&#xba;" horiz-adv-x="696" 
d="M348 -19c-88.667 0 -162.001 25 -220.001 75c-58 51.333 -87 115.333 -87 192c0 86 30.333 154.333 91 205c57.333 48 128.333 72 213 72c92 0 166.333 -25.333 223 -76c58 -50.667 87 -116 87 -196c0 -84.667 -31 -152 -93 -202
c-57.333 -46.667 -128.666 -70 -213.999 -70zM347.999 138c32 0 59.334 11.333 82.001 34s34 50 34 82c0 32.667 -11.333 60 -34 82c-22.667 22.667 -50 34 -82 34s-59.333 -11.333 -82 -34s-34 -49.667 -34 -81c0 -16 3 -31.167 9 -45.5s14.167 -26.833 24.5 -37.5
s22.666 -19 36.999 -25s29.5 -9 45.5 -9z" />
    <glyph glyph-name="guillemotright" unicode="&#xbb;" horiz-adv-x="332" 
d="M318 257l-171 -245l-102 72l128 173l-125 175l99 69z" />
    <glyph glyph-name="onequarter" unicode="&#xbc;" horiz-adv-x="743" 
d="M78 3l444 769l60 -34l-445 -769zM87 664h-56v86h158v-392h-102v306zM574 81h-190v65l151 246h133v-233h48v-78h-48v-81h-94v81zM574 159v151l-92 -151h92z" />
    <glyph glyph-name="onehalf" unicode="&#xbd;" horiz-adv-x="767" 
d="M78 3l444 769l60 -34l-445 -769zM87 664h-56v86h158v-392h-102v306zM507 104c14.667 15.333 29.668 32.3311 45.001 50.998s27.666 35 36.999 49c16 24.667 24 47.334 24 68.001c0 14 -4.33301 25.833 -13 35.5s-19.667 14.5 -33 14.5c-12 0 -21.833 -4.5 -29.5 -13.5
s-11.5 -20.5 -11.5 -34.5v-6.5c0 -2.33301 0.333008 -5.5 1 -9.5h-112c0 29.333 7.33301 56.333 22 81c12.667 22.667 30.167 40 52.5 52s48.166 18 77.499 18c22 0 42.333 -3.5 61 -10.5s34.834 -16.667 48.501 -29s24.167 -27.166 31.5 -44.499s11 -36.333 11 -57
c0 -23.333 -4.66699 -44.333 -14 -63s-24.333 -37.667 -45 -57l-66 -62h129v-86h-315z" />
    <glyph glyph-name="threequarters" unicode="&#xbe;" horiz-adv-x="873" 
d="M208 3l444 769l60 -34l-445 -769zM186 328c-64 0 -111.328 26.333 -141.995 79c-6.66699 12 -11.334 22.667 -14.001 32s-4.33398 20 -5.00098 32h104c3.33301 -36.667 22 -55 56 -55c15.333 0 28 4.83301 38 14.5s15 21.834 15 36.501c0 15.333 -5.16699 28 -15.5 38
s-22.833 15 -37.5 15c-3.33301 0 -6.16602 -0.166992 -8.49902 -0.5s-5.5 -1.16602 -9.5 -2.49902v70l12 -1c13.333 0 23.833 4 31.5 12s11.5 18.667 11.5 32c0 11.333 -3.66699 20.666 -11 27.999s-17 11 -29 11c-26 0 -39.667 -15 -41 -45h-95
c1.33301 14.667 3.66602 26.834 6.99902 36.501s7.66602 19.167 12.999 28.5c11.333 20 28 35.667 50 47s47 17 75 17c38 0 68.5 -10.333 91.5 -31s34.5 -48 34.5 -82c0 -36 -14 -63.333 -42 -82c9.33301 -3.33301 16.5 -6.5 21.5 -9.5s10.167 -7.83301 15.5 -14.5
c18 -21.333 27 -47 27 -77c0 -18.667 -3.66699 -35.834 -11 -51.501s-17.833 -29.334 -31.5 -41.001s-29.834 -20.667 -48.501 -27s-39.334 -9.5 -62.001 -9.5zM704.005 81h-190v65l151 246h133v-233h48v-78h-48v-81h-94v81zM704.005 159v151l-92 -151h92z" />
    <glyph glyph-name="questiondown" unicode="&#xbf;" horiz-adv-x="565" 
d="M304 369c-16 0 -31.168 3.00098 -45.501 9.00098s-26.666 14.333 -36.999 25s-18.5 23 -24.5 37s-9 29.333 -9 46c0 16 3 31.167 9 45.5s14.167 26.666 24.5 36.999s22.666 18.5 36.999 24.5s29.5 9 45.5 9c32.667 0 60.334 -11.333 83.001 -34s34 -50 34 -82
c0 -32.667 -11.667 -60.667 -35 -84c-22.667 -22 -50 -33 -82 -33zM301.999 -189.999c-53.333 0 -101.333 12.332 -144 36.999c-46 26.667 -79.333 62.334 -100 107.001c-14 28.667 -21 60 -21 94c0 57.333 20.333 105 61 143c18 17.333 44 33.666 78 48.999
c5.33301 2.66699 11.5 5.33398 18.5 8.00098l22.5 9v72h183v-188h-34c-36.667 0 -67.334 -7.33301 -92.001 -22c-30 -18 -45 -44 -45 -78c0 -21.333 7 -39 21 -53s31.667 -21 53 -21c40.667 0 63.667 25.667 69 77h198c-1.33301 -19.333 -3.66602 -36.5 -6.99902 -51.5
s-7.33301 -27.833 -12 -38.5c-21.333 -48 -55.333 -84.333 -102 -109c-43.333 -23.333 -92.333 -35 -147 -35z" />
    <glyph glyph-name="Agrave" unicode="&#xc0;" horiz-adv-x="799" 
d="M271 981l116 82l141 -173l-83 -61zM296 750h212l283 -750h-208l-49 130h-269l-51 -130h-206zM481 279l-80 239l-82 -239h162z" />
    <glyph glyph-name="Aacute" unicode="&#xc1;" horiz-adv-x="799" 
d="M311 890l141 173l115 -82l-172 -152zM296 750h212l283 -750h-208l-49 130h-269l-51 -130h-206zM481 279l-80 239l-82 -239h162z" />
    <glyph glyph-name="Acircumflex" unicode="&#xc2;" horiz-adv-x="799" 
d="M621 916l-67 -77l-127 98l-126 -98l-71 77l197 145zM296 750h212l283 -750h-208l-49 130h-269l-51 -130h-206zM481 279l-80 239l-82 -239h162z" />
    <glyph glyph-name="Atilde" unicode="&#xc3;" horiz-adv-x="799" 
d="M211 871c0 60.667 21.332 102.667 63.999 126c13.333 6.66699 27 10 41 10s33.333 -2.66699 58 -8l28 -8c9.33301 -2.66699 19 -5 29 -7c21.333 -6 33.666 -9 36.999 -9c16 0 28 11.333 36 34h84c-5.33301 -42.667 -16.666 -76.667 -33.999 -102
c-22.667 -32.667 -53 -49 -91 -49c-13.333 0 -25 1.66699 -35 5c-28 9.33301 -50.5 16.5 -67.5 21.5s-29.5 7.5 -37.5 7.5c-13.333 0 -22.666 -8.33301 -27.999 -25l-3 -9h-81v13zM295.999 750h212l283 -750h-208l-49 130h-269l-51 -130h-206zM480.999 279l-80 239l-82 -239
h162z" />
    <glyph glyph-name="Adieresis" unicode="&#xc4;" horiz-adv-x="799" 
d="M283 854c-22 0 -41.001 8.00195 -57.001 24.002s-24 34.667 -24 56c0 23.333 7.83301 42.833 23.5 58.5s34.834 23.5 57.501 23.5s41.834 -7.83301 57.501 -23.5s23.5 -34.834 23.5 -57.501s-7.83301 -41.834 -23.5 -57.501s-34.834 -23.5 -57.501 -23.5z
M516.999 854.002c-22.667 0 -41.835 8.00195 -57.502 24.002s-23.5 34.667 -23.5 56c0 23.333 7.83301 42.833 23.5 58.5s34.834 23.5 57.501 23.5s41.834 -7.83301 57.501 -23.5s23.5 -34.834 23.5 -57.501s-8 -41.834 -24 -57.501s-35 -23.5 -57 -23.5zM295.998 750.004
h212l283 -750h-208l-49 130h-269l-51 -130h-206zM480.998 279.004l-80 239l-82 -239h162z" />
    <glyph glyph-name="Aring" unicode="&#xc5;" horiz-adv-x="799" 
d="M399 818c-43.333 0 -78.332 8.33301 -104.999 25c-32.667 20.667 -49 50.667 -49 90c0 41.333 16 72 48 92c27.333 17.333 62.666 26 105.999 26c44 0 79.333 -8.33301 106 -25c32.667 -20.667 49 -51.334 49 -92.001c0 -39.333 -16.667 -69.666 -50 -90.999
c-26.667 -16.667 -61.667 -25 -105 -25zM400.001 889c39.333 0 59 15 59 45s-20 45 -60 45s-60 -14.667 -60 -44c0 -30.667 20.333 -46 61 -46zM296.001 750h212l283 -750h-208l-49 130h-269l-51 -130h-206zM481.001 279l-80 239l-82 -239h162z" />
    <glyph glyph-name="AE" unicode="&#xc6;" horiz-adv-x="1038" 
d="M296 750h459l60 -165h-245l46 -126h245l63 -165h-248l49 -129h246l59 -165h-451l-49 131h-270l-46 -131h-206zM478 278l-80 224l-85 -224h165z" />
    <glyph glyph-name="Ccedilla" unicode="&#xc7;" horiz-adv-x="664" 
d="M443 -20c-69.333 0 -135.667 17.333 -199 52c-64.667 36 -114 82.667 -148 140s-51 123 -51 197c0 80 21.667 153.333 65 220c44 66.667 103 115.334 177 146.001c47.333 20.667 98.666 31 153.999 31c36 0 76 -5.66699 120 -17c6.66699 -1.33301 12.5 -3 17.5 -5
l14.5 -6l11 -5c9.33301 -4 14 -10.667 14 -20v-193c0 -4.66699 -1.66699 -7 -5 -7c-0.666992 0 -3.66699 1.66699 -9 5c-14.667 14.667 -36.667 27 -66 37c-30 10.667 -57.667 16 -83 16c-44 0 -83 -10.833 -117 -32.5s-59.333 -51.834 -76 -90.501
c-10.667 -24 -16 -51 -16 -81c0 -56.667 21 -103 63 -139c39.333 -33.333 87.333 -50 144 -50c64.667 0 115.334 18.333 152.001 55c3.33301 4 6 6 8 6c4 0 6 -6.33301 6 -19v-186c0 -11.333 -9.33301 -20.333 -28 -27c-52.667 -18 -102 -27 -148 -27zM263.999 -218l132 161
l103 -67l-154 -145z" />
    <glyph glyph-name="Egrave" unicode="&#xc8;" horiz-adv-x="550" 
d="M161 981l116 82l141 -173l-83 -61zM79 750h426v-165h-231v-125h219v-165h-219v-130h231v-165h-426v750z" />
    <glyph glyph-name="Eacute" unicode="&#xc9;" horiz-adv-x="550" 
d="M201 890l141 173l115 -82l-172 -152zM79 750h426v-165h-231v-125h219v-165h-219v-130h231v-165h-426v750z" />
    <glyph glyph-name="Ecircumflex" unicode="&#xca;" horiz-adv-x="550" 
d="M511 916l-67 -77l-127 98l-126 -98l-71 77l197 145zM79 750h426v-165h-231v-125h219v-165h-219v-130h231v-165h-426v750z" />
    <glyph glyph-name="Edieresis" unicode="&#xcb;" horiz-adv-x="550" 
d="M173 854c-22 0 -41.001 8.00195 -57.001 24.002s-24 34.667 -24 56c0 23.333 7.83301 42.833 23.5 58.5s34.834 23.5 57.501 23.5s41.834 -7.83301 57.501 -23.5s23.5 -34.834 23.5 -57.501s-7.83301 -41.834 -23.5 -57.501s-34.834 -23.5 -57.501 -23.5z
M406.999 854.002c-22.667 0 -41.835 8.00195 -57.502 24.002s-23.5 34.667 -23.5 56c0 23.333 7.83301 42.833 23.5 58.5s34.834 23.5 57.501 23.5s41.834 -7.83301 57.501 -23.5s23.5 -34.834 23.5 -57.501s-8 -41.834 -24 -57.501s-35 -23.5 -57 -23.5zM78.998 750.004
h426v-165h-231v-125h219v-165h-219v-130h231v-165h-426v750z" />
    <glyph glyph-name="Igrave" unicode="&#xcc;" horiz-adv-x="353" 
d="M48 981l116 82l141 -173l-83 -61zM79 750h195v-750h-195v750z" />
    <glyph glyph-name="Iacute" unicode="&#xcd;" horiz-adv-x="353" 
d="M88 890l141 173l115 -82l-172 -152zM79 750h195v-750h-195v750z" />
    <glyph glyph-name="Icircumflex" unicode="&#xce;" horiz-adv-x="353" 
d="M398 916l-67 -77l-127 98l-126 -98l-71 77l197 145zM79 750h195v-750h-195v750z" />
    <glyph glyph-name="Idieresis" unicode="&#xcf;" horiz-adv-x="353" 
d="M60 854c-22 0 -41.001 8.00195 -57.001 24.002s-24 34.667 -24 56c0 23.333 7.83301 42.833 23.5 58.5s34.834 23.5 57.501 23.5s41.834 -7.83301 57.501 -23.5s23.5 -34.834 23.5 -57.501s-7.83301 -41.834 -23.5 -57.501s-34.834 -23.5 -57.501 -23.5zM293.999 854.002
c-22.667 0 -41.835 8.00195 -57.502 24.002s-23.5 34.667 -23.5 56c0 23.333 7.83301 42.833 23.5 58.5s34.834 23.5 57.501 23.5s41.834 -7.83301 57.501 -23.5s23.5 -34.834 23.5 -57.501s-8 -41.834 -24 -57.501s-35 -23.5 -57 -23.5zM78.998 750.004h195v-750h-195v750z
" />
    <glyph glyph-name="Eth" unicode="&#xd0;" horiz-adv-x="780" 
d="M366 750c50 0 97.3301 -10.1689 141.997 -30.502s83.834 -47.833 117.501 -82.5s60.334 -74.5 80.001 -119.5s29.5 -92.5 29.5 -142.5s-9.66699 -97.667 -29 -143s-45.666 -85.166 -78.999 -119.499s-72.333 -61.666 -117 -81.999s-92.667 -30.5 -144 -30.5h-287v310h-54
v131h54v309h287zM317.997 164.998c32 0 61.167 5 87.5 15s48.666 24 66.999 42s32.666 40 42.999 66s15.5 55 15.5 87s-5.16699 61 -15.5 87s-24.666 48 -42.999 66s-40.666 32 -66.999 42s-55.5 15 -87.5 15h-44v-144h149v-131h-149v-145h44z" />
    <glyph glyph-name="Ntilde" unicode="&#xd1;" horiz-adv-x="906" 
d="M264 871c0 60.667 21.332 102.667 63.999 126c13.333 6.66699 27 10 41 10s33.333 -2.66699 58 -8l28 -8c9.33301 -2.66699 19 -5 29 -7c21.333 -6 33.666 -9 36.999 -9c16 0 28 11.333 36 34h84c-5.33301 -42.667 -16.666 -76.667 -33.999 -102
c-22.667 -32.667 -53 -49 -91 -49c-13.333 0 -25 1.66699 -35 5c-28 9.33301 -50.5 16.5 -67.5 21.5s-29.5 7.5 -37.5 7.5c-13.333 0 -22.666 -8.33301 -27.999 -25l-3 -9h-81v13zM78.999 750h195l358 -459v459h195v-750h-195l-358 459v-459h-195v750z" />
    <glyph glyph-name="Ograve" unicode="&#xd2;" horiz-adv-x="920" 
d="M331 981l116 82l141 -173l-83 -61zM460 -27c-116.667 0 -215.334 37.666 -296.001 112.999c-79.333 76 -119 169.333 -119 280c0 85.333 22 161.333 66 228c44.667 68 105.334 117.333 182.001 148c50 20 104.333 30 163 30c120.667 0 220.667 -37.667 300 -113
s119 -170.666 119 -285.999c0 -117.333 -40.333 -213.333 -121 -288c-79.333 -74.667 -177.333 -112 -294 -112zM460 161.999c58 0 107.669 20.667 149.002 62s62 91 62 149s-20.667 107.667 -62 149c-40.667 40.667 -90.334 61 -149.001 61
c-56.667 0 -106.334 -20.667 -149.001 -62c-41.333 -41.333 -62 -90 -62 -146c0 -60 20.333 -110.333 61 -151c41.333 -41.333 91.333 -62 150 -62z" />
    <glyph glyph-name="Oacute" unicode="&#xd3;" horiz-adv-x="920" 
d="M371 890l141 173l115 -82l-172 -152zM460 -27c-116.667 0 -215.334 37.666 -296.001 112.999c-79.333 76 -119 169.333 -119 280c0 85.333 22 161.333 66 228c44.667 68 105.334 117.333 182.001 148c50 20 104.333 30 163 30c120.667 0 220.667 -37.667 300 -113
s119 -170.666 119 -285.999c0 -117.333 -40.333 -213.333 -121 -288c-79.333 -74.667 -177.333 -112 -294 -112zM460 161.999c58 0 107.669 20.667 149.002 62s62 91 62 149s-20.667 107.667 -62 149c-40.667 40.667 -90.334 61 -149.001 61
c-56.667 0 -106.334 -20.667 -149.001 -62c-41.333 -41.333 -62 -90 -62 -146c0 -60 20.333 -110.333 61 -151c41.333 -41.333 91.333 -62 150 -62z" />
    <glyph glyph-name="Ocircumflex" unicode="&#xd4;" horiz-adv-x="920" 
d="M681 916l-67 -77l-127 98l-126 -98l-71 77l197 145zM460 -27c-116.667 0 -215.334 37.666 -296.001 112.999c-79.333 76 -119 169.333 -119 280c0 85.333 22 161.333 66 228c44.667 68 105.334 117.333 182.001 148c50 20 104.333 30 163 30
c120.667 0 220.667 -37.667 300 -113s119 -170.666 119 -285.999c0 -117.333 -40.333 -213.333 -121 -288c-79.333 -74.667 -177.333 -112 -294 -112zM460 161.999c58 0 107.669 20.667 149.002 62s62 91 62 149s-20.667 107.667 -62 149
c-40.667 40.667 -90.334 61 -149.001 61c-56.667 0 -106.334 -20.667 -149.001 -62c-41.333 -41.333 -62 -90 -62 -146c0 -60 20.333 -110.333 61 -151c41.333 -41.333 91.333 -62 150 -62z" />
    <glyph glyph-name="Otilde" unicode="&#xd5;" horiz-adv-x="920" 
d="M271 871c0 60.667 21.332 102.667 63.999 126c13.333 6.66699 27 10 41 10s33.333 -2.66699 58 -8l28 -8c9.33301 -2.66699 19 -5 29 -7c21.333 -6 33.666 -9 36.999 -9c16 0 28 11.333 36 34h84c-5.33301 -42.667 -16.666 -76.667 -33.999 -102
c-22.667 -32.667 -53 -49 -91 -49c-13.333 0 -25 1.66699 -35 5c-28 9.33301 -50.5 16.5 -67.5 21.5s-29.5 7.5 -37.5 7.5c-13.333 0 -22.666 -8.33301 -27.999 -25l-3 -9h-81v13zM459.999 -27c-116.667 0 -215.334 37.666 -296.001 112.999
c-79.333 76 -119 169.333 -119 280c0 85.333 22 161.333 66 228c44.667 68 105.334 117.333 182.001 148c50 20 104.333 30 163 30c120.667 0 220.667 -37.667 300 -113s119 -170.666 119 -285.999c0 -117.333 -40.333 -213.333 -121 -288
c-79.333 -74.667 -177.333 -112 -294 -112zM459.999 161.999c58 0 107.669 20.667 149.002 62s62 91 62 149s-20.667 107.667 -62 149c-40.667 40.667 -90.334 61 -149.001 61c-56.667 0 -106.334 -20.667 -149.001 -62c-41.333 -41.333 -62 -90 -62 -146
c0 -60 20.333 -110.333 61 -151c41.333 -41.333 91.333 -62 150 -62z" />
    <glyph glyph-name="Odieresis" unicode="&#xd6;" horiz-adv-x="920" 
d="M343 854c-22 0 -41.001 8.00195 -57.001 24.002s-24 34.667 -24 56c0 23.333 7.83301 42.833 23.5 58.5s34.834 23.5 57.501 23.5s41.834 -7.83301 57.501 -23.5s23.5 -34.834 23.5 -57.501s-7.83301 -41.834 -23.5 -57.501s-34.834 -23.5 -57.501 -23.5z
M576.999 854.002c-22.667 0 -41.835 8.00195 -57.502 24.002s-23.5 34.667 -23.5 56c0 23.333 7.83301 42.833 23.5 58.5s34.834 23.5 57.501 23.5s41.834 -7.83301 57.501 -23.5s23.5 -34.834 23.5 -57.501s-8 -41.834 -24 -57.501s-35 -23.5 -57 -23.5zM459.998 -26.9961
c-116.667 0 -215.334 37.666 -296.001 112.999c-79.333 76 -119 169.333 -119 280c0 85.333 22 161.333 66 228c44.667 68 105.334 117.333 182.001 148c50 20 104.333 30 163 30c120.667 0 220.667 -37.667 300 -113s119 -170.666 119 -285.999
c0 -117.333 -40.333 -213.333 -121 -288c-79.333 -74.667 -177.333 -112 -294 -112zM459.998 162.003c58 0 107.669 20.667 149.002 62s62 91 62 149s-20.667 107.667 -62 149c-40.667 40.667 -90.334 61 -149.001 61c-56.667 0 -106.334 -20.667 -149.001 -62
c-41.333 -41.333 -62 -90 -62 -146c0 -60 20.333 -110.333 61 -151c41.333 -41.333 91.333 -62 150 -62z" />
    <glyph glyph-name="multiply" unicode="&#xd7;" horiz-adv-x="1111" 
d="M199 150l224 229l-234 229l144 147l234 -229l226 230l153 -150l-226 -230l233 -229l-144 -146l-233 228l-224 -229z" />
    <glyph glyph-name="Oslash" unicode="&#xd8;" horiz-adv-x="923" 
d="M44 68l74 70.999c-48.667 70.667 -73 146.667 -73 228c0 76.667 18.333 146.334 55 209.001c34 59.333 81 106 141 140c64.667 37.333 136.667 56 216 56c88 0 169.333 -23.333 244 -70l87 84l99 -111l-80 -77c45.333 -69.333 68 -144.333 68 -225
c0 -113.333 -38.333 -207.333 -115 -282c-40.667 -40 -87 -69.667 -139 -89s-105.333 -29 -160 -29c-83.333 0 -161.333 21.667 -234 65l-84 -81zM555 560.999c-31.333 14.667 -63 22.001 -95 22.001c-57.333 0 -107.333 -20.667 -150 -62
c-40.667 -40.667 -61 -89.334 -61 -146.001c0 -31.333 6.66699 -61.333 20 -90zM459 162c59.333 0 109.334 20.333 150.001 61c41.333 41.333 62 91 62 149c0 27.333 -5 54 -15 80l-282 -272c27.333 -12 55.666 -18 84.999 -18z" />
    <glyph glyph-name="Ugrave" unicode="&#xd9;" horiz-adv-x="812" 
d="M277 981l116 82l141 -173l-83 -61zM401 -20c-52.667 0 -102.002 8.66602 -148.002 25.999c-52 20 -92.167 49.167 -120.5 87.5s-45.166 87.833 -50.499 148.5c-2 22 -3 47 -3 75v433h195v-406c0 -48 1.33301 -77.333 4 -88c1.33301 -7.33301 3.33301 -15 6 -23
s6.33398 -15.667 11.001 -23c22 -38.667 58.333 -58 109 -58c53.333 0 91.333 20.333 114 61c13.333 24.667 20 68.334 20 131.001v406h195v-433c0 -52.667 -4.33301 -94 -13 -124c-10.667 -38 -30.667 -73.667 -60 -107c-62.667 -70.667 -149 -106 -259 -106z" />
    <glyph glyph-name="Uacute" unicode="&#xda;" horiz-adv-x="812" 
d="M317 890l141 173l115 -82l-172 -152zM401 -20c-52.667 0 -102.002 8.66602 -148.002 25.999c-52 20 -92.167 49.167 -120.5 87.5s-45.166 87.833 -50.499 148.5c-2 22 -3 47 -3 75v433h195v-406c0 -48 1.33301 -77.333 4 -88c1.33301 -7.33301 3.33301 -15 6 -23
s6.33398 -15.667 11.001 -23c22 -38.667 58.333 -58 109 -58c53.333 0 91.333 20.333 114 61c13.333 24.667 20 68.334 20 131.001v406h195v-433c0 -52.667 -4.33301 -94 -13 -124c-10.667 -38 -30.667 -73.667 -60 -107c-62.667 -70.667 -149 -106 -259 -106z" />
    <glyph glyph-name="Ucircumflex" unicode="&#xdb;" horiz-adv-x="812" 
d="M627 916l-67 -77l-127 98l-126 -98l-71 77l197 145zM401 -20c-52.667 0 -102.002 8.66602 -148.002 25.999c-52 20 -92.167 49.167 -120.5 87.5s-45.166 87.833 -50.499 148.5c-2 22 -3 47 -3 75v433h195v-406c0 -48 1.33301 -77.333 4 -88
c1.33301 -7.33301 3.33301 -15 6 -23s6.33398 -15.667 11.001 -23c22 -38.667 58.333 -58 109 -58c53.333 0 91.333 20.333 114 61c13.333 24.667 20 68.334 20 131.001v406h195v-433c0 -52.667 -4.33301 -94 -13 -124c-10.667 -38 -30.667 -73.667 -60 -107
c-62.667 -70.667 -149 -106 -259 -106z" />
    <glyph glyph-name="Udieresis" unicode="&#xdc;" horiz-adv-x="812" 
d="M289 854c-22 0 -41.001 8.00195 -57.001 24.002s-24 34.667 -24 56c0 23.333 7.83301 42.833 23.5 58.5s34.834 23.5 57.501 23.5s41.834 -7.83301 57.501 -23.5s23.5 -34.834 23.5 -57.501s-7.83301 -41.834 -23.5 -57.501s-34.834 -23.5 -57.501 -23.5z
M522.999 854.002c-22.667 0 -41.835 8.00195 -57.502 24.002s-23.5 34.667 -23.5 56c0 23.333 7.83301 42.833 23.5 58.5s34.834 23.5 57.501 23.5s41.834 -7.83301 57.501 -23.5s23.5 -34.834 23.5 -57.501s-8 -41.834 -24 -57.501s-35 -23.5 -57 -23.5zM400.998 -19.9961
c-52.667 0 -102.002 8.66602 -148.002 25.999c-52 20 -92.167 49.167 -120.5 87.5s-45.166 87.833 -50.499 148.5c-2 22 -3 47 -3 75v433h195v-406c0 -48 1.33301 -77.333 4 -88c1.33301 -7.33301 3.33301 -15 6 -23s6.33398 -15.667 11.001 -23
c22 -38.667 58.333 -58 109 -58c53.333 0 91.333 20.333 114 61c13.333 24.667 20 68.334 20 131.001v406h195v-433c0 -52.667 -4.33301 -94 -13 -124c-10.667 -38 -30.667 -73.667 -60 -107c-62.667 -70.667 -149 -106 -259 -106z" />
    <glyph glyph-name="Yacute" unicode="&#xdd;" horiz-adv-x="747" 
d="M285 890l141 173l115 -82l-172 -152zM271 360l-271 390h233l142 -204l136 204h236l-281 -390v-360h-195v360z" />
    <glyph glyph-name="Thorn" unicode="&#xde;" horiz-adv-x="674" 
d="M576 564c48.667 -46 73 -108 73 -186c0 -168 -84.333 -252 -253 -252h-122v-126h-195v750h195v-123h115c80 0 142.333 -21 187 -63zM338 283c71.333 0 107 31 107 93c0 62.667 -35.333 94 -106 94h-65v-187h64z" />
    <glyph glyph-name="germandbls" unicode="&#xdf;" horiz-adv-x="674" 
d="M530 406c71.333 -24.667 107.001 -86.332 107.001 -184.999c0 -80.667 -25.833 -139.834 -77.5 -177.501s-134.5 -56.5 -248.5 -56.5v153c19.333 0 36.666 0.833008 51.999 2.5s28.666 5.33398 39.999 11.001s20 14 26 25s9 26.5 9 46.5s-2.83301 35.667 -8.5 47
s-14 19.833 -25 25.5s-24.333 9.16699 -40 10.5s-33.5 2.33301 -53.5 3v145c66 1.33301 99 28.666 99 81.999c0 23.333 -6.66699 42 -20 56s-31.666 21 -54.999 21c-52 0 -78 -30.333 -78 -91v-524h-180v356h-64v149h64v27c0 158.667 85.667 238 257 238
c166 0 249 -74.667 249 -224c0 -66 -17.667 -112.667 -53 -140z" />
    <glyph glyph-name="agrave" unicode="&#xe0;" 
d="M220 737l116 82l141 -173l-83 -61zM299 -17c-75.333 0 -137.334 27.335 -186.001 82.002c-48 53.333 -72 117 -72 191c0 27.333 3.5 53.666 10.5 78.999s17.333 48.833 31 70.5s30.167 41.167 49.5 58.5s41 31.333 65 42c32 13.333 65.333 20 100 20
c48.667 0 88.667 -10.333 120 -31c10 -6.66699 23 -18.334 39 -35.001v50h180v-510h-180v56c-9.33301 -11.333 -15.666 -18.333 -18.999 -21c-34.667 -34.667 -80.667 -52 -138 -52zM344.999 139.002c32 0 59.334 11.333 82.001 34s34 50 34 82s-11.333 59.333 -34 82
s-50 34 -82 34s-59.333 -11.333 -82 -34s-34 -49.667 -34 -81c0 -16 3 -31.167 9 -45.5s14.167 -26.833 24.5 -37.5s22.666 -19 36.999 -25s29.5 -9 45.5 -9z" />
    <glyph glyph-name="aacute" unicode="&#xe1;" 
d="M260 646l141 173l115 -82l-172 -152zM299 -17c-75.333 0 -137.334 27.335 -186.001 82.002c-48 53.333 -72 117 -72 191c0 27.333 3.5 53.666 10.5 78.999s17.333 48.833 31 70.5s30.167 41.167 49.5 58.5s41 31.333 65 42c32 13.333 65.333 20 100 20
c48.667 0 88.667 -10.333 120 -31c10 -6.66699 23 -18.334 39 -35.001v50h180v-510h-180v56c-9.33301 -11.333 -15.666 -18.333 -18.999 -21c-34.667 -34.667 -80.667 -52 -138 -52zM344.999 139.002c32 0 59.334 11.333 82.001 34s34 50 34 82s-11.333 59.333 -34 82
s-50 34 -82 34s-59.333 -11.333 -82 -34s-34 -49.667 -34 -81c0 -16 3 -31.167 9 -45.5s14.167 -26.833 24.5 -37.5s22.666 -19 36.999 -25s29.5 -9 45.5 -9z" />
    <glyph glyph-name="acircumflex" unicode="&#xe2;" 
d="M570 672l-67 -77l-127 98l-126 -98l-71 77l197 145zM299 -17c-75.333 0 -137.334 27.335 -186.001 82.002c-48 53.333 -72 117 -72 191c0 27.333 3.5 53.666 10.5 78.999s17.333 48.833 31 70.5s30.167 41.167 49.5 58.5s41 31.333 65 42c32 13.333 65.333 20 100 20
c48.667 0 88.667 -10.333 120 -31c10 -6.66699 23 -18.334 39 -35.001v50h180v-510h-180v56c-9.33301 -11.333 -15.666 -18.333 -18.999 -21c-34.667 -34.667 -80.667 -52 -138 -52zM344.999 139.002c32 0 59.334 11.333 82.001 34s34 50 34 82s-11.333 59.333 -34 82
s-50 34 -82 34s-59.333 -11.333 -82 -34s-34 -49.667 -34 -81c0 -16 3 -31.167 9 -45.5s14.167 -26.833 24.5 -37.5s22.666 -19 36.999 -25s29.5 -9 45.5 -9z" />
    <glyph glyph-name="atilde" unicode="&#xe3;" 
d="M160 627c0 60.667 21.332 102.667 63.999 126c13.333 6.66699 27 10 41 10s33.333 -2.66699 58 -8l28 -8c9.33301 -2.66699 19 -5 29 -7c21.333 -6 33.666 -9 36.999 -9c16 0 28 11.333 36 34h84c-5.33301 -42.667 -16.666 -76.667 -33.999 -102
c-22.667 -32.667 -53 -49 -91 -49c-13.333 0 -25 1.66699 -35 5c-28 9.33301 -50.5 16.5 -67.5 21.5s-29.5 7.5 -37.5 7.5c-13.333 0 -22.666 -8.33301 -27.999 -25l-3 -9h-81v13zM298.999 -17c-75.333 0 -137.334 27.335 -186.001 82.002c-48 53.333 -72 117 -72 191
c0 27.333 3.5 53.666 10.5 78.999s17.333 48.833 31 70.5s30.167 41.167 49.5 58.5s41 31.333 65 42c32 13.333 65.333 20 100 20c48.667 0 88.667 -10.333 120 -31c10 -6.66699 23 -18.334 39 -35.001v50h180v-510h-180v56c-9.33301 -11.333 -15.666 -18.333 -18.999 -21
c-34.667 -34.667 -80.667 -52 -138 -52zM344.998 139.002c32 0 59.334 11.333 82.001 34s34 50 34 82s-11.333 59.333 -34 82s-50 34 -82 34s-59.333 -11.333 -82 -34s-34 -49.667 -34 -81c0 -16 3 -31.167 9 -45.5s14.167 -26.833 24.5 -37.5s22.666 -19 36.999 -25
s29.5 -9 45.5 -9z" />
    <glyph glyph-name="adieresis" unicode="&#xe4;" 
d="M232 610c-22 0 -41.001 8.00195 -57.001 24.002s-24 34.667 -24 56c0 23.333 7.83301 42.833 23.5 58.5s34.834 23.5 57.501 23.5s41.834 -7.83301 57.501 -23.5s23.5 -34.834 23.5 -57.501s-7.83301 -41.834 -23.5 -57.501s-34.834 -23.5 -57.501 -23.5z
M465.999 610.002c-22.667 0 -41.835 8.00195 -57.502 24.002s-23.5 34.667 -23.5 56c0 23.333 7.83301 42.833 23.5 58.5s34.834 23.5 57.501 23.5s41.834 -7.83301 57.501 -23.5s23.5 -34.834 23.5 -57.501s-8 -41.834 -24 -57.501s-35 -23.5 -57 -23.5zM298.998 -16.9961
c-75.333 0 -137.334 27.335 -186.001 82.002c-48 53.333 -72 117 -72 191c0 27.333 3.5 53.666 10.5 78.999s17.333 48.833 31 70.5s30.167 41.167 49.5 58.5s41 31.333 65 42c32 13.333 65.333 20 100 20c48.667 0 88.667 -10.333 120 -31
c10 -6.66699 23 -18.334 39 -35.001v50h180v-510h-180v56c-9.33301 -11.333 -15.666 -18.333 -18.999 -21c-34.667 -34.667 -80.667 -52 -138 -52zM344.997 139.006c32 0 59.334 11.333 82.001 34s34 50 34 82s-11.333 59.333 -34 82s-50 34 -82 34s-59.333 -11.333 -82 -34
s-34 -49.667 -34 -81c0 -16 3 -31.167 9 -45.5s14.167 -26.833 24.5 -37.5s22.666 -19 36.999 -25s29.5 -9 45.5 -9z" />
    <glyph glyph-name="aring" unicode="&#xe5;" 
d="M348 574c-43.333 0 -78.332 8.33301 -104.999 25c-32.667 20.667 -49 50.667 -49 90c0 41.333 16 72 48 92c27.333 17.333 62.666 26 105.999 26c44 0 79.333 -8.33301 106 -25c32.667 -20.667 49 -51.334 49 -92.001c0 -39.333 -16.667 -69.666 -50 -90.999
c-26.667 -16.667 -61.667 -25 -105 -25zM349.001 645c39.333 0 59 15 59 45s-20 45 -60 45s-60 -14.667 -60 -44c0 -30.667 20.333 -46 61 -46zM299.001 -17c-75.333 0 -137.334 27.335 -186.001 82.002c-48 53.333 -72 117 -72 191c0 27.333 3.5 53.666 10.5 78.999
s17.333 48.833 31 70.5s30.167 41.167 49.5 58.5s41 31.333 65 42c32 13.333 65.333 20 100 20c48.667 0 88.667 -10.333 120 -31c10 -6.66699 23 -18.334 39 -35.001v50h180v-510h-180v56c-9.33301 -11.333 -15.666 -18.333 -18.999 -21
c-34.667 -34.667 -80.667 -52 -138 -52zM345 139.002c32 0 59.334 11.333 82.001 34s34 50 34 82s-11.333 59.333 -34 82s-50 34 -82 34s-59.333 -11.333 -82 -34s-34 -49.667 -34 -81c0 -16 3 -31.167 9 -45.5s14.167 -26.833 24.5 -37.5s22.666 -19 36.999 -25
s29.5 -9 45.5 -9z" />
    <glyph glyph-name="ae" unicode="&#xe6;" horiz-adv-x="996" 
d="M664 -17c-101.333 0 -168.667 32.999 -202 98.999c-52.667 -64 -122.334 -96 -209.001 -96c-32 0 -61 3.83301 -87 11.5s-48.333 18.667 -67 33s-33 31.5 -43 51.5s-15 42.333 -15 67c0 57.333 22.333 100.333 67 129c37.333 24.667 86 37 146 37
c43.333 0 87 -8.66699 131 -26v14c0 60.667 -41 91 -123 91c-26.667 0 -57.667 -4.66699 -93 -14l-47 -15v135c54 16 104 24 150 24c76 0 131 -18.333 165 -55c3.33301 -4 7 -9 11 -15l14 -20c42 60 106.667 90 194 90c88.667 0 159 -26.667 211 -80
c44 -45.333 66.667 -118.666 68 -219.999h-381c2.66699 -76.667 41.334 -115 116.001 -115c40.667 0 68 15.667 82 47h174c-16 -58.667 -49 -103 -99 -133c-44.667 -26.667 -99 -40 -163 -40zM766.999 326.999c-17.333 55.333 -52.334 83 -105.001 83
c-42 0 -72.333 -17.333 -91 -52c-3.33301 -6 -7.66602 -16.333 -12.999 -31h209zM298.998 104.999c21.333 0 40.333 4.33398 57 13.001c22 10 33 24.333 33 43s-11.667 33 -35 43c-18 7.33301 -37.667 11 -59 11c-20 0 -37 -4 -51 -12c-18 -8.66699 -27 -22.667 -27 -42
c0 -18.667 9.33301 -33.334 28 -44.001c15.333 -8 33.333 -12 54 -12z" />
    <glyph glyph-name="ccedilla" unicode="&#xe7;" horiz-adv-x="487" 
d="M320 -17c-56.667 0 -108.165 14.332 -154.498 42.999s-80.5 68.334 -102.5 119.001c-14.667 31.333 -22 66 -22 104c0 80 28 146 84 198c54 50 120.667 75 200 75c32.667 0 61.667 -4.33301 87 -13c4.66699 -1.33301 9.66699 -3.5 15 -6.5s11.666 -6.16699 18.999 -9.5
v-152c-32 22 -63 33 -93 33c-36.667 0 -66.5 -11.333 -89.5 -34s-34.5 -52.334 -34.5 -89.001c0 -36 11.667 -65.333 35 -88s53 -34 89 -34c24 0 46.333 5.33301 67 16c5.33301 2.66699 14 8.66699 26 18v-151c-2.66699 -1.33301 -5.83398 -2.66602 -9.50098 -3.99902
s-8.16699 -3.33301 -13.5 -6c-32 -12.667 -66.333 -19 -103 -19zM159.002 -218.001l132 161l103 -67l-154 -145z" />
    <glyph glyph-name="egrave" unicode="&#xe8;" horiz-adv-x="643" 
d="M193 737l116 82l141 -173l-83 -61zM332 -20c-88.667 0 -159.334 24.334 -212.001 73.001s-79 114 -79 196c0 83.333 25.333 149.333 76 198s120 73 208 73c86.667 0 154.334 -25 203.001 -75c49.333 -50.667 74 -119.334 74 -206.001v-19h-379
c1.33301 -76 38 -114 110 -114c38 0 67.333 16 88 48h174c-10.667 -36.667 -26 -66.667 -46 -90c-48.667 -56 -121 -84 -217 -84zM435 324.001c-14 54 -49 81 -105 81c-56.667 0 -90.667 -27 -102 -81h207z" />
    <glyph glyph-name="eacute" unicode="&#xe9;" horiz-adv-x="643" 
d="M233 646l141 173l115 -82l-172 -152zM332 -20c-88.667 0 -159.334 24.334 -212.001 73.001s-79 114 -79 196c0 83.333 25.333 149.333 76 198s120 73 208 73c86.667 0 154.334 -25 203.001 -75c49.333 -50.667 74 -119.334 74 -206.001v-19h-379
c1.33301 -76 38 -114 110 -114c38 0 67.333 16 88 48h174c-10.667 -36.667 -26 -66.667 -46 -90c-48.667 -56 -121 -84 -217 -84zM435 324.001c-14 54 -49 81 -105 81c-56.667 0 -90.667 -27 -102 -81h207z" />
    <glyph glyph-name="ecircumflex" unicode="&#xea;" horiz-adv-x="643" 
d="M543 672l-67 -77l-127 98l-126 -98l-71 77l197 145zM332 -20c-88.667 0 -159.334 24.334 -212.001 73.001s-79 114 -79 196c0 83.333 25.333 149.333 76 198s120 73 208 73c86.667 0 154.334 -25 203.001 -75c49.333 -50.667 74 -119.334 74 -206.001v-19h-379
c1.33301 -76 38 -114 110 -114c38 0 67.333 16 88 48h174c-10.667 -36.667 -26 -66.667 -46 -90c-48.667 -56 -121 -84 -217 -84zM435 324.001c-14 54 -49 81 -105 81c-56.667 0 -90.667 -27 -102 -81h207z" />
    <glyph glyph-name="edieresis" unicode="&#xeb;" horiz-adv-x="643" 
d="M205 610c-22 0 -41.001 8.00195 -57.001 24.002s-24 34.667 -24 56c0 23.333 7.83301 42.833 23.5 58.5s34.834 23.5 57.501 23.5s41.834 -7.83301 57.501 -23.5s23.5 -34.834 23.5 -57.501s-7.83301 -41.834 -23.5 -57.501s-34.834 -23.5 -57.501 -23.5z
M438.999 610.002c-22.667 0 -41.835 8.00195 -57.502 24.002s-23.5 34.667 -23.5 56c0 23.333 7.83301 42.833 23.5 58.5s34.834 23.5 57.501 23.5s41.834 -7.83301 57.501 -23.5s23.5 -34.834 23.5 -57.501s-8 -41.834 -24 -57.501s-35 -23.5 -57 -23.5zM331.998 -19.9961
c-88.667 0 -159.334 24.334 -212.001 73.001s-79 114 -79 196c0 83.333 25.333 149.333 76 198s120 73 208 73c86.667 0 154.334 -25 203.001 -75c49.333 -50.667 74 -119.334 74 -206.001v-19h-379c1.33301 -76 38 -114 110 -114c38 0 67.333 16 88 48h174
c-10.667 -36.667 -26 -66.667 -46 -90c-48.667 -56 -121 -84 -217 -84zM434.998 324.005c-14 54 -49 81 -105 81c-56.667 0 -90.667 -27 -102 -81h207z" />
    <glyph glyph-name="igrave" unicode="&#xec;" horiz-adv-x="302" 
d="M22 737l116 82l141 -173l-83 -61zM61 506h180v-506h-180v506z" />
    <glyph glyph-name="iacute" unicode="&#xed;" horiz-adv-x="302" 
d="M62 646l141 173l115 -82l-172 -152zM61 506h180v-506h-180v506z" />
    <glyph glyph-name="icircumflex" unicode="&#xee;" horiz-adv-x="302" 
d="M372 672l-67 -77l-127 98l-126 -98l-71 77l197 145zM61 506h180v-506h-180v506z" />
    <glyph glyph-name="idieresis" unicode="&#xef;" horiz-adv-x="302" 
d="M54 610c-22 0 -41.001 8.00195 -57.001 24.002s-24 34.667 -24 56c0 23.333 7.83301 42.833 23.5 58.5s34.834 23.5 57.501 23.5s41.834 -7.83301 57.501 -23.5s23.5 -34.834 23.5 -57.501s-7.83301 -41.834 -23.5 -57.501s-34.834 -23.5 -57.501 -23.5zM247.999 610.002
c-22.667 0 -41.835 8.00195 -57.502 24.002s-23.5 34.667 -23.5 56c0 23.333 7.83301 42.833 23.5 58.5s34.834 23.5 57.501 23.5s41.834 -7.83301 57.501 -23.5s23.5 -34.834 23.5 -57.501s-8 -41.834 -24 -57.501s-35 -23.5 -57 -23.5zM60.998 506.004h180v-506h-180v506z
" />
    <glyph glyph-name="eth" unicode="&#xf0;" horiz-adv-x="562" 
d="M275 -9c-75.333 0 -137.665 24.001 -186.998 72.001c-48.667 48.667 -73 111 -73 187c0 68 22 124 66 168c43.333 43.333 97.666 65 162.999 65c46.667 0 86 -12 118 -36c-15.333 26 -30 45.667 -44 59c-16.667 18 -46.334 35.333 -89.001 52l-5 2l-86 -86l-80 80l33 33
h-4c-3.33301 0.666992 -7.66602 1 -12.999 1c-6.66699 1.33301 -12.667 2 -18 2l22 151c26.667 -2.66699 51.834 -6 75.501 -10s46.167 -9 67.5 -15l98 96l80 -80l-63 -60c37.333 -20.667 66.666 -40.667 87.999 -60c82.667 -74.667 124 -177.334 124 -308.001
c0 -109.333 -30.333 -192 -91 -248c-48.667 -43.333 -109.334 -65 -182.001 -65zM280.001 147.001c22.667 0 43.333 8.66699 62 26c18.667 18.667 28 42 28 70s-9 51 -27 69c-18.667 17.333 -40 26 -64 26s-44.667 -9 -62 -27c-18.667 -18 -28 -40.667 -28 -68
c0 -28 9.33301 -51.333 28 -70c17.333 -17.333 38.333 -26 63 -26z" />
    <glyph glyph-name="ntilde" unicode="&#xf1;" horiz-adv-x="660" 
d="M141 627c0 60.667 21.332 102.667 63.999 126c13.333 6.66699 27 10 41 10s33.333 -2.66699 58 -8l28 -8c9.33301 -2.66699 19 -5 29 -7c21.333 -6 33.666 -9 36.999 -9c16 0 28 11.333 36 34h84c-5.33301 -42.667 -16.666 -76.667 -33.999 -102
c-22.667 -32.667 -53 -49 -91 -49c-13.333 0 -25 1.66699 -35 5c-28 9.33301 -50.5 16.5 -67.5 21.5s-29.5 7.5 -37.5 7.5c-13.333 0 -22.666 -8.33301 -27.999 -25l-3 -9h-81v13zM60.999 506l179.999 -0.000976562v-64c44 50 98.667 75 164 75
c61.333 0 110.333 -18.333 147 -55c31.333 -31.333 47 -78 47 -140v-322h-180v290c0 34.667 -13.333 59.334 -40 74.001c-13.333 7.33301 -27.666 11 -42.999 11c-63.333 0 -95 -34.667 -95 -104v-271h-180v506z" />
    <glyph glyph-name="ograve" unicode="&#xf2;" horiz-adv-x="696" 
d="M219 737l116 82l141 -173l-83 -61zM348 -19c-88.667 0 -162.001 25 -220.001 75c-58 51.333 -87 115.333 -87 192c0 86 30.333 154.333 91 205c57.333 48 128.333 72 213 72c92 0 166.333 -25.333 223 -76c58 -50.667 87 -116 87 -196c0 -84.667 -31 -152 -93 -202
c-57.333 -46.667 -128.666 -70 -213.999 -70zM347.999 138c32 0 59.334 11.333 82.001 34s34 50 34 82c0 32.667 -11.333 60 -34 82c-22.667 22.667 -50 34 -82 34s-59.333 -11.333 -82 -34s-34 -49.667 -34 -81c0 -16 3 -31.167 9 -45.5s14.167 -26.833 24.5 -37.5
s22.666 -19 36.999 -25s29.5 -9 45.5 -9z" />
    <glyph glyph-name="oacute" unicode="&#xf3;" horiz-adv-x="696" 
d="M259 646l141 173l115 -82l-172 -152zM348 -19c-88.667 0 -162.001 25 -220.001 75c-58 51.333 -87 115.333 -87 192c0 86 30.333 154.333 91 205c57.333 48 128.333 72 213 72c92 0 166.333 -25.333 223 -76c58 -50.667 87 -116 87 -196c0 -84.667 -31 -152 -93 -202
c-57.333 -46.667 -128.666 -70 -213.999 -70zM347.999 138c32 0 59.334 11.333 82.001 34s34 50 34 82c0 32.667 -11.333 60 -34 82c-22.667 22.667 -50 34 -82 34s-59.333 -11.333 -82 -34s-34 -49.667 -34 -81c0 -16 3 -31.167 9 -45.5s14.167 -26.833 24.5 -37.5
s22.666 -19 36.999 -25s29.5 -9 45.5 -9z" />
    <glyph glyph-name="ocircumflex" unicode="&#xf4;" horiz-adv-x="696" 
d="M569 672l-67 -77l-127 98l-126 -98l-71 77l197 145zM348 -19c-88.667 0 -162.001 25 -220.001 75c-58 51.333 -87 115.333 -87 192c0 86 30.333 154.333 91 205c57.333 48 128.333 72 213 72c92 0 166.333 -25.333 223 -76c58 -50.667 87 -116 87 -196
c0 -84.667 -31 -152 -93 -202c-57.333 -46.667 -128.666 -70 -213.999 -70zM347.999 138c32 0 59.334 11.333 82.001 34s34 50 34 82c0 32.667 -11.333 60 -34 82c-22.667 22.667 -50 34 -82 34s-59.333 -11.333 -82 -34s-34 -49.667 -34 -81c0 -16 3 -31.167 9 -45.5
s14.167 -26.833 24.5 -37.5s22.666 -19 36.999 -25s29.5 -9 45.5 -9z" />
    <glyph glyph-name="otilde" unicode="&#xf5;" horiz-adv-x="696" 
d="M159 627c0 60.667 21.332 102.667 63.999 126c13.333 6.66699 27 10 41 10s33.333 -2.66699 58 -8l28 -8c9.33301 -2.66699 19 -5 29 -7c21.333 -6 33.666 -9 36.999 -9c16 0 28 11.333 36 34h84c-5.33301 -42.667 -16.666 -76.667 -33.999 -102
c-22.667 -32.667 -53 -49 -91 -49c-13.333 0 -25 1.66699 -35 5c-28 9.33301 -50.5 16.5 -67.5 21.5s-29.5 7.5 -37.5 7.5c-13.333 0 -22.666 -8.33301 -27.999 -25l-3 -9h-81v13zM347.999 -19c-88.667 0 -162.001 25 -220.001 75c-58 51.333 -87 115.333 -87 192
c0 86 30.333 154.333 91 205c57.333 48 128.333 72 213 72c92 0 166.333 -25.333 223 -76c58 -50.667 87 -116 87 -196c0 -84.667 -31 -152 -93 -202c-57.333 -46.667 -128.666 -70 -213.999 -70zM347.998 138c32 0 59.334 11.333 82.001 34s34 50 34 82
c0 32.667 -11.333 60 -34 82c-22.667 22.667 -50 34 -82 34s-59.333 -11.333 -82 -34s-34 -49.667 -34 -81c0 -16 3 -31.167 9 -45.5s14.167 -26.833 24.5 -37.5s22.666 -19 36.999 -25s29.5 -9 45.5 -9z" />
    <glyph glyph-name="odieresis" unicode="&#xf6;" horiz-adv-x="696" 
d="M231 610c-22 0 -41.001 8.00195 -57.001 24.002s-24 34.667 -24 56c0 23.333 7.83301 42.833 23.5 58.5s34.834 23.5 57.501 23.5s41.834 -7.83301 57.501 -23.5s23.5 -34.834 23.5 -57.501s-7.83301 -41.834 -23.5 -57.501s-34.834 -23.5 -57.501 -23.5z
M464.999 610.002c-22.667 0 -41.835 8.00195 -57.502 24.002s-23.5 34.667 -23.5 56c0 23.333 7.83301 42.833 23.5 58.5s34.834 23.5 57.501 23.5s41.834 -7.83301 57.501 -23.5s23.5 -34.834 23.5 -57.501s-8 -41.834 -24 -57.501s-35 -23.5 -57 -23.5zM347.998 -18.9961
c-88.667 0 -162.001 25 -220.001 75c-58 51.333 -87 115.333 -87 192c0 86 30.333 154.333 91 205c57.333 48 128.333 72 213 72c92 0 166.333 -25.333 223 -76c58 -50.667 87 -116 87 -196c0 -84.667 -31 -152 -93 -202c-57.333 -46.667 -128.666 -70 -213.999 -70z
M347.997 138.004c32 0 59.334 11.333 82.001 34s34 50 34 82c0 32.667 -11.333 60 -34 82c-22.667 22.667 -50 34 -82 34s-59.333 -11.333 -82 -34s-34 -49.667 -34 -81c0 -16 3 -31.167 9 -45.5s14.167 -26.833 24.5 -37.5s22.666 -19 36.999 -25s29.5 -9 45.5 -9z" />
    <glyph glyph-name="divide" unicode="&#xf7;" horiz-adv-x="911" 
d="M400 580c-14.667 0 -28.168 2.66309 -40.501 7.99609s-23 12.833 -32 22.5s-16.167 20.667 -21.5 33s-8 25.5 -8 39.5c0 26.667 9.66699 50.334 29 71.001c20 20.667 44 31 72 31c14.667 0 28.334 -2.66699 41.001 -8s23.667 -12.666 33 -21.999
s16.666 -20.166 21.999 -32.499s8 -25.5 8 -39.5s-2.66699 -27.333 -8 -40s-12.666 -23.667 -21.999 -33s-20.333 -16.666 -33 -21.999s-26 -8 -40 -8zM49.999 525.996h700v-230h-700v230zM398.999 34.9961c-14.667 0 -28.168 2.66602 -40.501 7.99902s-23 12.833 -32 22.5
s-16.167 20.667 -21.5 33s-8 25.5 -8 39.5s2.66699 27.167 8 39.5s12.5 23.166 21.5 32.499s19.667 16.666 32 21.999s25.5 8 39.5 8c14.667 0 28.334 -2.66699 41.001 -8s23.667 -12.666 33 -21.999s16.666 -20.166 21.999 -32.499s8 -25.5 8 -39.5
s-2.66699 -27.333 -8 -40s-12.666 -23.667 -21.999 -33s-20.333 -16.666 -33 -21.999s-26 -8 -40 -8z" />
    <glyph glyph-name="oslash" unicode="&#xf8;" horiz-adv-x="693" 
d="M52 50l42.002 42.001c-35.333 47.333 -53 99.333 -53 156c0 76.667 25.333 140.334 76 191.001c57.333 57.333 133.666 86 228.999 86c57.333 0 111 -11.667 161 -35l59 57l86 -85l-50 -48c35.333 -48.667 53 -102.334 53 -161.001
c0 -72.667 -24.667 -134.334 -74 -185.001c-28.667 -28 -62.334 -49.333 -101.001 -64c-42 -15.333 -86 -23 -132 -23c-57.333 0 -110.333 11.667 -159 35l-53 -51zM378.002 366.001c-8 2.66699 -17.666 4 -28.999 4c-32.667 0 -60.334 -11.333 -83.001 -34s-34 -50 -34 -82
c0 -9.33301 1 -18 3 -26zM346.003 138.001c33.333 0 61.333 11.333 84 34s34 50 34 82c0 8.66699 -1 17 -3 25l-142 -137c7.33301 -2.66699 16.333 -4 27 -4z" />
    <glyph glyph-name="ugrave" unicode="&#xf9;" horiz-adv-x="666" 
d="M204 737l116 82l141 -173l-83 -61zM333 -22c-181.333 0 -272 69 -272 207v321h180v-287c0 -62 30.667 -93 92 -93c60.667 0 91 31 91 93v287h180v-321c0 -137.333 -90.333 -206.333 -271 -207z" />
    <glyph glyph-name="uacute" unicode="&#xfa;" horiz-adv-x="666" 
d="M244 646l141 173l115 -82l-172 -152zM333 -22c-181.333 0 -272 69 -272 207v321h180v-287c0 -62 30.667 -93 92 -93c60.667 0 91 31 91 93v287h180v-321c0 -137.333 -90.333 -206.333 -271 -207z" />
    <glyph glyph-name="ucircumflex" unicode="&#xfb;" horiz-adv-x="666" 
d="M554 672l-67 -77l-127 98l-126 -98l-71 77l197 145zM333 -22c-181.333 0 -272 69 -272 207v321h180v-287c0 -62 30.667 -93 92 -93c60.667 0 91 31 91 93v287h180v-321c0 -137.333 -90.333 -206.333 -271 -207z" />
    <glyph glyph-name="udieresis" unicode="&#xfc;" horiz-adv-x="666" 
d="M216 610c-22 0 -41.001 8.00195 -57.001 24.002s-24 34.667 -24 56c0 23.333 7.83301 42.833 23.5 58.5s34.834 23.5 57.501 23.5s41.834 -7.83301 57.501 -23.5s23.5 -34.834 23.5 -57.501s-7.83301 -41.834 -23.5 -57.501s-34.834 -23.5 -57.501 -23.5z
M449.999 610.002c-22.667 0 -41.835 8.00195 -57.502 24.002s-23.5 34.667 -23.5 56c0 23.333 7.83301 42.833 23.5 58.5s34.834 23.5 57.501 23.5s41.834 -7.83301 57.501 -23.5s23.5 -34.834 23.5 -57.501s-8 -41.834 -24 -57.501s-35 -23.5 -57 -23.5zM332.998 -21.9961
c-181.333 0 -272 69 -272 207v321h180v-287c0 -62 30.667 -93 92 -93c60.667 0 91 31 91 93v287h180v-321c0 -137.333 -90.333 -206.333 -271 -207z" />
    <glyph glyph-name="yacute" unicode="&#xfd;" horiz-adv-x="684" 
d="M253 646l141 173l115 -82l-172 -152zM246 69l-246 437h209l136 -259l133 259h206l-414 -768h-202z" />
    <glyph glyph-name="thorn" unicode="&#xfe;" 
d="M61 750h180.002v-300l19 22c37.333 33.333 83.666 50 138.999 50c70 0 129.667 -24.667 179 -74c52 -52 78 -117.333 78 -196c0 -78 -26 -143 -78 -195c-48 -48.667 -107 -73 -177 -73c-33.333 0 -65 6 -95 18c-20.667 8 -42.334 24 -65.001 48v-312h-180v1012z
M353.002 138c32.667 0 60.334 11.333 83.001 34c22 23.333 33 50 33 80c0 32 -11.333 59.333 -34 82c-22 22.667 -49.667 34 -83 34c-32 0 -59.333 -11.333 -82 -34c-12.667 -11.333 -22.334 -27 -29.001 -47v-67c8.66699 -22.667 20 -40 34 -52c22 -20 48 -30 78 -30z" />
    <glyph glyph-name="ydieresis" unicode="&#xff;" horiz-adv-x="684" 
d="M225 610c-22 0 -41.001 8.00195 -57.001 24.002s-24 34.667 -24 56c0 23.333 7.83301 42.833 23.5 58.5s34.834 23.5 57.501 23.5s41.834 -7.83301 57.501 -23.5s23.5 -34.834 23.5 -57.501s-7.83301 -41.834 -23.5 -57.501s-34.834 -23.5 -57.501 -23.5z
M458.999 610.002c-22.667 0 -41.835 8.00195 -57.502 24.002s-23.5 34.667 -23.5 56c0 23.333 7.83301 42.833 23.5 58.5s34.834 23.5 57.501 23.5s41.834 -7.83301 57.501 -23.5s23.5 -34.834 23.5 -57.501s-8 -41.834 -24 -57.501s-35 -23.5 -57 -23.5zM245.998 69.0039
l-246 437h209l136 -259l133 259h206l-414 -768h-202z" />
    <glyph glyph-name="Amacron" unicode="&#x100;" horiz-adv-x="799" 
d="M232 980h336v-110h-336v110zM296 750h212l283 -750h-208l-49 130h-269l-51 -130h-206zM481 279l-80 239l-82 -239h162z" />
    <glyph glyph-name="amacron" unicode="&#x101;" 
d="M181 736h336v-110h-336v110zM299 -17c-75.333 0 -137.334 27.335 -186.001 82.002c-48 53.333 -72 117 -72 191c0 27.333 3.5 53.666 10.5 78.999s17.333 48.833 31 70.5s30.167 41.167 49.5 58.5s41 31.333 65 42c32 13.333 65.333 20 100 20
c48.667 0 88.667 -10.333 120 -31c10 -6.66699 23 -18.334 39 -35.001v50h180v-510h-180v56c-9.33301 -11.333 -15.666 -18.333 -18.999 -21c-34.667 -34.667 -80.667 -52 -138 -52zM344.999 139.002c32 0 59.334 11.333 82.001 34s34 50 34 82s-11.333 59.333 -34 82
s-50 34 -82 34s-59.333 -11.333 -82 -34s-34 -49.667 -34 -81c0 -16 3 -31.167 9 -45.5s14.167 -26.833 24.5 -37.5s22.666 -19 36.999 -25s29.5 -9 45.5 -9z" />
    <glyph glyph-name="Abreve" unicode="&#x102;" horiz-adv-x="799" 
d="M400 856c-54 0 -97.8311 14.833 -131.498 44.5s-51.834 71.5 -54.501 125.5h110c4 -21.333 12.333 -39.333 25 -54s29.667 -22 51 -22s38.333 7.33301 51 22s21 32.667 25 54h110c-2.66699 -54 -20.834 -95.833 -54.501 -125.5s-77.5 -44.5 -131.5 -44.5zM296.002 750
h212l283 -750h-208l-49 130h-269l-51 -130h-206zM481.002 279l-80 239l-82 -239h162z" />
    <glyph glyph-name="abreve" unicode="&#x103;" 
d="M349 612c-54 0 -97.8311 14.833 -131.498 44.5s-51.834 71.5 -54.501 125.5h110c4 -21.333 12.333 -39.333 25 -54s29.667 -22 51 -22s38.333 7.33301 51 22s21 32.667 25 54h110c-2.66699 -54 -20.834 -95.833 -54.501 -125.5s-77.5 -44.5 -131.5 -44.5zM299.002 -17
c-75.333 0 -137.334 27.335 -186.001 82.002c-48 53.333 -72 117 -72 191c0 27.333 3.5 53.666 10.5 78.999s17.333 48.833 31 70.5s30.167 41.167 49.5 58.5s41 31.333 65 42c32 13.333 65.333 20 100 20c48.667 0 88.667 -10.333 120 -31
c10 -6.66699 23 -18.334 39 -35.001v50h180v-510h-180v56c-9.33301 -11.333 -15.666 -18.333 -18.999 -21c-34.667 -34.667 -80.667 -52 -138 -52zM345.001 139.002c32 0 59.334 11.333 82.001 34s34 50 34 82s-11.333 59.333 -34 82s-50 34 -82 34s-59.333 -11.333 -82 -34
s-34 -49.667 -34 -81c0 -16 3 -31.167 9 -45.5s14.167 -26.833 24.5 -37.5s22.666 -19 36.999 -25s29.5 -9 45.5 -9z" />
    <glyph glyph-name="Aogonek" unicode="&#x104;" horiz-adv-x="799" 
d="M602 -77c0 -18.667 5.50195 -33.168 16.502 -43.501s25.833 -15.5 44.5 -15.5c8.66699 0 16.667 0.833008 24 2.5s13.666 3.5 18.999 5.5c6.66699 2.66699 12.667 5.66699 18 9l-18 -90c-7.33301 -4 -15.666 -8 -24.999 -12c-8 -2.66699 -17.333 -5.16699 -28 -7.5
s-22.334 -3.5 -35.001 -3.5c-33.333 0 -61.5 10.167 -84.5 30.5s-34.5 49.5 -34.5 87.5c0 32 8 58.333 24 79s34 37.334 54 50.001l-43 115h-269l-51 -130h-206l288 750h212l283 -750h-88c-18.667 -0.666992 -35.334 -4 -50.001 -10c-14 -5.33301 -26 -13 -36 -23
s-15 -24.667 -15 -44zM481.002 278.999l-80 239l-82 -239h162z" />
    <glyph glyph-name="aogonek" unicode="&#x105;" 
d="M596 -136c8.66699 0 16.6689 0.835938 24.002 2.50293s13.666 3.5 18.999 5.5c6.66699 2.66699 12.667 5.66699 18 9l-18 -90c-7.33301 -4 -15.666 -8 -24.999 -12c-8 -2.66699 -17.333 -5.16699 -28 -7.5s-22.334 -3.5 -35.001 -3.5c-33.333 0 -61.5 10.167 -84.5 30.5
s-34.5 49.5 -34.5 87.5c0 26 5.66699 48.167 17 66.5s24.666 34.166 39.999 47.499h-33v56c-9.33301 -11.333 -15.666 -18.333 -18.999 -21c-34.667 -34.667 -80.667 -52 -138 -52c-75.333 0 -137.333 27.333 -186 82c-48 53.333 -72 117 -72 191
c0 27.333 3.5 53.666 10.5 78.999s17.333 48.833 31 70.5s30.167 41.167 49.5 58.5s41 31.333 65 42c32 13.333 65.333 20 100 20c48.667 0 88.667 -10.333 120 -31c10 -6.66699 23 -18.334 39 -35.001v50h180v-510c-18.667 -0.666992 -35.334 -4 -50.001 -10
c-14 -5.33301 -26 -13 -36 -23s-15 -24.667 -15 -44c0 -18.667 5.5 -33.167 16.5 -43.5s25.833 -15.5 44.5 -15.5zM427.002 173.003c22.667 22.667 34.001 50 34.001 82s-11.333 59.333 -34 82s-50 34 -82 34s-59.333 -11.333 -82 -34s-34 -49.667 -34 -81
c0 -16 3 -31.167 9 -45.5s14.167 -26.833 24.5 -37.5s22.666 -19 36.999 -25s29.5 -9 45.5 -9c32 0 59.333 11.333 82 34z" />
    <glyph glyph-name="Cacute" unicode="&#x106;" horiz-adv-x="664" 
d="M329 890l141 173l115 -82l-172 -152zM443 -20c-69.333 0 -135.667 17.333 -199 52c-64.667 36 -114 82.667 -148 140s-51 123 -51 197c0 80 21.667 153.333 65 220c44 66.667 103 115.334 177 146.001c47.333 20.667 98.666 31 153.999 31c36 0 76 -5.66699 120 -17
c6.66699 -1.33301 12.5 -3 17.5 -5l14.5 -6l11 -5c9.33301 -4 14 -10.667 14 -20v-193c0 -4.66699 -1.66699 -7 -5 -7c-0.666992 0 -3.66699 1.66699 -9 5c-14.667 14.667 -36.667 27 -66 37c-30 10.667 -57.667 16 -83 16c-44 0 -83 -10.833 -117 -32.5
s-59.333 -51.834 -76 -90.501c-10.667 -24 -16 -51 -16 -81c0 -56.667 21 -103 63 -139c39.333 -33.333 87.333 -50 144 -50c64.667 0 115.334 18.333 152.001 55c3.33301 4 6 6 8 6c4 0 6 -6.33301 6 -19v-186c0 -11.333 -9.33301 -20.333 -28 -27
c-52.667 -18 -102 -27 -148 -27z" />
    <glyph glyph-name="cacute" unicode="&#x107;" horiz-adv-x="487" 
d="M204 646l141 173l115 -82l-172 -152zM320 -17c-56.667 0 -108.165 14.332 -154.498 42.999s-80.5 68.334 -102.5 119.001c-14.667 31.333 -22 66 -22 104c0 80 28 146 84 198c54 50 120.667 75 200 75c32.667 0 61.667 -4.33301 87 -13
c4.66699 -1.33301 9.66699 -3.5 15 -6.5s11.666 -6.16699 18.999 -9.5v-152c-32 22 -63 33 -93 33c-36.667 0 -66.5 -11.333 -89.5 -34s-34.5 -52.334 -34.5 -89.001c0 -36 11.667 -65.333 35 -88s53 -34 89 -34c24 0 46.333 5.33301 67 16
c5.33301 2.66699 14 8.66699 26 18v-151c-2.66699 -1.33301 -5.83398 -2.66602 -9.50098 -3.99902s-8.16699 -3.33301 -13.5 -6c-32 -12.667 -66.333 -19 -103 -19z" />
    <glyph glyph-name="Cdotaccent" unicode="&#x10a;" horiz-adv-x="664" 
d="M417 833c-14 0 -27.168 2.66797 -39.501 8.00098s-23.166 12.666 -32.499 21.999s-16.666 20 -21.999 32s-8 25 -8 39c0 30 9.5 54.833 28.5 74.5s43.5 29.5 73.5 29.5c14 0 27.333 -2.66699 40 -8s23.667 -12.5 33 -21.5s16.666 -19.833 21.999 -32.5s8 -26 8 -40
c0 -29.333 -10 -53.833 -30 -73.5s-44.333 -29.5 -73 -29.5zM442.999 -19.999c-69.333 0 -135.667 17.333 -199 52c-64.667 36 -114 82.667 -148 140s-51 123 -51 197c0 80 21.667 153.333 65 220c44 66.667 103 115.334 177 146.001c47.333 20.667 98.666 31 153.999 31
c36 0 76 -5.66699 120 -17c6.66699 -1.33301 12.5 -3 17.5 -5l14.5 -6l11 -5c9.33301 -4 14 -10.667 14 -20v-193c0 -4.66699 -1.66699 -7 -5 -7c-0.666992 0 -3.66699 1.66699 -9 5c-14.667 14.667 -36.667 27 -66 37c-30 10.667 -57.667 16 -83 16
c-44 0 -83 -10.833 -117 -32.5s-59.333 -51.834 -76 -90.501c-10.667 -24 -16 -51 -16 -81c0 -56.667 21 -103 63 -139c39.333 -33.333 87.333 -50 144 -50c64.667 0 115.334 18.333 152.001 55c3.33301 4 6 6 8 6c4 0 6 -6.33301 6 -19v-186
c0 -11.333 -9.33301 -20.333 -28 -27c-52.667 -18 -102 -27 -148 -27z" />
    <glyph glyph-name="cdotaccent" unicode="&#x10b;" horiz-adv-x="487" 
d="M292 589c-14 0 -27.168 2.66797 -39.501 8.00098s-23.166 12.666 -32.499 21.999s-16.666 20 -21.999 32s-8 25 -8 39c0 30 9.5 54.833 28.5 74.5s43.5 29.5 73.5 29.5c14 0 27.333 -2.66699 40 -8s23.667 -12.5 33 -21.5s16.666 -19.833 21.999 -32.5s8 -26 8 -40
c0 -29.333 -10 -53.833 -30 -73.5s-44.333 -29.5 -73 -29.5zM319.999 -16.999c-56.667 0 -108.165 14.332 -154.498 42.999s-80.5 68.334 -102.5 119.001c-14.667 31.333 -22 66 -22 104c0 80 28 146 84 198c54 50 120.667 75 200 75c32.667 0 61.667 -4.33301 87 -13
c4.66699 -1.33301 9.66699 -3.5 15 -6.5s11.666 -6.16699 18.999 -9.5v-152c-32 22 -63 33 -93 33c-36.667 0 -66.5 -11.333 -89.5 -34s-34.5 -52.334 -34.5 -89.001c0 -36 11.667 -65.333 35 -88s53 -34 89 -34c24 0 46.333 5.33301 67 16
c5.33301 2.66699 14 8.66699 26 18v-151c-2.66699 -1.33301 -5.83398 -2.66602 -9.50098 -3.99902s-8.16699 -3.33301 -13.5 -6c-32 -12.667 -66.333 -19 -103 -19z" />
    <glyph glyph-name="Ccaron" unicode="&#x10c;" horiz-adv-x="664" 
d="M222 979l67 77l127 -98l126 98l71 -77l-197 -145zM443 -20c-69.333 0 -135.667 17.333 -199 52c-64.667 36 -114 82.667 -148 140s-51 123 -51 197c0 80 21.667 153.333 65 220c44 66.667 103 115.334 177 146.001c47.333 20.667 98.666 31 153.999 31
c36 0 76 -5.66699 120 -17c6.66699 -1.33301 12.5 -3 17.5 -5l14.5 -6l11 -5c9.33301 -4 14 -10.667 14 -20v-193c0 -4.66699 -1.66699 -7 -5 -7c-0.666992 0 -3.66699 1.66699 -9 5c-14.667 14.667 -36.667 27 -66 37c-30 10.667 -57.667 16 -83 16
c-44 0 -83 -10.833 -117 -32.5s-59.333 -51.834 -76 -90.501c-10.667 -24 -16 -51 -16 -81c0 -56.667 21 -103 63 -139c39.333 -33.333 87.333 -50 144 -50c64.667 0 115.334 18.333 152.001 55c3.33301 4 6 6 8 6c4 0 6 -6.33301 6 -19v-186
c0 -11.333 -9.33301 -20.333 -28 -27c-52.667 -18 -102 -27 -148 -27z" />
    <glyph glyph-name="ccaron" unicode="&#x10d;" horiz-adv-x="487" 
d="M97 735l67 77l127 -98l126 98l71 -77l-197 -145zM320 -17c-56.667 0 -108.165 14.332 -154.498 42.999s-80.5 68.334 -102.5 119.001c-14.667 31.333 -22 66 -22 104c0 80 28 146 84 198c54 50 120.667 75 200 75c32.667 0 61.667 -4.33301 87 -13
c4.66699 -1.33301 9.66699 -3.5 15 -6.5s11.666 -6.16699 18.999 -9.5v-152c-32 22 -63 33 -93 33c-36.667 0 -66.5 -11.333 -89.5 -34s-34.5 -52.334 -34.5 -89.001c0 -36 11.667 -65.333 35 -88s53 -34 89 -34c24 0 46.333 5.33301 67 16
c5.33301 2.66699 14 8.66699 26 18v-151c-2.66699 -1.33301 -5.83398 -2.66602 -9.50098 -3.99902s-8.16699 -3.33301 -13.5 -6c-32 -12.667 -66.333 -19 -103 -19z" />
    <glyph glyph-name="Dcaron" unicode="&#x10e;" horiz-adv-x="780" 
d="M194 979l67 77l127 -98l126 98l71 -77l-197 -145zM79 750l286.997 -0.00195312c50 0 97.333 -10.167 142 -30.5s83.834 -47.833 117.501 -82.5s60.334 -74.5 80.001 -119.5s29.5 -92.5 29.5 -142.5s-9.66699 -97.667 -29 -143s-45.666 -85.166 -78.999 -119.499
s-72.333 -61.666 -117 -81.999s-92.667 -30.5 -144 -30.5h-287v750zM317.997 164.998c32 0 61.167 5 87.5 15s48.666 24 66.999 42s32.666 40 42.999 66s15.5 55 15.5 87s-5.16699 61 -15.5 87s-24.666 48 -42.999 66s-40.666 32 -66.999 42s-55.5 15 -87.5 15h-44v-420h44z
" />
    <glyph glyph-name="dcaron" unicode="&#x10f;" 
d="M684 547l24 206l117 -10l-67 -204zM299 -16c-74.667 0 -136.333 26.333 -185 79s-73 116.334 -73 191.001s24.333 137.667 73 189c48.667 52.667 109.667 79 183 79c48.667 0 88.667 -10.333 120 -31c10 -6.66699 23 -18.334 39 -35.001v294h180v-750h-180v56
c-8.66699 -10.667 -15 -18 -19 -22c-35.333 -33.333 -81.333 -50 -138 -50zM345.001 138c16 0 31.001 2.99902 45.001 8.99902s26.333 14.167 37 24.5s19 22.5 25 36.5s9 29 9 45s-3 31 -9 45s-14.333 26.167 -25 36.5s-23 18.5 -37 24.5s-29 9 -45 9
c-32 0 -59.333 -11.333 -82 -34c-22.667 -22 -34 -48.667 -34 -80c0 -16 3 -31.167 9 -45.5s14.167 -26.666 24.5 -36.999s22.666 -18.5 36.999 -24.5s29.5 -9 45.5 -9z" />
    <glyph glyph-name="Dcroat" unicode="&#x110;" horiz-adv-x="780" 
d="M366 750c50 0 97.3301 -10.1689 141.997 -30.502s83.834 -47.833 117.501 -82.5s60.334 -74.5 80.001 -119.5s29.5 -92.5 29.5 -142.5s-9.66699 -97.667 -29 -143s-45.666 -85.166 -78.999 -119.499s-72.333 -61.666 -117 -81.999s-92.667 -30.5 -144 -30.5h-287v310h-54
v131h54v309h287zM317.997 164.998c32 0 61.167 5 87.5 15s48.666 24 66.999 42s32.666 40 42.999 66s15.5 55 15.5 87s-5.16699 61 -15.5 87s-24.666 48 -42.999 66s-40.666 32 -66.999 42s-55.5 15 -87.5 15h-44v-144h149v-131h-149v-145h44z" />
    <glyph glyph-name="dcroat" unicode="&#x111;" 
d="M701 565h-64.999v-565h-180v56c-8.66699 -10.667 -15 -18 -19 -22c-35.333 -33.333 -81.333 -50 -138 -50c-74.667 0 -136.334 26.333 -185.001 79s-73 116.334 -73 191.001s24.333 137.667 73 189c48.667 52.667 109.667 79 183 79c48.667 0 88.667 -10.333 120 -31
c10 -6.66699 23 -18.334 39 -35.001v109h-124v120h124v65h180v-65h65v-120zM345.001 138c16 0 31.001 2.99902 45.001 8.99902s26.333 14.167 37 24.5s19 22.5 25 36.5s9 29 9 45s-3 31 -9 45s-14.333 26.167 -25 36.5s-23 18.5 -37 24.5s-29 9 -45 9
c-32 0 -59.333 -11.333 -82 -34c-22.667 -22 -34 -48.667 -34 -80c0 -16 3 -31.167 9 -45.5s14.167 -26.666 24.5 -36.999s22.666 -18.5 36.999 -24.5s29.5 -9 45.5 -9z" />
    <glyph glyph-name="Emacron" unicode="&#x112;" horiz-adv-x="550" 
d="M122 980h336v-110h-336v110zM79 750h426v-165h-231v-125h219v-165h-219v-130h231v-165h-426v750z" />
    <glyph glyph-name="emacron" unicode="&#x113;" horiz-adv-x="643" 
d="M154 736h336v-110h-336v110zM332 -20c-88.667 0 -159.334 24.334 -212.001 73.001s-79 114 -79 196c0 83.333 25.333 149.333 76 198s120 73 208 73c86.667 0 154.334 -25 203.001 -75c49.333 -50.667 74 -119.334 74 -206.001v-19h-379c1.33301 -76 38 -114 110 -114
c38 0 67.333 16 88 48h174c-10.667 -36.667 -26 -66.667 -46 -90c-48.667 -56 -121 -84 -217 -84zM435 324.001c-14 54 -49 81 -105 81c-56.667 0 -90.667 -27 -102 -81h207z" />
    <glyph glyph-name="Edotaccent" unicode="&#x116;" horiz-adv-x="550" 
d="M289 833c-14 0 -27.168 2.66797 -39.501 8.00098s-23.166 12.666 -32.499 21.999s-16.666 20 -21.999 32s-8 25 -8 39c0 30 9.5 54.833 28.5 74.5s43.5 29.5 73.5 29.5c14 0 27.333 -2.66699 40 -8s23.667 -12.5 33 -21.5s16.666 -19.833 21.999 -32.5s8 -26 8 -40
c0 -29.333 -10 -53.833 -30 -73.5s-44.333 -29.5 -73 -29.5zM78.999 750.001h426v-165h-231v-125h219v-165h-219v-130h231v-165h-426v750z" />
    <glyph glyph-name="edotaccent" unicode="&#x117;" horiz-adv-x="643" 
d="M321 589c-14 0 -27.168 2.66797 -39.501 8.00098s-23.166 12.666 -32.499 21.999s-16.666 20 -21.999 32s-8 25 -8 39c0 30 9.5 54.833 28.5 74.5s43.5 29.5 73.5 29.5c14 0 27.333 -2.66699 40 -8s23.667 -12.5 33 -21.5s16.666 -19.833 21.999 -32.5s8 -26 8 -40
c0 -29.333 -10 -53.833 -30 -73.5s-44.333 -29.5 -73 -29.5zM331.999 -19.999c-88.667 0 -159.334 24.334 -212.001 73.001s-79 114 -79 196c0 83.333 25.333 149.333 76 198s120 73 208 73c86.667 0 154.334 -25 203.001 -75c49.333 -50.667 74 -119.334 74 -206.001v-19
h-379c1.33301 -76 38 -114 110 -114c38 0 67.333 16 88 48h174c-10.667 -36.667 -26 -66.667 -46 -90c-48.667 -56 -121 -84 -217 -84zM434.999 324.002c-14 54 -49 81 -105 81c-56.667 0 -90.667 -27 -102 -81h207z" />
    <glyph glyph-name="Eogonek" unicode="&#x118;" horiz-adv-x="550" 
d="M465 -136c8.66699 0 16.6699 0.833984 24.0029 2.50098s13.666 3.5 18.999 5.5c6.66699 2.66699 12.667 5.66699 18 9l-18 -90c-7.33301 -4 -15.666 -8 -24.999 -12c-8 -2.66699 -17.333 -5.16699 -28 -7.5s-22.334 -3.5 -35.001 -3.5c-33.333 0 -61.5 10.167 -84.5 30.5
s-34.5 49.5 -34.5 87.5c0 26 5.66699 48.167 17 66.5s24.666 34.166 39.999 47.499h-279v750h426v-165h-231v-125h219v-165h-219v-130h231v-165c-18.667 -0.666992 -35.334 -4 -50.001 -10c-14 -5.33301 -26 -13 -36 -23s-15 -24.667 -15 -44
c0 -18.667 5.5 -33.167 16.5 -43.5s25.833 -15.5 44.5 -15.5z" />
    <glyph glyph-name="eogonek" unicode="&#x119;" horiz-adv-x="643" 
d="M602 220l-378.999 0.000976562c1.33301 -76 38 -114 110 -114c38 0 67.333 16 88 48h174c-10.667 -36.667 -26 -66.667 -46 -90c-10 -10.667 -19.333 -19.667 -28 -27c-12.667 -10 -26.667 -19 -42 -27c-11.333 -9.33301 -21.833 -21 -31.5 -35s-14.5 -30.667 -14.5 -50
s5.5 -34.333 16.5 -45s25.833 -16 44.5 -16c8.66699 0 16.667 0.833008 24 2.5s13.666 3.5 18.999 5.5c6.66699 2.66699 12.667 5.66699 18 9l-18 -90c-7.33301 -4 -15.666 -8 -24.999 -12c-8 -2.66699 -17.333 -5.16699 -28 -7.5s-22.334 -3.5 -35.001 -3.5
c-33.333 0 -61.5 9.83301 -84.5 29.5s-34.5 46.834 -34.5 81.501c0 22.667 5 42.667 15 60s21 31.666 33 42.999c-7.33301 -0.666992 -14.833 -1.16699 -22.5 -1.5s-15.5 -0.5 -23.5 -0.5c-88.667 0 -159.334 24.333 -212.001 73s-79 114 -79 196
c0 83.333 25.333 149.333 76 198s120 73 208 73c86.667 0 154.334 -25 203.001 -75c49.333 -50.667 74 -119.334 74 -206.001v-19zM435.001 324.001c-14 54 -49 81 -105 81c-56.667 0 -90.667 -27 -102 -81h207z" />
    <glyph glyph-name="Ecaron" unicode="&#x11a;" horiz-adv-x="550" 
d="M94 979l67 77l127 -98l126 98l71 -77l-197 -145zM79 750h426v-165h-231v-125h219v-165h-219v-130h231v-165h-426v750z" />
    <glyph glyph-name="ecaron" unicode="&#x11b;" horiz-adv-x="643" 
d="M126 735l67 77l127 -98l126 98l71 -77l-197 -145zM332 -20c-88.667 0 -159.334 24.334 -212.001 73.001s-79 114 -79 196c0 83.333 25.333 149.333 76 198s120 73 208 73c86.667 0 154.334 -25 203.001 -75c49.333 -50.667 74 -119.334 74 -206.001v-19h-379
c1.33301 -76 38 -114 110 -114c38 0 67.333 16 88 48h174c-10.667 -36.667 -26 -66.667 -46 -90c-48.667 -56 -121 -84 -217 -84zM435 324.001c-14 54 -49 81 -105 81c-56.667 0 -90.667 -27 -102 -81h207z" />
    <glyph glyph-name="Gbreve" unicode="&#x11e;" horiz-adv-x="874" 
d="M437 856c-54 0 -97.8311 14.833 -131.498 44.5s-51.834 71.5 -54.501 125.5h110c4 -21.333 12.333 -39.333 25 -54s29.667 -22 51 -22s38.333 7.33301 51 22s21 32.667 25 54h110c-2.66699 -54 -20.834 -95.833 -54.501 -125.5s-77.5 -44.5 -131.5 -44.5zM445.002 -27
c-117.333 0 -213.667 36.6738 -289 110.007c-74 73.333 -111 169.333 -111 288c0 120 37.333 217 112 291c75.333 74 174 111 296 111c100.667 0 182.334 -28.333 245.001 -85c11.333 -10.667 22.5 -22.834 33.5 -36.501s21.833 -28.834 32.5 -45.501l11.5 -20l13.5 -24
l-185 -77c-14.667 33.333 -31 58.666 -49 75.999c-29.333 29.333 -66 44 -110 44s-82.333 -13.333 -115 -40c-30 -24.667 -52 -58.334 -66 -101.001c-10 -28.667 -15 -60.334 -15 -95.001c0 -68.667 18.667 -125.334 56 -170.001c38 -44 86.667 -66 146 -66
c62 0 105.667 22.667 131 68c9.33301 16 16.333 37.333 21 64h-160v151h386c0 -66.667 -5.33301 -121.334 -16 -164.001c-20.667 -88 -65.334 -157 -134.001 -207c-64.667 -48 -142.667 -72 -234 -72z" />
    <glyph glyph-name="gbreve" unicode="&#x11f;" horiz-adv-x="693" 
d="M347 612c-54 0 -97.8311 14.833 -131.498 44.5s-51.834 71.5 -54.501 125.5h110c4 -21.333 12.333 -39.333 25 -54s29.667 -22 51 -22s38.333 7.33301 51 22s21 32.667 25 54h110c-2.66699 -54 -20.834 -95.833 -54.501 -125.5s-77.5 -44.5 -131.5 -44.5zM338.002 -264
c-100 0 -178.667 29.665 -236 88.998c-19.333 20.667 -32.333 37 -39 49c-6.66699 12.667 -12 31.334 -16 56.001h203c13.333 -34 41.666 -51 84.999 -51c38 0 67 10.667 87 32s30 51 30 89v56c-46.667 -44 -100 -66 -160 -66c-74 0 -134.667 24 -182 72
c-46 49.333 -69 110.333 -69 183c0 78.667 24.667 144.334 74 197.001c49.333 52 111.333 78 186 78c47.333 0 85.333 -10.333 114 -31c6.66699 -5.33301 19 -17.333 37 -36v53h180v-480c0 -51.333 -3.33301 -89 -10 -113c-10 -36 -29.333 -67.667 -58 -95
c-55.333 -54.667 -130.666 -82 -225.999 -82zM345.002 138.998c32 0 59.334 11.333 82.001 34s34 50 34 82c0 16 -3 31 -9 45s-14.333 26.167 -25 36.5s-23 18.5 -37 24.5s-29 9 -45 9c-32 0 -59.333 -11.333 -82 -34c-22.667 -22 -34 -48.667 -34 -80
c0 -16 3 -31.167 9 -45.5s14.167 -26.833 24.5 -37.5s22.666 -19 36.999 -25s29.5 -9 45.5 -9z" />
    <glyph glyph-name="Gdotaccent" unicode="&#x120;" horiz-adv-x="874" 
d="M436 833c-14 0 -27.168 2.66797 -39.501 8.00098s-23.166 12.666 -32.499 21.999s-16.666 20 -21.999 32s-8 25 -8 39c0 30 9.5 54.833 28.5 74.5s43.5 29.5 73.5 29.5c14 0 27.333 -2.66699 40 -8s23.667 -12.5 33 -21.5s16.666 -19.833 21.999 -32.5s8 -26 8 -40
c0 -29.333 -10 -53.833 -30 -73.5s-44.333 -29.5 -73 -29.5zM444.999 -26.999c-117.333 0 -213.667 36.6738 -289 110.007c-74 73.333 -111 169.333 -111 288c0 120 37.333 217 112 291c75.333 74 174 111 296 111c100.667 0 182.334 -28.333 245.001 -85
c11.333 -10.667 22.5 -22.834 33.5 -36.501s21.833 -28.834 32.5 -45.501l11.5 -20l13.5 -24l-185 -77c-14.667 33.333 -31 58.666 -49 75.999c-29.333 29.333 -66 44 -110 44s-82.333 -13.333 -115 -40c-30 -24.667 -52 -58.334 -66 -101.001
c-10 -28.667 -15 -60.334 -15 -95.001c0 -68.667 18.667 -125.334 56 -170.001c38 -44 86.667 -66 146 -66c62 0 105.667 22.667 131 68c9.33301 16 16.333 37.333 21 64h-160v151h386c0 -66.667 -5.33301 -121.334 -16 -164.001c-20.667 -88 -65.334 -157 -134.001 -207
c-64.667 -48 -142.667 -72 -234 -72z" />
    <glyph glyph-name="gdotaccent" unicode="&#x121;" horiz-adv-x="693" 
d="M346 589c-14 0 -27.168 2.66797 -39.501 8.00098s-23.166 12.666 -32.499 21.999s-16.666 20 -21.999 32s-8 25 -8 39c0 30 9.5 54.833 28.5 74.5s43.5 29.5 73.5 29.5c14 0 27.333 -2.66699 40 -8s23.667 -12.5 33 -21.5s16.666 -19.833 21.999 -32.5s8 -26 8 -40
c0 -29.333 -10 -53.833 -30 -73.5s-44.333 -29.5 -73 -29.5zM337.999 -263.999c-100 0 -178.667 29.665 -236 88.998c-19.333 20.667 -32.333 37 -39 49c-6.66699 12.667 -12 31.334 -16 56.001h203c13.333 -34 41.666 -51 84.999 -51c38 0 67 10.667 87 32s30 51 30 89v56
c-46.667 -44 -100 -66 -160 -66c-74 0 -134.667 24 -182 72c-46 49.333 -69 110.333 -69 183c0 78.667 24.667 144.334 74 197.001c49.333 52 111.333 78 186 78c47.333 0 85.333 -10.333 114 -31c6.66699 -5.33301 19 -17.333 37 -36v53h180v-480
c0 -51.333 -3.33301 -89 -10 -113c-10 -36 -29.333 -67.667 -58 -95c-55.333 -54.667 -130.666 -82 -225.999 -82zM344.999 138.999c32 0 59.334 11.333 82.001 34s34 50 34 82c0 16 -3 31 -9 45s-14.333 26.167 -25 36.5s-23 18.5 -37 24.5s-29 9 -45 9
c-32 0 -59.333 -11.333 -82 -34c-22.667 -22 -34 -48.667 -34 -80c0 -16 3 -31.167 9 -45.5s14.167 -26.833 24.5 -37.5s22.666 -19 36.999 -25s29.5 -9 45.5 -9z" />
    <glyph glyph-name="uni0122" unicode="&#x122;" horiz-adv-x="874" 
d="M445 -27c-117.333 0 -213.667 36.6738 -289 110.007c-74 73.333 -111 169.333 -111 288c0 120 37.333 217 112 291c75.333 74 174 111 296 111c100.667 0 182.334 -28.333 245.001 -85c11.333 -10.667 22.5 -22.834 33.5 -36.501s21.833 -28.834 32.5 -45.501l11.5 -20
l13.5 -24l-185 -77c-14.667 33.333 -31 58.666 -49 75.999c-29.333 29.333 -66 44 -110 44s-82.333 -13.333 -115 -40c-30 -24.667 -52 -58.334 -66 -101.001c-10 -28.667 -15 -60.334 -15 -95.001c0 -68.667 18.667 -125.334 56 -170.001c38 -44 86.667 -66 146 -66
c62 0 105.667 22.667 131 68c9.33301 16 16.333 37.333 21 64h-160v151h386c0 -66.667 -5.33301 -121.334 -16 -164.001c-20.667 -88 -65.334 -157 -134.001 -207c-64.667 -48 -142.667 -72 -234 -72zM356.999 -73.9932h159l-24 -208h-110z" />
    <glyph glyph-name="uni0123" unicode="&#x123;" horiz-adv-x="693" 
d="M298 853h98l22 -223h-142zM338 -264c-100 0 -178.667 29.665 -236 88.998c-19.333 20.667 -32.333 37 -39 49c-6.66699 12.667 -12 31.334 -16 56.001h203c13.333 -34 41.666 -51 84.999 -51c38 0 67 10.667 87 32s30 51 30 89v56c-46.667 -44 -100 -66 -160 -66
c-74 0 -134.667 24 -182 72c-46 49.333 -69 110.333 -69 183c0 78.667 24.667 144.334 74 197.001c49.333 52 111.333 78 186 78c47.333 0 85.333 -10.333 114 -31c6.66699 -5.33301 19 -17.333 37 -36v53h180v-480c0 -51.333 -3.33301 -89 -10 -113
c-10 -36 -29.333 -67.667 -58 -95c-55.333 -54.667 -130.666 -82 -225.999 -82zM345 138.998c32 0 59.334 11.333 82.001 34s34 50 34 82c0 16 -3 31 -9 45s-14.333 26.167 -25 36.5s-23 18.5 -37 24.5s-29 9 -45 9c-32 0 -59.333 -11.333 -82 -34
c-22.667 -22 -34 -48.667 -34 -80c0 -16 3 -31.167 9 -45.5s14.167 -26.833 24.5 -37.5s22.666 -19 36.999 -25s29.5 -9 45.5 -9z" />
    <glyph glyph-name="Hbar" unicode="&#x126;" horiz-adv-x="829" 
d="M758 325h-8v-325h-195v309h-281v-309h-195v325h-8v99h8v326h195v-290h281v290h195v-326h8v-99z" />
    <glyph glyph-name="hbar" unicode="&#x127;" horiz-adv-x="660" 
d="M552 462c31.333 -31.333 46.999 -78.001 46.999 -140.001v-322h-180v290c0 34.667 -13.333 59.334 -40 74.001c-13.333 7.33301 -27.666 11 -42.999 11c-63.333 0 -95 -34.667 -95 -104v-271h-180v565h-60v120h60v65h180v-65h129v-120h-129v-123c44 50 98.667 75 164 75
c61.333 0 110.333 -18.333 147 -55z" />
    <glyph glyph-name="Imacron" unicode="&#x12a;" horiz-adv-x="353" 
d="M29 980h297v-110h-297v110zM79 750h195v-750h-195v750z" />
    <glyph glyph-name="imacron" unicode="&#x12b;" horiz-adv-x="302" 
d="M3 736h297v-110h-297v110zM61 506h180v-506h-180v506z" />
    <glyph glyph-name="Iogonek" unicode="&#x12e;" horiz-adv-x="353" 
d="M234 -136c8.66699 0 16.6699 0.833984 24.0029 2.50098s13.666 3.5 18.999 5.5c6.66699 2.66699 12.667 5.66699 18 9l-18 -90c-7.33301 -4 -15.666 -8 -24.999 -12c-8 -2.66699 -17.333 -5.16699 -28 -7.5s-22.334 -3.5 -35.001 -3.5c-33.333 0 -61.5 10.167 -84.5 30.5
s-34.5 49.5 -34.5 87.5c0 26 5.66699 48.167 17 66.5s24.666 34.166 39.999 47.499h-48v750h195v-750c-18.667 -0.666992 -35.334 -4 -50.001 -10c-14 -5.33301 -26 -13 -36 -23s-15 -24.667 -15 -44c0 -18.667 5.5 -33.167 16.5 -43.5s25.833 -15.5 44.5 -15.5z" />
    <glyph glyph-name="iogonek" unicode="&#x12f;" horiz-adv-x="302" 
d="M150 589c-14 0 -27.168 2.66797 -39.501 8.00098s-23.166 12.666 -32.499 21.999s-16.666 20 -21.999 32s-8 25 -8 39c0 30 9.5 54.833 28.5 74.5s43.5 29.5 73.5 29.5c14 0 27.333 -2.66699 40 -8s23.667 -12.5 33 -21.5s16.666 -19.833 21.999 -32.5s8 -26 8 -40
c0 -29.333 -10 -53.833 -30 -73.5s-44.333 -29.5 -73 -29.5zM200.999 -135.999c8.66699 0 16.6699 0.833984 24.0029 2.50098s13.666 3.5 18.999 5.5c6.66699 2.66699 12.667 5.66699 18 9l-18 -90c-7.33301 -4 -15.666 -8 -24.999 -12
c-8 -2.66699 -17.333 -5.16699 -28 -7.5s-22.334 -3.5 -35.001 -3.5c-33.333 0 -61.5 10.167 -84.5 30.5s-34.5 49.5 -34.5 87.5c0 26 5.66699 48.167 17 66.5s24.666 34.166 39.999 47.499h-33v506h180v-506c-18.667 -0.666992 -35.334 -4 -50.001 -10
c-14 -5.33301 -26 -13 -36 -23s-15 -24.667 -15 -44c0 -18.667 5.5 -33.167 16.5 -43.5s25.833 -15.5 44.5 -15.5z" />
    <glyph glyph-name="Idotaccent" unicode="&#x130;" horiz-adv-x="353" 
d="M176 833c-14 0 -27.168 2.66797 -39.501 8.00098s-23.166 12.666 -32.499 21.999s-16.666 20 -21.999 32s-8 25 -8 39c0 30 9.5 54.833 28.5 74.5s43.5 29.5 73.5 29.5c14 0 27.333 -2.66699 40 -8s23.667 -12.5 33 -21.5s16.666 -19.833 21.999 -32.5s8 -26 8 -40
c0 -29.333 -10 -53.833 -30 -73.5s-44.333 -29.5 -73 -29.5zM78.999 750.001h195v-750h-195v750z" />
    <glyph glyph-name="dotlessi" unicode="&#x131;" horiz-adv-x="302" 
d="M61 506h180v-506h-180v506z" />
    <glyph glyph-name="uni0136" unicode="&#x136;" horiz-adv-x="787" 
d="M79 750h195v-309l237 309h241l-298 -355l326 -395h-253l-253 325v-325h-195v750zM314 -74h159l-24 -208h-110z" />
    <glyph glyph-name="uni0137" unicode="&#x137;" horiz-adv-x="694" 
d="M61 750h180v-426l189 182h247l-255 -234l270 -272h-252l-199 206v-206h-180v750zM267 -74h159l-24 -208h-110z" />
    <glyph glyph-name="Lacute" unicode="&#x139;" horiz-adv-x="529" 
d="M176 890l141 173l115 -82l-172 -152zM79 750h195v-585h234v-165h-429v750z" />
    <glyph glyph-name="lacute" unicode="&#x13a;" horiz-adv-x="302" 
d="M62 890l141 173l115 -82l-172 -152zM61 750h180v-750h-180v750z" />
    <glyph glyph-name="uni013B" unicode="&#x13b;" horiz-adv-x="529" 
d="M79 750h195v-585h234v-165h-429v750zM185 -74h159l-24 -208h-110z" />
    <glyph glyph-name="uni013C" unicode="&#x13c;" horiz-adv-x="302" 
d="M61 750h180v-750h-180v750zM71 -74h159l-24 -208h-110z" />
    <glyph glyph-name="Lcaron" unicode="&#x13d;" horiz-adv-x="529" 
d="M368 547l24 206l117 -10l-67 -204zM79 750h195v-585h234v-165h-429v750z" />
    <glyph glyph-name="lcaron" unicode="&#x13e;" horiz-adv-x="302" 
d="M289 547l24 206l117 -10l-67 -204zM61 750h180v-750h-180v750z" />
    <glyph glyph-name="Lslash" unicode="&#x141;" horiz-adv-x="537" 
d="M87 255l-60 -45v142l60 44v354h195v-241l106 75v-145l-106 -72v-202h234v-165h-429v255z" />
    <glyph glyph-name="lslash" unicode="&#x142;" horiz-adv-x="350" 
d="M84 232l-64 -45v145l64 42v376h180v-275l66 46v-145l-66 -43v-333h-180v232z" />
    <glyph glyph-name="Nacute" unicode="&#x143;" horiz-adv-x="906" 
d="M364 890l141 173l115 -82l-172 -152zM79 750h195l358 -459v459h195v-750h-195l-358 459v-459h-195v750z" />
    <glyph glyph-name="nacute" unicode="&#x144;" horiz-adv-x="660" 
d="M241 646l141 173l115 -82l-172 -152zM61 506l179.999 -0.000976562v-64c44 50 98.667 75 164 75c61.333 0 110.333 -18.333 147 -55c31.333 -31.333 47 -78 47 -140v-322h-180v290c0 34.667 -13.333 59.334 -40 74.001c-13.333 7.33301 -27.666 11 -42.999 11
c-63.333 0 -95 -34.667 -95 -104v-271h-180v506z" />
    <glyph glyph-name="uni0145" unicode="&#x145;" horiz-adv-x="906" 
d="M79 750h195l358 -459v459h195v-750h-195l-358 459v-459h-195v750zM373 -74h159l-24 -208h-110z" />
    <glyph glyph-name="uni0146" unicode="&#x146;" horiz-adv-x="660" 
d="M61 506l179.999 -0.000976562v-64c44 50 98.667 75 164 75c61.333 0 110.333 -18.333 147 -55c31.333 -31.333 47 -78 47 -140v-322h-180v290c0 34.667 -13.333 59.334 -40 74.001c-13.333 7.33301 -27.666 11 -42.999 11c-63.333 0 -95 -34.667 -95 -104v-271h-180v506z
M249.999 -74.001h159l-24 -208h-110z" />
    <glyph glyph-name="Ncaron" unicode="&#x147;" horiz-adv-x="906" 
d="M257 979l67 77l127 -98l126 98l71 -77l-197 -145zM79 750h195l358 -459v459h195v-750h-195l-358 459v-459h-195v750z" />
    <glyph glyph-name="ncaron" unicode="&#x148;" horiz-adv-x="660" 
d="M134 735l67 77l127 -98l126 98l71 -77l-197 -145zM61 506l179.999 -0.000976562v-64c44 50 98.667 75 164 75c61.333 0 110.333 -18.333 147 -55c31.333 -31.333 47 -78 47 -140v-322h-180v290c0 34.667 -13.333 59.334 -40 74.001
c-13.333 7.33301 -27.666 11 -42.999 11c-63.333 0 -95 -34.667 -95 -104v-271h-180v506z" />
    <glyph glyph-name="Omacron" unicode="&#x14c;" horiz-adv-x="920" 
d="M292 980h336v-110h-336v110zM460 -27c-116.667 0 -215.334 37.666 -296.001 112.999c-79.333 76 -119 169.333 -119 280c0 85.333 22 161.333 66 228c44.667 68 105.334 117.333 182.001 148c50 20 104.333 30 163 30c120.667 0 220.667 -37.667 300 -113
s119 -170.666 119 -285.999c0 -117.333 -40.333 -213.333 -121 -288c-79.333 -74.667 -177.333 -112 -294 -112zM460 161.999c58 0 107.669 20.667 149.002 62s62 91 62 149s-20.667 107.667 -62 149c-40.667 40.667 -90.334 61 -149.001 61
c-56.667 0 -106.334 -20.667 -149.001 -62c-41.333 -41.333 -62 -90 -62 -146c0 -60 20.333 -110.333 61 -151c41.333 -41.333 91.333 -62 150 -62z" />
    <glyph glyph-name="omacron" unicode="&#x14d;" horiz-adv-x="696" 
d="M180 736h336v-110h-336v110zM348 -19c-88.667 0 -162.001 25 -220.001 75c-58 51.333 -87 115.333 -87 192c0 86 30.333 154.333 91 205c57.333 48 128.333 72 213 72c92 0 166.333 -25.333 223 -76c58 -50.667 87 -116 87 -196c0 -84.667 -31 -152 -93 -202
c-57.333 -46.667 -128.666 -70 -213.999 -70zM347.999 138c32 0 59.334 11.333 82.001 34s34 50 34 82c0 32.667 -11.333 60 -34 82c-22.667 22.667 -50 34 -82 34s-59.333 -11.333 -82 -34s-34 -49.667 -34 -81c0 -16 3 -31.167 9 -45.5s14.167 -26.833 24.5 -37.5
s22.666 -19 36.999 -25s29.5 -9 45.5 -9z" />
    <glyph glyph-name="Ohungarumlaut" unicode="&#x150;" horiz-adv-x="920" 
d="M247 890l128 173l94 -82l-154 -152zM449 890l128 173l95 -82l-154 -152zM460 -27c-116.667 0 -215.334 37.666 -296.001 112.999c-79.333 76 -119 169.333 -119 280c0 85.333 22 161.333 66 228c44.667 68 105.334 117.333 182.001 148c50 20 104.333 30 163 30
c120.667 0 220.667 -37.667 300 -113s119 -170.666 119 -285.999c0 -117.333 -40.333 -213.333 -121 -288c-79.333 -74.667 -177.333 -112 -294 -112zM460 161.999c58 0 107.669 20.667 149.002 62s62 91 62 149s-20.667 107.667 -62 149
c-40.667 40.667 -90.334 61 -149.001 61c-56.667 0 -106.334 -20.667 -149.001 -62c-41.333 -41.333 -62 -90 -62 -146c0 -60 20.333 -110.333 61 -151c41.333 -41.333 91.333 -62 150 -62z" />
    <glyph glyph-name="ohungarumlaut" unicode="&#x151;" horiz-adv-x="696" 
d="M135 646l128 173l94 -82l-154 -152zM337 646l128 173l95 -82l-154 -152zM348 -19c-88.667 0 -162.001 25 -220.001 75c-58 51.333 -87 115.333 -87 192c0 86 30.333 154.333 91 205c57.333 48 128.333 72 213 72c92 0 166.333 -25.333 223 -76
c58 -50.667 87 -116 87 -196c0 -84.667 -31 -152 -93 -202c-57.333 -46.667 -128.666 -70 -213.999 -70zM347.999 138c32 0 59.334 11.333 82.001 34s34 50 34 82c0 32.667 -11.333 60 -34 82c-22.667 22.667 -50 34 -82 34s-59.333 -11.333 -82 -34s-34 -49.667 -34 -81
c0 -16 3 -31.167 9 -45.5s14.167 -26.833 24.5 -37.5s22.666 -19 36.999 -25s29.5 -9 45.5 -9z" />
    <glyph glyph-name="OE" unicode="&#x152;" horiz-adv-x="1150" 
d="M454 -26c-116 0 -213.331 38.333 -291.998 115c-78 77.333 -117 172 -117 284c0 116.667 40.667 213 122 289c79.333 74 176.666 111 291.999 111c73.333 0 138 -13.667 194 -41c3.33301 -2 7.16602 -4.16699 11.499 -6.5l14.5 -7.5v32h426v-166h-232v-126h219v-165h-219
v-128h232v-165h-426v30c-39.333 -18.667 -73.666 -32 -102.999 -40c-34.667 -10.667 -75.334 -16 -122.001 -16zM460.002 163c58 0 107.665 20.667 148.998 62c41.333 40 62 89.333 62 148c0 57.333 -20.667 107.333 -62 150c-40.667 40.667 -90 61 -148 61
c-59.333 0 -109.666 -20.667 -150.999 -62c-40.667 -41.333 -61 -91 -61 -149c0 -59.333 20.667 -109 62 -149c40.667 -40.667 90.334 -61 149.001 -61z" />
    <glyph glyph-name="oe" unicode="&#x153;" horiz-adv-x="999" 
d="M334 -19c-89.333 0 -160.664 24.6641 -213.997 73.9971c-52.667 48.667 -79 114.334 -79 197.001c0 84 29 151.333 87 202c54.667 47.333 123.667 71 207 71c79.333 0 148.333 -27 207 -81c18 22 36.667 37.667 56 47c40 20 86.667 30 140 30
c88 0 156.333 -26.333 205 -79c27.333 -29.333 46 -63.666 56 -102.999c3.33301 -14.667 6.16602 -31.667 8.49902 -51s3.83301 -41.333 4.5 -66h-383c2 -19.333 5.66699 -36.666 11 -51.999c16 -41.333 49.667 -62 101 -62c41.333 0 70.333 16 87 48h174
c-12 -58.667 -44.667 -103.667 -98 -135c-45.333 -26.667 -101 -40 -167 -40c-52.667 0 -97.334 10.667 -134.001 32c-24 14.667 -44.333 33.334 -61 56.001l-19 -18c-7.33301 -6.66699 -13.833 -12.334 -19.5 -17.001s-10.834 -8.66699 -15.501 -12
c-38.667 -27.333 -90 -41 -154 -41zM844.002 324.997c-16.667 54.667 -51.667 82 -105 82c-55.333 0 -90.333 -27.333 -105 -82h210zM339.002 134.997c31.333 0 57.667 11.668 79 35.001s32 50.666 32 81.999c0 16 -2.83301 31 -8.5 45s-13.5 26 -23.5 36s-21.667 18 -35 24
s-28 9 -44 9c-32 0 -58.333 -11.333 -79 -34c-20.667 -21.333 -31 -47.666 -31 -78.999c0 -30.667 10.667 -58.334 32 -83.001c21.333 -23.333 47.333 -35 78 -35z" />
    <glyph glyph-name="Racute" unicode="&#x154;" horiz-adv-x="705" 
d="M264 890l141 173l115 -82l-172 -152zM79 750h303c81.333 0 143 -22.333 185 -67s63 -99.667 63 -165c0 -35.333 -7.66699 -70 -23 -104c-16.667 -36 -39.667 -62.667 -69 -80c-19.333 -11.333 -43 -20.333 -71 -27l235 -307h-242l-186 288v-288h-195v750zM310 414
c80 0 120 31 120 93c0 32 -12.333 56.333 -37 73c-19.333 13.333 -47 20 -83 20h-36v-186h36z" />
    <glyph glyph-name="racute" unicode="&#x155;" horiz-adv-x="463" 
d="M143 646l141 173l115 -82l-172 -152zM61 506h180.001v-83c17.333 26.667 34.666 45.667 51.999 57c32 22 71 33 117 33h15c2 0 4.5 -0.166992 7.5 -0.5s6.83301 -0.833008 11.5 -1.5v-170l-20 9c-16 6 -35 9 -57 9c-38 0 -68.5 -11.5 -91.5 -34.5
s-34.5 -58.833 -34.5 -107.5v-217h-180v506z" />
    <glyph glyph-name="uni0156" unicode="&#x156;" horiz-adv-x="705" 
d="M79 750h303c81.333 0 143 -22.333 185 -67s63 -99.667 63 -165c0 -35.333 -7.66699 -70 -23 -104c-16.667 -36 -39.667 -62.667 -69 -80c-19.333 -11.333 -43 -20.333 -71 -27l235 -307h-242l-186 288v-288h-195v750zM310 414c80 0 120 31 120 93
c0 32 -12.333 56.333 -37 73c-19.333 13.333 -47 20 -83 20h-36v-186h36zM273 -74h159l-24 -208h-110z" />
    <glyph glyph-name="uni0157" unicode="&#x157;" horiz-adv-x="463" 
d="M61 506h180.001v-83c17.333 26.667 34.666 45.667 51.999 57c32 22 71 33 117 33h15c2 0 4.5 -0.166992 7.5 -0.5s6.83301 -0.833008 11.5 -1.5v-170l-20 9c-16 6 -35 9 -57 9c-38 0 -68.5 -11.5 -91.5 -34.5s-34.5 -58.833 -34.5 -107.5v-217h-180v506zM76.001 -74h159
l-24 -208h-110z" />
    <glyph glyph-name="Rcaron" unicode="&#x158;" horiz-adv-x="705" 
d="M157 979l67 77l127 -98l126 98l71 -77l-197 -145zM79 750h303c81.333 0 143 -22.333 185 -67s63 -99.667 63 -165c0 -35.333 -7.66699 -70 -23 -104c-16.667 -36 -39.667 -62.667 -69 -80c-19.333 -11.333 -43 -20.333 -71 -27l235 -307h-242l-186 288v-288h-195v750z
M310 414c80 0 120 31 120 93c0 32 -12.333 56.333 -37 73c-19.333 13.333 -47 20 -83 20h-36v-186h36z" />
    <glyph glyph-name="rcaron" unicode="&#x159;" horiz-adv-x="463" 
d="M36 735l67 77l127 -98l126 98l71 -77l-197 -145zM61 506h180.001v-83c17.333 26.667 34.666 45.667 51.999 57c32 22 71 33 117 33h15c2 0 4.5 -0.166992 7.5 -0.5s6.83301 -0.833008 11.5 -1.5v-170l-20 9c-16 6 -35 9 -57 9c-38 0 -68.5 -11.5 -91.5 -34.5
s-34.5 -58.833 -34.5 -107.5v-217h-180v506z" />
    <glyph glyph-name="Sacute" unicode="&#x15a;" horiz-adv-x="643" 
d="M233 890l141 173l115 -82l-172 -152zM306 -20c-54 0 -110.668 11.998 -170.001 35.998c-14.667 6 -27.667 11.833 -39 17.5s-20.666 11.167 -27.999 16.5l-24 16l83 156c58.667 -50.667 116 -76 172 -76c26 0 47.667 5.66699 65 17c19.333 13.333 29 32.333 29 57
c0 21.333 -10.333 39.333 -31 54c-8.66699 6 -24 12.667 -46 20l-40 12l-40 12c-23.333 6.66699 -48 16.667 -74 30c-58.667 30 -88 85.667 -88 167c0 76 23.667 137 71 183c46.667 46.667 108 70 184 70c82 0 161.333 -20.333 238 -61l-78 -152c-40.667 34 -83 51 -127 51
c-22 0 -40.667 -5.33301 -56 -16c-18.667 -12 -28 -28.333 -28 -49c0 -21.333 13.667 -38.666 41 -51.999c4 -2 13.667 -5.66699 29 -11s37 -12.333 65 -21c62 -19.333 107.333 -44.333 136 -75c32 -34 48 -78.667 48 -134s-9.33301 -100.666 -28 -135.999
c-23.333 -44.667 -61 -78.667 -113 -102c-44.667 -20 -95 -30 -151 -30z" />
    <glyph glyph-name="sacute" unicode="&#x15b;" horiz-adv-x="506" 
d="M164 646l141 173l115 -82l-172 -152zM234 -19c-68.667 0 -136.667 19.667 -204 59l65 126c52.667 -34.667 100.667 -52 144 -52c14 0 26.333 3 37 9c13.333 7.33301 20 17.333 20 30c0 10 -3.5 18.167 -10.5 24.5s-19.5 11.833 -37.5 16.5l-29 6
c-48 10 -83.333 23.667 -106 41c-29.333 23.333 -44 56.666 -44 99.999c0 61.333 23.333 108.333 70 141c41.333 28 93.666 42 156.999 42c53.333 0 99 -7 137 -21c4 -1.33301 8.33301 -3 13 -5s9.66699 -4.33301 15 -7l-61 -116c-26.667 14 -53 22 -79 24
c-3.33301 0.666992 -6.66602 1 -9.99902 1h-9c-36.667 0 -55 -12 -55 -36c0 -15.333 13.667 -26.666 41 -33.999l17 -4l23 -5c44 -9.33301 76 -22 96 -38c34.667 -26.667 52 -64 52 -112c0 -89.333 -47.333 -148.333 -142 -177c-28.667 -8.66699 -62 -13 -100 -13z" />
    <glyph glyph-name="Scedilla" unicode="&#x15e;" horiz-adv-x="643" 
d="M306 -20c-54 0 -110.668 11.998 -170.001 35.998c-14.667 6 -27.667 11.833 -39 17.5s-20.666 11.167 -27.999 16.5l-24 16l83 156c58.667 -50.667 116 -76 172 -76c26 0 47.667 5.66699 65 17c19.333 13.333 29 32.333 29 57c0 21.333 -10.333 39.333 -31 54
c-8.66699 6 -24 12.667 -46 20l-40 12l-40 12c-23.333 6.66699 -48 16.667 -74 30c-58.667 30 -88 85.667 -88 167c0 76 23.667 137 71 183c46.667 46.667 108 70 184 70c82 0 161.333 -20.333 238 -61l-78 -152c-40.667 34 -83 51 -127 51c-22 0 -40.667 -5.33301 -56 -16
c-18.667 -12 -28 -28.333 -28 -49c0 -21.333 13.667 -38.666 41 -51.999c4 -2 13.667 -5.66699 29 -11s37 -12.333 65 -21c62 -19.333 107.333 -44.333 136 -75c32 -34 48 -78.667 48 -134s-9.33301 -100.666 -28 -135.999c-23.333 -44.667 -61 -78.667 -113 -102
c-44.667 -20 -95 -30 -151 -30zM203.999 -218.002l132 161l103 -67l-154 -145z" />
    <glyph glyph-name="scedilla" unicode="&#x15f;" horiz-adv-x="506" 
d="M234 -19c-68.667 0 -136.667 19.667 -204 59l65 126c52.667 -34.667 100.667 -52 144 -52c14 0 26.333 3 37 9c13.333 7.33301 20 17.333 20 30c0 10 -3.5 18.167 -10.5 24.5s-19.5 11.833 -37.5 16.5l-29 6c-48 10 -83.333 23.667 -106 41
c-29.333 23.333 -44 56.666 -44 99.999c0 61.333 23.333 108.333 70 141c41.333 28 93.666 42 156.999 42c53.333 0 99 -7 137 -21c4 -1.33301 8.33301 -3 13 -5s9.66699 -4.33301 15 -7l-61 -116c-26.667 14 -53 22 -79 24c-3.33301 0.666992 -6.66602 1 -9.99902 1h-9
c-36.667 0 -55 -12 -55 -36c0 -15.333 13.667 -26.666 41 -33.999l17 -4l23 -5c44 -9.33301 76 -22 96 -38c34.667 -26.667 52 -64 52 -112c0 -89.333 -47.333 -148.333 -142 -177c-28.667 -8.66699 -62 -13 -100 -13zM135 -218l132 161l103 -67l-154 -145z" />
    <glyph glyph-name="Scaron" unicode="&#x160;" horiz-adv-x="643" 
d="M126 979l67 77l127 -98l126 98l71 -77l-197 -145zM306 -20c-54 0 -110.668 11.998 -170.001 35.998c-14.667 6 -27.667 11.833 -39 17.5s-20.666 11.167 -27.999 16.5l-24 16l83 156c58.667 -50.667 116 -76 172 -76c26 0 47.667 5.66699 65 17
c19.333 13.333 29 32.333 29 57c0 21.333 -10.333 39.333 -31 54c-8.66699 6 -24 12.667 -46 20l-40 12l-40 12c-23.333 6.66699 -48 16.667 -74 30c-58.667 30 -88 85.667 -88 167c0 76 23.667 137 71 183c46.667 46.667 108 70 184 70c82 0 161.333 -20.333 238 -61
l-78 -152c-40.667 34 -83 51 -127 51c-22 0 -40.667 -5.33301 -56 -16c-18.667 -12 -28 -28.333 -28 -49c0 -21.333 13.667 -38.666 41 -51.999c4 -2 13.667 -5.66699 29 -11s37 -12.333 65 -21c62 -19.333 107.333 -44.333 136 -75c32 -34 48 -78.667 48 -134
s-9.33301 -100.666 -28 -135.999c-23.333 -44.667 -61 -78.667 -113 -102c-44.667 -20 -95 -30 -151 -30z" />
    <glyph glyph-name="scaron" unicode="&#x161;" horiz-adv-x="506" 
d="M57 735l67 77l127 -98l126 98l71 -77l-197 -145zM234 -19c-68.667 0 -136.667 19.667 -204 59l65 126c52.667 -34.667 100.667 -52 144 -52c14 0 26.333 3 37 9c13.333 7.33301 20 17.333 20 30c0 10 -3.5 18.167 -10.5 24.5s-19.5 11.833 -37.5 16.5l-29 6
c-48 10 -83.333 23.667 -106 41c-29.333 23.333 -44 56.666 -44 99.999c0 61.333 23.333 108.333 70 141c41.333 28 93.666 42 156.999 42c53.333 0 99 -7 137 -21c4 -1.33301 8.33301 -3 13 -5s9.66699 -4.33301 15 -7l-61 -116c-26.667 14 -53 22 -79 24
c-3.33301 0.666992 -6.66602 1 -9.99902 1h-9c-36.667 0 -55 -12 -55 -36c0 -15.333 13.667 -26.666 41 -33.999l17 -4l23 -5c44 -9.33301 76 -22 96 -38c34.667 -26.667 52 -64 52 -112c0 -89.333 -47.333 -148.333 -142 -177c-28.667 -8.66699 -62 -13 -100 -13z" />
    <glyph glyph-name="uni0162" unicode="&#x162;" horiz-adv-x="530" 
d="M166 585h-158v165h515v-165h-162v-585h-195v585zM147 -218l132 161l103 -67l-154 -145z" />
    <glyph glyph-name="uni0163" unicode="&#x163;" horiz-adv-x="370" 
d="M82 357h-59v149h59v152h180v-152h103v-149h-103v-357h-180v357zM67 -218l132 161l103 -67l-154 -145z" />
    <glyph glyph-name="Tcaron" unicode="&#x164;" horiz-adv-x="530" 
d="M69 979l67 77l127 -98l126 98l71 -77l-197 -145zM166 585h-158v165h515v-165h-162v-585h-195v585z" />
    <glyph glyph-name="tcaron" unicode="&#x165;" horiz-adv-x="370" 
d="M297 547l24 206l117 -10l-67 -204zM82 357h-59v149h59v152h180v-152h103v-149h-103v-357h-180v357z" />
    <glyph glyph-name="Tbar" unicode="&#x166;" horiz-adv-x="530" 
d="M361 585v-144h104v-131h-104v-310h-195v310h-99v131h99v144h-158v165h515v-165h-162z" />
    <glyph glyph-name="tbar" unicode="&#x167;" horiz-adv-x="370" 
d="M262 357v-57h100v-120h-100v-180h-180v180h-57v120h57v57h-59v149h59v152h180v-152h103v-149h-103z" />
    <glyph glyph-name="Umacron" unicode="&#x16a;" horiz-adv-x="812" 
d="M238 980h336v-110h-336v110zM401 -20c-52.667 0 -102.002 8.66602 -148.002 25.999c-52 20 -92.167 49.167 -120.5 87.5s-45.166 87.833 -50.499 148.5c-2 22 -3 47 -3 75v433h195v-406c0 -48 1.33301 -77.333 4 -88c1.33301 -7.33301 3.33301 -15 6 -23
s6.33398 -15.667 11.001 -23c22 -38.667 58.333 -58 109 -58c53.333 0 91.333 20.333 114 61c13.333 24.667 20 68.334 20 131.001v406h195v-433c0 -52.667 -4.33301 -94 -13 -124c-10.667 -38 -30.667 -73.667 -60 -107c-62.667 -70.667 -149 -106 -259 -106z" />
    <glyph glyph-name="umacron" unicode="&#x16b;" horiz-adv-x="666" 
d="M165 736h336v-110h-336v110zM333 -22c-181.333 0 -272 69 -272 207v321h180v-287c0 -62 30.667 -93 92 -93c60.667 0 91 31 91 93v287h180v-321c0 -137.333 -90.333 -206.333 -271 -207z" />
    <glyph glyph-name="Uring" unicode="&#x16e;" horiz-adv-x="812" 
d="M405 818c-43.333 0 -78.332 8.33301 -104.999 25c-32.667 20.667 -49 50.667 -49 90c0 41.333 16 72 48 92c27.333 17.333 62.666 26 105.999 26c44 0 79.333 -8.33301 106 -25c32.667 -20.667 49 -51.334 49 -92.001c0 -39.333 -16.667 -69.666 -50 -90.999
c-26.667 -16.667 -61.667 -25 -105 -25zM406.001 889c39.333 0 59 15 59 45s-20 45 -60 45s-60 -14.667 -60 -44c0 -30.667 20.333 -46 61 -46zM401.001 -20c-52.667 0 -102.002 8.66602 -148.002 25.999c-52 20 -92.167 49.167 -120.5 87.5s-45.166 87.833 -50.499 148.5
c-2 22 -3 47 -3 75v433h195v-406c0 -48 1.33301 -77.333 4 -88c1.33301 -7.33301 3.33301 -15 6 -23s6.33398 -15.667 11.001 -23c22 -38.667 58.333 -58 109 -58c53.333 0 91.333 20.333 114 61c13.333 24.667 20 68.334 20 131.001v406h195v-433
c0 -52.667 -4.33301 -94 -13 -124c-10.667 -38 -30.667 -73.667 -60 -107c-62.667 -70.667 -149 -106 -259 -106z" />
    <glyph glyph-name="uring" unicode="&#x16f;" horiz-adv-x="666" 
d="M332 574c-43.333 0 -78.332 8.33301 -104.999 25c-32.667 20.667 -49 50.667 -49 90c0 41.333 16 72 48 92c27.333 17.333 62.666 26 105.999 26c44 0 79.333 -8.33301 106 -25c32.667 -20.667 49 -51.334 49 -92.001c0 -39.333 -16.667 -69.666 -50 -90.999
c-26.667 -16.667 -61.667 -25 -105 -25zM333.001 645c39.333 0 59 15 59 45s-20 45 -60 45s-60 -14.667 -60 -44c0 -30.667 20.333 -46 61 -46zM333.001 -22c-181.333 0 -272 69 -272 207v321h180v-287c0 -62 30.667 -93 92 -93c60.667 0 91 31 91 93v287h180v-321
c0 -137.333 -90.333 -206.333 -271 -207z" />
    <glyph glyph-name="Uhungarumlaut" unicode="&#x170;" horiz-adv-x="812" 
d="M193 890l128 173l94 -82l-154 -152zM395 890l128 173l95 -82l-154 -152zM401 -20c-52.667 0 -102.002 8.66602 -148.002 25.999c-52 20 -92.167 49.167 -120.5 87.5s-45.166 87.833 -50.499 148.5c-2 22 -3 47 -3 75v433h195v-406c0 -48 1.33301 -77.333 4 -88
c1.33301 -7.33301 3.33301 -15 6 -23s6.33398 -15.667 11.001 -23c22 -38.667 58.333 -58 109 -58c53.333 0 91.333 20.333 114 61c13.333 24.667 20 68.334 20 131.001v406h195v-433c0 -52.667 -4.33301 -94 -13 -124c-10.667 -38 -30.667 -73.667 -60 -107
c-62.667 -70.667 -149 -106 -259 -106z" />
    <glyph glyph-name="uhungarumlaut" unicode="&#x171;" horiz-adv-x="666" 
d="M120 646l128 173l94 -82l-154 -152zM322 646l128 173l95 -82l-154 -152zM333 -22c-181.333 0 -272 69 -272 207v321h180v-287c0 -62 30.667 -93 92 -93c60.667 0 91 31 91 93v287h180v-321c0 -137.333 -90.333 -206.333 -271 -207z" />
    <glyph glyph-name="Uogonek" unicode="&#x172;" horiz-adv-x="812" 
d="M733 750l-0.00195312 -433c0 -52.667 -4.33301 -94 -13 -124c-10.667 -38 -30.667 -73.667 -60 -107c-27.333 -30.667 -60.333 -55.334 -99 -74.001c-11.333 -9.33301 -22.166 -21.333 -32.499 -36s-15.5 -31.667 -15.5 -51s5.5 -34.333 16.5 -45s25.833 -16 44.5 -16
c8.66699 0 16.667 0.833008 24 2.5s13.666 3.5 18.999 5.5c6.66699 2.66699 12.667 5.66699 18 9l-18 -90c-7.33301 -4 -15.666 -8 -24.999 -12c-8 -2.66699 -17.333 -5.16699 -28 -7.5s-22.334 -3.5 -35.001 -3.5c-33.333 0 -61.5 9.83301 -84.5 29.5
s-34.5 46.834 -34.5 81.501c0 23.333 5.16699 43.666 15.5 60.999s21.5 32 33.5 44c-9.33301 -1.33301 -18.833 -2.33301 -28.5 -3s-19.5 -1 -29.5 -1c-52.667 0 -102 8.66699 -148 26c-52 20 -92.167 49.167 -120.5 87.5s-45.166 87.833 -50.499 148.5c-2 22 -3 47 -3 75
v433h195v-406c0 -48 1.33301 -77.333 4 -88c1.33301 -7.33301 3.33301 -15 6 -23s6.33398 -15.667 11.001 -23c22 -38.667 58.333 -58 109 -58c53.333 0 91.333 20.333 114 61c13.333 24.667 20 68.334 20 131.001v406h195z" />
    <glyph glyph-name="uogonek" unicode="&#x173;" horiz-adv-x="666" 
d="M493 6c-10 -9.33301 -19.166 -20.834 -27.499 -34.501s-12.5 -29.167 -12.5 -46.5c0 -19.333 5.5 -34.333 16.5 -45s25.833 -16 44.5 -16c8.66699 0 16.667 0.833008 24 2.5s13.666 3.5 18.999 5.5c6.66699 2.66699 12.667 5.66699 18 9l-18 -90
c-7.33301 -4 -15.666 -8 -24.999 -12c-8 -2.66699 -17.333 -5.16699 -28 -7.5s-22.334 -3.5 -35.001 -3.5c-33.333 0 -61.5 9.83301 -84.5 29.5s-34.5 46.834 -34.5 81.501c0 22.667 5 42.5 15 59.5s20.667 31.5 32 43.5c-10 -1.33301 -20.333 -2.33301 -31 -3
s-21.667 -1 -33 -1c-181.333 0 -272 69 -272 207v321h180v-287c0 -62 30.667 -93 92 -93c60.667 0 91 31 91 93v287h180v-321c0 -87.333 -37 -147 -111 -179z" />
    <glyph glyph-name="Wcircumflex" unicode="&#x174;" horiz-adv-x="1156" 
d="M799 916l-67 -77l-127 98l-126 -98l-71 77l197 145zM8 750h203l130 -485l159 485h155l148 -485l142 485h203l-240 -750h-198l-137 434l-144 -434h-198z" />
    <glyph glyph-name="wcircumflex" unicode="&#x175;" horiz-adv-x="1020" 
d="M731 672l-67 -77l-127 98l-126 -98l-71 77l197 145zM0 506h201l122 -267l128 267h113l127 -275l129 275h200l-267 -506h-120l-128 277l-121 -277h-122z" />
    <glyph glyph-name="Ycircumflex" unicode="&#x176;" horiz-adv-x="747" 
d="M595 916l-67 -77l-127 98l-126 -98l-71 77l197 145zM271 360l-271 390h233l142 -204l136 204h236l-281 -390v-360h-195v360z" />
    <glyph glyph-name="ycircumflex" unicode="&#x177;" horiz-adv-x="684" 
d="M563 672l-67 -77l-127 98l-126 -98l-71 77l197 145zM246 69l-246 437h209l136 -259l133 259h206l-414 -768h-202z" />
    <glyph glyph-name="Ydieresis" unicode="&#x178;" horiz-adv-x="747" 
d="M257 854c-22 0 -41.001 8.00195 -57.001 24.002s-24 34.667 -24 56c0 23.333 7.83301 42.833 23.5 58.5s34.834 23.5 57.501 23.5s41.834 -7.83301 57.501 -23.5s23.5 -34.834 23.5 -57.501s-7.83301 -41.834 -23.5 -57.501s-34.834 -23.5 -57.501 -23.5z
M490.999 854.002c-22.667 0 -41.835 8.00195 -57.502 24.002s-23.5 34.667 -23.5 56c0 23.333 7.83301 42.833 23.5 58.5s34.834 23.5 57.501 23.5s41.834 -7.83301 57.501 -23.5s23.5 -34.834 23.5 -57.501s-8 -41.834 -24 -57.501s-35 -23.5 -57 -23.5zM270.998 360.004
l-271 390h233l142 -204l136 204h236l-281 -390v-360h-195v360z" />
    <glyph glyph-name="Zacute" unicode="&#x179;" horiz-adv-x="710" 
d="M266 890l141 173l115 -82l-172 -152zM370 585h-295v165h620l-353 -585h315v-165h-642z" />
    <glyph glyph-name="zacute" unicode="&#x17a;" horiz-adv-x="586" 
d="M204 646l141 173l115 -82l-172 -152zM263 357h-208v149h508l-238 -357h214v-149h-516z" />
    <glyph glyph-name="Zdotaccent" unicode="&#x17b;" horiz-adv-x="710" 
d="M354 833c-14 0 -27.168 2.66797 -39.501 8.00098s-23.166 12.666 -32.499 21.999s-16.666 20 -21.999 32s-8 25 -8 39c0 30 9.5 54.833 28.5 74.5s43.5 29.5 73.5 29.5c14 0 27.333 -2.66699 40 -8s23.667 -12.5 33 -21.5s16.666 -19.833 21.999 -32.5s8 -26 8 -40
c0 -29.333 -10 -53.833 -30 -73.5s-44.333 -29.5 -73 -29.5zM369.999 585.001h-295v165h620l-353 -585h315v-165h-642z" />
    <glyph glyph-name="zdotaccent" unicode="&#x17c;" horiz-adv-x="586" 
d="M292 589c-14 0 -27.168 2.66797 -39.501 8.00098s-23.166 12.666 -32.499 21.999s-16.666 20 -21.999 32s-8 25 -8 39c0 30 9.5 54.833 28.5 74.5s43.5 29.5 73.5 29.5c14 0 27.333 -2.66699 40 -8s23.667 -12.5 33 -21.5s16.666 -19.833 21.999 -32.5s8 -26 8 -40
c0 -29.333 -10 -53.833 -30 -73.5s-44.333 -29.5 -73 -29.5zM262.999 357.001h-208v149h508l-238 -357h214v-149h-516z" />
    <glyph glyph-name="Zcaron" unicode="&#x17d;" horiz-adv-x="710" 
d="M159 979l67 77l127 -98l126 98l71 -77l-197 -145zM370 585h-295v165h620l-353 -585h315v-165h-642z" />
    <glyph glyph-name="zcaron" unicode="&#x17e;" horiz-adv-x="586" 
d="M97 735l67 77l127 -98l126 98l71 -77l-197 -145zM263 357h-208v149h508l-238 -357h214v-149h-516z" />
    <glyph glyph-name="florin" unicode="&#x192;" horiz-adv-x="705" 
d="M100 -248c-67.333 0 -121.333 19.333 -162 58c-25.333 23.333 -44 51.666 -56 84.999c-2.66699 6.66699 -5.16699 14.834 -7.5 24.501l-8.5 34.5h178c16 -32.667 36.667 -49 62 -49c20.667 0 36 7.66699 46 23c7.33301 11.333 14.333 33 21 65l59 274h-117l6 145h141
l30 146l12 53c10 44 23.333 76.667 40 98c16 24 41.667 43.667 77 59c36.667 15.333 74 23 112 23c64 0 119.333 -19 166 -57c24 -20 44 -46.333 60 -79l-119 -69c-19.333 45.333 -47 68 -83 68c-28.667 0 -48.334 -14.333 -59.001 -43
c-3.33301 -7.33301 -10.666 -37.333 -21.999 -90l-24 -109h115l-7 -145h-138l-53 -258c-5.33301 -23.333 -10.5 -43.833 -15.5 -61.5s-10.167 -32.5 -15.5 -44.5c-48 -100.667 -127.333 -151 -238 -151z" />
    <glyph glyph-name="uni0218" unicode="&#x218;" horiz-adv-x="643" 
d="M306 -20c-54 0 -110.668 11.998 -170.001 35.998c-14.667 6 -27.667 11.833 -39 17.5s-20.666 11.167 -27.999 16.5l-24 16l83 156c58.667 -50.667 116 -76 172 -76c26 0 47.667 5.66699 65 17c19.333 13.333 29 32.333 29 57c0 21.333 -10.333 39.333 -31 54
c-8.66699 6 -24 12.667 -46 20l-40 12l-40 12c-23.333 6.66699 -48 16.667 -74 30c-58.667 30 -88 85.667 -88 167c0 76 23.667 137 71 183c46.667 46.667 108 70 184 70c82 0 161.333 -20.333 238 -61l-78 -152c-40.667 34 -83 51 -127 51c-22 0 -40.667 -5.33301 -56 -16
c-18.667 -12 -28 -28.333 -28 -49c0 -21.333 13.667 -38.666 41 -51.999c4 -2 13.667 -5.66699 29 -11s37 -12.333 65 -21c62 -19.333 107.333 -44.333 136 -75c32 -34 48 -78.667 48 -134s-9.33301 -100.666 -28 -135.999c-23.333 -44.667 -61 -78.667 -113 -102
c-44.667 -20 -95 -30 -151 -30zM241.999 -74.002h159l-24 -208h-110z" />
    <glyph glyph-name="uni0219" unicode="&#x219;" horiz-adv-x="506" 
d="M234 -19c-68.667 0 -136.667 19.667 -204 59l65 126c52.667 -34.667 100.667 -52 144 -52c14 0 26.333 3 37 9c13.333 7.33301 20 17.333 20 30c0 10 -3.5 18.167 -10.5 24.5s-19.5 11.833 -37.5 16.5l-29 6c-48 10 -83.333 23.667 -106 41
c-29.333 23.333 -44 56.666 -44 99.999c0 61.333 23.333 108.333 70 141c41.333 28 93.666 42 156.999 42c53.333 0 99 -7 137 -21c4 -1.33301 8.33301 -3 13 -5s9.66699 -4.33301 15 -7l-61 -116c-26.667 14 -53 22 -79 24c-3.33301 0.666992 -6.66602 1 -9.99902 1h-9
c-36.667 0 -55 -12 -55 -36c0 -15.333 13.667 -26.666 41 -33.999l17 -4l23 -5c44 -9.33301 76 -22 96 -38c34.667 -26.667 52 -64 52 -112c0 -89.333 -47.333 -148.333 -142 -177c-28.667 -8.66699 -62 -13 -100 -13zM173 -74h159l-24 -208h-110z" />
    <glyph glyph-name="uni021A" unicode="&#x21a;" horiz-adv-x="530" 
d="M166 585h-158v165h515v-165h-162v-585h-195v585zM185 -74h159l-24 -208h-110z" />
    <glyph glyph-name="uni021B" unicode="&#x21b;" horiz-adv-x="370" 
d="M82 357h-59v149h59v152h180v-152h103v-149h-103v-357h-180v357zM105 -74h159l-24 -208h-110z" />
    <glyph glyph-name="uni0237" unicode="&#x237;" horiz-adv-x="302" 
d="M61 506h180v-759h-180v759z" />
    <glyph glyph-name="gravecomb" unicode="&#x300;" horiz-adv-x="0" 
d="M-357 737l116 82l141 -173l-83 -61z" />
    <glyph glyph-name="acutecomb" unicode="&#x301;" horiz-adv-x="0" 
d="M-356 646l141 173l115 -82l-172 -152z" />
    <glyph glyph-name="uni0302" unicode="&#x302;" horiz-adv-x="0" 
d="M-100 672l-67 -77l-127 98l-126 -98l-71 77l197 145z" />
    <glyph glyph-name="tildecomb" unicode="&#x303;" horiz-adv-x="0" 
d="M-477 627c0 60.667 21.3311 102.667 63.998 126c13.333 6.66699 27 10 41 10s33.333 -2.66699 58 -8l28 -8c9.33301 -2.66699 19 -5 29 -7c20.667 -6 33 -9 37 -9c16 0 28 11.333 36 34h84c-5.33301 -42.667 -16.666 -76.667 -33.999 -102
c-22.667 -32.667 -53 -49 -91 -49c-13.333 0 -25 1.66699 -35 5c-28 9.33301 -50.5 16.5 -67.5 21.5s-29.5 7.5 -37.5 7.5c-13.333 0 -22.666 -8.33301 -27.999 -25l-3 -9h-81v13z" />
    <glyph glyph-name="uni0304" unicode="&#x304;" horiz-adv-x="0" 
d="M-436 736h336v-110h-336v110z" />
    <glyph glyph-name="uni0306" unicode="&#x306;" horiz-adv-x="0" 
d="M-286 612c-54 0 -97.8311 14.833 -131.498 44.5s-51.834 71.5 -54.501 125.5h110c4 -21.333 12.333 -39.333 25 -54s29.667 -22 51 -22s38.333 7.33301 51 22s21 32.667 25 54h110c-2.66699 -54 -20.834 -95.833 -54.501 -125.5s-77.5 -44.5 -131.5 -44.5z" />
    <glyph glyph-name="uni0307" unicode="&#x307;" horiz-adv-x="0" 
d="M-203 589c-14 0 -27.168 2.66797 -39.501 8.00098s-23.166 12.666 -32.499 21.999s-16.666 20 -21.999 32s-8 25 -8 39c0 30 9.5 54.833 28.5 74.5s43.5 29.5 73.5 29.5c14 0 27.333 -2.66699 40 -8s23.667 -12.5 33 -21.5s16.666 -19.833 21.999 -32.5s8 -26 8 -40
c0 -29.333 -10 -53.833 -30 -73.5s-44.333 -29.5 -73 -29.5z" />
    <glyph glyph-name="uni0308" unicode="&#x308;" horiz-adv-x="0" 
d="M-415 610c-22 0 -41.001 8.00195 -57.001 24.002s-24 34.667 -24 56c0 23.333 7.83301 42.833 23.5 58.5s34.834 23.5 57.501 23.5s41.834 -7.83301 57.501 -23.5s23.5 -34.834 23.5 -57.501s-7.83301 -41.834 -23.5 -57.501s-34.834 -23.5 -57.501 -23.5z
M-181.001 610.002c-22.667 0 -41.835 8.00195 -57.502 24.002s-23.5 34.667 -23.5 56c0 23.333 7.83301 42.833 23.5 58.5s34.834 23.5 57.501 23.5s41.834 -7.83301 57.501 -23.5s23.5 -34.834 23.5 -57.501s-8 -41.834 -24 -57.501s-35 -23.5 -57 -23.5z" />
    <glyph glyph-name="uni030A" unicode="&#x30a;" horiz-adv-x="0" 
d="M-255 574c-43.333 0 -78.332 8.33301 -104.999 25c-32.667 20.667 -49 50.667 -49 90c0 41.333 16 72 48 92c27.333 17.333 62.666 26 105.999 26c44 0 79.333 -8.33301 106 -25c32.667 -20.667 49 -51.334 49 -92.001c0 -39.333 -16.667 -69.666 -50 -90.999
c-26.667 -16.667 -61.667 -25 -105 -25zM-253.999 645c39.333 0 59 15 59 45s-20 45 -60 45s-60 -14.667 -60 -44c0 -30.667 20.333 -46 61 -46z" />
    <glyph glyph-name="uni030B" unicode="&#x30b;" horiz-adv-x="0" 
d="M-525 646l128 173l94 -82l-154 -152zM-323 646l128 173l95 -82l-154 -152z" />
    <glyph glyph-name="uni030C" unicode="&#x30c;" horiz-adv-x="0" 
d="M-491 735l67 77l127 -98l126 98l71 -77l-197 -145z" />
    <glyph glyph-name="uni0312" unicode="&#x312;" horiz-adv-x="0" 
d="M-220 853h98l22 -223h-142z" />
    <glyph glyph-name="dotbelowcomb" unicode="&#x323;" horiz-adv-x="0" 
d="M-203 -311c-14 0 -27.168 2.66797 -39.501 8.00098s-23.166 12.666 -32.499 21.999s-16.666 20 -21.999 32s-8 25 -8 39c0 30 9.5 54.833 28.5 74.5s43.5 29.5 73.5 29.5c14 0 27.333 -2.66699 40 -8s23.667 -12.5 33 -21.5s16.666 -19.833 21.999 -32.5s8 -26 8 -40
c0 -29.333 -10 -53.833 -30 -73.5s-44.333 -29.5 -73 -29.5z" />
    <glyph glyph-name="uni0326" unicode="&#x326;" horiz-adv-x="0" 
d="M-759 -74h159l-24 -208h-110z" />
    <glyph glyph-name="uni0327" unicode="&#x327;" horiz-adv-x="0" 
d="M-335 -218l132 161l103 -67l-154 -145z" />
    <glyph glyph-name="uni0328" unicode="&#x328;" horiz-adv-x="0" 
d="M-230 -232c-33.333 0 -61.498 9.83301 -84.498 29.5s-34.5 46.834 -34.5 81.501c0 22.667 5 42.5 15 59.5s20.667 31.5 32 43.5c14 13.333 30 25 48 35l96 20c-16.667 -8 -31.334 -17.333 -44.001 -28c-12 -10 -22.333 -21.833 -31 -35.5s-13 -29.834 -13 -48.501
c0 -19.333 5.5 -34.333 16.5 -45s25.833 -16 44.5 -16c8.66699 0 16.667 0.833008 24 2.5s13.666 3.5 18.999 5.5c6.66699 2.66699 12.667 5.66699 18 9l-18 -90c-7.33301 -4 -15.666 -8 -24.999 -12c-8 -2.66699 -17.333 -5.16699 -28 -7.5s-22.334 -3.5 -35.001 -3.5z" />
    <glyph glyph-name="anoteleia" unicode="&#x387;" horiz-adv-x="135" 
d="M67 317c-18.667 0 -33.999 6.33301 -45.999 19c-14 13.333 -21 30 -21 50c0 18.667 6.66699 34.667 20 48c12 12.667 27.667 19 47 19s35.666 -6.66699 48.999 -20c13.333 -12.667 20 -28 20 -46c0 -19.333 -6.66699 -36.333 -20 -51c-14.667 -12.667 -31 -19 -49 -19z
" />
    <glyph glyph-name="pi" unicode="&#x3c0;" horiz-adv-x="728" 
d="M153 398h-81v142h682v-142h-82v-398h-179v398h-160v-398h-180v398z" />
    <glyph glyph-name="Wgrave" unicode="&#x1e80;" horiz-adv-x="1156" 
d="M449 981l116 82l141 -173l-83 -61zM8 750h203l130 -485l159 485h155l148 -485l142 485h203l-240 -750h-198l-137 434l-144 -434h-198z" />
    <glyph glyph-name="wgrave" unicode="&#x1e81;" horiz-adv-x="1020" 
d="M381 737l116 82l141 -173l-83 -61zM0 506h201l122 -267l128 267h113l127 -275l129 275h200l-267 -506h-120l-128 277l-121 -277h-122z" />
    <glyph glyph-name="Wacute" unicode="&#x1e82;" horiz-adv-x="1156" 
d="M489 890l141 173l115 -82l-172 -152zM8 750h203l130 -485l159 485h155l148 -485l142 485h203l-240 -750h-198l-137 434l-144 -434h-198z" />
    <glyph glyph-name="wacute" unicode="&#x1e83;" horiz-adv-x="1020" 
d="M421 646l141 173l115 -82l-172 -152zM0 506h201l122 -267l128 267h113l127 -275l129 275h200l-267 -506h-120l-128 277l-121 -277h-122z" />
    <glyph glyph-name="Wdieresis" unicode="&#x1e84;" horiz-adv-x="1156" 
d="M461 854c-22 0 -41.001 8.00195 -57.001 24.002s-24 34.667 -24 56c0 23.333 7.83301 42.833 23.5 58.5s34.834 23.5 57.501 23.5s41.834 -7.83301 57.501 -23.5s23.5 -34.834 23.5 -57.501s-7.83301 -41.834 -23.5 -57.501s-34.834 -23.5 -57.501 -23.5z
M694.999 854.002c-22.667 0 -41.835 8.00195 -57.502 24.002s-23.5 34.667 -23.5 56c0 23.333 7.83301 42.833 23.5 58.5s34.834 23.5 57.501 23.5s41.834 -7.83301 57.501 -23.5s23.5 -34.834 23.5 -57.501s-8 -41.834 -24 -57.501s-35 -23.5 -57 -23.5zM7.99805 750.004
h203l130 -485l159 485h155l148 -485l142 485h203l-240 -750h-198l-137 434l-144 -434h-198z" />
    <glyph glyph-name="wdieresis" unicode="&#x1e85;" horiz-adv-x="1020" 
d="M393 610c-22 0 -41.001 8.00195 -57.001 24.002s-24 34.667 -24 56c0 23.333 7.83301 42.833 23.5 58.5s34.834 23.5 57.501 23.5s41.834 -7.83301 57.501 -23.5s23.5 -34.834 23.5 -57.501s-7.83301 -41.834 -23.5 -57.501s-34.834 -23.5 -57.501 -23.5z
M626.999 610.002c-22.667 0 -41.835 8.00195 -57.502 24.002s-23.5 34.667 -23.5 56c0 23.333 7.83301 42.833 23.5 58.5s34.834 23.5 57.501 23.5s41.834 -7.83301 57.501 -23.5s23.5 -34.834 23.5 -57.501s-8 -41.834 -24 -57.501s-35 -23.5 -57 -23.5z
M-0.00195312 506.004h201l122 -267l128 267h113l127 -275l129 275h200l-267 -506h-120l-128 277l-121 -277h-122z" />
    <glyph glyph-name="Ygrave" unicode="&#x1ef2;" horiz-adv-x="747" 
d="M245 981l116 82l141 -173l-83 -61zM271 360l-271 390h233l142 -204l136 204h236l-281 -390v-360h-195v360z" />
    <glyph glyph-name="ygrave" unicode="&#x1ef3;" horiz-adv-x="684" 
d="M213 737l116 82l141 -173l-83 -61zM246 69l-246 437h209l136 -259l133 259h206l-414 -768h-202z" />
    <glyph glyph-name="uni2011" unicode="&#x2011;" horiz-adv-x="253" 
d="M0 303h253v-133h-253v133z" />
    <glyph glyph-name="figuredash" unicode="&#x2012;" horiz-adv-x="610" 
d="M38 341h533v-150h-533v150z" />
    <glyph glyph-name="endash" unicode="&#x2013;" horiz-adv-x="610" 
d="M38 341h533v-150h-533v150z" />
    <glyph glyph-name="emdash" unicode="&#x2014;" horiz-adv-x="862" 
d="M0 341h862v-150h-862v150z" />
    <glyph glyph-name="uni2015" unicode="&#x2015;" horiz-adv-x="862" 
d="M0 341h862v-150h-862v150z" />
    <glyph glyph-name="quoteleft" unicode="&#x2018;" horiz-adv-x="258" 
d="M51 750h156l-32 -302h-102z" />
    <glyph glyph-name="quoteright" unicode="&#x2019;" horiz-adv-x="258" 
d="M51 750h156l-32 -302h-102z" />
    <glyph glyph-name="quotesinglbase" unicode="&#x201a;" horiz-adv-x="271" 
d="M50 188h171l-24 -355h-137z" />
    <glyph glyph-name="quotedblleft" unicode="&#x201c;" horiz-adv-x="258" 
d="M207 750l-32 -302h-102l-22 302h156z" />
    <glyph glyph-name="quotedblright" unicode="&#x201d;" horiz-adv-x="258" 
d="M207 750l-32 -302h-102l-22 302h156z" />
    <glyph glyph-name="quotedblbase" unicode="&#x201e;" horiz-adv-x="271" 
d="M221 188l-24 -355h-137l-10 355h171z" />
    <glyph glyph-name="dagger" unicode="&#x2020;" horiz-adv-x="647" 
d="M226 361h-184v164h184v225h189v-225h190v-164h-190v-609h-189v609z" />
    <glyph glyph-name="daggerdbl" unicode="&#x2021;" horiz-adv-x="705" 
d="M232 -23h-190v164h190v220h-190v164h190v225h183v-225h190v-164h-190v-220h190v-164h-190v-225h-183v225z" />
    <glyph glyph-name="bullet" unicode="&#x2022;" horiz-adv-x="750" 
d="M377 225c-42 0 -79.335 15.668 -112.002 47.001c-30 31.333 -45 68 -45 110s15 78.333 45 109c32.667 31.333 69.334 47 110.001 47c44.667 0 82.334 -15.333 113.001 -46c30 -30.667 45 -67.667 45 -111c0 -42.667 -15.333 -79.334 -46 -110.001
c-31.333 -30.667 -68 -46 -110 -46z" />
    <glyph glyph-name="ellipsis" unicode="&#x2026;" horiz-adv-x="341" 
d="M253 178c22.667 -22.667 33.999 -50 33.999 -82c0 -16 -3 -31.167 -9 -45.5s-14.333 -26.833 -25 -37.5s-23.167 -19 -37.5 -25s-29.5 -9 -45.5 -9c-32 0 -59.333 11.333 -82 34s-34 49.667 -34 81c0 33.333 11.333 61.333 34 84s50.334 34 83.001 34
c32 0 59.333 -11.333 82 -34z" />
    <glyph glyph-name="perthousand" unicode="&#x2030;" horiz-adv-x="1533" 
d="M226 319c-64 0 -117.668 21.666 -161.001 64.999c-42 42 -63 92.667 -63 152c0 57.333 20.667 107.333 62 150c42 42.667 96 64 162 64c41.333 0 80.666 -10.667 117.999 -32c32.667 -18.667 58.334 -44.334 77.001 -77.001c18.667 -31.333 28 -66.666 28 -105.999
c0 -59.333 -21 -109.666 -63 -150.999c-43.333 -43.333 -96.666 -65 -159.999 -65zM654.999 749.999h165l-436 -750h-165zM225.999 450.999c23.333 0 43 7.99902 59 23.999c16.667 16.667 25 37.334 25 62.001c0 24 -8.33301 44.333 -25 61c-16 16 -36 24 -60 24
c-23.333 0 -43 -8.33301 -59 -25c-16.667 -16.667 -25 -37 -25 -61c0 -23.333 8.33301 -43.333 25 -60s36.667 -25 60 -25zM814.999 -0.00195312c-63.333 0 -117.333 21.666 -162 64.999c-41.333 42.667 -62 93.334 -62 152.001c0 58 20.333 108.333 61 151
c42.667 42.667 97 64 163 64c41.333 0 80.666 -10.667 117.999 -32c32.667 -18.667 58.334 -44.334 77.001 -77.001c18.667 -31.333 28 -66.666 28 -105.999c0 -60 -21 -111 -63 -153c-42.667 -42.667 -96 -64 -160 -64zM1311 -0.00292969
c-63.333 0 -117.333 21.666 -162 64.999c-41.333 42.667 -62 93.334 -62 152.001c0 58 20.333 108.333 61 151c42.667 42.667 97 64 163 64c41.333 0 80.666 -10.667 117.999 -32c32.667 -18.667 58.334 -44.334 77.001 -77.001c18.667 -31.333 28 -66.666 28 -105.999
c0 -60 -21 -111 -63 -153c-42.667 -42.667 -96 -64 -160 -64zM814.999 132.996c23.333 0 43 8.33301 59 25c16.667 16 25 36 25 60s-8.33301 44.333 -25 61c-16 16 -36 24 -60 24c-22.667 0 -42.667 -8 -60 -24c-16 -16.667 -24 -37 -24 -61s8.33301 -44 25 -60
c16.667 -16.667 36.667 -25 60 -25zM1311 132.996c23.333 0 43 8.33301 59 25c16.667 16 25 36 25 60s-8.33301 44.333 -25 61c-16 16 -36 24 -60 24c-22.667 0 -42.667 -8 -60 -24c-16 -16.667 -24 -37 -24 -61s8.33301 -44 25 -60c16 -16.667 36 -25 60 -25z" />
    <glyph glyph-name="guilsinglleft" unicode="&#x2039;" horiz-adv-x="332" 
d="M31 257l171 244l100 -69l-125 -175l128 -173l-103 -72z" />
    <glyph glyph-name="guilsinglright" unicode="&#x203a;" horiz-adv-x="332" 
d="M45 84l128 173l-125 175l99 69l171 -244l-171 -245z" />
    <glyph glyph-name="fraction" unicode="&#x2044;" horiz-adv-x="124" 
d="M-190 3l444 769l60 -34l-445 -769z" />
    <glyph glyph-name="uni2070" unicode="&#x2070;" horiz-adv-x="386" 
d="M193 533c-49.333 0 -89.667 20.333 -121 61c-16 20 -27.5 42 -34.5 66s-10.5 53 -10.5 87c0 62 15 111 45 147c32.667 40.667 73 61 121 61c48.667 0 89.334 -20.333 122.001 -61c29.333 -37.333 44 -87.333 44 -150c0 -32.667 -3.5 -61 -10.5 -85
s-18.167 -45.667 -33.5 -65c-32.667 -40.667 -73.334 -61 -122.001 -61zM192.999 622c19.333 0 35 11.166 47 33.499s18 51.5 18 87.5s-6 65.167 -18 87.5s-27.667 33.5 -47 33.5s-35 -11.167 -47 -33.5s-18 -51.166 -18 -86.499c0 -36 6 -65.333 18 -88s27.667 -34 47 -34z
" />
    <glyph glyph-name="uni2074" unicode="&#x2074;" horiz-adv-x="364" 
d="M195 639h-190v65l151 246h133v-233h48v-78h-48v-81h-94v81zM195 717v151l-92 -151h92z" />
    <glyph glyph-name="uni2075" unicode="&#x2075;" horiz-adv-x="354" 
d="M141 536c-24.667 0 -47.1641 2.83398 -67.4971 8.50098s-40.5 14.834 -60.5 27.501l15 95c19.333 -16 37.5 -27.667 54.5 -35s34.5 -11 52.5 -11c18.667 0 34.167 5.66699 46.5 17s18.5 25.333 18.5 42c0 19.333 -8.16699 35.166 -24.5 47.499s-37.166 18.5 -62.499 18.5
c-24 0 -48.667 -5.33301 -74 -16l34 211h204v-86h-135l-8 -44c7.33301 1.33301 13.166 2.16602 17.499 2.49902s9.16602 0.5 14.499 0.5c20 0 38.667 -3.5 56 -10.5s32.166 -16.667 44.499 -29s22 -26.833 29 -43.5s10.5 -35 10.5 -55
c0 -23.333 -5.16699 -44.833 -15.5 -64.5s-24.5 -35.5 -42.5 -47.5c-26.667 -18.667 -62.334 -28 -107.001 -28z" />
    <glyph glyph-name="uni2076" unicode="&#x2076;" horiz-adv-x="397" 
d="M197 531c-56 0 -98.332 16.3311 -126.999 48.998c-24.667 26.667 -37 58.334 -37 95.001c0 22 5.16699 46.333 15.5 73s24.833 52 43.5 76l87 115h116l-111 -133c11.333 4.66699 21 7.83398 29 9.50098s16.667 2.5 26 2.5c18 0 34.667 -3.5 50 -10.5
s28.666 -16.667 39.999 -29s20.166 -26.833 26.499 -43.5s9.5 -35 9.5 -55c0 -22 -4 -42.167 -12 -60.5s-19.5 -34 -34.5 -47s-32.667 -23.167 -53 -30.5s-43.166 -11 -68.499 -11zM197.001 611.998c17.333 0 32.333 6.16699 45 18.5s19 27.5 19 45.5
s-6.16699 33.333 -18.5 46s-27.5 19 -45.5 19s-33.333 -6.33301 -46 -19s-19 -28 -19 -46s6.33301 -33.167 19 -45.5s28 -18.5 46 -18.5z" />
    <glyph glyph-name="uni2077" unicode="&#x2077;" horiz-adv-x="362" 
d="M206 864h-164v86h322l-224 -392h-113z" />
    <glyph glyph-name="uni2078" unicode="&#x2078;" horiz-adv-x="386" 
d="M192 541c-21.333 0 -41.1719 2.83301 -59.5049 8.5s-34.166 13.667 -47.499 24s-23.833 22.666 -31.5 36.999s-11.5 29.833 -11.5 46.5c0 31.333 11.667 57 35 77c5.33301 5.33301 11 9.5 17 12.5s14.667 6.5 26 10.5c-41.333 18 -62 47.333 -62 88
c0 15.333 3.66699 30.333 11 45s17.333 27 30 37c23.333 18 54.333 27 93 27c40 0 72.333 -10 97 -30s37 -46.667 37 -80c0 -26.667 -9.33301 -48.334 -28 -65.001l-15 -9.5c-4.66699 -3 -12 -7.16699 -22 -12.5c12 -4 21.333 -7.83301 28 -11.5s13 -8.16699 19 -13.5
c10.667 -9.33301 18.834 -20.666 24.501 -33.999s8.5 -27 8.5 -41c0 -16.667 -3.66699 -32.167 -11 -46.5s-17.666 -26.666 -30.999 -36.999s-29.166 -18.333 -47.499 -24s-38.166 -8.5 -59.499 -8.5zM191.994 799c12 0 22.167 4.33301 30.5 13s12.5 19 12.5 31
c0 11.333 -4.16699 21.333 -12.5 30s-18.833 13 -31.5 13c-11.333 0 -21.333 -4.33301 -30 -13s-13 -18.667 -13 -30c0 -12 4.33301 -22.333 13 -31s19 -13 31 -13zM191.994 622c12.667 0 23.5 4.49902 32.5 13.499s13.5 20.167 13.5 33.5s-4.5 24.5 -13.5 33.5
s-20.167 13.5 -33.5 13.5c-12.667 0 -23.5 -4.5 -32.5 -13.5s-13.5 -19.833 -13.5 -32.5c0 -13.333 4.5 -24.666 13.5 -33.999s20.167 -14 33.5 -14z" />
    <glyph glyph-name="uni2079" unicode="&#x2079;" horiz-adv-x="398" 
d="M214 692c-12 -5.33301 -21.833 -8.83203 -29.5 -10.499s-16.167 -2.5 -25.5 -2.5c-18 0 -34.667 3.5 -50 10.5s-28.833 16.667 -40.5 29s-20.667 27 -27 44s-9.5 35.167 -9.5 54.5c0 44.667 15.5 80.667 46.5 108s71.5 41 121.5 41c56 0 98.333 -16.333 127 -49
c24.667 -26.667 37 -58.334 37 -95.001c0 -22.667 -5.16699 -47.167 -15.5 -73.5s-24.833 -51.5 -43.5 -75.5l-87 -115h-116zM201 757.001c18 0 33.167 6.33301 45.5 19s18.5 28 18.5 46c0 17.333 -6.16699 32.333 -18.5 45s-27.5 19 -45.5 19s-33.333 -6.33301 -46 -19
s-19 -27.667 -19 -45c0 -18 6.33301 -33.333 19 -46s28 -19 46 -19z" />
    <glyph glyph-name="uni2080" unicode="&#x2080;" horiz-adv-x="386" 
d="M193 -225c-49.333 0 -89.667 20.333 -121 61c-16 20 -27.5 42 -34.5 66s-10.5 53 -10.5 87c0 62 15 111 45 147c32.667 40.667 73 61 121 61c48.667 0 89.334 -20.333 122.001 -61c29.333 -37.333 44 -87.333 44 -150c0 -32.667 -3.5 -61 -10.5 -85
s-18.167 -45.667 -33.5 -65c-32.667 -40.667 -73.334 -61 -122.001 -61zM192.999 -136c19.333 0 35 11.166 47 33.499s18 51.5 18 87.5s-6 65.167 -18 87.5s-27.667 33.5 -47 33.5s-35 -11.167 -47 -33.5s-18 -51.166 -18 -86.499c0 -36 6 -65.333 18 -88s27.667 -34 47 -34
z" />
    <glyph glyph-name="uni2081" unicode="&#x2081;" horiz-adv-x="268" 
d="M87 106h-56v86h158v-392h-102v306z" />
    <glyph glyph-name="uni2082" unicode="&#x2082;" horiz-adv-x="375" 
d="M115 -96c14.667 15.333 29.668 32.3311 45.001 50.998s27.666 35 36.999 49c16 24.667 24 47.334 24 68.001c0 14 -4.33301 25.833 -13 35.5s-19.667 14.5 -33 14.5c-12 0 -21.833 -4.5 -29.5 -13.5s-11.5 -20.5 -11.5 -34.5v-6.5c0 -2.33301 0.333008 -5.5 1 -9.5h-112
c0 29.333 7.33301 56.333 22 81c12.667 22.667 30.167 40 52.5 52s48.166 18 77.499 18c22 0 42.333 -3.5 61 -10.5s34.834 -16.667 48.501 -29s24.167 -27.166 31.5 -44.499s11 -36.333 11 -57c0 -23.333 -4.66699 -44.333 -14 -63s-24.333 -37.667 -45 -57l-66 -62h129
v-86h-315z" />
    <glyph glyph-name="uni2083" unicode="&#x2083;" horiz-adv-x="398" 
d="M186 -230c-64 0 -111.328 26.333 -141.995 79c-6.66699 12 -11.334 22.667 -14.001 32s-4.33398 20 -5.00098 32h104c3.33301 -36.667 22 -55 56 -55c15.333 0 28 4.83301 38 14.5s15 21.834 15 36.501c0 15.333 -5.16699 28 -15.5 38s-22.833 15 -37.5 15
c-3.33301 0 -6.16602 -0.166992 -8.49902 -0.5s-5.5 -1.16602 -9.5 -2.49902v70l12 -1c13.333 0 23.833 4 31.5 12s11.5 18.667 11.5 32c0 11.333 -3.66699 20.666 -11 27.999s-17 11 -29 11c-26 0 -39.667 -15 -41 -45h-95c1.33301 14.667 3.66602 26.834 6.99902 36.501
s7.66602 19.167 12.999 28.5c11.333 20 28 35.667 50 47s47 17 75 17c38 0 68.5 -10.333 91.5 -31s34.5 -48 34.5 -82c0 -36 -14 -63.333 -42 -82c9.33301 -3.33301 16.5 -6.5 21.5 -9.5s10.167 -7.83301 15.5 -14.5c18 -21.333 27 -47 27 -77
c0 -18.667 -3.66699 -35.834 -11 -51.501s-17.833 -29.334 -31.5 -41.001s-29.834 -20.667 -48.501 -27s-39.334 -9.5 -62.001 -9.5z" />
    <glyph glyph-name="uni2084" unicode="&#x2084;" horiz-adv-x="364" 
d="M195 -119h-190v65l151 246h133v-233h48v-78h-48v-81h-94v81zM195 -41v151l-92 -151h92z" />
    <glyph glyph-name="uni2085" unicode="&#x2085;" horiz-adv-x="354" 
d="M141 -222c-24.667 0 -47.1641 2.83398 -67.4971 8.50098s-40.5 14.834 -60.5 27.501l15 95c19.333 -16 37.5 -27.667 54.5 -35s34.5 -11 52.5 -11c18.667 0 34.167 5.66699 46.5 17s18.5 25.333 18.5 42c0 19.333 -8.16699 35.166 -24.5 47.499
s-37.166 18.5 -62.499 18.5c-24 0 -48.667 -5.33301 -74 -16l34 211h204v-86h-135l-8 -44c7.33301 1.33301 13.166 2.16602 17.499 2.49902s9.16602 0.5 14.499 0.5c20 0 38.667 -3.5 56 -10.5s32.166 -16.667 44.499 -29s22 -26.833 29 -43.5s10.5 -35 10.5 -55
c0 -23.333 -5.16699 -44.833 -15.5 -64.5s-24.5 -35.5 -42.5 -47.5c-26.667 -18.667 -62.334 -28 -107.001 -28z" />
    <glyph glyph-name="uni2086" unicode="&#x2086;" horiz-adv-x="397" 
d="M197 -227c-56 0 -98.332 16.3311 -126.999 48.998c-24.667 26.667 -37 58.334 -37 95.001c0 22 5.16699 46.333 15.5 73s24.833 52 43.5 76l87 115h116l-111 -133c11.333 4.66699 21 7.83398 29 9.50098s16.667 2.5 26 2.5c18 0 34.667 -3.5 50 -10.5
s28.666 -16.667 39.999 -29s20.166 -26.833 26.499 -43.5s9.5 -35 9.5 -55c0 -22 -4 -42.167 -12 -60.5s-19.5 -34 -34.5 -47s-32.667 -23.167 -53 -30.5s-43.166 -11 -68.499 -11zM197.001 -146.002c17.333 0 32.333 6.16699 45 18.5s19 27.5 19 45.5
s-6.16699 33.333 -18.5 46s-27.5 19 -45.5 19s-33.333 -6.33301 -46 -19s-19 -28 -19 -46s6.33301 -33.167 19 -45.5s28 -18.5 46 -18.5z" />
    <glyph glyph-name="uni2087" unicode="&#x2087;" horiz-adv-x="362" 
d="M206 106h-164v86h322l-224 -392h-113z" />
    <glyph glyph-name="uni2088" unicode="&#x2088;" horiz-adv-x="386" 
d="M192 -217c-21.333 0 -41.1719 2.83301 -59.5049 8.5s-34.166 13.667 -47.499 24s-23.833 22.666 -31.5 36.999s-11.5 29.833 -11.5 46.5c0 31.333 11.667 57 35 77c5.33301 5.33301 11 9.5 17 12.5s14.667 6.5 26 10.5c-41.333 18 -62 47.333 -62 88
c0 15.333 3.66699 30.333 11 45s17.333 27 30 37c23.333 18 54.333 27 93 27c40 0 72.333 -10 97 -30s37 -46.667 37 -80c0 -26.667 -9.33301 -48.334 -28 -65.001l-15 -9.5c-4.66699 -3 -12 -7.16699 -22 -12.5c12 -4 21.333 -7.83301 28 -11.5s13 -8.16699 19 -13.5
c10.667 -9.33301 18.834 -20.666 24.501 -33.999s8.5 -27 8.5 -41c0 -16.667 -3.66699 -32.167 -11 -46.5s-17.666 -26.666 -30.999 -36.999s-29.166 -18.333 -47.499 -24s-38.166 -8.5 -59.499 -8.5zM191.994 41c12 0 22.167 4.33301 30.5 13s12.5 19 12.5 31
c0 11.333 -4.16699 21.333 -12.5 30s-18.833 13 -31.5 13c-11.333 0 -21.333 -4.33301 -30 -13s-13 -18.667 -13 -30c0 -12 4.33301 -22.333 13 -31s19 -13 31 -13zM191.994 -136c12.667 0 23.5 4.49902 32.5 13.499s13.5 20.167 13.5 33.5s-4.5 24.5 -13.5 33.5
s-20.167 13.5 -33.5 13.5c-12.667 0 -23.5 -4.5 -32.5 -13.5s-13.5 -19.833 -13.5 -32.5c0 -13.333 4.5 -24.666 13.5 -33.999s20.167 -14 33.5 -14z" />
    <glyph glyph-name="uni2089" unicode="&#x2089;" horiz-adv-x="398" 
d="M214 -66c-12 -5.33301 -21.833 -8.83203 -29.5 -10.499s-16.167 -2.5 -25.5 -2.5c-18 0 -34.667 3.5 -50 10.5s-28.833 16.667 -40.5 29s-20.667 27 -27 44s-9.5 35.167 -9.5 54.5c0 44.667 15.5 80.667 46.5 108s71.5 41 121.5 41c56 0 98.333 -16.333 127 -49
c24.667 -26.667 37 -58.334 37 -95.001c0 -22.667 -5.16699 -47.167 -15.5 -73.5s-24.833 -51.5 -43.5 -75.5l-87 -115h-116zM201 -0.999023c18 0 33.167 6.33301 45.5 19s18.5 28 18.5 46c0 17.333 -6.16699 32.333 -18.5 45s-27.5 19 -45.5 19s-33.333 -6.33301 -46 -19
s-19 -27.667 -19 -45c0 -18 6.33301 -33.333 19 -46s28 -19 46 -19z" />
    <glyph glyph-name="Euro" unicode="&#x20ac;" horiz-adv-x="760" 
d="M520 -15c-44 0 -87.999 8.00098 -131.999 24.001s-84.333 38.167 -121 66.5s-67.334 62 -92.001 101s-39.667 81.5 -45 127.5h-81v164h87c12 44 30 84.333 54 121s52.667 68.167 86 94.5s70.666 46.833 111.999 61.5s85 22 131 22c29.333 0 58.333 -3 87 -9
s56.334 -15.667 83.001 -29l-24 -198c-20 13.333 -41.5 23.666 -64.5 30.999s-46.5 11 -70.5 11c-18 0 -36 -2.33301 -54 -7s-35 -11.5 -51 -20.5s-30.667 -20 -44 -33s-24 -27.833 -32 -44.5h308l-20 -164h-300c6.66699 -20 16.667 -37.667 30 -53s28.833 -28 46.5 -38
s36.5 -17.667 56.5 -23s40 -8 60 -8c32.667 0 64 6 94 18l-25 -207c-13.333 -2.66699 -26.5 -4.66699 -39.5 -6s-26.167 -2 -39.5 -2z" />
    <glyph glyph-name="trademark" unicode="&#x2122;" horiz-adv-x="1560" 
d="M166 585h-158v165h515v-165h-162v-585h-195v585zM702 750h193l152 -400l161 400h193l114 -750h-195l-56 432l-181 -432h-78l-172 432l-64 -432h-194z" />
    <glyph glyph-name="uni2126" unicode="&#x2126;" horiz-adv-x="749" 
d="M80 166l137.001 0.00292969l-34.5 24.5c-9.66699 7 -17.167 13.167 -22.5 18.5c-56.667 54.667 -85 124 -85 208c0 98.667 34.333 182 103 250c67.333 67.333 149 101 245 101c97.333 0 179.333 -33.333 246 -100c34.667 -34.667 61 -75 79 -121
c16 -42 24 -85.333 24 -130c0 -75.333 -21 -137 -63 -185c-14.667 -16.667 -27.667 -29.334 -39 -38.001c-6.66699 -6 -20 -15 -40 -27h137v-167h-306v153c33.333 18.667 59 42 77 70c26 41.333 39 93.666 39 156.999c0 70 -16.333 125.667 -49 167
c-28 35.333 -62.667 53 -104 53c-44.667 0 -81.334 -20.333 -110.001 -61c-29.333 -40 -44 -93.333 -44 -160s14.667 -121.334 44 -164.001c16 -24 40.333 -44.667 73 -62v-153h-307v166z" />
    <glyph glyph-name="oneeighth" unicode="&#x215b;" horiz-adv-x="778" 
d="M78 3l444 769l60 -34l-445 -769zM87 664h-56v86h158v-392h-102v306zM584 -17c-21.333 0 -41.1719 2.83301 -59.5049 8.5s-34.166 13.667 -47.499 24s-23.833 22.666 -31.5 36.999s-11.5 29.833 -11.5 46.5c0 31.333 11.667 57 35 77c5.33301 5.33301 11 9.5 17 12.5
s14.667 6.5 26 10.5c-41.333 18 -62 47.333 -62 88c0 15.333 3.66699 30.333 11 45s17.333 27 30 37c23.333 18 54.333 27 93 27c40 0 72.333 -10 97 -30s37 -46.667 37 -80c0 -26.667 -9.33301 -48.334 -28 -65.001l-15 -9.5c-4.66699 -3 -12 -7.16699 -22 -12.5
c12 -4 21.333 -7.83301 28 -11.5s13 -8.16699 19 -13.5c10.667 -9.33301 18.834 -20.666 24.501 -33.999s8.5 -27 8.5 -41c0 -16.667 -3.66699 -32.167 -11 -46.5s-17.666 -26.666 -30.999 -36.999s-29.166 -18.333 -47.499 -24s-38.166 -8.5 -59.499 -8.5zM583.994 241
c12 0 22.167 4.33301 30.5 13s12.5 19 12.5 31c0 11.333 -4.16699 21.333 -12.5 30s-18.833 13 -31.5 13c-11.333 0 -21.333 -4.33301 -30 -13s-13 -18.667 -13 -30c0 -12 4.33301 -22.333 13 -31s19 -13 31 -13zM583.994 64c12.667 0 23.5 4.49902 32.5 13.499
s13.5 20.167 13.5 33.5s-4.5 24.5 -13.5 33.5s-20.167 13.5 -33.5 13.5c-12.667 0 -23.5 -4.5 -32.5 -13.5s-13.5 -19.833 -13.5 -32.5c0 -13.333 4.5 -24.666 13.5 -33.999s20.167 -14 33.5 -14z" />
    <glyph glyph-name="threeeighths" unicode="&#x215c;" horiz-adv-x="908" 
d="M208 3l444 769l60 -34l-445 -769zM186 328c-64 0 -111.328 26.333 -141.995 79c-6.66699 12 -11.334 22.667 -14.001 32s-4.33398 20 -5.00098 32h104c3.33301 -36.667 22 -55 56 -55c15.333 0 28 4.83301 38 14.5s15 21.834 15 36.501c0 15.333 -5.16699 28 -15.5 38
s-22.833 15 -37.5 15c-3.33301 0 -6.16602 -0.166992 -8.49902 -0.5s-5.5 -1.16602 -9.5 -2.49902v70l12 -1c13.333 0 23.833 4 31.5 12s11.5 18.667 11.5 32c0 11.333 -3.66699 20.666 -11 27.999s-17 11 -29 11c-26 0 -39.667 -15 -41 -45h-95
c1.33301 14.667 3.66602 26.834 6.99902 36.501s7.66602 19.167 12.999 28.5c11.333 20 28 35.667 50 47s47 17 75 17c38 0 68.5 -10.333 91.5 -31s34.5 -48 34.5 -82c0 -36 -14 -63.333 -42 -82c9.33301 -3.33301 16.5 -6.5 21.5 -9.5s10.167 -7.83301 15.5 -14.5
c18 -21.333 27 -47 27 -77c0 -18.667 -3.66699 -35.834 -11 -51.501s-17.833 -29.334 -31.5 -41.001s-29.834 -20.667 -48.501 -27s-39.334 -9.5 -62.001 -9.5zM714.005 -17c-21.333 0 -41.1719 2.83301 -59.5049 8.5s-34.166 13.667 -47.499 24
s-23.833 22.666 -31.5 36.999s-11.5 29.833 -11.5 46.5c0 31.333 11.667 57 35 77c5.33301 5.33301 11 9.5 17 12.5s14.667 6.5 26 10.5c-41.333 18 -62 47.333 -62 88c0 15.333 3.66699 30.333 11 45s17.333 27 30 37c23.333 18 54.333 27 93 27c40 0 72.333 -10 97 -30
s37 -46.667 37 -80c0 -26.667 -9.33301 -48.334 -28 -65.001l-15 -9.5c-4.66699 -3 -12 -7.16699 -22 -12.5c12 -4 21.333 -7.83301 28 -11.5s13 -8.16699 19 -13.5c10.667 -9.33301 18.834 -20.666 24.501 -33.999s8.5 -27 8.5 -41c0 -16.667 -3.66699 -32.167 -11 -46.5
s-17.666 -26.666 -30.999 -36.999s-29.166 -18.333 -47.499 -24s-38.166 -8.5 -59.499 -8.5zM713.999 241c12 0 22.167 4.33301 30.5 13s12.5 19 12.5 31c0 11.333 -4.16699 21.333 -12.5 30s-18.833 13 -31.5 13c-11.333 0 -21.333 -4.33301 -30 -13s-13 -18.667 -13 -30
c0 -12 4.33301 -22.333 13 -31s19 -13 31 -13zM713.999 64c12.667 0 23.5 4.49902 32.5 13.499s13.5 20.167 13.5 33.5s-4.5 24.5 -13.5 33.5s-20.167 13.5 -33.5 13.5c-12.667 0 -23.5 -4.5 -32.5 -13.5s-13.5 -19.833 -13.5 -32.5c0 -13.333 4.5 -24.666 13.5 -33.999
s20.167 -14 33.5 -14z" />
    <glyph glyph-name="fiveeighths" unicode="&#x215d;" horiz-adv-x="864" 
d="M164 3l444 769l60 -34l-445 -769zM141 336c-24.667 0 -47.1641 2.83398 -67.4971 8.50098s-40.5 14.834 -60.5 27.501l15 95c19.333 -16 37.5 -27.667 54.5 -35s34.5 -11 52.5 -11c18.667 0 34.167 5.66699 46.5 17s18.5 25.333 18.5 42
c0 19.333 -8.16699 35.166 -24.5 47.499s-37.166 18.5 -62.499 18.5c-24 0 -48.667 -5.33301 -74 -16l34 211h204v-86h-135l-8 -44c7.33301 1.33301 13.166 2.16602 17.499 2.49902s9.16602 0.5 14.499 0.5c20 0 38.667 -3.5 56 -10.5s32.166 -16.667 44.499 -29
s22 -26.833 29 -43.5s10.5 -35 10.5 -55c0 -23.333 -5.16699 -44.833 -15.5 -64.5s-24.5 -35.5 -42.5 -47.5c-26.667 -18.667 -62.334 -28 -107.001 -28zM670.003 -16.999c-21.333 0 -41.1719 2.83301 -59.5049 8.5s-34.166 13.667 -47.499 24s-23.833 22.666 -31.5 36.999
s-11.5 29.833 -11.5 46.5c0 31.333 11.667 57 35 77c5.33301 5.33301 11 9.5 17 12.5s14.667 6.5 26 10.5c-41.333 18 -62 47.333 -62 88c0 15.333 3.66699 30.333 11 45s17.333 27 30 37c23.333 18 54.333 27 93 27c40 0 72.333 -10 97 -30s37 -46.667 37 -80
c0 -26.667 -9.33301 -48.334 -28 -65.001l-15 -9.5c-4.66699 -3 -12 -7.16699 -22 -12.5c12 -4 21.333 -7.83301 28 -11.5s13 -8.16699 19 -13.5c10.667 -9.33301 18.834 -20.666 24.501 -33.999s8.5 -27 8.5 -41c0 -16.667 -3.66699 -32.167 -11 -46.5
s-17.666 -26.666 -30.999 -36.999s-29.166 -18.333 -47.499 -24s-38.166 -8.5 -59.499 -8.5zM669.997 241.001c12 0 22.167 4.33301 30.5 13s12.5 19 12.5 31c0 11.333 -4.16699 21.333 -12.5 30s-18.833 13 -31.5 13c-11.333 0 -21.333 -4.33301 -30 -13
s-13 -18.667 -13 -30c0 -12 4.33301 -22.333 13 -31s19 -13 31 -13zM669.997 64.001c12.667 0 23.5 4.49902 32.5 13.499s13.5 20.167 13.5 33.5s-4.5 24.5 -13.5 33.5s-20.167 13.5 -33.5 13.5c-12.667 0 -23.5 -4.5 -32.5 -13.5s-13.5 -19.833 -13.5 -32.5
c0 -13.333 4.5 -24.666 13.5 -33.999s20.167 -14 33.5 -14z" />
    <glyph glyph-name="seveneighths" unicode="&#x215e;" horiz-adv-x="859" 
d="M159 3l444 769l60 -34l-445 -769zM206 664h-164v86h322l-224 -392h-113zM665 -17c-21.333 0 -41.1719 2.83301 -59.5049 8.5s-34.166 13.667 -47.499 24s-23.833 22.666 -31.5 36.999s-11.5 29.833 -11.5 46.5c0 31.333 11.667 57 35 77c5.33301 5.33301 11 9.5 17 12.5
s14.667 6.5 26 10.5c-41.333 18 -62 47.333 -62 88c0 15.333 3.66699 30.333 11 45s17.333 27 30 37c23.333 18 54.333 27 93 27c40 0 72.333 -10 97 -30s37 -46.667 37 -80c0 -26.667 -9.33301 -48.334 -28 -65.001l-15 -9.5c-4.66699 -3 -12 -7.16699 -22 -12.5
c12 -4 21.333 -7.83301 28 -11.5s13 -8.16699 19 -13.5c10.667 -9.33301 18.834 -20.666 24.501 -33.999s8.5 -27 8.5 -41c0 -16.667 -3.66699 -32.167 -11 -46.5s-17.666 -26.666 -30.999 -36.999s-29.166 -18.333 -47.499 -24s-38.166 -8.5 -59.499 -8.5zM664.994 241
c12 0 22.167 4.33301 30.5 13s12.5 19 12.5 31c0 11.333 -4.16699 21.333 -12.5 30s-18.833 13 -31.5 13c-11.333 0 -21.333 -4.33301 -30 -13s-13 -18.667 -13 -30c0 -12 4.33301 -22.333 13 -31s19 -13 31 -13zM664.994 64c12.667 0 23.5 4.49902 32.5 13.499
s13.5 20.167 13.5 33.5s-4.5 24.5 -13.5 33.5s-20.167 13.5 -33.5 13.5c-12.667 0 -23.5 -4.5 -32.5 -13.5s-13.5 -19.833 -13.5 -32.5c0 -13.333 4.5 -24.666 13.5 -33.999s20.167 -14 33.5 -14z" />
    <glyph glyph-name="partialdiff" unicode="&#x2202;" horiz-adv-x="562" 
d="M275 -9c-75.333 0 -137.665 24.001 -186.998 72.001c-48.667 48.667 -73 111 -73 187c0 68 22 124 66 168c43.333 43.333 97.666 65 162.999 65c46.667 0 86 -12 118 -36c-17.333 30.667 -35 53 -53 67c-54.667 43.333 -139 68.666 -253 75.999l22 151
c28.667 -3.33301 54.167 -7 76.5 -11s41.5 -7.66699 57.5 -11c16 -4 31.667 -8.5 47 -13.5s30.333 -10.833 45 -17.5c162.667 -72.667 244 -200.667 244 -384c0 -109.333 -30.333 -192 -91 -248c-48.667 -43.333 -109.334 -65 -182.001 -65zM280.001 147.001
c22.667 0 43.333 8.66699 62 26c18.667 18.667 28 42 28 70s-9 51 -27 69c-18.667 17.333 -40 26 -64 26s-44.667 -9 -62 -27c-18.667 -18 -28 -40.667 -28 -68c0 -28 9.33301 -51.333 28 -70c17.333 -17.333 38.333 -26 63 -26z" />
    <glyph glyph-name="uni2206" unicode="&#x2206;" horiz-adv-x="741" 
d="M318 750h199l263 -750h-721zM532 166l-112 382l-117 -382h229z" />
    <glyph glyph-name="product" unicode="&#x220f;" horiz-adv-x="750" 
d="M66 -128h81v819h-81v153h715v-153h-80v-819h80v-153h-320v153h69v819h-212v-819h67v-153h-319v153z" />
    <glyph glyph-name="summation" unicode="&#x2211;" horiz-adv-x="750" 
d="M87 -79l257 376l-257 343v204h671v-298h-172l-21 121h-264l271 -370l-268 -402h271l11 129h182v-305h-681v202z" />
    <glyph glyph-name="minus" unicode="&#x2212;" horiz-adv-x="567" 
d="M63 390h474v-113h-474v113z" />
    <glyph glyph-name="infinity" unicode="&#x221e;" horiz-adv-x="750" 
d="M249 201c-54 0 -98.002 17.001 -132.002 51.001c-33.333 34.667 -50 78 -50 130s17 95 51 129c34 34.667 77.333 52 130 52c61.333 0 119 -31.667 173 -95c52 63.333 111.333 95 178 95c53.333 0 97 -17 131 -51c33.333 -34.667 50 -77.667 50 -129
c0 -52.667 -17 -96.667 -51 -132c-34.667 -33.333 -77.667 -50 -129 -50c-64.667 0 -122 31.667 -172 95c-13.333 -14.667 -26.166 -27.334 -38.499 -38.001s-24.166 -19.667 -35.499 -27c-32.667 -20 -67.667 -30 -105 -30zM268.998 318.001c18.667 0 36.333 7.33301 53 22
c3.33301 2.66699 6.83301 5.83398 10.5 9.50098s7.83398 8.16699 12.501 13.5c10 11.333 14.667 17.333 14 18c-14.667 19.333 -28 34 -40 44c-15.333 12.667 -32 19 -50 19c-18.667 0 -34.334 -6.33301 -47.001 -19c-12 -10.667 -18 -25.334 -18 -44.001
c0 -17.333 6.33301 -32 19 -44c12 -12.667 27.333 -19 46 -19zM578.997 319.001c19.333 0 35.333 6.33496 48 19.002c12 12 18 26.667 18 44c0 16 -6 30 -18 42c-13.333 13.333 -29.666 20 -48.999 20c-18.667 0 -36.334 -7.33301 -53.001 -22
c-3.33301 -2.66699 -6.83301 -5.83398 -10.5 -9.50098s-7.5 -7.83398 -11.5 -12.501c-10 -12 -15 -18.333 -15 -19c32 -41.333 62.333 -62 91 -62z" />
    <glyph glyph-name="integral" unicode="&#x222b;" horiz-adv-x="563" 
d="M178 -280c-32.667 0 -65.667 3.33301 -99 10l30 182c18.667 -7.33301 34.334 -11 47.001 -11c24 0 43 8 57 24c5.33301 6 9 14.333 11 25c0.666992 4 1.16699 10.5 1.5 19.5s0.5 20.5 0.5 34.5v65l1 389v129c0 72.667 15.667 129.667 47 171c45.333 57.333 113 86 203 86
c14 0 29.667 -1 47 -3s36.666 -4.66699 57.999 -8l-31 -183c-20 8 -36.333 12 -49 12c-24 0 -42 -7.66699 -54 -23c-6.66699 -9.33301 -11 -18.333 -13 -27c-0.666992 -4.66699 -1.16699 -11.5 -1.5 -20.5s-0.5 -20.167 -0.5 -33.5v-592c0 -33.333 -5.33301 -66.333 -16 -99
c-15.333 -47.333 -43 -83.333 -83 -108c-40.667 -26 -92.667 -39 -156 -39z" />
    <glyph glyph-name="approxequal" unicode="&#x2248;" horiz-adv-x="563" 
d="M426 382c-24.667 0 -61.666 10.333 -110.999 31c-44.667 19.333 -75.667 29 -93 29c-15.333 0 -28.666 -5.33301 -39.999 -16c-6.66699 -6.66699 -16 -18 -28 -34l-97 68c20.667 50.667 42 88.667 64 114c31.333 33.333 68.666 50 111.999 50
c7.33301 0 13.5 -0.166992 18.5 -0.5s9.16699 -0.833008 12.5 -1.5s10.666 -2.83398 21.999 -6.50098s27 -9.16699 47 -16.5l24 -9l40 -16c15.333 -6 28 -9 38 -9c12.667 0 24.334 3 35.001 9c10 6.66699 22 20.334 36 41.001l97 -68
c-10.667 -25.333 -20.834 -46.833 -30.501 -64.5s-19.167 -32.167 -28.5 -43.5c-32.667 -38 -72 -57 -118 -57zM425.001 118c-20 0 -41.998 4.33398 -65.998 13.001l-6 3l-29.5 11c-11 4 -23.5 9 -37.5 15c-28.667 11.333 -50 17 -64 17s-27.333 -5.66699 -40 -17
c-8 -6.66699 -17.333 -18 -28 -34l-97 69c21.333 52.667 42.666 90.667 63.999 114c31.333 34 68 51 110 51c12.667 0 26 -2 40 -6c6.66699 -2 16 -5 28 -9s27 -9.33301 45 -16l6 -3c5.33301 -1.33301 9 -2.66602 11 -3.99902l6 -2c2 -0.666992 3.66699 -1.33398 5 -2.00098
c7.33301 -3.33301 13 -5.83301 17 -7.5s6.66699 -2.5 8 -2.5c17.333 -6 30.333 -9 39 -9c10 0 21.333 3.66699 34 11c8.66699 5.33301 20.667 18.666 36 39.999l97 -69c-20.667 -51.333 -40.334 -87.333 -59.001 -108c-32 -36.667 -71.667 -55 -119 -55z" />
    <glyph glyph-name="notequal" unicode="&#x2260;" horiz-adv-x="563" 
d="M127 88l33 53h-73v168h135l44 77h-179v170h246l81 148l124 -69l-45 -79h81v-170h-150l-43 -77h192v-168h-253l-68 -123z" />
    <glyph glyph-name="lessequal" unicode="&#x2264;" horiz-adv-x="563" 
d="M87 400v169l487 179v-189l-267 -74l266 -74v-189zM87 192h487v-177h-487v177z" />
    <glyph glyph-name="greaterequal" unicode="&#x2265;" horiz-adv-x="563" 
d="M87 411l265 74l-265 74v189l487 -179v-168l-487 -179v189zM87 192h487v-177h-487v177z" />
    <glyph glyph-name="dotmath" unicode="&#x22c5;" horiz-adv-x="135" 
d="M67 317c-18.667 0 -33.999 6.33301 -45.999 19c-14 13.333 -21 30 -21 50c0 18.667 6.66699 34.667 20 48c12 12.667 27.667 19 47 19s35.666 -6.66699 48.999 -20c13.333 -12.667 20 -28 20 -46c0 -19.333 -6.66699 -36.333 -20 -51c-14.667 -12.667 -31 -19 -49 -19z
" />
    <glyph glyph-name="filledbox" unicode="&#x25a0;" horiz-adv-x="908" 
d="M79 750h750v-750h-750v750z" />
    <glyph glyph-name="uni25AA" unicode="&#x25aa;" horiz-adv-x="618" 
d="M79 460h460v-460h-460v460z" />
    <glyph glyph-name="lozenge" unicode="&#x25ca;" horiz-adv-x="685" 
d="M83 375l292 405l292 -405l-292 -404zM597 375l-222 305l-222 -305l222 -304z" />
    <glyph glyph-name="uniE000" unicode="&#xe000;" horiz-adv-x="4558" 
d="M4505 526c7.33398 0 11 -4.33301 11 -13v-205c0 -8 -3.66602 -12 -11 -12h-265c-9.33398 0 -14 -4.33301 -14 -13v-269c0 -9.33301 -3.33398 -14 -10 -14h-205c-7.33301 0 -11 4 -11 12v269c0 10 -4.33301 15 -13 15h-266c-8 0 -12 4.66699 -12 14v204
c0 8 3.33301 12 10 12h269c8 0 12 4.33301 12 13v231c0 6.66699 3 10 9 10h205c8 0 12 -3.33301 12 -10v-231c0 -8.66699 3.33398 -13 10 -13h269zM390 555c-40.667 -22.667 -69.6689 -55.668 -87.002 -99.001c-11.333 -28 -17 -58 -17 -90c0 -44 10.5 -83.167 31.5 -117.5
s50.833 -59.5 89.5 -75.5c24 -10.667 50.667 -16 80 -16c39.333 0 82.333 7 129 21c28.667 9.33301 43.334 14.333 44.001 15c2 -0.666992 3 -3.66699 3 -9l-2 -15l-20 -138l-2 -10c-0.666992 -3.33301 -1.66699 -7 -3 -11c-7.33301 -11.333 -28 -21.333 -62 -30
c-18.667 -4.66699 -36.834 -8.16699 -54.501 -10.5s-35.167 -3.5 -52.5 -3.5c-121.333 0 -219.333 36.333 -294 109s-112 167.334 -112 284.001c0 121.333 41 221.333 123 300c82.667 78.667 186.334 118 311.001 118c96.667 0 181.334 -23 254.001 -69
c5.33301 -4 8 -8.66699 8 -14v-6l-2 -12l-26 -126c-2.66699 -14.667 -6.33398 -22 -11.001 -22c-2.66699 0 -11.667 4.66699 -27 14c-49.333 30.667 -106.666 46 -171.999 46c-48.667 0 -91.667 -11 -129 -33zM1315 749.999c8.66699 0 14.001 -5.33398 16.001 -16.001
l150 -725c0 -6 -3.33301 -9 -10 -9h-172c-8.66699 0 -13.334 3.33301 -14.001 10l-26 105c-2 8 -7.66699 12 -17 12h-244c-8.66699 0 -15 -4 -19 -12l-50 -103c-4 -8 -12 -12 -24 -12h-195c-5.33301 0 -8 2.66699 -8 8c0 2.66699 1 5.33398 3 8.00098l356 720
c5.33301 9.33301 13 14 23 14h231zM2401 735.998l-100 -724c-0.666992 -8 -7 -12 -19 -12h-171c-10.667 0 -18.667 4.66699 -24 14l-245 431c-4.66699 6.66699 -7.33398 10 -8.00098 10c-0.666992 -0.666992 -1.66699 -5 -3 -13l-60 -428
c-1.33301 -9.33301 -6.66602 -14 -15.999 -14h-168c-10.667 0 -16 3.33301 -16 10v4l98 723c0.666992 8.66699 6 13 16 13h190c10.667 0 18.667 -4.66699 24 -14l224 -393c4 -7.33301 7.33301 -11 10 -11c2 2 3.33301 7 4 15l54 388c1.33301 10 8 15 20 15h177
c8.66699 0 13 -3.66699 13 -11v-3zM3157 15.998c0 -2 0.333008 -3.66699 1 -5v-5c0 -4 -4 -6 -12 -6h-172c-10 0 -16 4.66699 -18 14l-20 97c-2 10.667 -8.66699 16 -20 16h-232c-9.33301 0 -16 -3.66699 -20 -11l-55 -105c-3.33301 -7.33301 -10 -11 -20 -11h-193
c-5.33301 0 -8 1.66699 -8 5c0 2 1 5 3 9l354 723c4 8.66699 11.667 13 23 13h219c10.667 0 17 -5 19 -15zM3693 168.998c7.33301 0 11 -3.33398 11 -10.001v-4l-20 -143c-0.666992 -8 -6 -12 -16 -12h-420c-6 0 -9 2.66699 -9 8c0 2.66699 0.333008 4.33398 1 5.00098
l104 721c0.666992 10.667 5 16 13 16h189c6.66699 0 10 -3 10 -9v-3l-75 -556c-0.666992 0 -1 -0.666992 -1 -2c0 -7.33301 4 -11 12 -11h201zM2886 294.997c7.33301 0 11 2.33398 11 7.00098c0 5.33301 -0.333008 8.66602 -1 9.99902l-48 219c-0.666992 6 -2 9 -4 9l-6 -9
l-97 -221c-1.33301 -2.66699 -2 -5.66699 -2 -9c0 -4 4.33301 -6 13 -6h134zM1210 294.998c6 0 9 1.33301 9 4c0 4 -0.333008 7 -1 9l-52 213c-0.666992 6.66699 -2 10 -4 10c-2 -2 -3.66699 -4.33301 -5 -7l-97 -220c-1.33301 -2.66699 -2 -4.66699 -2 -6
c0 -2 2.33301 -3 7 -3h145zM659.999 192.998h-1h1z" />
    <glyph glyph-name="uniE001" unicode="&#xe001;" horiz-adv-x="5039" 
d="M79 975h4881v-1227h-4881v1227zM4455 0c7.33398 0 11 4.66699 11 14v269c0 5.33301 0.833984 8.83301 2.5 10.5s5.16602 2.5 10.5 2.5h248c7.33398 0 11 4 11 12v204c0 8.66699 -3.66602 13 -11 13h-251c-6.66602 0 -10 4.66699 -10 14v231c0 6.66699 -4.33398 10 -13 10
h-204c-6.66602 0 -10 -3.33301 -10 -10v-231c0 -9.33301 -4 -14 -12 -14h-268c-7.33301 0 -11 -3.66699 -11 -11v-205c0 -8.66699 4 -13 12 -13h266c8.66602 0 13 -5 13 -15v-269c0 -8 3.66602 -12 11 -12h205zM701 -33c67.333 0 120.334 11.665 159.001 34.998
c5.33301 3.33301 8.66602 6.33301 9.99902 9s2.66602 9.33398 3.99902 20.001l20 138c0.666992 4.66699 1 8 1 10v5c0 6 -1 9 -3 9s-5 -1 -9 -3l-10 -4c-3.33301 -1.33301 -7.33301 -2.66602 -12 -3.99902c-26.667 -7.33301 -52 -13.333 -76 -18s-45.667 -7 -65 -7
c-29.333 0 -56.333 5.16699 -81 15.5s-46 24.833 -64 43.5s-32 40.834 -42 66.501s-15 53.5 -15 83.5c0 32.667 5.66699 62.667 17 90s27.333 50.666 48 69.999s45.334 34.5 74.001 45.5s60.334 16.5 95.001 16.5c29.333 0 59.666 -4.16699 90.999 -12.5
s58.333 -19.5 81 -33.5c9.33301 -6 15.666 -9.83301 18.999 -11.5s6 -2.5 8 -2.5c3.33301 0 5.5 1 6.5 3s2.5 8.33301 4.5 19l25 125c1.33301 5.33301 2.16602 9.16602 2.49902 11.499s0.5 4.5 0.5 6.5c0 4 -0.666992 6.83301 -2 8.5s-3.66602 3.83398 -6.99902 6.50098
c-32.667 21.333 -71.667 38 -117 50s-91 18 -137 18c-62.667 0 -120.5 -10.333 -173.5 -31s-98.667 -49.5 -137 -86.5s-68.333 -81 -90 -132s-32.5 -106.833 -32.5 -167.5c0 -58.667 9.83301 -112 29.5 -160s47.334 -89.167 83.001 -123.5s78.5 -61 128.5 -80
s105.333 -28.5 166 -28.5zM1137 -0.00195312c12 0 19.999 4.00098 23.999 12.001l50 103c2.66699 5.33301 5.33398 8.66602 8.00098 9.99902s6.66699 2 12 2h244c9.33301 0 14.666 -4.33301 15.999 -13l26 -104c2 -6.66699 6.66699 -10 14 -10h173c6 0 9 3 9 9v4l-149 721
c-2.66699 10.667 -8.33398 16 -17.001 16h-231c-7.33301 0 -12.166 -0.833008 -14.499 -2.5s-5.16602 -5.5 -8.49902 -11.5l-356 -720c-1.33301 -4 -2 -7 -2 -9c0 -4.66699 2.66699 -7 8 -7h194zM1992 -0.000976562c10 0 15.333 4.66699 16 14l60 428
c1.33301 8.66699 2.33301 13 3 13s3.33398 -3.33301 8 -10l245 -431c3.33301 -5.33301 6.66602 -9 10 -11c3.33301 -2 8 -3 14 -3h171c12 0 18.333 4 19 12l100 724v3c0 7.33301 -4.33301 11 -13 11h-177c-7.33301 0 -12.166 -1 -14.5 -3c-2.33301 -2 -4.16602 -6 -5.5 -12
l-54 -388c-1.33301 -10 -3 -15 -5 -15s-5 3.66699 -9 11l-224 393c-3.33301 6.66699 -6.33301 10.667 -9 12s-7.66699 2 -15 2h-190c-10 0 -15.333 -4.33301 -16 -13l-98 -723v-4c0 -4.66699 1 -7.5 3 -8.5s6.66699 -1.5 14 -1.5h167zM2825 -0.000976562
c10.667 0 17.667 3.66602 21 10.999l54 105c2.66699 5.33301 5.16699 8.5 7.5 9.5s6.83301 1.5 13.5 1.5h231c8 0 13.167 -0.833008 15.5 -2.5s4.16602 -6.16699 5.5 -13.5l19 -97c2 -9.33301 8.33301 -14 19 -14h171c8 0 12 2 12 6c0 4.66699 -0.333008 8 -1 10l-151 719
c-1.33301 6.66699 -3 10.834 -5 12.501s-6.33301 2.5 -13 2.5h-220c-6.66699 0 -11.334 -0.833008 -14 -2.5c-2.66699 -1.66699 -5.33398 -5.16699 -8 -10.5l-354 -723c-2 -4 -3 -7 -3 -9c0 -3.33301 2.66699 -5 8 -5h192zM3906 -0.00195312c9.33301 0 14.333 4 15 12
l20 143v4c0 6.66699 -3.33301 10 -10 10h-201c-8 0 -12 3.66699 -12 11v2l75 555v4c0 6 -3.33301 9 -10 9h-189c-6.66699 0 -11 -5.33301 -13 -16l-104 -721v-5c0 -5.33301 3 -8 9 -8h420zM2988 294.998c-8.66699 0 -13 2 -13 6c0 2 0.666992 5 2 9l98 221
c3.33301 6 5.33301 9 6 9c1.33301 0 2.66602 -3 4 -9l48 -219l1 -10c0 -4.66699 -3.66699 -7 -11 -7h-135zM1297 294.998c-4.66699 0 -7.00098 1 -7.00098 3c0.666992 1.33301 1 2.33301 1 3s0.333008 1.66699 1 3l97 220c2.66699 4.66699 4.33398 7 5.00098 7
c2 0 3.66699 -3.33301 5 -10l51 -213c1.33301 -5.33301 2 -8.33301 2 -9c0 -2.66699 -3.33301 -4 -10 -4h-145z" />
    <glyph glyph-name="uniE002" unicode="&#xe002;" horiz-adv-x="981" 
d="M331 132l159 131h-390v226h390l-159 133l153 157l397 -397l-397 -406z" />
    <glyph glyph-name="uniE003" unicode="&#xe003;" horiz-adv-x="981" 
d="M100 382l397 397l154 -157l-160 -133h390v-226h-390l160 -131l-154 -156z" />
    <glyph glyph-name="uniE004" unicode="&#xe004;" horiz-adv-x="1003" 
d="M387 390l-131 -159l-156 153l406 397l397 -397l-157 -153l-133 159v-390h-226v390z" />
    <glyph glyph-name="uniE005" unicode="&#xe005;" horiz-adv-x="1003" 
d="M100 397l157 154l133 -160v390h226v-390l131 160l156 -154l-406 -397z" />
    <glyph glyph-name="uniE016" unicode="&#xe016;" horiz-adv-x="3935" 
d="M1302 14c0.666992 -1.33301 1.00098 -3.33301 1.00098 -6c0 -5.33301 -3.66699 -8 -11 -8h-60c-6.66699 0 -11.667 4 -15 12l-54 197h-305l-102 -199c-4.66699 -6.66699 -10.667 -10 -18 -10h-67c-5.33301 -0 -8 2.33301 -8 7c0 2 0.333008 3.33301 1 4l400 764
c3.33301 6 6 9 8 9c3.33301 0 5.66602 -2.33301 6.99902 -7zM2721 14c0.666992 -1.33301 1.00098 -3.33301 1.00098 -6c0 -5.33301 -3.66699 -8 -11 -8h-60c-7.33301 0 -12 4 -14 12l-55 197h-305l-102 -199c-4 -6.66699 -10 -10 -18 -10h-67c-5.33301 -0 -8 2.33301 -8 7
l1 4l401 764c3.33301 6 5.66602 9 7 9c3.33301 0 5.66602 -2.33301 6.99902 -7zM2005 -10c-1.33301 -10 -3.66699 -15 -7 -15c-2.66699 0 -6 2.66699 -10 8l-459 598l-71 -564c-1.33301 -11.333 -6.33301 -17 -15 -17h-57c-6.66699 -0 -10 3.33301 -10 10v1l92 748
c1.33301 7.33301 4 11 8 11c2 0 4.33301 -0.666992 7 -2l460 -602l70 570c0.666992 6 2 9.83301 4 11.5s5.66699 2.5 11 2.5h58c6.66699 0 10 -3 10 -9v-1zM691.001 590c0 -6 -1.66992 -9.00195 -5.00293 -9.00195c-2.66699 0 -6 2.66699 -10 8
c-26 30 -59.833 53.5 -101.5 70.5s-85.5 25.5 -131.5 25.5c-42.667 0 -82.167 -8.16699 -118.5 -24.5s-67.666 -39.166 -93.999 -68.499s-46.833 -64 -61.5 -104s-22 -84 -22 -132c0 -45.333 6.5 -86.166 19.5 -122.499s31.833 -67 56.5 -92s54.834 -44.167 90.501 -57.5
s75.834 -20 120.501 -20c41.333 0 78 6 110 18c16 6 30.667 12.667 44 20s23.666 14.666 30.999 21.999c6 6 11 9 15 9c3.33301 0 5 -2.66699 5 -8l-9 -73c0 -6 -1 -10 -3 -12c-2.66699 -4 -16.667 -11.333 -42 -22c-29.333 -11.333 -56.666 -19.5 -81.999 -24.5
s-51 -7.5 -77 -7.5c-55.333 0 -105.5 8.83301 -150.5 26.5s-83.333 42.667 -115 75s-56.167 71.333 -73.5 117s-26 96.834 -26 153.501c0 58 9.5 111.833 28.5 161.5s45.5 92.5 79.5 128.5s74.333 64.167 121 84.5s97.334 30.5 152.001 30.5c40 0 76.667 -4.66699 110 -14
s66.666 -24.333 99.999 -45c16.667 -10 28.667 -18.667 36 -26s11 -14 11 -20v-2zM3875 357.998c0 -5.33301 -2.66699 -8 -8 -8h-322c-6.66699 0 -10 -3 -10 -9v-332c0 -6 -2.66699 -9 -8 -9h-64c-5.33301 0 -8 3 -8 9v331c0 6.66699 -3.33301 10 -10 10h-324
c-4.66699 0 -7 3.66699 -7 11v60c0 6 3.33301 9 10 9h321c6.66699 0 10 3.33301 10 10v312c0 6 3.66699 9 11 9h59c6.66699 0 10 -3 10 -9v-309c0 -8.66699 4.66699 -13 14 -13h316c6.66699 0 10 -3 10 -9v-63zM3118 65.998l-7 -53c-2 -8.66699 -7 -13 -15 -13h-285
c-6.66699 0 -10 3.66699 -10 11v2l89 723c1.33301 9.33301 6.33301 14 15 14h55c6.66699 0 10 -3.33301 10 -10v-2l-79 -661h217c7.33301 0 11 -3.33301 11 -10zM1054 592.998l-156 -307h241zM2475 592.998l-158 -307h243z" />
    <glyph glyph-name="GID301" horiz-adv-x="1751" 
 />
    <glyph glyph-name="eight.dnom" horiz-adv-x="386" 
d="M192 -17c-21.333 0 -41.1719 2.83301 -59.5049 8.5s-34.166 13.667 -47.499 24s-23.833 22.666 -31.5 36.999s-11.5 29.833 -11.5 46.5c0 31.333 11.667 57 35 77c5.33301 5.33301 11 9.5 17 12.5s14.667 6.5 26 10.5c-41.333 18 -62 47.333 -62 88
c0 15.333 3.66699 30.333 11 45s17.333 27 30 37c23.333 18 54.333 27 93 27c40 0 72.333 -10 97 -30s37 -46.667 37 -80c0 -26.667 -9.33301 -48.334 -28 -65.001l-15 -9.5c-4.66699 -3 -12 -7.16699 -22 -12.5c12 -4 21.333 -7.83301 28 -11.5s13 -8.16699 19 -13.5
c10.667 -9.33301 18.834 -20.666 24.501 -33.999s8.5 -27 8.5 -41c0 -16.667 -3.66699 -32.167 -11 -46.5s-17.666 -26.666 -30.999 -36.999s-29.166 -18.333 -47.499 -24s-38.166 -8.5 -59.499 -8.5zM191.994 241c12 0 22.167 4.33301 30.5 13s12.5 19 12.5 31
c0 11.333 -4.16699 21.333 -12.5 30s-18.833 13 -31.5 13c-11.333 0 -21.333 -4.33301 -30 -13s-13 -18.667 -13 -30c0 -12 4.33301 -22.333 13 -31s19 -13 31 -13zM191.994 64c12.667 0 23.5 4.49902 32.5 13.499s13.5 20.167 13.5 33.5s-4.5 24.5 -13.5 33.5
s-20.167 13.5 -33.5 13.5c-12.667 0 -23.5 -4.5 -32.5 -13.5s-13.5 -19.833 -13.5 -32.5c0 -13.333 4.5 -24.666 13.5 -33.999s20.167 -14 33.5 -14z" />
    <glyph glyph-name="eight.numr" horiz-adv-x="386" 
d="M192 341c-21.333 0 -41.1719 2.83301 -59.5049 8.5s-34.166 13.667 -47.499 24s-23.833 22.666 -31.5 36.999s-11.5 29.833 -11.5 46.5c0 31.333 11.667 57 35 77c5.33301 5.33301 11 9.5 17 12.5s14.667 6.5 26 10.5c-41.333 18 -62 47.333 -62 88
c0 15.333 3.66699 30.333 11 45s17.333 27 30 37c23.333 18 54.333 27 93 27c40 0 72.333 -10 97 -30s37 -46.667 37 -80c0 -26.667 -9.33301 -48.334 -28 -65.001l-15 -9.5c-4.66699 -3 -12 -7.16699 -22 -12.5c12 -4 21.333 -7.83301 28 -11.5s13 -8.16699 19 -13.5
c10.667 -9.33301 18.834 -20.666 24.501 -33.999s8.5 -27 8.5 -41c0 -16.667 -3.66699 -32.167 -11 -46.5s-17.666 -26.666 -30.999 -36.999s-29.166 -18.333 -47.499 -24s-38.166 -8.5 -59.499 -8.5zM191.994 599c12 0 22.167 4.33301 30.5 13s12.5 19 12.5 31
c0 11.333 -4.16699 21.333 -12.5 30s-18.833 13 -31.5 13c-11.333 0 -21.333 -4.33301 -30 -13s-13 -18.667 -13 -30c0 -12 4.33301 -22.333 13 -31s19 -13 31 -13zM191.994 422c12.667 0 23.5 4.49902 32.5 13.499s13.5 20.167 13.5 33.5s-4.5 24.5 -13.5 33.5
s-20.167 13.5 -33.5 13.5c-12.667 0 -23.5 -4.5 -32.5 -13.5s-13.5 -19.833 -13.5 -32.5c0 -13.333 4.5 -24.666 13.5 -33.999s20.167 -14 33.5 -14z" />
    <glyph glyph-name="eight.tf" horiz-adv-x="700" 
d="M350 -27c-85.333 0 -155.333 21.3359 -210 64.0029s-82 98 -82 166c0 64.667 21.667 114.667 65 150c18.667 14.667 47.334 28.667 86.001 42c-16 7.33301 -30 15.166 -42 23.499s-22.333 16.833 -31 25.5c-31.333 33.333 -47 73 -47 119c0 48.667 14.667 90.667 44 126
c27.333 34 65 58.333 113 73c31.333 10.667 66.666 16 105.999 16c77.333 0 139.666 -19.667 186.999 -59c48 -38.667 72 -90.667 72 -156c0 -45.333 -15 -83.666 -45 -114.999c-8 -8.66699 -18.667 -17.334 -32 -26.001s-29.333 -17.667 -48 -27
c36.667 -10.667 65.334 -24.334 86.001 -41.001c46.667 -38.667 70 -89.334 70 -152.001c0 -51.333 -17.333 -96.333 -52 -135c-31.333 -35.333 -72.333 -61 -123 -77c-37.333 -11.333 -76.333 -17 -117 -17zM350 480.003c24 0 44.168 7.5 60.501 22.5s24.5 34.5 24.5 58.5
c0 22.667 -8.33301 41.5 -25 56.5s-36.334 22.5 -59.001 22.5c-24 0 -44.333 -7.33301 -61 -22s-25 -34 -25 -58c0 -23.333 8.33301 -42.5 25 -57.5s36.667 -22.5 60 -22.5zM350.001 136.003c26 0 47.833 8.16699 65.5 24.5s26.5 37.166 26.5 62.499s-8.83301 46 -26.5 62
s-39.167 24 -64.5 24c-26 0 -48 -8 -66 -24s-27 -36.667 -27 -62s9 -46.166 27 -62.499s39.667 -24.5 65 -24.5z" />
    <glyph glyph-name="five.dnom" horiz-adv-x="354" 
d="M141 -22c-24.667 0 -47.1641 2.83398 -67.4971 8.50098s-40.5 14.834 -60.5 27.501l15 95c19.333 -16 37.5 -27.667 54.5 -35s34.5 -11 52.5 -11c18.667 0 34.167 5.66699 46.5 17s18.5 25.333 18.5 42c0 19.333 -8.16699 35.166 -24.5 47.499s-37.166 18.5 -62.499 18.5
c-24 0 -48.667 -5.33301 -74 -16l34 211h204v-86h-135l-8 -44c7.33301 1.33301 13.166 2.16602 17.499 2.49902s9.16602 0.5 14.499 0.5c20 0 38.667 -3.5 56 -10.5s32.166 -16.667 44.499 -29s22 -26.833 29 -43.5s10.5 -35 10.5 -55
c0 -23.333 -5.16699 -44.833 -15.5 -64.5s-24.5 -35.5 -42.5 -47.5c-26.667 -18.667 -62.334 -28 -107.001 -28z" />
    <glyph glyph-name="five.numr" horiz-adv-x="354" 
d="M141 336c-24.667 0 -47.1641 2.83398 -67.4971 8.50098s-40.5 14.834 -60.5 27.501l15 95c19.333 -16 37.5 -27.667 54.5 -35s34.5 -11 52.5 -11c18.667 0 34.167 5.66699 46.5 17s18.5 25.333 18.5 42c0 19.333 -8.16699 35.166 -24.5 47.499s-37.166 18.5 -62.499 18.5
c-24 0 -48.667 -5.33301 -74 -16l34 211h204v-86h-135l-8 -44c7.33301 1.33301 13.166 2.16602 17.499 2.49902s9.16602 0.5 14.499 0.5c20 0 38.667 -3.5 56 -10.5s32.166 -16.667 44.499 -29s22 -26.833 29 -43.5s10.5 -35 10.5 -55
c0 -23.333 -5.16699 -44.833 -15.5 -64.5s-24.5 -35.5 -42.5 -47.5c-26.667 -18.667 -62.334 -28 -107.001 -28z" />
    <glyph glyph-name="five.tf" horiz-adv-x="700" 
d="M312 -25c-37.333 0 -79.332 5.6709 -125.999 17.0039c-27.333 6.66699 -54.666 17.667 -81.999 33c-5.33301 2.66699 -10.666 5.66699 -15.999 9s-11.333 6.66602 -18 9.99902l28 166c19.333 -12 48.333 -28 87 -48c39.333 -16 75.666 -24 108.999 -24
c37.333 0 68.333 9 93 27c27.333 21.333 41 49.666 41 84.999c0 28 -10.333 52.333 -31 73c-17.333 17.333 -40.333 30.666 -69 39.999c-20.667 6 -43 9 -67 9c-28 0 -62.667 -5 -104 -15l-16 -4.5c-6 -1.66699 -13 -3.83398 -21 -6.50098l65 404h389v-165h-258l-13 -84
c1.33301 0 3.16602 0.166992 5.49902 0.5s5.16602 0.833008 8.49902 1.5c16 2 32 3 48 3c54.667 0 104 -13.833 148 -41.5s76.333 -66.5 97 -116.5c13.333 -34 20 -69 20 -105c0 -83.333 -28.333 -149 -85 -197c-57.333 -47.333 -135 -71 -233 -71z" />
    <glyph glyph-name="four.dnom" horiz-adv-x="364" 
d="M195 81h-190v65l151 246h133v-233h48v-78h-48v-81h-94v81zM195 159v151l-92 -151h92z" />
    <glyph glyph-name="four.numr" horiz-adv-x="364" 
d="M195 439h-190v65l151 246h133v-233h48v-78h-48v-81h-94v81zM195 517v151l-92 -151h92z" />
    <glyph glyph-name="four.tf" horiz-adv-x="700" 
d="M395 154h-363v125l290 471h253v-436h92v-160h-92v-154h-180v154zM395 314v265l-169 -265h169z" />
    <glyph glyph-name="i.loclTRK" horiz-adv-x="302" 
d="M150 589c-14 0 -27.168 2.66797 -39.501 8.00098s-23.166 12.666 -32.499 21.999s-16.666 20 -21.999 32s-8 25 -8 39c0 30 9.5 54.833 28.5 74.5s43.5 29.5 73.5 29.5c14 0 27.333 -2.66699 40 -8s23.667 -12.5 33 -21.5s16.666 -19.833 21.999 -32.5s8 -26 8 -40
c0 -29.333 -10 -53.833 -30 -73.5s-44.333 -29.5 -73 -29.5zM60.999 506.001h180v-506h-180v506z" />
    <glyph glyph-name="nine.dnom" horiz-adv-x="398" 
d="M214 134c-12 -5.33301 -21.833 -8.83203 -29.5 -10.499s-16.167 -2.5 -25.5 -2.5c-18 0 -34.667 3.5 -50 10.5s-28.833 16.667 -40.5 29s-20.667 27 -27 44s-9.5 35.167 -9.5 54.5c0 44.667 15.5 80.667 46.5 108s71.5 41 121.5 41c56 0 98.333 -16.333 127 -49
c24.667 -26.667 37 -58.334 37 -95.001c0 -22.667 -5.16699 -47.167 -15.5 -73.5s-24.833 -51.5 -43.5 -75.5l-87 -115h-116zM201 199.001c18 0 33.167 6.33301 45.5 19s18.5 28 18.5 46c0 17.333 -6.16699 32.333 -18.5 45s-27.5 19 -45.5 19s-33.333 -6.33301 -46 -19
s-19 -27.667 -19 -45c0 -18 6.33301 -33.333 19 -46s28 -19 46 -19z" />
    <glyph glyph-name="nine.numr" horiz-adv-x="398" 
d="M214 492c-12 -5.33301 -21.833 -8.83203 -29.5 -10.499s-16.167 -2.5 -25.5 -2.5c-18 0 -34.667 3.5 -50 10.5s-28.833 16.667 -40.5 29s-20.667 27 -27 44s-9.5 35.167 -9.5 54.5c0 44.667 15.5 80.667 46.5 108s71.5 41 121.5 41c56 0 98.333 -16.333 127 -49
c24.667 -26.667 37 -58.334 37 -95.001c0 -22.667 -5.16699 -47.167 -15.5 -73.5s-24.833 -51.5 -43.5 -75.5l-87 -115h-116zM201 557.001c18 0 33.167 6.33301 45.5 19s18.5 28 18.5 46c0 17.333 -6.16699 32.333 -18.5 45s-27.5 19 -45.5 19s-33.333 -6.33301 -46 -19
s-19 -27.667 -19 -45c0 -18 6.33301 -33.333 19 -46s28 -19 46 -19z" />
    <glyph glyph-name="nine.tf" horiz-adv-x="700" 
d="M347 219l-14.998 -0.00195312l-26 1c-13.333 0.666992 -27.833 2.83398 -43.5 6.50098s-32.834 8.83398 -51.501 15.501c-56.667 21.333 -100.667 53.833 -132 97.5s-47 95.834 -47 156.501c0 89.333 32.667 160 98 212c59.333 48 134 72 224 72
c91.333 0 166.666 -25.667 225.999 -77c58.667 -50.667 88 -115.334 88 -194.001c0 -92.667 -38 -189 -114 -289l-167 -220h-220zM354.002 378.998c17.333 0 33.501 3.16699 48.501 9.5s28.167 15 39.5 26s20.166 24 26.499 39s9.5 31.167 9.5 48.5c0 34 -12 63 -36 87
s-53 36 -87 36c-34.667 0 -64 -12 -88 -36s-36 -53 -36 -87s12 -63 36 -87s53 -36 87 -36z" />
    <glyph glyph-name="one.dnom" horiz-adv-x="268" 
d="M87 306h-56v86h158v-392h-102v306z" />
    <glyph glyph-name="one.numr" horiz-adv-x="268" 
d="M87 664h-56v86h158v-392h-102v306z" />
    <glyph glyph-name="one.tf" horiz-adv-x="700" 
d="M305 585h-106v165h301v-750h-195v585z" />
    <glyph glyph-name="seven.dnom" horiz-adv-x="362" 
d="M206 306h-164v86h322l-224 -392h-113z" />
    <glyph glyph-name="seven.numr" horiz-adv-x="362" 
d="M206 664h-164v86h322l-224 -392h-113z" />
    <glyph glyph-name="seven.tf" horiz-adv-x="700" 
d="M371 585h-344v165h647l-429 -750h-215z" />
    <glyph glyph-name="six.dnom" horiz-adv-x="397" 
d="M197 -27c-56 0 -98.332 16.3311 -126.999 48.998c-24.667 26.667 -37 58.334 -37 95.001c0 22 5.16699 46.333 15.5 73s24.833 52 43.5 76l87 115h116l-111 -133c11.333 4.66699 21 7.83398 29 9.50098s16.667 2.5 26 2.5c18 0 34.667 -3.5 50 -10.5
s28.666 -16.667 39.999 -29s20.166 -26.833 26.499 -43.5s9.5 -35 9.5 -55c0 -22 -4 -42.167 -12 -60.5s-19.5 -34 -34.5 -47s-32.667 -23.167 -53 -30.5s-43.166 -11 -68.499 -11zM197.001 53.998c17.333 0 32.333 6.16699 45 18.5s19 27.5 19 45.5
s-6.16699 33.333 -18.5 46s-27.5 19 -45.5 19s-33.333 -6.33301 -46 -19s-19 -28 -19 -46s6.33301 -33.167 19 -45.5s28 -18.5 46 -18.5z" />
    <glyph glyph-name="six.numr" horiz-adv-x="397" 
d="M197 331c-56 0 -98.332 16.3311 -126.999 48.998c-24.667 26.667 -37 58.334 -37 95.001c0 22 5.16699 46.333 15.5 73s24.833 52 43.5 76l87 115h116l-111 -133c11.333 4.66699 21 7.83398 29 9.50098s16.667 2.5 26 2.5c18 0 34.667 -3.5 50 -10.5
s28.666 -16.667 39.999 -29s20.166 -26.833 26.499 -43.5s9.5 -35 9.5 -55c0 -22 -4 -42.167 -12 -60.5s-19.5 -34 -34.5 -47s-32.667 -23.167 -53 -30.5s-43.166 -11 -68.499 -11zM197.001 411.998c17.333 0 32.333 6.16699 45 18.5s19 27.5 19 45.5
s-6.16699 33.333 -18.5 46s-27.5 19 -45.5 19s-33.333 -6.33301 -46 -19s-19 -28 -19 -46s6.33301 -33.167 19 -45.5s28 -18.5 46 -18.5z" />
    <glyph glyph-name="six.tf" horiz-adv-x="700" 
d="M346 -31c-92 0 -167.333 25.3301 -226 75.9971s-88 116.334 -88 197.001c0 90.667 38 186.334 114 287.001l167 221h221l-188 -229c10 4 23.333 6 40 6c80.667 0 147.667 -26.333 201 -79c54 -52.667 81 -118 81 -196c0 -87.333 -33 -157.666 -99 -210.999
c-60 -48 -134.333 -72 -223 -72zM346 122.997c33.333 0 62.001 12.332 86.001 36.999c24.667 24.667 37 53.667 37 87c0 34 -12 63 -36 87c-24 24.667 -53 37 -87 37c-34.667 0 -64 -12 -88 -36s-36 -53.333 -36 -88c0 -33.333 12 -62.666 36 -87.999
c25.333 -24 54.666 -36 87.999 -36z" />
    <glyph glyph-name="three.dnom" horiz-adv-x="398" 
d="M186 -30c-64 0 -111.328 26.333 -141.995 79c-6.66699 12 -11.334 22.667 -14.001 32s-4.33398 20 -5.00098 32h104c3.33301 -36.667 22 -55 56 -55c15.333 0 28 4.83301 38 14.5s15 21.834 15 36.501c0 15.333 -5.16699 28 -15.5 38s-22.833 15 -37.5 15
c-3.33301 0 -6.16602 -0.166992 -8.49902 -0.5s-5.5 -1.16602 -9.5 -2.49902v70l12 -1c13.333 0 23.833 4 31.5 12s11.5 18.667 11.5 32c0 11.333 -3.66699 20.666 -11 27.999s-17 11 -29 11c-26 0 -39.667 -15 -41 -45h-95c1.33301 14.667 3.66602 26.834 6.99902 36.501
s7.66602 19.167 12.999 28.5c11.333 20 28 35.667 50 47s47 17 75 17c38 0 68.5 -10.333 91.5 -31s34.5 -48 34.5 -82c0 -36 -14 -63.333 -42 -82c9.33301 -3.33301 16.5 -6.5 21.5 -9.5s10.167 -7.83301 15.5 -14.5c18 -21.333 27 -47 27 -77
c0 -18.667 -3.66699 -35.834 -11 -51.501s-17.833 -29.334 -31.5 -41.001s-29.834 -20.667 -48.501 -27s-39.334 -9.5 -62.001 -9.5z" />
    <glyph glyph-name="three.numr" horiz-adv-x="398" 
d="M186 328c-64 0 -111.328 26.333 -141.995 79c-6.66699 12 -11.334 22.667 -14.001 32s-4.33398 20 -5.00098 32h104c3.33301 -36.667 22 -55 56 -55c15.333 0 28 4.83301 38 14.5s15 21.834 15 36.501c0 15.333 -5.16699 28 -15.5 38s-22.833 15 -37.5 15
c-3.33301 0 -6.16602 -0.166992 -8.49902 -0.5s-5.5 -1.16602 -9.5 -2.49902v70l12 -1c13.333 0 23.833 4 31.5 12s11.5 18.667 11.5 32c0 11.333 -3.66699 20.666 -11 27.999s-17 11 -29 11c-26 0 -39.667 -15 -41 -45h-95c1.33301 14.667 3.66602 26.834 6.99902 36.501
s7.66602 19.167 12.999 28.5c11.333 20 28 35.667 50 47s47 17 75 17c38 0 68.5 -10.333 91.5 -31s34.5 -48 34.5 -82c0 -36 -14 -63.333 -42 -82c9.33301 -3.33301 16.5 -6.5 21.5 -9.5s10.167 -7.83301 15.5 -14.5c18 -21.333 27 -47 27 -77
c0 -18.667 -3.66699 -35.834 -11 -51.501s-17.833 -29.334 -31.5 -41.001s-29.834 -20.667 -48.501 -27s-39.334 -9.5 -62.001 -9.5z" />
    <glyph glyph-name="three.tf" horiz-adv-x="700" 
d="M356 -33c-69.333 0 -136.001 22.0029 -200.001 66.0029c-34.667 23.333 -60 51.333 -76 84c-8.66699 16.667 -16 38.334 -22 65.001c-1.33301 5.33301 -2.66602 12.833 -3.99902 22.5s-2.66602 21.5 -3.99902 35.5h199c2.66699 -20.667 5.66699 -35 9 -43
c5.33301 -12.667 13.333 -24.667 24 -36c21.333 -20 46.333 -30 75 -30c30 0 54 9.83301 72 29.5s27 44.5 27 74.5c0 64 -38.333 96 -115 96h-7c-4.66699 0 -8.33398 -0.333008 -11.001 -1v131h11c63.333 0 95 26 95 78c0 53.333 -25.333 80 -76 80
c-52.667 0 -80.334 -29.333 -83.001 -88h-179c6.66699 48 17.667 86.667 33 116c46.667 86.667 126.334 130 239.001 130c74 0 133.333 -20 178 -60c45.333 -40 68 -93 68 -159c0 -44 -12 -81.667 -36 -113c-5.33301 -6.66699 -11.833 -13.334 -19.5 -20.001
s-16.167 -13.334 -25.5 -20.001c27.333 -8.66699 48 -20.334 62 -35.001c40 -38.667 60 -91 60 -157c0 -56.667 -15.5 -104.334 -46.5 -143.001s-73.5 -67 -127.5 -85c-36 -12 -76 -18 -120 -18z" />
    </font>
</defs>
</svg>
