<?xml version="1.0" standalone="no"?>
<!DOCTYPE svg PUBLIC "-//W3C//DTD SVG 1.1//EN" "http://www.w3.org/Graphics/SVG/1.1/DTD/svg11.dtd" >
<svg>
<metadata>
Created by FontForge 20090914 at Sat Jul 10 00:23:17 2021
 By www-data
Copyright by URW++ and Canal+ 2019
</metadata>
<defs>
<font id="Canal+25-Italic" horiz-adv-x="563" >
  <font-face 
    font-family="Canal+25 Italic"
    font-weight="400"
    font-style="italic"
    font-stretch="normal"
    units-per-em="1000"
    panose-1="0 0 5 0 0 0 0 0 0 0"
    ascent="800"
    descent="-200"
    x-height="460"
    cap-height="750"
    bbox="-546 -285.001 4960 1023"
    underline-thickness="50"
    underline-position="-50"
    slope="-7"
    unicode-range="U+000D-U+FB02"
  />
<missing-glyph horiz-adv-x="281" 
 />
    <glyph glyph-name="fi" unicode="fi" horiz-adv-x="503" 
d="M77 0l48 393h-44l9 74h43l25 199c5.33301 38 13.333 68 24 90c12 24 30 43 54 57s51.333 21 82 21c14.667 0 33.334 -3.33301 56.001 -10l-10 -82c-20.667 8 -37.334 12 -50.001 12c-22 0 -38.333 -5.33301 -49 -16c-14 -14 -24 -44.333 -30 -91l-22 -180h117l-9 -74
h-117l-48 -393h-79zM472 701c15.333 0 28.001 -5.66699 38.001 -17c8 -8.66699 12 -19.667 12 -33c0 -19.333 -7.33301 -35.333 -22 -48c-12.667 -11.333 -26.667 -17 -42 -17c-14.667 0 -26.334 4.33301 -35.001 13c-10.667 10 -16 22 -16 36c0 17.333 6 32.333 18 45
c13.333 14 29 21 47 21zM345.001 0l57 467h80l-57 -467h-80z" />
    <glyph glyph-name="fl" unicode="fl" horiz-adv-x="503" 
d="M77 0l48 393h-44l9 74h43l25 199c5.33301 38 13.333 68 24 90c12 24 30 43 54 57s51.333 21 82 21c14.667 0 33.334 -3.33301 56.001 -10l-10 -82c-20.667 8 -37.334 12 -50.001 12c-22 0 -38.333 -5.33301 -49 -16c-14 -14 -24 -44.333 -30 -91l-22 -180h117l-9 -74
h-117l-48 -393h-79zM345 0l101 820h80l-101 -820h-80z" />
    <glyph glyph-name=".notdef" horiz-adv-x="281" 
 />
    <glyph glyph-name=".null" horiz-adv-x="0" 
 />
    <glyph glyph-name=".null" horiz-adv-x="0" 
 />
    <glyph glyph-name="nonmarkingreturn" unicode="&#xd;" horiz-adv-x="250" 
 />
    <glyph glyph-name="space" unicode=" " horiz-adv-x="281" 
 />
    <glyph glyph-name="exclam" unicode="!" horiz-adv-x="262" 
d="M137 750h82l-62 -503h-82zM147 45c-2 -15.333 -9.16895 -28.5 -21.502 -39.5s-26.166 -16.5 -41.499 -16.5s-27.666 5.33301 -36.999 16s-13 23.667 -11 39s9 28.5 21 39.5s25.667 16.5 41 16.5s27.833 -5.33301 37.5 -16s13.5 -23.667 11.5 -39z" />
    <glyph glyph-name="quotedbl" unicode="&#x22;" horiz-adv-x="336" 
d="M41 490l24 260h73l-44 -260h-53zM205 490l24 260h74l-45 -260h-53z" />
    <glyph glyph-name="numbersign" unicode="#" horiz-adv-x="599" 
d="M444 305h116v-67h-124l-30 -241l-70 10l28 231h-159l-30 -241l-70 10l29 231h-120v67h128l20 158h-120v67h128l28 226l70 -10l-26 -216h157l29 226l70 -10l-27 -216h116v-67h-123zM214 305h158l19 158h-158z" />
    <glyph glyph-name="dollar" unicode="$" horiz-adv-x="594" 
d="M454 599c-9.33301 17.333 -16.8398 29.9951 -22.5068 37.9951s-13.167 15.333 -22.5 22c-17.333 14 -41.666 21 -72.999 21c-36.667 0 -67.667 -10.333 -93 -31s-40 -48 -44 -82c-2.66699 -25.333 5.16602 -47.5 23.499 -66.5s52.166 -39.5 101.499 -61.5
c35.333 -15.333 64.833 -31 88.5 -47s42.5 -32.833 56.5 -50.5s23.333 -37 28 -58s5.33398 -44.167 2.00098 -69.5c-2.66699 -20 -7.33398 -40.167 -14.001 -60.5s-14.667 -38.166 -24 -53.499c-15.333 -25.333 -35 -47 -59 -65
c-13.333 -9.33301 -26.166 -16.666 -38.499 -21.999s-30.166 -11.333 -53.499 -18l-7 -53h-88l6 49c-24.667 2.66699 -43.334 5.66699 -56.001 9s-25.667 8.66602 -39 15.999c-25.333 14.667 -45.666 33.667 -60.999 57c-9.33301 14.667 -16.333 29.334 -21 44.001
s-9.33398 36.334 -14.001 65.001l82 22c4 -16 8 -29.833 12 -41.5s8.5 -21.667 13.5 -30s11 -15.666 18 -21.999s15.167 -12.5 24.5 -18.5c22.667 -13.333 48.334 -20 77.001 -20c20.667 0 40 3.5 58 10.5s33.833 16.667 47.5 29s25 27 34 44s14.833 35.5 17.5 55.5
c2 17.333 1.33301 33 -2 47s-10.5 27 -21.5 39s-25.667 23.833 -44 35.5s-41.5 23.5 -69.5 35.5c-32.667 14 -60 28 -82 42s-39.333 29 -52 45s-21.167 33.333 -25.5 52s-5.16602 39.334 -2.49902 62.001c6 45.333 25 84.333 57 117c16.667 16.667 35.334 30.667 56.001 42
c12.667 6.66699 25 11.834 37 15.501s28.667 7.83398 50 12.501l6 45h88l-6 -50c16.667 -4.66699 29.334 -8.83398 38.001 -12.501s17.334 -9.16699 26.001 -16.5c12.667 -10 22.834 -20.333 30.501 -31s16.834 -27.334 27.501 -50.001z" />
    <glyph glyph-name="percent" unicode="%" horiz-adv-x="826" 
d="M396 594c0 -26.667 -4.66699 -51.501 -14 -74.501s-22 -42.833 -38 -59.5s-35 -29.834 -57 -39.501s-46 -14.5 -72 -14.5s-50 4.83301 -72 14.5s-41 22.834 -57 39.501s-28.667 36.5 -38 59.5s-14 47.833 -14 74.5s4.66699 51.5 14 74.5s22 42.833 38 59.5
s35 29.834 57 39.501s45.667 14.5 71 14.5c26 0 50.167 -4.66699 72.5 -14s41.5 -22.5 57.5 -39.5s28.667 -36.833 38 -59.5s14 -47.667 14 -75zM158 19.999l438 753l73 -43l-434 -753zM319 594.999c0 34 -9.66797 61.834 -29.001 83.501s-44 32.5 -74 32.5
c-31.333 0 -56.833 -10.833 -76.5 -32.5s-29.5 -49.834 -29.5 -84.501c0 -34 9.83301 -61.833 29.5 -83.5s44.834 -32.5 75.501 -32.5s55.667 11 75 33s29 50 29 84zM791.999 155c0 -26.667 -4.66699 -51.333 -14 -74s-22.166 -42.5 -38.499 -59.5s-35.5 -30.333 -57.5 -40
s-45.667 -14.5 -71 -14.5c-26 0 -50 4.83301 -72 14.5s-41 22.834 -57 39.501s-28.667 36.5 -38 59.5s-14 47.833 -14 74.5s4.5 51.5 13.5 74.5s21.667 43 38 60s35.5 30.333 57.5 40s45.667 14.5 71 14.5c26 0 50 -4.83301 72 -14.5s41.167 -22.834 57.5 -39.501
s29.166 -36.5 38.499 -59.5s14 -48.167 14 -75.5zM714.999 156.001c0 34 -9.66797 61.833 -29.001 83.5s-44 32.5 -74 32.5c-31.333 0 -56.833 -10.833 -76.5 -32.5s-29.5 -49.5 -29.5 -83.5s9.83301 -61.833 29.5 -83.5s44.834 -32.5 75.501 -32.5s55.667 10.833 75 32.5
s29 49.5 29 83.5z" />
    <glyph glyph-name="ampersand" unicode="&#x26;" horiz-adv-x="711" 
d="M517 106l-30.4961 -28.001c-9 -8 -17.5 -15 -25.5 -21s-16.167 -11.667 -24.5 -17s-17.833 -11 -28.5 -17c-24.667 -13.333 -46.834 -22.833 -66.501 -28.5s-41.5 -8.5 -65.5 -8.5c-30.667 0 -59.167 5.33301 -85.5 16s-49.166 25.167 -68.499 43.5
s-34.5 40.166 -45.5 65.499s-16.5 52.666 -16.5 81.999c0 38 8 71.333 24 100s43.333 58.334 82 89.001c6 5.33301 11.833 10 17.5 14l18 13c6.33301 4.66699 13.666 9.66699 21.999 15l29.5 19c-16.667 21.333 -28.834 37.833 -36.501 49.5s-14.5 23.834 -20.5 36.501
c-11.333 22.667 -17 47.667 -17 75c0 22.667 4.16699 43.667 12.5 63s19.666 36 33.999 50s31.5 25 51.5 33s41.667 12 65 12c22.667 0 43.667 -4 63 -12s36.166 -19 50.499 -33s25.666 -30.333 33.999 -49s12.5 -38.667 12.5 -60c0 -19.333 -2.16699 -35.166 -6.5 -47.499
s-13.166 -26.5 -26.499 -42.5l-19.5 -22.5c-6.33301 -7 -13.333 -14 -21 -21s-16.167 -14.167 -25.5 -21.5l-33 -26l157 -201l21 20l72 67l52 -61l-26 -23.5l-20.5 -18.5l-21 -20l-28.5 -27l127 -163h-103zM322.004 487.999c20.667 15.333 37.499 28.333 50.499 39
s23.333 20.5 31 29.5s12.834 17.333 15.501 25s4 16.167 4 25.5c0 24 -7.83301 43.833 -23.5 59.5s-35.5 23.5 -59.5 23.5c-23.333 0 -43 -8.16699 -59 -24.5s-24 -36.5 -24 -60.5c0 -7.33301 0.666992 -14.333 2 -21s3.33301 -11.667 6 -15l51 -73l1 -3l3 -1z
M293.003 375.999l-31 -20.999c-20.667 -14 -38.834 -27.333 -54.501 -40s-28.834 -25.667 -39.501 -39c-16.667 -20.667 -25 -45.334 -25 -74.001c0 -20 3.33301 -38.5 10 -55.5s16 -31.833 28 -44.5s26.333 -22.5 43 -29.5s34.667 -10.5 54 -10.5c26.667 0 56 9 88 27
c7.33301 4 14.333 8.16699 21 12.5s13.834 9.33301 21.501 15s16.334 12.5 26.001 20.5l33.5 29l-167 216z" />
    <glyph glyph-name="quotesingle" unicode="'" horiz-adv-x="194" 
d="M33 491l56 259h72l-75 -259h-53z" />
    <glyph glyph-name="parenleft" unicode="(" horiz-adv-x="280" 
d="M79 -132c-2.66699 8 -4.83301 14.998 -6.5 20.998s-3.16699 11 -4.5 15c-3.33301 12.667 -6.33301 25.334 -9 38.001s-5.33398 26.334 -8.00098 41.001c-8.66699 56.667 -13.167 119.667 -13.5 189s3.83398 138.333 12.501 207c6.66699 55.333 16 109.833 28 163.5
s26.333 106.5 43 158.5c7.33301 22.667 14.666 43.334 21.999 62.001s14.666 36.334 21.999 53.001c6 13.333 11.667 25 17 35l23 42l74 -32l-31 -63c-8.66699 -18 -16.167 -35 -22.5 -51s-12.166 -31.667 -17.499 -47s-11 -32.666 -17 -51.999
c-25.333 -83.333 -44 -172.333 -56 -267c-6 -48 -9.83301 -93.833 -11.5 -137.5s-1.16699 -86.834 1.5 -129.501c1.33301 -18.667 2.83301 -35.834 4.5 -51.501s3.83398 -31.334 6.50098 -47.001s6 -32.667 10 -51s9 -39.5 15 -63.5z" />
    <glyph glyph-name="parenright" unicode=")" horiz-adv-x="279" 
d="M200 893c2.66699 -8 4.83691 -15 6.50391 -21s3.16699 -11 4.5 -15c4 -12 7.16699 -24.5 9.5 -37.5l7.5 -41.5c9.33301 -56.667 14 -119.834 14 -189.501s-4.33301 -138.834 -13 -207.501c-6.66699 -54 -16 -108 -28 -162s-26.333 -107 -43 -159
c-7.33301 -22.667 -14.5 -43.5 -21.5 -62.5s-14.167 -36.5 -21.5 -52.5l-18 -34.5l-23 -42.5l-73 33c12 24 22.167 45.167 30.5 63.5s15.666 35.333 21.999 51s12.166 31.334 17.499 47.001l17 51.5c13.333 42.667 24.5 85.834 33.5 129.501s16.5 89.5 22.5 137.5
s9.83301 93.833 11.5 137.5s1.16699 86.834 -1.5 129.501c-1.33301 19.333 -2.83301 36.666 -4.5 51.999s-3.83398 31 -6.50098 47s-5.83398 33 -9.50098 51s-8.5 39 -14.5 63z" />
    <glyph glyph-name="asterisk" unicode="*" horiz-adv-x="500" 
d="M232 562l90.001 -112.998c-8.66699 -6 -16.167 -11.5 -22.5 -16.5l-20.5 -15.5l-80 120l-39 -59.5l-41 -60.5c-8.66699 6 -16.167 11.5 -22.5 16.5l-20.5 15.5l90 113c-20.667 5.33301 -43.834 11.666 -69.501 18.999l-70.5 20l17 51l134 -49
c-0.666992 21.333 -1.5 45.166 -2.5 71.499s-1.83301 50.5 -2.5 72.5h54l-6 -144l135 49l17 -51z" />
    <glyph glyph-name="plus" unicode="+" horiz-adv-x="1132" 
d="M947 358c0 -5.33301 -3 -8 -9 -8h-321c-6.66699 0 -10 -3 -10 -9v-332c0 -6 -2.66699 -9 -8 -9h-65c-5.33301 0 -8 3 -8 9v331c0 6.66699 -3.33301 10 -10 10h-323c-5.33301 0 -8 3.66699 -8 11v60c0 6 3.33301 9 10 9h321c6.66699 0 10 3.33301 10 10v312c0 6 4 9 12 9
h58c7.33301 0 11 -3 11 -9v-309c0 -5.33301 0.833008 -8.83301 2.5 -10.5s5.5 -2.5 11.5 -2.5h316c6.66699 0 10 -3 10 -9v-63z" />
    <glyph glyph-name="comma" unicode="," horiz-adv-x="140" 
d="M0 -171l19 280h91l-49 -280h-61z" />
    <glyph glyph-name="hyphen" unicode="-" horiz-adv-x="181" 
d="M4 240h181l-8 -61h-181z" />
    <glyph glyph-name="period" unicode="." horiz-adv-x="214" 
d="M161 46c0 -15.333 -5.33301 -28.332 -16 -38.999s-23.667 -16 -39 -16c-14.667 0 -27 5.16699 -37 15.5s-15 23.166 -15 38.499s5 28 15 38s22.333 15 37 15c15.333 0 28.333 -5.16699 39 -15.5s16 -22.5 16 -36.5z" />
    <glyph glyph-name="slash" unicode="/" horiz-adv-x="604" 
d="M43 -102l477 966h74l-472 -966h-79z" />
    <glyph glyph-name="zero" unicode="0" horiz-adv-x="670" 
d="M382 761c35.333 0 67.499 -8.16504 96.499 -24.498s54 -39.333 75 -69s37.333 -64.834 49 -105.501s17.5 -85.667 17.5 -135c0 -52 -7.5 -105.333 -22.5 -160s-35.167 -103.334 -60.5 -146.001c-25.333 -41.333 -56.833 -73.666 -94.5 -96.999s-76.834 -35 -117.501 -35
c-34.667 0 -66.667 8.16699 -96 24.5s-54.666 39.333 -75.999 69s-37.833 65 -49.5 106s-17.5 86.167 -17.5 135.5c0 60 7.83301 116.667 23.5 170s36.834 99.666 63.501 138.999s58 70.5 94 93.5s74.333 34.5 115 34.5zM381.999 685.002c-28 0 -55.002 -10 -81.002 -30
s-48.833 -46.833 -68.5 -80.5s-35.334 -72.5 -47.001 -116.5s-17.5 -90 -17.5 -138c0 -36.667 3.83301 -70.667 11.5 -102s18.5 -58.333 32.5 -81s30.5 -40.334 49.5 -53.001s39.833 -19 62.5 -19c28.667 0 55.834 9.83301 81.501 29.5s48.334 46.334 68.001 80.001
s35.334 72.5 47.001 116.5s17.5 90 17.5 138c0 37.333 -3.83301 71.666 -11.5 102.999s-18.5 58.333 -32.5 81s-30.5 40.334 -49.5 53.001s-39.833 19 -62.5 19z" />
    <glyph glyph-name="one" unicode="1" horiz-adv-x="339" 
d="M131 0l83 674h-130l44 76h177l-91 -750h-83z" />
    <glyph glyph-name="two" unicode="2" horiz-adv-x="574" 
d="M15 0l300.999 320c29.333 30.667 52.833 56.167 70.5 76.5s31.334 38.5 41.001 54.5s16.167 31 19.5 45s5 29.333 5 46c0 42 -12.5 75.833 -37.5 101.5s-58.5 38.5 -100.5 38.5c-46 0 -82 -14.5 -108 -43.5s-41.333 -72.167 -46 -129.5h-78
c2.66699 38.667 7.5 69.667 14.5 93s17.833 45 32.5 65c21.333 30 48.166 52.667 80.499 68s67.833 23 106.5 23c32 0 61.333 -5.16699 88 -15.5s49.5 -25 68.5 -44s33.833 -41.667 44.5 -68s16 -55.5 16 -87.5c0 -20.667 -2.16699 -40.167 -6.5 -58.5
s-11.666 -37 -21.999 -56s-24.333 -39.5 -42 -61.5s-40.167 -47 -67.5 -75l-207 -216h308l-8 -76h-473z" />
    <glyph glyph-name="three" unicode="3" horiz-adv-x="583" 
d="M131 189c5.33301 -82.667 50.6689 -123.999 136.002 -123.999c22 0 42.5 3.83301 61.5 11.5s35.167 18.334 48.5 32.001s23.833 30 31.5 49s11.5 39.833 11.5 62.5c0 43.333 -12 75.833 -36 97.5s-61 34.167 -111 37.5l8 72c5.33301 -1.33301 10.166 -2 14.499 -2h13.5
c38.667 0 69.667 12.667 93 38s35 59.333 35 102c0 36 -10.833 64.5 -32.5 85.5s-51.167 31.5 -88.5 31.5c-69.333 0 -108.666 -39.667 -117.999 -119h-75c4 31.333 9.16699 55.666 15.5 72.999s15.166 33.666 26.499 48.999c18.667 23.333 41.667 41.333 69 54
s57.333 19 90 19c29.333 0 55.833 -4.66699 79.5 -14s44 -22.333 61 -39s30.167 -36.834 39.5 -60.501s14 -50.167 14 -79.5c0 -47.333 -16.333 -89.333 -49 -126c-11.333 -12.667 -22.833 -22.667 -34.5 -30s-27.167 -14.666 -46.5 -21.999
c75.333 -31.333 113 -88 113 -170c0 -33.333 -5.83301 -64 -17.5 -92s-27.834 -52 -48.501 -72s-45.5 -35.667 -74.5 -47s-60.5 -17 -94.5 -17c-64 0 -114.667 17.667 -152 53s-57 84.333 -59 147h76z" />
    <glyph glyph-name="four" unicode="4" horiz-adv-x="601" 
d="M367 0l17 137h-354l516 657l-72 -585h84l-9 -72h-84l-16 -137h-82zM172 209h221l42 343z" />
    <glyph glyph-name="five" unicode="5" horiz-adv-x="558" 
d="M292 671l-64.0049 -177.002c14.667 3.33301 26.334 5.5 35.001 6.5s18.667 1.5 30 1.5c33.333 0 63.833 -5.66699 91.5 -17s51.334 -27.5 71.001 -48.5s34.834 -46.333 45.501 -76s16 -62.5 16 -98.5c0 -40 -6.83301 -76.667 -20.5 -110s-32.5 -62.166 -56.5 -86.499
s-52.833 -43.166 -86.5 -56.499s-70.5 -20 -110.5 -20c-56 0 -102.167 12.833 -138.5 38.5s-67.166 66.834 -92.499 123.501l67 33c19.333 -42 41.833 -72.333 67.5 -91s58.5 -28 98.5 -28c28 0 53.5 5 76.5 15s43 23.667 60 41s30.167 38.166 39.5 62.499
s14 50.833 14 79.5c0 52 -15.333 93.333 -46 124s-72 46 -124 46c-11.333 0 -21.666 -0.5 -30.999 -1.5s-19.5 -3 -30.5 -6s-23.5 -7.16699 -37.5 -12.5l-51 -20l123 354h299l-10 -76h-235z" />
    <glyph glyph-name="six" unicode="6" horiz-adv-x="619" 
d="M255 478c18 6.66699 34.499 11.499 49.499 14.499s31.167 4.5 48.5 4.5c31.333 0 60 -5.66699 86 -17s48.5 -27.166 67.5 -47.499s33.833 -44.333 44.5 -72s16 -58.167 16 -91.5c0 -38.667 -7 -75.167 -21 -109.5s-33 -64 -57 -89s-52.167 -44.833 -84.5 -59.5
s-67.166 -22 -104.499 -22c-34.667 0 -66.667 6.16699 -96 18.5s-54.833 29.5 -76.5 51.5s-38.667 48 -51 78s-18.5 62.333 -18.5 97c0 38.667 8.66699 77.5 26 116.5s45.333 84.167 84 135.5l222 287l60 -49zM325.999 427.999c-26 0 -50.333 -5.00098 -73 -15.001
s-42.5 -23.667 -59.5 -41s-30.333 -37.666 -40 -60.999s-14.5 -48.666 -14.5 -75.999c0 -24.667 4 -47.5 12 -68.5s19.167 -39 33.5 -54s31.5 -26.667 51.5 -35s42 -12.5 66 -12.5c25.333 0 49.166 5.16699 71.499 15.5s41.833 24.166 58.5 41.499s29.834 38 39.501 62
s14.5 49.333 14.5 76c0 24.667 -4 47.167 -12 67.5s-19 38 -33 53s-30.833 26.667 -50.5 35s-41.167 12.5 -64.5 12.5z" />
    <glyph glyph-name="seven" unicode="7" horiz-adv-x="615" 
d="M69 28l426 646h-384l10 76h519l-504 -765z" />
    <glyph glyph-name="eight" unicode="8" horiz-adv-x="587" 
d="M416 391c17.333 -9.33301 30.332 -17.167 38.999 -23.5s17 -14.166 25 -23.499c14.667 -17.333 26 -37.5 34 -60.5s12 -47.167 12 -72.5c0 -32 -5.83301 -61.5 -17.5 -88.5s-27.834 -50.333 -48.501 -70s-45.167 -35.167 -73.5 -46.5s-59.166 -17 -92.499 -17
c-32.667 0 -62.667 5.16699 -90 15.5s-51 24.666 -71 42.999s-35.667 40 -47 65s-17 52.5 -17 82.5c0 98 51.333 166.667 154 206c-33.333 21.333 -57.5 44.666 -72.5 69.999s-22.5 55 -22.5 89c0 28.667 5.5 55 16.5 79s26 44.833 45 62.5s41.833 31.5 68.5 41.5
s55.334 15 86.001 15c29.333 0 56.333 -4.66699 81 -14s45.834 -22.333 63.501 -39s31.5 -36.667 41.5 -60s15 -49 15 -77c0 -47.333 -15 -87.666 -45 -120.999c-10 -12 -20.833 -21.833 -32.5 -29.5s-28.834 -16.5 -51.501 -26.5zM341.999 681.999
c-18.667 0 -36.002 -3.33105 -52.002 -9.99805s-30 -15.834 -42 -27.501s-21.333 -25.334 -28 -41.001s-10 -32.5 -10 -50.5c0 -16.667 3.16699 -32.167 9.5 -46.5s14.833 -27 25.5 -38s23.334 -19.667 38.001 -26s30.334 -9.5 47.001 -9.5c18.667 0 36 3.33301 52 10
s30 16 42 28s21.5 26 28.5 42s10.5 33 10.5 51c0 34 -11.333 62.167 -34 84.5s-51.667 33.5 -87 33.5zM304.997 354.001c-22 0 -42.334 -3.83203 -61.001 -11.499s-34.834 -18.334 -48.501 -32.001s-24.5 -29.834 -32.5 -48.501s-12 -38.667 -12 -60
c0 -20 3.5 -38.333 10.5 -55s16.833 -31.167 29.5 -43.5s27.5 -21.833 44.5 -28.5s35.833 -10 56.5 -10c21.333 0 41.333 3.83301 60 11.5s34.834 18.334 48.501 32.001s24.334 29.667 32.001 48s11.5 38.166 11.5 59.499c0 40.667 -13 73.834 -39 99.501
s-59.333 38.5 -100 38.5z" />
    <glyph glyph-name="nine" unicode="9" horiz-adv-x="620" 
d="M387 268c-19.333 -8 -34.999 -13.332 -46.999 -15.999s-26.333 -4 -43 -4c-32.667 0 -62.5 5.5 -89.5 16.5s-50.333 26.5 -70 46.5s-34.834 44 -45.501 72s-16 59 -16 93c0 38.667 7 75.167 21 109.5s33.333 64.166 58 89.499s53.334 45.5 86.001 60.5
s67.667 22.5 105 22.5c34 0 65.667 -6.16699 95 -18.5s54.666 -29.5 75.999 -51.5s38 -47.833 50 -77.5s18 -62.167 18 -97.5c0 -20 -2 -39.333 -6 -58s-10.333 -38 -19 -58s-20 -41 -34 -63s-31 -46.333 -51 -73l-221 -285l-60 48zM343.001 682.001
c-25.333 0 -49.333 -5.3291 -72 -15.9961s-42.5 -25.334 -59.5 -44.001s-30.333 -40.334 -40 -65.001s-14.5 -51 -14.5 -79c0 -23.333 4 -44.833 12 -64.5s19 -36.667 33 -51s30.667 -25.5 50 -33.5s40.333 -12 63 -12c26 0 50.5 5 73.5 15s43 23.667 60 41
s30.5 37.5 40.5 60.5s15 47.833 15 74.5c0 25.333 -4 48.666 -12 69.999s-19.167 39.666 -33.5 54.999s-31.333 27.333 -51 36s-41.167 13 -64.5 13z" />
    <glyph glyph-name="colon" unicode=":" horiz-adv-x="291" 
d="M217 382c0 -15.333 -5.33301 -28.332 -16 -38.999s-23.667 -16 -39 -16c-14.667 0 -27 5.16699 -37 15.5s-15 23.166 -15 38.499s5 28 15 38s22.333 15 37 15c15.333 0 28.333 -5.16699 39 -15.5s16 -22.5 16 -36.5zM161 46.001c0 -15.333 -5.33301 -28.332 -16 -38.999
s-23.667 -16 -39 -16c-14.667 0 -27 5.16699 -37 15.5s-15 23.166 -15 38.499s5 28 15 38s22.333 15 37 15c15.333 0 28.333 -5.16699 39 -15.5s16 -22.5 16 -36.5z" />
    <glyph glyph-name="semicolon" unicode=";" horiz-adv-x="306" 
d="M235 424c0 -16 -5.33301 -29.332 -16 -39.999s-23.667 -16 -39 -16s-28.5 5.16699 -39.5 15.5s-16.5 23.166 -16.5 38.499c0 16 5.5 29.5 16.5 40.5s24.167 16.5 39.5 16.5s28.333 -5.33301 39 -16s16 -23.667 16 -39zM88 -170.999l19 280h91l-49 -280h-61z" />
    <glyph glyph-name="less" unicode="&#x3c;" 
d="M128 379l397 -182v-84l-487 230v73l487 229v-85z" />
    <glyph glyph-name="equal" unicode="=" horiz-adv-x="1078" 
d="M242 510h594v-80h-594v80zM242 350h594v-80h-594v80z" />
    <glyph glyph-name="greater" unicode="&#x3e;" 
d="M434 379l-396 182v83l487 -229v-73l-487 -229v84z" />
    <glyph glyph-name="question" unicode="?" horiz-adv-x="453" 
d="M73 539c-0.666992 11.333 -0.830078 20.335 -0.49707 27.002s1.16602 14 2.49902 22c3.33301 24.667 10.666 47.5 21.999 68.5s25.833 39 43.5 54s38.167 26.833 61.5 35.5s48 13 74 13c25.333 0 48.5 -4.5 69.5 -13.5s38.5 -21.5 52.5 -37.5s24.167 -34.833 30.5 -56.5
s7.83301 -45.167 4.5 -70.5c-3.33301 -30 -13 -57.667 -29 -83s-35.667 -45.333 -59 -60c-7.33301 -5.33301 -14.833 -9.5 -22.5 -12.5s-19.5 -7.16699 -35.5 -12.5c-2 0 -4.33301 -0.666992 -7 -2l-8 -2l-20 -162h-81l27 219c12.667 0.666992 23.5 1.5 32.5 2.5
s17.333 2.83301 25 5.5s15.167 6 22.5 10s15.333 9.33301 24 16l5 2.5c0.666992 0.333008 1.66699 1.16602 3 2.49902c12.667 10 22.167 21.167 28.5 33.5s10.5 26.166 12.5 41.499c4 30 -2 54.5 -18 73.5s-39 28.5 -69 28.5c-28.667 0 -53.5 -9.16699 -74.5 -27.5
s-33.167 -41.5 -36.5 -69.5c-1.33301 -7.33301 -1.83301 -14 -1.5 -20s1.16602 -14.667 2.49902 -26h-81zM244.004 45.002c-2 -15.333 -9 -28.5 -21 -39.5s-25.667 -16.5 -41 -16.5s-27.833 5.5 -37.5 16.5s-13.5 24.167 -11.5 39.5c1.33301 15.333 8 28.333 20 39
s25.667 16 41 16c16 0 28.667 -5.33301 38 -16s13.333 -23.667 12 -39z" />
    <glyph glyph-name="at" unicode="@" horiz-adv-x="908" 
d="M750 -93c-23.333 -11.333 -45.333 -20.9932 -66 -28.9932s-41.5 -14.5 -62.5 -19.5s-42.333 -8.5 -64 -10.5s-45.167 -3 -70.5 -3c-84.667 0 -157.667 17.667 -219 53c-29.333 16.667 -55.666 37 -78.999 61s-43 50.5 -59 79.5s-28.333 60 -37 93s-13 66.833 -13 101.5
c0 54.667 10 105.667 30 153s47.5 88.333 82.5 123s76.333 62 124 82s99.167 30 154.5 30c51.333 0 98.666 -8.5 141.999 -25.5s81 -40.5 113 -70.5s57 -65.333 75 -106s27 -85 27 -133c0 -36.667 -4.83301 -71.334 -14.5 -104.001s-22.667 -61.334 -39 -86.001
s-35.5 -44.167 -57.5 -58.5s-45.333 -21.5 -70 -21.5c-40 0 -67 22 -81 66c-23.333 -25.333 -45.166 -43 -65.499 -53s-44.5 -15 -72.5 -15c-27.333 0 -52.5 5.16699 -75.5 15.5s-43 24.5 -60 42.5s-30.167 39.5 -39.5 64.5s-14 52.167 -14 81.5
c0 31.333 5.33301 60.5 16 87.5s25.334 50.333 44.001 70s40.834 35.167 66.501 46.5s53.5 17 83.5 17c29.333 0 54.166 -5 74.499 -15s39.5 -26.333 57.5 -49l7 54h73l-30 -255c-1.33301 -9.33301 -2.33301 -18.333 -3 -27s-1 -16.667 -1 -24c0 -24 10 -36 30 -36
c13.333 0 26.166 5.33301 38.499 16s23.333 25 33 43s17.334 38.667 23.001 62s8.5 47.333 8.5 72c0 40 -7.16699 76.667 -21.5 110s-34.333 62.166 -60 86.499s-56.167 43.166 -91.5 56.499s-74.333 20 -117 20c-44.667 0 -86.167 -8.16699 -124.5 -24.5
s-71.833 -38.833 -100.5 -67.5s-51.167 -62.334 -67.5 -101.001s-24.5 -80.667 -24.5 -126c0 -59.333 13.833 -113.5 41.5 -162.5s65.5 -87.5 113.5 -115.5c24.667 -14.667 51.5 -25.334 80.5 -32.001s61.5 -10 97.5 -10c26.667 0 49.167 0.166992 67.5 0.5
s35.666 2.16602 51.999 5.49902s33.666 9 51.999 17s40.833 19.667 67.5 35l7 4l24 -67zM566 254.007c0 33.333 -10.498 60.334 -31.498 81.001s-47.5 31 -79.5 31c-18.667 0 -36 -3.83301 -52 -11.5s-29.833 -18.167 -41.5 -31.5s-20.834 -29.333 -27.501 -48
s-10 -38.667 -10 -60c0 -18 2.83301 -34.667 8.5 -50s13.334 -28.833 23.001 -40.5s21 -20.834 34 -27.501s26.833 -10 41.5 -10c18 0 35.167 4.33301 51.5 13s30.666 20.334 42.999 35.001s22.166 31.667 29.499 51s11 39.666 11 60.999v7z" />
    <glyph glyph-name="A" unicode="A" horiz-adv-x="663" 
d="M489 209h-305l-110 -209h-90l417 796l231 -796h-85zM223 286h242l-85 307z" />
    <glyph glyph-name="B" unicode="B" horiz-adv-x="568" 
d="M281 750c22 0 40.333 -0.833008 55 -2.5s28.667 -4.16699 42 -7.5c36 -9.33301 64.833 -30 86.5 -62s32.5 -70 32.5 -114c0 -79.333 -36.333 -137.333 -109 -174c22 -6.66699 38.667 -12.667 50 -18s22.666 -13.333 33.999 -24c16.667 -15.333 29.334 -34.5 38.001 -57.5
s13 -48.167 13 -75.5c0 -58.667 -19 -108.667 -57 -150c-12 -12 -24.333 -22.167 -37 -30.5s-27 -15 -43 -20s-34 -8.66699 -54 -11s-43.667 -3.5 -71 -3.5h-206l92 750h134zM247 418c19.333 0 35.499 0.498047 48.499 1.49805s24.333 3 34 6s18 6.83301 25 11.5
s14.167 11 21.5 19c12.667 13.333 22.5 29.333 29.5 48s10.5 38.334 10.5 59.001c0 18.667 -3.16699 35.5 -9.5 50.5s-15.166 27.167 -26.499 36.5c-11.333 8.66699 -24.333 14.834 -39 18.501s-35.667 5.5 -63 5.5h-58l-31 -256h58zM265.999 76.998
c36.667 0 64.333 2.5 83 7.5s34.667 13.833 48 26.5s23.666 28.5 30.999 47.5s11 39.167 11 60.5s-4.16699 41.166 -12.5 59.499s-20.166 32.5 -35.499 42.5c-7.33301 5.33301 -14.833 9.5 -22.5 12.5s-16.167 5.33301 -25.5 7s-20.5 2.83398 -33.5 3.50098s-28.5 1 -46.5 1
h-83l-33 -268h119z" />
    <glyph glyph-name="C" unicode="C" horiz-adv-x="696" 
d="M631 51c-0.666992 -5.33301 -1.99902 -9.16992 -3.99902 -11.5029s-6.33301 -5.16602 -13 -8.49902c-29.333 -15.333 -60.5 -26.833 -93.5 -34.5s-66.5 -11.5 -100.5 -11.5c-52.667 0 -101.167 9 -145.5 27s-82.166 43.333 -113.499 76s-55.833 71.834 -73.5 117.501
s-26.5 95.834 -26.5 150.501c0 59.333 9.5 113.833 28.5 163.5s45.5 92.834 79.5 129.501s74.333 65.167 121 85.5s97.667 30.5 153 30.5c42 0 80.667 -5.33301 116 -16s72 -28.667 110 -54c21.333 -14 32 -24 32 -30l-2 -14l-7 -53v-4c-0.666992 -8 -2.66699 -12 -6 -12
c-1.33301 0 -4 2.33301 -8 7c-12 14 -26.667 27 -44 39s-36.5 22.333 -57.5 31s-42.833 15.334 -65.5 20.001s-45.334 7 -68.001 7c-43.333 0 -83.166 -8.16699 -119.499 -24.5s-67.833 -39.333 -94.5 -69s-47.334 -64.834 -62.001 -105.501s-22 -85 -22 -133
c0 -44 6.66699 -84 20 -120s32.5 -66.5 57.5 -91.5s55.167 -44.333 90.5 -58s74.666 -20.5 117.999 -20.5c20 0 40 1.66699 60 5s39 8.16602 57 14.499s34.5 13.833 49.5 22.5s27.5 18 37.5 28c1.33301 2 2.33301 3 3 3c2 0 3 -1.66699 3 -5v-6z" />
    <glyph glyph-name="D" unicode="D" horiz-adv-x="688" 
d="M297 750c52.667 0 95.3291 -3.33301 127.996 -10s61.334 -17.667 86.001 -33c22.667 -14 43.167 -31.5 61.5 -52.5s33.833 -44.667 46.5 -71s22.334 -55 29.001 -86s10 -63.167 10 -96.5c0 -42 -5.16699 -82.5 -15.5 -121.5s-25.166 -74.667 -44.499 -107
s-42.666 -60.833 -69.999 -85.5s-57.666 -44 -90.999 -58c-12.667 -5.33301 -25.834 -9.83301 -39.501 -13.5s-28.5 -6.66699 -44.5 -9s-34 -4 -54 -5s-43.333 -1.5 -70 -1.5h-174l92 750h150zM240.995 77c51.333 0 92.668 3.49805 124.001 10.498
s58.666 18.833 81.999 35.5c19.333 14 36.833 31.333 52.5 52s29 43.167 40 67.5s19.5 50.333 25.5 78s9 55.834 9 84.501c0 42.667 -6.5 82.334 -19.5 119.001s-31.833 66.667 -56.5 90c-22 22 -47.833 37.333 -77.5 46s-69.167 13 -118.5 13h-82l-73 -596h94z" />
    <glyph glyph-name="E" unicode="E" horiz-adv-x="515" 
d="M220 674l-28 -229h285l-9 -77h-285l-36 -291h285l-10 -77h-367l92 750h368l-10 -76h-285z" />
    <glyph glyph-name="F" unicode="F" horiz-adv-x="466" 
d="M220 674l-28 -228h260l-10 -77h-259l-46 -369h-82l92 750h342l-9 -76h-260z" />
    <glyph glyph-name="G" unicode="G" horiz-adv-x="818" 
d="M784 358c-3.33301 -24 -6.83789 -44.666 -10.5049 -61.999s-7.5 -33 -11.5 -47s-8.5 -27 -13.5 -39s-10.833 -24.667 -17.5 -38c-32 -60.667 -74.5 -107 -127.5 -139s-114.167 -48 -183.5 -48c-52 0 -100 9.16699 -144 27.5s-81.833 43.833 -113.5 76.5
s-56.5 71.5 -74.5 116.5s-27 94.167 -27 147.5c0 59.333 9.83301 114.166 29.5 164.499s46.834 93.666 81.501 129.999s75.834 64.833 123.501 85.5s99.5 31 155.5 31c86.667 0 161.334 -24 224.001 -72l22.5 -19.5c7 -6.33301 14 -13.333 21 -21
s14.167 -16.334 21.5 -26.001l26 -35.5l-58 -51c-14.667 22 -26.5 38.5 -35.5 49.5s-20.167 21.833 -33.5 32.5c-54 42.667 -117.333 64 -190 64c-44 0 -84.667 -8.16699 -122 -24.5s-69.5 -39 -96.5 -68s-48 -63.833 -63 -104.5s-22.5 -85 -22.5 -133
c0 -42.667 6.83301 -82 20.5 -118s32.834 -66.667 57.501 -92s54 -45.166 88 -59.499s71.333 -21.5 112 -21.5c88.667 0 158.334 31.333 209.001 94c6.66699 8 12.5 15.833 17.5 23.5s9.83301 16.334 14.5 26.001s9 20.5 13 32.5s8.33301 26 13 42h-222l9 76h307z" />
    <glyph glyph-name="H" unicode="H" horiz-adv-x="700" 
d="M500 0l46 374h-363l-46 -374h-82l92 750h83l-37 -300h363l37 300h82l-92 -750h-83z" />
    <glyph glyph-name="I" unicode="I" horiz-adv-x="255" 
d="M55 0l92 750h83l-93 -750h-82z" />
    <glyph glyph-name="J" unicode="J" horiz-adv-x="398" 
d="M308 229c-4 -33.333 -7.66797 -59.833 -11.001 -79.5s-7.33301 -37.167 -12 -52.5c-10.667 -35.333 -29.167 -62.833 -55.5 -82.5s-57.5 -29.5 -93.5 -29.5c-57.333 0 -105 26.333 -143 79l51 59c15.333 -22.667 29.5 -38.167 42.5 -46.5s28.167 -12.5 45.5 -12.5
c30.667 0 52.334 13 65.001 39c6.66699 13.333 12.167 29 16.5 47s8.5 44.333 12.5 79l64 521h82z" />
    <glyph glyph-name="K" unicode="K" horiz-adv-x="622" 
d="M582 0h-105l-294 370l-46 -370h-82l92 750h83l-40 -326l335 326h108l-371 -353z" />
    <glyph glyph-name="L" unicode="L" horiz-adv-x="405" 
d="M55 0l92 750h83l-83 -673h229l-10 -77h-311z" />
    <glyph glyph-name="M" unicode="M" horiz-adv-x="1008" 
d="M775 552l-302 -586l-151 583l-214 -549h-87l312 797l165 -633l325 638l107 -802h-83z" />
    <glyph glyph-name="N" unicode="N" horiz-adv-x="804" 
d="M209 581l-72 -581h-82l96 782l473 -617l72 585h83l-97 -787z" />
    <glyph glyph-name="O" unicode="O" horiz-adv-x="861" 
d="M831 402c0 -60.667 -9.83105 -116.502 -29.498 -167.502s-47 -95 -82 -132s-76.833 -65.833 -125.5 -86.5s-102 -31 -160 -31c-54.667 0 -104.834 9.16699 -150.501 27.5s-85 44 -118 77s-58.667 72.333 -77 118s-27.5 95.834 -27.5 150.501
c0 58.667 10 112.834 30 162.501s47.667 92.667 83 129s77.166 64.666 125.499 84.999s101.166 30.5 158.499 30.5c54.667 0 104.834 -9 150.501 -27s85 -43 118 -75s58.667 -70.167 77 -114.5s27.5 -93.166 27.5 -146.499zM747.002 405.998
c0 43.333 -7.00195 82.1699 -21.002 116.503s-33.667 63.666 -59 87.999s-55.5 43 -90.5 56s-73.833 19.5 -116.5 19.5c-45.333 0 -87.166 -8.16699 -125.499 -24.5s-71.5 -39 -99.5 -68s-50 -63.333 -66 -103s-24 -82.834 -24 -129.501
c0 -42.667 7.33301 -82.167 22 -118.5s35 -67.833 61 -94.5s56.833 -47.334 92.5 -62.001s74.5 -22 116.5 -22c44 0 85 8.33301 123 25s70.833 39.834 98.5 69.501s49.334 64.667 65.001 105s23.5 84.166 23.5 131.499v11z" />
    <glyph glyph-name="P" unicode="P" horiz-adv-x="511" 
d="M289 750c38 0 69.5 -3.66504 94.5 -10.998s47.167 -19.333 66.5 -36c21.333 -17.333 37.333 -38.833 48 -64.5s16 -54.5 16 -86.5c0 -62 -19.333 -114 -58 -156c-12 -12.667 -24.333 -23.334 -37 -32.001s-27 -15.834 -43 -21.501s-34 -9.66699 -54 -12
s-43 -3.5 -69 -3.5h-75l-41 -327h-82l92 750h142zM259 404.002c31.333 0 57 3 77 9s37 16 51 30c13.333 13.333 23.833 29.5 31.5 48.5s11.5 38.833 11.5 59.5c0 40 -12.167 70.5 -36.5 91.5s-59.5 31.5 -105.5 31.5h-68l-33 -270h72z" />
    <glyph glyph-name="Q" unicode="Q" horiz-adv-x="859" 
d="M633 40c-22.667 -12.667 -40.668 -21.832 -54.001 -27.499s-28.333 -10.834 -45 -15.501c-30.667 -8 -63 -12 -97 -12c-54.667 0 -105.167 9.16699 -151.5 27.5s-86 44 -119 77s-58.833 72.333 -77.5 118s-28 95.834 -28 150.501c0 59.333 9.83301 113.833 29.5 163.5
s47.167 92.5 82.5 128.5s77.333 64 126 84s101.667 30 159 30c54.667 0 104.834 -9 150.501 -27s84.834 -43.333 117.501 -76s58 -71.667 76 -117s27 -95.333 27 -150c0 -60.667 -11.667 -118 -35 -172c-6 -14 -11.833 -26.5 -17.5 -37.5s-12.334 -21.667 -20.001 -32
s-16.667 -21.333 -27 -33s-22.833 -24.834 -37.5 -39.501l58 -66l-52 -45zM640.999 135.002c10.667 10.667 19.6689 20.166 27.002 28.499s13.666 16.333 18.999 24s10.166 15.667 14.499 24s8.83301 17.5 13.5 27.5c9.33301 22.667 16.666 46.5 21.999 71.5
s8 50.833 8 77.5c0 44.667 -6.83301 85.334 -20.5 122.001s-33 68 -58 94s-55 46 -90 60s-73.833 21 -116.5 21c-45.333 0 -87.166 -8 -125.499 -24s-71.5 -38.333 -99.5 -67s-49.833 -62.834 -65.5 -102.501s-23.5 -82.834 -23.5 -129.501c0 -44 7.16699 -84.333 21.5 -121
s34.5 -68.167 60.5 -94.5s57 -46.666 93 -60.999s75.667 -21.5 119 -21.5c22.667 0 44 2 64 6c12 2.66699 23 5.83398 33 9.50098s24 9.16699 42 16.5l-83 93l53 45z" />
    <glyph glyph-name="R" unicode="R" horiz-adv-x="543" 
d="M270 750c38 0 69.332 -3.16699 93.999 -9.5s46.334 -16.5 65.001 -30.5c21.333 -17.333 38.333 -39.833 51 -67.5s19 -57.5 19 -89.5c0 -60.667 -18.333 -110 -55 -148s-87.667 -60.667 -153 -68l206 -337h-92l-197 332h-30l-41 -332h-82l92 750h123zM233.999 400
c34 0 61.168 2.83301 81.501 8.5s38.166 15.5 53.499 29.5c14 13.333 25.167 30.333 33.5 51s12.5 42 12.5 64c0 80.667 -49 121 -147 121h-48l-33 -274h47z" />
    <glyph glyph-name="S" unicode="S" horiz-adv-x="507" 
d="M443 594c-8.66699 16 -15.8301 28.0049 -21.4971 36.0049s-13.167 16 -22.5 24c-25.333 21.333 -55.333 32 -90 32c-18 0 -34.667 -3.16699 -50 -9.5s-28.666 -15 -39.999 -26s-20.333 -23.833 -27 -38.5s-10 -30.667 -10 -48c0 -14 1.66699 -26.333 5 -37
s9.5 -21.334 18.5 -32.001s21 -21.667 36 -33s34.5 -24 58.5 -38l40.5 -26c12.333 -8 23.833 -16 34.5 -24c60.667 -44.667 91 -102.334 91 -173.001c0 -31.333 -5.5 -60.333 -16.5 -87s-26.5 -49.5 -46.5 -68.5s-43.833 -33.833 -71.5 -44.5s-57.834 -16 -90.501 -16
c-31.333 0 -61.166 5.33301 -89.499 16s-53.166 26 -74.499 46l-18.5 19c-5.66699 6 -10.834 12.833 -15.501 20.5s-9.33398 16.167 -14.001 25.5s-10 20.666 -16 33.999l65 38c8.66699 -19.333 15.667 -34 21 -44s12.666 -19.667 21.999 -29
c14.667 -15.333 32.167 -27 52.5 -35s42.166 -12 65.499 -12c42 0 76.167 13.333 102.5 40s39.5 61.334 39.5 104.001c0 15.333 -1.83301 29.166 -5.5 41.499s-10.334 24.333 -20.001 36s-22.667 23.667 -39 36s-37.5 26.166 -63.5 41.499c-32 19.333 -59 37.333 -81 54
c-48.667 38 -73 87.333 -73 148c0 29.333 5.16699 56.166 15.5 80.499s24.833 45.333 43.5 63s41 31.5 67 41.5s54.333 15 85 15c55.333 0 101.666 -17.333 138.999 -52c10.667 -9.33301 19.334 -18.5 26.001 -27.5s15 -22.833 25 -41.5z" />
    <glyph glyph-name="T" unicode="T" horiz-adv-x="456" 
d="M320 674l-83 -674h-82l83 674h-187l9 76h450l-10 -76h-180z" />
    <glyph glyph-name="U" unicode="U" horiz-adv-x="707" 
d="M625 290c-6 -47.333 -13.9961 -86.665 -23.9961 -117.998c-17.333 -58.667 -48.833 -104.5 -94.5 -137.5s-99.834 -49.5 -162.501 -49.5c-38.667 0 -74.167 5.66699 -106.5 17s-60.166 27.166 -83.499 47.499s-41.333 44.833 -54 73.5s-19 60.334 -19 95.001
c0 12.667 0.5 25.167 1.5 37.5s2.16699 25.166 3.5 38.499l56 456h82l-56 -464c-1.33301 -10 -2.33301 -19.833 -3 -29.5s-1 -19.167 -1 -28.5c0 -23.333 2.16699 -42.666 6.5 -57.999s12.166 -30 23.499 -44c15.333 -19.333 35.833 -34.5 61.5 -45.5s53.5 -16.5 83.5 -16.5
c28.667 0 55.167 5 79.5 15s45.166 24.333 62.499 43c17.333 19.333 30.666 42.166 39.999 68.499s16.666 62.166 21.999 107.499l56 452h82z" />
    <glyph glyph-name="V" unicode="V" horiz-adv-x="605" 
d="M61 750h84l141 -569l289 569h91l-407 -775z" />
    <glyph glyph-name="W" unicode="W" horiz-adv-x="1006" 
d="M543 550l-285 -584l-197 784h85l139 -564l280 586l144 -584l267 562h91l-382 -784z" />
    <glyph glyph-name="X" unicode="X" horiz-adv-x="628" 
d="M533 0h-90l-135 312l-214 -312h-98l275 395l-158 355h89l121 -278l189 278h100l-252 -361z" />
    <glyph glyph-name="Y" unicode="Y" 
d="M288 0h-83l43 342l-195 408h90l156 -329l227 329h97l-294 -417z" />
    <glyph glyph-name="Z" unicode="Z" horiz-adv-x="665" 
d="M565 77l-10 -77h-533l496 674h-360l9 76h502l-497 -673h393z" />
    <glyph glyph-name="bracketleft" unicode="[" horiz-adv-x="179" 
d="M92 821h189l-10 -76h-107l-106 -867h107l-10 -76h-189z" />
    <glyph glyph-name="backslash" unicode="\" horiz-adv-x="792" 
d="M126 864h73l478 -966h-80z" />
    <glyph glyph-name="bracketright" unicode="]" horiz-adv-x="179" 
d="M-77 -122h107l106 867h-107l10 76h189l-126 -1019h-189z" />
    <glyph glyph-name="asciicircum" unicode="^" horiz-adv-x="517" 
d="M272 685l-162 -276h-91l198 343h111l198 -343h-92z" />
    <glyph glyph-name="underscore" unicode="_" horiz-adv-x="562" 
d="M571 -150h-562l10 77h562z" />
    <glyph glyph-name="a" unicode="a" horiz-adv-x="573" 
d="M397 0l8.00195 64l-15 -14.5l-14 -12.5c-36 -32 -79 -48 -129 -48c-30.667 0 -59 5.5 -85 16.5s-48.333 26.333 -67 46s-33.167 43.167 -43.5 70.5s-15.5 57.333 -15.5 90c0 38 6 72.833 18 104.5s28.5 59 49.5 82s46.333 41 76 54s61.834 19.5 96.501 19.5
c27.333 0 52.666 -4.33301 75.999 -13c19.333 -6.66699 35.166 -15.167 47.499 -25.5s27.166 -26.5 44.499 -48.5l9 75h79l-56 -460h-79zM431.002 255c0 21.333 -3.83203 40.832 -11.499 58.499s-18.167 32.834 -31.5 45.501s-29 22.5 -47 29.5s-37.667 10.5 -59 10.5
c-23.333 0 -45 -4.66699 -65 -14s-37.5 -22.333 -52.5 -39s-26.667 -36 -35 -58s-12.5 -46 -12.5 -72c0 -22 3.66699 -42.5 11 -61.5s17.5 -35.333 30.5 -49s28.333 -24.5 46 -32.5s36.834 -12 57.501 -12c23.333 0 45.166 5 65.499 15s38.166 23.5 53.499 40.5
s27.5 36.833 36.5 59.5s13.5 46.667 13.5 72v7z" />
    <glyph glyph-name="b" unicode="b" horiz-adv-x="566" 
d="M161 401c12.667 11.333 22.668 20.001 30.001 26.001s15.666 11.667 24.999 17c31.333 18.667 66 28 104 28c31.333 0 60.333 -5.66699 87 -17s49.5 -27 68.5 -47s33.833 -43.833 44.5 -71.5s16 -57.834 16 -90.501c0 -36 -6.16699 -69.667 -18.5 -101
s-29.333 -58.5 -51 -81.5s-47 -41.167 -76 -54.5s-60.5 -20 -94.5 -20c-46.667 0 -86.667 11.667 -120 35c-10 7.33301 -18.5 14.5 -25.5 21.5s-16.5 17.833 -28.5 32.5l-10 -78h-78l91 750h79zM455.001 249.001c0 22.667 -3.83301 43.165 -11.5 61.498s-18.167 34 -31.5 47
s-29.166 23.167 -47.499 30.5s-38.166 11 -59.499 11c-24 0 -46.333 -4.66699 -67 -14s-38.5 -22.166 -53.5 -38.499s-26.833 -35.666 -35.5 -57.999s-13 -46.5 -13 -72.5c0 -22 3.83301 -42.5 11.5 -61.5s18.167 -35.333 31.5 -49s29.166 -24.334 47.499 -32.001
s38.5 -11.5 60.5 -11.5c22.667 0 44.167 4.83301 64.5 14.5s38.166 22.667 53.499 39s27.5 35.333 36.5 57s13.5 44.834 13.5 69.501v7z" />
    <glyph glyph-name="c" unicode="c" horiz-adv-x="439" 
d="M425 327l-13.502 15.002l-11.5 12c-15.333 15.333 -33.5 27.333 -54.5 36s-42.5 13 -64.5 13c-24 0 -46.167 -4.5 -66.5 -13.5s-37.833 -21.667 -52.5 -38s-26.167 -35.833 -34.5 -58.5s-12.5 -47.334 -12.5 -74.001c0 -48 14.333 -86.833 43 -116.5s67 -44.5 115 -44.5
c16.667 0 34 2.66699 52 8c13.333 4.66699 25 9.83398 35 15.501s23 15.5 39 29.5l-11 -91c-22 -12.667 -42.667 -21.667 -62 -27s-41 -8 -65 -8c-33.333 0 -63.833 5.66699 -91.5 17s-51.5 27.333 -71.5 48s-35.667 45.167 -47 73.5s-17 59.5 -17 93.5
c0 37.333 6.16699 71.666 18.5 102.999s29.333 58.666 51 81.999s47.167 41.5 76.5 54.5s61.333 19.5 96 19.5c24.667 0 48.667 -3.66699 72 -11c16.667 -5.33301 30.834 -11.333 42.501 -18s26.834 -17.667 45.501 -33z" />
    <glyph glyph-name="d" unicode="d" horiz-adv-x="568" 
d="M401 0l8 61.998c-12.667 -12.667 -22.667 -22.167 -30 -28.5s-15.333 -12.166 -24 -17.499c-28.667 -18 -62.334 -27 -101.001 -27c-32 0 -61.5 5.66699 -88.5 17s-50.333 27 -70 47s-35 43.833 -46 71.5s-16.5 57.834 -16.5 90.501c0 36.667 6 70.667 18 102
s28.833 58.5 50.5 81.5s47.167 41 76.5 54s61 19.5 95 19.5c22.667 0 42.834 -2.66699 60.501 -8s35.167 -14 52.5 -26c11.333 -8 21 -16 29 -24s18.667 -20.333 32 -37l46 373h79l-92 -750h-79zM431 257.998c0 21.333 -3.83203 40.499 -11.499 57.499
s-18.167 31.833 -31.5 44.5s-29.333 22.334 -48 29.001s-38.667 10 -60 10c-23.333 0 -45.166 -4.66699 -65.499 -14s-38 -22.166 -53 -38.499s-26.667 -35.833 -35 -58.5s-12.5 -47 -12.5 -73c0 -22 3.66699 -42.5 11 -61.5s17.666 -35.333 30.999 -49
s29 -24.334 47 -32.001s38 -11.5 60 -11.5c23.333 0 45.166 5 65.499 15s38 23.5 53 40.5s27 37.167 36 60.5s13.5 48 13.5 74v7z" />
    <glyph glyph-name="e" unicode="e" horiz-adv-x="518" 
d="M116 211c1.33301 -48.667 14.501 -86.333 39.501 -113s60.5 -40 106.5 -40c52.667 0 95 20.333 127 61l61 -36c-24.667 -34.667 -51.834 -59.667 -81.501 -75s-65.167 -23 -106.5 -23c-34 0 -65 5.33301 -93 16s-52 26 -72 46s-35.333 43.833 -46 71.5s-16 58.5 -16 92.5
c0 38 5.83301 73.167 17.5 105.5s28 60.333 49 84s45.833 42.167 74.5 55.5s59.667 20 93 20c35.333 0 67.333 -7.33301 96 -22s52.667 -35.667 72 -63c15.333 -22 26.333 -46 33 -72s10 -60 10 -102v-6h-364zM399.001 277.001c-3.33301 39.333 -16.668 70.167 -40.001 92.5
s-54.333 33.5 -93 33.5c-22 0 -42.667 -4.5 -62 -13.5s-35.666 -21.5 -48.999 -37.5c-8.66699 -10.667 -15 -21 -19 -31s-8.66699 -24.667 -14 -44h277z" />
    <glyph glyph-name="f" unicode="f" horiz-adv-x="268" 
d="M314 659c-17.333 12 -33.665 17.999 -48.998 17.999c-20.667 0 -36.334 -7.33301 -47.001 -22c-5.33301 -8 -9.5 -17.5 -12.5 -28.5s-6.16699 -28.167 -9.5 -51.5l-13 -109h91l-9 -72h-91l-48 -394h-78l47 394h-61l9 72h61l16 132c4 32 9.33301 56.5 16 73.5
s16.667 32.167 30 45.5c22 22 51.333 33 88 33c12 0 22.667 -1.16699 32 -3.5s21.666 -7.16602 36.999 -14.499z" />
    <glyph glyph-name="g" unicode="g" horiz-adv-x="582" 
d="M486 -3c-2.66699 -25.333 -5.83301 -47.3301 -9.5 -65.9971s-7.83398 -35.167 -12.501 -49.5s-10.167 -27 -16.5 -38s-13.833 -21.833 -22.5 -32.5c-20 -24.667 -45.5 -43.5 -76.5 -56.5s-65.5 -19.5 -103.5 -19.5c-16.667 0 -33.167 1.33301 -49.5 4
s-31.5 6.66699 -45.5 12c-32 12 -58.667 29.667 -80 53c-8 8.66699 -14.667 17.5 -20 26.5s-9.66602 18.667 -12.999 29s-5.83301 22.166 -7.5 35.499s-2.5 28.666 -2.5 45.999h75c1.33301 -22 3.5 -38.833 6.5 -50.5s8.5 -23.167 16.5 -34.5
c11.333 -15.333 27.166 -27.166 47.499 -35.499s43.166 -12.5 68.499 -12.5s48.5 4 69.5 12s38.167 19.667 51.5 35c11.333 13.333 20.5 29.666 27.5 48.999s12.167 44.666 15.5 75.999l9 76l-30 -25c-36 -28 -78.333 -42 -127 -42c-30.667 0 -59.167 5.66699 -85.5 17
s-49.166 27 -68.499 47s-34.5 43.833 -45.5 71.5s-16.5 57.5 -16.5 89.5c0 36.667 6.16699 70.667 18.5 102s29.5 58.5 51.5 81.5s47.833 41.167 77.5 54.5s61.834 20 96.501 20c38 0 72.333 -9 103 -27c12 -7.33301 22.333 -15 31 -23s20 -20.333 34 -37l10 75h78z
M443.001 251.003c0 22.667 -3.83105 43 -11.498 61s-18.167 33.5 -31.5 46.5s-29.333 23 -48 30s-39 10.5 -61 10.5c-24 0 -46.333 -4.66699 -67 -14s-38.5 -22 -53.5 -38s-26.833 -35 -35.5 -57s-13 -46 -13 -72c0 -22.667 3.83301 -43.667 11.5 -63s18.167 -36 31.5 -50
s29.333 -24.833 48 -32.5s39 -11.5 61 -11.5c23.333 0 45.166 4.66699 65.499 14s38.166 22.333 53.499 39s27.5 36 36.5 58s13.5 45.667 13.5 71v8z" />
    <glyph glyph-name="h" unicode="h" horiz-adv-x="496" 
d="M162 409c12.667 12 22.499 20.832 29.499 26.499s14.5 10.834 22.5 15.501c24 14 51.667 21 83 21c43.333 0 78 -11.5 104 -34.5s39 -53.5 39 -91.5c0 -9.33301 -0.5 -19.5 -1.5 -30.5s-2.16699 -23.167 -3.5 -36.5l-34 -279h-79l34 279c2 18 3 33.333 3 46
c0 23.333 -7.16699 41.5 -21.5 54.5s-34.166 19.5 -59.499 19.5c-18 0 -35.333 -3.5 -52 -10.5s-31 -16.5 -43 -28.5c-12 -12.667 -20.833 -26.5 -26.5 -41.5s-10.167 -37.5 -13.5 -67.5l-31 -251h-78l91 750h79z" />
    <glyph glyph-name="i" unicode="i" horiz-adv-x="208" 
d="M153 573c-16 0 -29.833 5.66602 -41.5 16.999s-17.5 25 -17.5 41c0 16.667 5.66699 30.834 17 42.501s25.333 17.5 42 17.5c16 0 29.833 -5.83301 41.5 -17.5s17.5 -25.5 17.5 -41.5c0 -16.667 -5.66699 -30.667 -17 -42s-25.333 -17 -42 -17zM34 -0.000976562l56 460h79
l-57 -460h-78z" />
    <glyph glyph-name="j" unicode="j" horiz-adv-x="201" 
d="M150 573c-16 0 -29.833 5.66602 -41.5 16.999s-17.5 25 -17.5 41c0 16.667 5.66699 30.834 17 42.501s25.333 17.5 42 17.5c16 0 29.833 -5.83301 41.5 -17.5s17.5 -25.5 17.5 -41.5c0 -16.667 -5.66699 -30.667 -17 -42s-25.333 -17 -42 -17zM-1 -263.001l91 723h79
l-92 -723h-78z" />
    <glyph glyph-name="k" unicode="k" horiz-adv-x="465" 
d="M441 0h-103l-198 226l-28 -226h-78l91 750h79l-58 -476l210 186h110l-249 -211z" />
    <glyph glyph-name="l" unicode="l" horiz-adv-x="200" 
d="M34 0l91 750h79l-92 -750h-78z" />
    <glyph glyph-name="m" unicode="m" horiz-adv-x="739" 
d="M164 404l26.502 26.001c6.33301 6 13.5 11.667 21.5 17c25.333 16.667 53.666 25 84.999 25c29.333 0 52.333 -6 69 -18s30.667 -33 42 -63c17.333 20 31.5 34.667 42.5 44s23.167 17.333 36.5 24c19.333 8.66699 40.666 13 63.999 13c41.333 0 73.5 -11 96.5 -33
s34.5 -53 34.5 -93c0 -16.667 -2 -40 -6 -70l-33 -276h-79l34 281c1.33301 10 2.33301 19.167 3 27.5s1 16.166 1 23.499c0 21.333 -6.33301 37.833 -19 49.5s-30 17.5 -52 17.5c-18.667 0 -36.667 -4.66699 -54 -14c-20.667 -11.333 -35.834 -25.5 -45.501 -42.5
s-16.5 -42.5 -20.5 -76.5l-32 -266h-79l33 274c1.33301 12 2.5 23.167 3.5 33.5s1.5 18.166 1.5 23.499c0 21.333 -6.16699 38 -18.5 50s-29.833 18 -52.5 18c-16.667 0 -32.5 -3.33301 -47.5 -10s-27.833 -16 -38.5 -28c-10.667 -11.333 -18.667 -24.666 -24 -39.999
s-9.66602 -35.333 -12.999 -60l-32 -261h-78l56 460h80z" />
    <glyph glyph-name="n" unicode="n" horiz-adv-x="496" 
d="M161 403c12.667 12 22.5 20.832 29.5 26.499s14.167 11.167 21.5 16.5c26.667 17.333 56.667 26 90 26c42 0 75.5 -12.167 100.5 -36.5s37.5 -56.833 37.5 -97.5c0 -21.333 -2 -48.666 -6 -81.999l-31 -256h-79l32 269c1.33301 10 2.5 20.5 3.5 31.5s1.5 19.167 1.5 24.5
c0 23.333 -6.83301 41.5 -20.5 54.5s-33.167 19.5 -58.5 19.5c-17.333 0 -34.333 -3.33301 -51 -10s-31.334 -16 -44.001 -28c-6.66699 -6.66699 -12.5 -13.5 -17.5 -20.5s-9.16699 -15 -12.5 -24s-6.16602 -19.5 -8.49902 -31.5s-4.5 -26.333 -6.5 -43l-30 -242h-78l56 460
h78z" />
    <glyph glyph-name="o" unicode="o" 
d="M522 238c0 -36.667 -6.16699 -70.3311 -18.5 -100.998s-29.5 -57.334 -51.5 -80.001s-48.167 -40.334 -78.5 -53.001s-63.166 -19 -98.499 -19c-34 0 -65.667 6 -95 18s-54.833 28.667 -76.5 50s-38.5 46.5 -50.5 75.5s-18 60.5 -18 94.5c0 35.333 6.5 68.5 19.5 99.5
s30.833 57.833 53.5 80.5s49.334 40.5 80.001 53.5s63.667 19.5 99 19.5c33.333 0 64.166 -5.66699 92.499 -17s53.166 -27.166 74.499 -47.499s38 -44.333 50 -72s18 -57.834 18 -90.501v-11zM441 245.003c0 24 -3.99902 45.665 -11.999 64.998s-19 35.833 -33 49.5
s-30.5 24.334 -49.5 32.001s-39.833 11.5 -62.5 11.5c-24 0 -46.167 -4.5 -66.5 -13.5s-38 -21.5 -53 -37.5s-26.833 -34.833 -35.5 -56.5s-13 -45.167 -13 -70.5c0 -24 4 -46.167 12 -66.5s19.167 -38 33.5 -53s31.333 -26.667 51 -35s41.167 -12.5 64.5 -12.5
c24 0 46 4.5 66 13.5s37.167 21.333 51.5 37s25.666 34.334 33.999 56.001s12.5 45.5 12.5 71.5v9z" />
    <glyph glyph-name="p" unicode="p" horiz-adv-x="581" 
d="M167 398c14 13.333 24.6689 23 32.002 29s15.333 11.667 24 17c29.333 18.667 64 28 104 28c30.667 0 59 -5.66699 85 -17s48.5 -27 67.5 -47s34 -43.833 45 -71.5s16.5 -57.5 16.5 -89.5c0 -36 -6.33301 -69.833 -19 -101.5s-29.834 -59 -51.501 -82
s-47.167 -41.167 -76.5 -54.5s-61 -20 -95 -20c-48 0 -88 12.667 -120 38c-8.66699 7.33301 -16.334 14.5 -23.001 21.5s-15.667 17.5 -27 31.5l-42 -343h-79l88 723h79zM460.002 251c0 22.667 -3.83203 42.998 -11.499 60.998s-18 33.5 -31 46.5s-28.5 23 -46.5 30
s-37.333 10.5 -58 10.5c-24 0 -46.333 -4.66699 -67 -14s-38.667 -22.333 -54 -39s-27.333 -36.167 -36 -58.5s-13 -46.5 -13 -72.5c0 -22 3.66699 -42.5 11 -61.5s17.833 -35.167 31.5 -48.5s29.667 -23.833 48 -31.5s38.5 -11.5 60.5 -11.5
c23.333 0 45.166 4.5 65.499 13.5s38 21.333 53 37s26.667 34.334 35 56.001s12.5 44.834 12.5 69.501v13z" />
    <glyph glyph-name="q" unicode="q" horiz-adv-x="577" 
d="M370 -263l39.999 321.999c-15.333 -14 -27.166 -24.167 -35.499 -30.5s-17.833 -12.166 -28.5 -17.499c-30.667 -14.667 -63.334 -22 -98.001 -22c-30.667 0 -59 5.66699 -85 17s-48.5 27.166 -67.5 47.499s-34 44.333 -45 72s-16.5 57.834 -16.5 90.501
c0 36 6.16699 69.667 18.5 101s29.5 58.5 51.5 81.5s47.833 41 77.5 54s61.5 19.5 95.5 19.5c32.667 0 63.334 -6.66699 92.001 -20c15.333 -7.33301 28.5 -15.833 39.5 -25.5s24.5 -25.167 40.5 -46.5l9 80h79l-88 -723h-79zM434.999 245.999
c0 22 -3.66309 42.5 -10.9961 61.5s-17.833 35.167 -31.5 48.5s-29.834 23.833 -48.501 31.5s-39 11.5 -61 11.5c-23.333 0 -45.333 -4.66699 -66 -14s-38.5 -22.333 -53.5 -39s-26.833 -36.167 -35.5 -58.5s-13 -46.166 -13 -71.499c0 -22 3.66699 -42.5 11 -61.5
s17.666 -35.333 30.999 -49s29.166 -24.334 47.499 -32.001s38.166 -11.5 59.499 -11.5c23.333 0 45.5 4.83301 66.5 14.5s39.167 22.834 54.5 39.501s27.5 36.167 36.5 58.5s13.5 46.166 13.5 71.499z" />
    <glyph glyph-name="r" unicode="r" horiz-adv-x="342" 
d="M308 379c-11.333 6 -20.834 10.333 -28.501 13s-16.167 4 -25.5 4c-11.333 0 -21.666 -2 -30.999 -6c-23.333 -9.33301 -41.5 -26.166 -54.5 -50.499s-22.167 -58.5 -27.5 -102.5l-29 -237h-78l56 460h78l-6 -52c14.667 15.333 26 26.166 34 32.499s17 12.166 27 17.499
c17.333 9.33301 37.333 14 60 14c14 0 26 -1.66699 36 -5s22.333 -10.666 37 -21.999z" />
    <glyph glyph-name="s" unicode="s" horiz-adv-x="380" 
d="M299 368c-29.333 23.333 -58.3311 35.001 -86.998 35.001c-21.333 0 -39.166 -5.83301 -53.499 -17.5s-21.5 -26.167 -21.5 -43.5c0 -11.333 2.33301 -20.666 7 -27.999c5.33301 -8.66699 12.666 -16.334 21.999 -23.001s26.333 -15.667 51 -27
c21.333 -10 39.166 -19.833 53.499 -29.5s25.666 -19.834 33.999 -30.501s14.333 -22.167 18 -34.5s5.5 -26.5 5.5 -42.5c0 -20.667 -4 -39.667 -12 -57s-19.333 -32.333 -34 -45s-31.834 -22.5 -51.501 -29.5s-41.5 -10.5 -65.5 -10.5c-19.333 0 -37 2.33301 -53 7
s-31.333 12.667 -46 24c-12 8.66699 -21.833 17.5 -29.5 26.5s-16.5 22.5 -26.5 40.5l60 38c13.333 -22.667 27.333 -38.834 42 -48.501s32.667 -14.5 54 -14.5c24 0 43.333 6.33301 58 19s22 29 22 49c0 13.333 -2.33301 23.333 -7 30
c-4.66699 8.66699 -12.167 16.334 -22.5 23.001s-29.166 16.667 -56.499 30c-37.333 17.333 -64 36 -80 56s-24 44.333 -24 73c0 20 3.83301 38.333 11.5 55s18.5 31.167 32.5 43.5s30.5 22 49.5 29s39.833 10.5 62.5 10.5c27.333 0 51.5 -4.5 72.5 -13.5
s42.5 -23.833 64.5 -44.5z" />
    <glyph glyph-name="t" unicode="t" horiz-adv-x="253" 
d="M162 394l-48 -394h-79l48 394h-57l9 72h57l23 190h78l-23 -190h90l-8 -72h-90z" />
    <glyph glyph-name="u" unicode="u" horiz-adv-x="501" 
d="M428 190c-2.66699 -20 -5.33203 -37.333 -7.99902 -52s-6 -27.5 -10 -38.5s-8.66699 -20.667 -14 -29s-12 -16.5 -20 -24.5c-17.333 -18.667 -38.666 -32.834 -63.999 -42.501s-53 -14.5 -83 -14.5c-54 0 -96.333 13.833 -127 41.5s-46 65.834 -46 114.501
c0 9.33301 0.333008 18.833 1 28.5s1.66699 19.834 3 30.501l31 256h79l-32 -264c-2 -18.667 -3 -35.334 -3 -50.001c0 -26 8.66699 -46.667 26 -62s41 -23 71 -23c19.333 0 37.166 3.66699 53.499 11s29.166 17.666 38.499 30.999c6.66699 8.66699 11.667 18.834 15 30.501
s6.33301 28.5 9 50.5l33 276h79z" />
    <glyph glyph-name="v" unicode="v" horiz-adv-x="431" 
d="M15 460h82l92 -325l183 325h88l-293 -507z" />
    <glyph glyph-name="w" unicode="w" horiz-adv-x="702" 
d="M351 293l-183 -332l-153 499h83l93 -318l181 328l97 -328l173 318h89l-281 -499z" />
    <glyph glyph-name="x" unicode="x" horiz-adv-x="464" 
d="M434 0h-93l-113 186l-157 -186h-101l215 247l-134 213h91l97 -159l132 159h100l-190 -220z" />
    <glyph glyph-name="y" unicode="y" horiz-adv-x="479" 
d="M15 -263l172 307l-148 416h84l112 -329l183 329h90l-404 -723h-89z" />
    <glyph glyph-name="z" unicode="z" horiz-adv-x="507" 
d="M454 72l-9 -72h-443l341 389h-258l8 71h405l-341 -388h297z" />
    <glyph glyph-name="braceleft" unicode="{" horiz-adv-x="248" 
d="M175 -198c-51.333 0 -85.9961 12.498 -103.996 37.498s-23.333 67.833 -16 128.5l25 207c4 32 2.33301 56 -5 72s-22.666 27 -45.999 33l8 67c23.333 6 41 16.5 53 31.5s20 37.5 24 67.5l27 220c6.66699 55.333 22.5 95 47.5 119s62.833 36 113.5 36
c3.33301 0 7 -0.166992 11 -0.5s9.66699 -0.5 17 -0.5l-8 -71l-9 1c-16.667 0 -30.334 -1.33301 -41.001 -4s-19.334 -7.5 -26.001 -14.5s-11.834 -17 -15.501 -30s-6.83398 -29.5 -9.50098 -49.5l-26 -211c-1.33301 -12 -3.66602 -24.333 -6.99902 -37
s-7.33301 -24 -12 -34c-6 -13.333 -13.667 -24.166 -23 -32.499s-23.333 -17.166 -42 -26.499c12.667 -7.33301 21.834 -14 27.501 -20s11.167 -14 16.5 -24c5.33301 -11.333 8.66602 -24 9.99902 -38s0.666016 -31 -2.00098 -51l-25 -204l-3 -22
c-1.33301 -6.66699 -1.83301 -12.334 -1.5 -17.001s0.166016 -8.66699 -0.500977 -12c0.666992 -6.66699 2.33398 -13.667 5.00098 -21s5.66699 -12.666 9 -15.999c2 -2 5.5 -4.16699 10.5 -6.5s9.83301 -3.83301 14.5 -4.5c3.33301 -1.33301 7.16602 -2 11.499 -2h21.5h9
l-9 -71h-30z" />
    <glyph glyph-name="bar" unicode="|" horiz-adv-x="200" 
d="M34 0l91 750h79l-92 -750h-78z" />
    <glyph glyph-name="braceright" unicode="}" horiz-adv-x="249" 
d="M228 276c-24 -6 -41.9971 -16.665 -53.9971 -31.998s-20 -38 -24 -68l-27 -220c-6.66699 -54.667 -22.5 -94 -47.5 -118s-62.833 -36 -113.5 -36h-11c-4 0 -9.66699 0.333008 -17 1l8 70h7h22.5c5 0 9.5 0.666992 13.5 2c12 2 21.667 6.33301 29 13
c8 6.66699 14 16.167 18 28.5s7.66699 30.5 11 54.5l26 210c3.33301 26 9.66602 49.667 18.999 71c6 13.333 13.667 24.333 23 33s23.666 17.667 42.999 27c-12.667 7.33301 -21.834 13.833 -27.501 19.5s-11.167 13.834 -16.5 24.501s-8.83301 23.167 -10.5 37.5
s-1.16699 31.5 1.5 51.5l25 203l3 22c1.33301 7.33301 1.83301 13.166 1.5 17.499s-0.166016 8.16602 0.500977 11.499c-0.666992 7.33301 -2.33398 14.5 -5.00098 21.5s-5.66699 12.167 -9 15.5c-2 2.66699 -5.5 5 -10.5 7s-9.5 3.66699 -13.5 5
c-3.33301 0.666992 -7.33301 1.16699 -12 1.5s-12 0.5 -22 0.5h-9l8 70c9.33301 0.666992 16 1 20 1h11c51.333 0 86 -12.5 104 -37.5s23.333 -67.833 16 -128.5l-25 -208c-4 -32 -2.16699 -55.833 5.5 -71.5s23.167 -26.834 46.5 -33.501z" />
    <glyph glyph-name="asciitilde" unicode="~" horiz-adv-x="743" 
d="M656 789c-8.66699 -17.333 -15.5 -30.0029 -20.5 -38.0029s-11.167 -16.667 -18.5 -26c-15.333 -19.333 -34 -34.666 -56 -45.999s-44.667 -17 -68 -17c-9.33301 0 -23.333 2.5 -42 7.5s-35.667 10.833 -51 17.5l-64 29c-30.667 13.333 -55 20 -73 20
c-20 0 -37.5 -6.16699 -52.5 -18.5s-30.833 -33.166 -47.5 -62.499l-48 31l12 24.5c2.66699 5.66699 6.33398 12.167 11.001 19.5c17.333 30 36.5 51.833 57.5 65.5s45.5 20.5 73.5 20.5c15.333 0 32.5 -2.83301 51.5 -8.5s43.833 -15.5 74.5 -29.5
c11.333 -5.33301 21.666 -10 30.999 -14l24 -10c18.667 -7.33301 36.667 -11 54 -11c21.333 0 39.333 5.33301 54 16s30.667 30.334 48 59.001z" />
    <glyph glyph-name="uni00A0" unicode="&#xa0;" horiz-adv-x="281" 
 />
    <glyph glyph-name="exclamdown" unicode="&#xa1;" horiz-adv-x="312" 
d="M204 585c14.667 0 26.332 -5.33398 34.999 -16.001c10 -10 14 -23 12 -39c-2 -15.333 -9 -28.666 -21 -39.999c-12 -10 -25.333 -15 -40 -15c-15.333 0 -28 5.33301 -38 16c-9.33301 11.333 -13 24 -11 38c2 16 9.33301 29.333 22 40c10.667 10.667 24.334 16 41.001 16z
M68.998 -176.001l74 598h81l-74 -598h-81z" />
    <glyph glyph-name="cent" unicode="&#xa2;" horiz-adv-x="638" 
d="M462 627c36 -2 73.999 -16.332 113.999 -42.999l-13 -106c-24.667 30.667 -48 52 -70 64l-16 6c-5.33301 2 -11.666 3.66699 -18.999 5c-2 0 -3.66699 0.333008 -5 1l-42 -343c45.333 8.66699 89.333 35.334 132 80.001l-13 -105c-46.667 -30 -89.334 -46 -128.001 -48
l-14 -111h-65l14 112c-32.667 6 -59 14.667 -79 26c-36 21.333 -63 50.666 -81 87.999c-11.333 24 -18 45.333 -20 64v33c0 76 27 141 81 195c12.667 13.333 26.334 25 41.001 35s30 18.667 46 26s39.667 13.666 71 18.999l13 106h66zM387.999 551.001
c-34 -8 -62.667 -22.999 -86 -44.999c-18 -16 -31.667 -33.667 -41 -53c-14.667 -27.333 -22 -63 -22 -107c0 -29.333 9 -57 27 -83c18.667 -24.667 45 -41.334 79 -50.001z" />
    <glyph glyph-name="sterling" unicode="&#xa3;" horiz-adv-x="631" 
d="M573 503c0 58 -13.834 103.825 -41.501 137.492s-65.5 50.5 -113.5 50.5c-25.333 0 -48.5 -5 -69.5 -15s-39 -24 -54 -42s-26.5 -39.667 -34.5 -65s-12 -53.666 -12 -84.999c0 -11.333 0.5 -26.166 1.5 -44.499s3.16699 -36.5 6.5 -54.5l4 -26h195l-8 -59h-180v-28
c0 -13.333 -0.5 -25.666 -1.5 -36.999s-3 -22.666 -6 -33.999s-6.83301 -23 -11.5 -35s-10.667 -25.667 -18 -41l22 -4c8.66699 -1.33301 19.167 -4.33301 31.5 -9l50.5 -20l42.5 -16.5c11.667 -4.33301 21.834 -7.66602 30.501 -9.99902s16.5 -4 23.5 -5
s14.167 -1.5 21.5 -1.5c17.333 0 34.333 3 51 9c13.333 5.33301 24.333 11 33 17s19.667 15.667 33 29l9 9l44 -59c-13.333 -12 -23.166 -20.5 -29.499 -25.5s-13.5 -10.167 -21.5 -15.5c-17.333 -11.333 -36.5 -20.166 -57.5 -26.499s-41.167 -9.5 -60.5 -9.5
c-30 0 -66.667 8 -110 24l-63 23c-19.333 7.33301 -37 12.833 -53 16.5s-29.667 5.5 -41 5.5c-19.333 0 -39 -5.66699 -59 -17c-11.333 -6 -20.833 -12.5 -28.5 -19.5s-17.834 -18.167 -30.501 -33.5l-48 55c11.333 13.333 20.666 23.333 27.999 30s17 14.334 29 23.001
c14.667 9.33301 26.5 16.166 35.5 20.499s21.833 8.16602 38.5 11.499c14 24.667 23.833 46.5 29.5 65.5s8.5 40.167 8.5 63.5v18c0 6.66699 -0.666992 15 -2 25h-118l7 59h103c-2 12.667 -3.66699 23.834 -5 33.501s-2.16602 18.5 -2.49902 26.5l-1 24
c-0.333008 8 -0.5 16.667 -0.5 26c0 94.667 22.333 167.334 67 218.001c22.667 24.667 50.167 43.834 82.5 57.501s66.833 20.5 103.5 20.5c68.667 0 122.667 -20.5 162 -61.5s61.333 -99.5 66 -175.5z" />
    <glyph glyph-name="currency" unicode="&#xa4;" horiz-adv-x="750" 
d="M198 244c-6 11.333 -11.1709 21.666 -15.5039 30.999l-11.5 25c-8.66699 22 -13 45.333 -13 70c0 42.667 8 80.334 24 113.001c10 22 28 49 54 81l-94 106l52 48l94 -107c17.333 10.667 32.833 19.5 46.5 26.5s25.167 12.5 34.5 16.5c26 10 55.667 15 89 15
c35.333 0 65.333 -6 90 -18c8.66699 -3.33301 18 -8.33301 28 -15s21.333 -14.667 34 -24l120 106l42 -47l-120 -106c6.66699 -12 12.334 -23 17.001 -33s8.33398 -18.667 11.001 -26c8 -22 12 -44.667 12 -68c0 -40 -7.66699 -76.333 -23 -109
c-5.33301 -10 -12.5 -22 -21.5 -36s-20.167 -29.667 -33.5 -47l94 -108l-52 -46l-94 107c-30 -19.333 -55.333 -33 -76 -41c-26 -10.667 -56.667 -16 -92 -16c-33.333 0 -63.666 6 -90.999 18c-9.33301 4 -19.166 9.16699 -29.499 15.5l-35.5 22.5l-119 -106l-40 46z
M447.996 595c-52 0 -98.333 -18.333 -139 -55c-48 -42 -72 -95 -72 -159c0 -28 4.66699 -52.333 14 -73c14 -28.667 33.667 -50.667 59 -66c27.333 -17.333 58.333 -26 93 -26c51.333 0 97.333 18 138 54c48.667 42.667 73 94.667 73 156c0 30 -5.33301 55.667 -16 77
c-14 29.333 -34 52 -60 68c-26.667 16 -56.667 24 -90 24z" />
    <glyph glyph-name="yen" unicode="&#xa5;" horiz-adv-x="638" 
d="M623 333l-8 -63h-223l-33 -270h-84l33 270h-219l8 63h213l-44 98h-157l8 64h120l-116 255h97l150 -335l235 335h98l-181 -255h123l-8 -64h-160l-68 -98h216z" />
    <glyph glyph-name="brokenbar" unicode="&#xa6;" horiz-adv-x="244" 
d="M122 767h84l-38 -314h-84zM66 314h84l-38 -314h-84z" />
    <glyph glyph-name="section" unicode="&#xa7;" horiz-adv-x="579" 
d="M386 617c0 15.333 -0.668945 26.9912 -2.00195 34.9912s-3.66602 17.333 -6.99902 28c-7.33301 22.667 -20 40.334 -38 53.001s-39.667 19 -65 19c-34.667 0 -62.667 -10.667 -84 -32s-32 -49.333 -32 -84c0 -33.333 13 -59.666 39 -78.999
c7.33301 -5.33301 14.833 -10.166 22.5 -14.499s16.167 -8.16602 25.5 -11.499c5.33301 -2.66699 22 -8.66699 50 -18c28 -10 51 -19.333 69 -28s33.333 -18.334 46 -29.001c18.667 -15.333 33.167 -35.5 43.5 -60.5s15.5 -52.167 15.5 -81.5c0 -48.667 -15 -90 -45 -124
c-9.33301 -10.667 -18.333 -19.167 -27 -25.5s-22.334 -15.166 -41.001 -26.499c15.333 -9.33301 26.166 -16.166 32.499 -20.499s13.166 -10.166 20.499 -17.499c13.333 -13.333 23.666 -30.5 30.999 -51.5s11 -43.167 11 -66.5c0 -28 -4.66699 -53.667 -14 -77
s-22.666 -43.166 -39.999 -59.499s-38.166 -29 -62.499 -38s-51.166 -13.5 -80.499 -13.5c-28.667 0 -55.167 4.66699 -79.5 14s-45.166 22.666 -62.499 39.999s-29.833 37.666 -37.5 60.999s-12.167 54.666 -13.5 93.999h81c1.33301 -18 2.5 -30.667 3.5 -38
s3.16699 -16 6.5 -26c6.66699 -21.333 19.167 -37.833 37.5 -49.5s40.5 -17.5 66.5 -17.5c35.333 0 62.833 9.83301 82.5 29.5s29.5 47.5 29.5 83.5c0 28.667 -7.5 51.834 -22.5 69.501s-40.5 33.5 -76.5 47.5l-50 20c-27.333 11.333 -48.666 20.833 -63.999 28.5
s-29 17.167 -41 28.5c-36.667 32.667 -55 77.334 -55 134.001c0 84 37.333 143 112 177c-14 8 -24.167 14.333 -30.5 19s-13.166 10.667 -20.499 18c-13.333 14 -23.833 31.167 -31.5 51.5s-11.5 41.5 -11.5 63.5c0 26.667 5 51.334 15 74.001s23.833 42.334 41.5 59.001
s38.5 29.834 62.5 39.501s50 14.5 78 14.5c25.333 0 50.666 -5 75.999 -15s46 -23 62 -39c32 -33.333 50 -86 54 -158h-80zM384.998 314.991c0 17.333 -3.16699 33.334 -9.5 48.001s-15 27.667 -26 39s-23.833 20.166 -38.5 26.499s-30.667 9.5 -48 9.5
c-16.667 0 -32.334 -3.16699 -47.001 -9.5s-27.5 -15 -38.5 -26s-19.667 -24 -26 -39s-9.5 -30.833 -9.5 -47.5c0 -17.333 3.16699 -33.5 9.5 -48.5s15 -28.167 26 -39.5s24 -20.166 39 -26.499s30.833 -9.5 47.5 -9.5s32.334 3.16699 47.001 9.5s27.5 15.166 38.5 26.499
s19.667 24.5 26 39.5s9.5 30.833 9.5 47.5z" />
    <glyph glyph-name="copyright" unicode="&#xa9;" horiz-adv-x="855" 
d="M813 378c0 -54 -9.99805 -104.833 -29.998 -152.5s-47.5 -89.167 -82.5 -124.5s-76.167 -63.166 -123.5 -83.499s-98 -30.5 -152 -30.5c-53.333 0 -103.5 10.167 -150.5 30.5s-88 48 -123 83s-62.667 76.167 -83 123.5s-30.5 97.666 -30.5 150.999
c0 52.667 10.167 102.5 30.5 149.5s47.666 88.167 81.999 123.5s74.666 63.333 120.999 84s95.5 31 147.5 31c54.667 0 106 -10 154 -30s89.667 -47.333 125 -82s63.333 -75.5 84 -122.5s31 -97.167 31 -150.5zM750.002 375c0 44 -8.49902 85.834 -25.499 125.501
s-40 74.167 -69 103.5s-62.833 52.666 -101.5 69.999s-80 26 -124 26c-46 0 -89 -8.5 -129 -25.5s-74.833 -40 -104.5 -69s-53 -63 -70 -102s-25.5 -80.833 -25.5 -125.5c0 -45.333 8.5 -88 25.5 -128s40 -74.833 69 -104.5s63.333 -53 103 -70s81.834 -25.5 126.501 -25.5
c45.333 0 87.666 8.5 126.999 25.5s73.666 40.333 102.999 70s52.5 64.167 69.5 103.5s25.5 81.333 25.5 126zM580.003 485.001c-17.333 19.333 -38.8389 34.6631 -64.5059 45.9961s-53.5 17 -83.5 17c-26 0 -49.667 -4.5 -71 -13.5s-39.666 -21.667 -54.999 -38
s-27.333 -35.666 -36 -57.999s-13 -46.833 -13 -73.5c0 -50 15.5 -89.667 46.5 -119s73.167 -44 126.5 -44c34 0 64 6.66699 90 20c4.66699 2 8.83398 4.16699 12.501 6.5l10.5 6.5c2 2 4.5 4 7.5 6s8.83301 6.66699 17.5 14l-10 -79l-4 -3
c-22.667 -11.333 -44.667 -19.5 -66 -24.5s-44 -7.5 -68 -7.5c-34 0 -65 5.5 -93 16.5s-52.167 26.333 -72.5 46s-36.166 43.334 -47.499 71.001s-17 57.834 -17 90.501c0 35.333 6 67.833 18 97.5s28.833 55.334 50.5 77.001s47.334 38.667 77.001 51
s61.834 18.5 96.501 18.5c16 0 31.833 -1.33301 47.5 -4s30.834 -6.66699 45.501 -12c15.333 -5.33301 27.833 -10.833 37.5 -16.5s22.5 -14.5 38.5 -26.5l-10 -77z" />
    <glyph glyph-name="ordfeminine" unicode="&#xaa;" horiz-adv-x="403" 
d="M396 466l-54 0.000976562l5 35c-30.667 -28.667 -65.334 -43 -104.001 -43c-40 0 -71.333 13.333 -94 40c-20 23.333 -30 51.666 -30 84.999c0 4 0.166992 8 0.5 12s0.833008 8 1.5 12c4.66699 43.333 22.667 79 54 107c28.667 26.667 63.334 40 104.001 40
c37.333 0 68.333 -14.333 93 -43l5 36h54zM280 708.001c-25.333 0 -47.667 -8.66699 -67 -26c-25.333 -23.333 -38 -53.666 -38 -90.999c0 -16.667 2.66699 -31 8 -43c14.667 -28.667 38.667 -43 72 -43c26.667 0 49.667 8.66699 69 26c26 23.333 39 53.666 39 90.999
c0 24.667 -6.66699 44.667 -20 60c-15.333 17.333 -36.333 26 -63 26zM400.999 390.001l-6 -52h-323l6 52h323z" />
    <glyph glyph-name="guillemotleft" unicode="&#xab;" horiz-adv-x="532" 
d="M35 240l193 211l48 -41l-155 -170l113 -165l-58 -42zM202 240l194 211l47 -41l-155 -170l113 -165l-57 -42z" />
    <glyph glyph-name="logicalnot" unicode="&#xac;" horiz-adv-x="559" 
d="M454 221h-403v79h488v-300h-85v221z" />
    <glyph glyph-name="uni00AD" unicode="&#xad;" horiz-adv-x="181" 
d="M4 240h181l-8 -61h-181z" />
    <glyph glyph-name="registered" unicode="&#xae;" horiz-adv-x="855" 
d="M813 378c0 -54 -9.99805 -104.833 -29.998 -152.5s-47.5 -89.167 -82.5 -124.5s-76.167 -63.166 -123.5 -83.499s-98 -30.5 -152 -30.5c-53.333 0 -103.5 10.167 -150.5 30.5s-88 48 -123 83s-62.667 76.167 -83 123.5s-30.5 97.666 -30.5 150.999
c0 52.667 10.167 102.5 30.5 149.5s47.666 88.167 81.999 123.5s74.666 63.333 120.999 84s95.5 31 147.5 31c54.667 0 106 -10 154 -30s89.667 -47.333 125 -82s63.333 -75.5 84 -122.5s31 -97.167 31 -150.5zM750.002 375c0 44 -8.49902 85.834 -25.499 125.501
s-40 74.167 -69 103.5s-62.833 52.666 -101.5 69.999s-80 26 -124 26c-46 0 -89 -8.5 -129 -25.5s-74.833 -40 -104.5 -69s-53 -63 -70 -102s-25.5 -80.833 -25.5 -125.5c0 -45.333 8.5 -88 25.5 -128s40 -74.833 69 -104.5s63.333 -53 103 -70s81.834 -25.5 126.501 -25.5
c45.333 0 87.666 8.5 126.999 25.5s73.666 40.333 102.999 70s52.5 64.167 69.5 103.5s25.5 81.333 25.5 126zM365.003 343.001h-7l-24 -193h-66l55 450h84c24.667 0 45 -1.83301 61 -5.5s30 -10.167 42 -19.5c14.667 -10.667 26.167 -24.5 34.5 -41.5
s12.5 -35.167 12.5 -54.5c0 -35.333 -10.833 -64.5 -32.5 -87.5s-51.5 -37.833 -89.5 -44.5l130 -197h-76zM386.003 397.001c28 0 49 3.33301 63 10c12 5.33301 21.667 14.333 29 27s11 26.667 11 42c0 43.333 -28.333 65 -85 65h-22l-17 -144h21z" />
    <glyph glyph-name="degree" unicode="&#xb0;" horiz-adv-x="634" 
d="M513 611c0 -20.667 -4.00195 -40.166 -12.002 -58.499s-18.667 -34.166 -32 -47.499s-29.166 -24 -47.499 -32s-37.833 -12 -58.5 -12s-40.167 4 -58.5 12s-34.166 18.667 -47.499 32s-24 29.166 -32 47.499s-12 37.833 -12 58.5s3.83301 40 11.5 58
s18.334 33.833 32.001 47.5s29.5 24.5 47.5 32.5s37 12 57 12c21.333 0 41.166 -3.83301 59.499 -11.5s34.333 -18.334 48 -32.001s24.5 -29.5 32.5 -47.5s12 -37.667 12 -59zM454.998 612.001c0 25.333 -8.83301 47 -26.5 65s-39.167 27 -64.5 27c-26 0 -48 -9 -66 -27
s-27 -40 -27 -66c0 -25.333 9 -47 27 -65s39.667 -27 65 -27s47 9 65 27s27 40 27 66z" />
    <glyph glyph-name="plusminus" unicode="&#xb1;" horiz-adv-x="638" 
d="M336 417l28 227h68l-28 -227h231l-8 -69h-231l-27 -219h-68l27 219h-231l8 69h231zM592 69l-8 -69h-530l8 69h530z" />
    <glyph glyph-name="uni00B2" unicode="&#xb2;" horiz-adv-x="315" 
d="M67 558l155.999 172.004l29.5 33l16 18.5c3.66699 4.33301 6.5 8 8.5 11s4 6.5 6 10.5c6.66699 12 10 24.667 10 38c0 19.333 -5.83301 34.5 -17.5 45.5s-27.5 16.5 -47.5 16.5c-22 0 -38.5 -6.33301 -49.5 -19s-17.833 -33.334 -20.5 -62.001h-55
c1.33301 22 4 39.667 8 53s10.333 25.666 19 36.999c22 29.333 55.333 44 100 44c36 0 64.833 -10.333 86.5 -31s32.5 -48.334 32.5 -83.001c0 -11.333 -1 -21.5 -3 -30.5s-5.5 -18.333 -10.5 -28s-12.167 -20.334 -21.5 -32.001s-21.666 -25.5 -36.999 -41.5l-90 -98h140
l-7 -54h-253z" />
    <glyph glyph-name="uni00B3" unicode="&#xb3;" horiz-adv-x="329" 
d="M142 652c5.33301 -34.667 26.665 -52 63.998 -52c21.333 0 38.666 6.5 51.999 19.5s20 29.833 20 50.5s-6.16699 35.834 -18.5 45.501s-32.166 14.834 -59.499 15.501l7 52c2.66699 -0.666992 5.33398 -1 8.00098 -1h6c19.333 0 34.5 5.66699 45.5 17
s16.5 27.666 16.5 48.999c0 15.333 -4.66699 27.666 -14 36.999s-22 14 -38 14c-34.667 0 -54 -21 -58 -63h-51c1.33301 19.333 3.83301 35 7.5 47s9.83398 23 18.501 33c20.667 24 50.334 36 89.001 36c32 0 57 -9 75 -27s27 -42.333 27 -73c0 -23.333 -5 -42.5 -15 -57.5
s-26 -27.5 -48 -37.5c39.333 -14.667 59 -44.667 59 -90c0 -36 -11.833 -64.833 -35.5 -86.5s-54.834 -32.5 -93.501 -32.5c-34 0 -61.333 9 -82 27s-32.667 43.667 -36 77h54z" />
    <glyph glyph-name="uni00B5" unicode="&#xb5;" horiz-adv-x="523" 
d="M133 467l79.999 -0.00195312l-35 -285c-0.666992 -5.33301 -1.16699 -10.166 -1.5 -14.499s-0.5 -8.83301 -0.5 -13.5c0 -62.667 30.667 -94 92 -94c42.667 0 75 15.667 97 47c12.667 18.667 21.334 48 26.001 88l33 272h80l-34 -281
c-7.33301 -59.333 -23.666 -102.666 -48.999 -129.999c-18.667 -22 -42.334 -39 -71.001 -51c-27.333 -12.667 -57.333 -19 -90 -19c-38 0 -72.667 11.667 -104 35l-32 -284h-80z" />
    <glyph glyph-name="paragraph" unicode="&#xb6;" horiz-adv-x="635" 
d="M506 674l-96 -785h-69l96 785h-107l-97 -785h-69l59 480h-15c-47.333 0 -84.833 16.167 -112.5 48.5s-41.5 75.5 -41.5 129.5c0 66 20.5 116.333 61.5 151s100.833 52 179.5 52h307l-44 -76h-52z" />
    <glyph glyph-name="periodcentered" unicode="&#xb7;" horiz-adv-x="135" 
d="M67 453c19.333 0 35.667 -6.66699 49 -20c13.333 -12.667 20 -28 20 -46c0 -19.333 -6.66699 -36.333 -20 -51c-14.667 -12.667 -31 -19 -49 -19c-18.667 0 -34 6.33301 -46 19c-14 13.333 -21 30 -21 50c0 18.667 6.66699 34.667 20 48c12 12.667 27.667 19 47 19z" />
    <glyph glyph-name="uni00B9" unicode="&#xb9;" horiz-adv-x="210" 
d="M135 558l41 338h-77l27 54h115l-48 -392h-58z" />
    <glyph glyph-name="ordmasculine" unicode="&#xba;" horiz-adv-x="403" 
d="M295 754c44.667 0 80.333 -15 107 -45c12 -14 20.667 -30.333 26 -49c2 -6.66699 3 -18.334 3 -35.001c0 -49.333 -18.333 -90 -55 -122c-34 -30 -73.333 -45 -118 -45c-37.333 0 -69.333 11.667 -96 35c-27.333 24 -41 54.667 -41 92c0 42.667 15 80.334 45 113.001
c35.333 37.333 78.333 56 129 56zM287.999 708c-28.667 0 -53.335 -9.33398 -74.002 -28.001c-21.333 -19.333 -34 -43.333 -38 -72c-0.666992 -3.33301 -1 -6.16602 -1 -8.49902v-8.5c0 -23.333 7 -42.666 21 -57.999c16 -18.667 38.333 -28 67 -28
s54.334 9.66699 77.001 29c20.667 18 33 42 37 72c0.666992 3.33301 1 8.33301 1 15c0 23.333 -6.66699 42.666 -20 57.999c-17.333 19.333 -40.666 29 -69.999 29zM410.998 389.999l-7 -53h-323l7 53h323z" />
    <glyph glyph-name="guillemotright" unicode="&#xbb;" horiz-adv-x="532" 
d="M2 75l154 165l-112 170l57 41l142 -211l-194 -207zM169 75l155 165l-113 170l57 41l142 -211l-194 -207z" />
    <glyph glyph-name="onequarter" unicode="&#xbc;" horiz-adv-x="671" 
d="M596 790l39 -25l-564 -805l-39 25zM110 358l41 338h-77l27 54h115l-48 -392h-58zM524 0l10 72h-183l285 363l-38 -313h36l-6 -50h-37l-9 -72h-58zM451 122h88l18 139z" />
    <glyph glyph-name="onehalf" unicode="&#xbd;" horiz-adv-x="736" 
d="M596 790l39 -25l-564 -805l-39 25zM110 358l41 338h-77l27 54h115l-48 -392h-58zM419 0l155.999 172.004l29.5 33l16 18.5c3.66699 4.33301 6.5 8 8.5 11s4 6.5 6 10.5c6.66699 12 10 24.667 10 38c0 19.333 -5.83301 34.5 -17.5 45.5s-27.5 16.5 -47.5 16.5
c-22 0 -38.5 -6.33301 -49.5 -19s-17.833 -33.334 -20.5 -62.001h-55c1.33301 22 4 39.667 8 53s10.333 25.666 19 36.999c22 29.333 55.333 44 100 44c36 0 64.833 -10.333 86.5 -31s32.5 -48.334 32.5 -83.001c0 -11.333 -1 -21.5 -3 -30.5s-5.5 -18.333 -10.5 -28
s-12.167 -20.334 -21.5 -32.001s-21.666 -25.5 -36.999 -41.5l-90 -98h140l-7 -54h-253z" />
    <glyph glyph-name="threequarters" unicode="&#xbe;" horiz-adv-x="790" 
d="M715 790l39 -25l-564 -805l-39 25zM117 452c5.33301 -34.667 26.665 -52 63.998 -52c21.333 0 38.666 6.5 51.999 19.5s20 29.833 20 50.5s-6.16699 35.834 -18.5 45.501s-32.166 14.834 -59.499 15.501l7 52c2.66699 -0.666992 5.33398 -1 8.00098 -1h6
c19.333 0 34.5 5.66699 45.5 17s16.5 27.666 16.5 48.999c0 15.333 -4.66699 27.666 -14 36.999s-22 14 -38 14c-34.667 0 -54 -21 -58 -63h-51c1.33301 19.333 3.83301 35 7.5 47s9.83398 23 18.501 33c20.667 24 50.334 36 89.001 36c32 0 57 -9 75 -27s27 -42.333 27 -73
c0 -23.333 -5 -42.5 -15 -57.5s-26 -27.5 -48 -37.5c39.333 -14.667 59 -44.667 59 -90c0 -36 -11.833 -64.833 -35.5 -86.5s-54.834 -32.5 -93.501 -32.5c-34 0 -61.333 9 -82 27s-32.667 43.667 -36 77h54zM642.999 0l10 72h-183l285 363l-38 -313h36l-6 -50h-37l-9 -72
h-58zM569.999 122h88l18 139z" />
    <glyph glyph-name="questiondown" unicode="&#xbf;" horiz-adv-x="525" 
d="M283 525c-1.33301 -15.333 -7.99805 -28.333 -19.998 -39s-25.667 -16 -41 -16c-16 0 -28.833 5.5 -38.5 16.5s-13.834 24.167 -12.501 39.5c2 15.333 9.16699 28.5 21.5 39.5s26.166 16.5 41.499 16.5s27.833 -5.5 37.5 -16.5s13.5 -24.5 11.5 -40.5zM343.002 17
c0 -6 -0.168945 -11.833 -0.501953 -17.5s-1.16602 -12.5 -2.49902 -20.5c-2.66699 -24 -9.83398 -46.167 -21.501 -66.5s-26.334 -38 -44.001 -53s-38 -26.667 -61 -35s-47.5 -12.5 -73.5 -12.5c-25.333 0 -48.333 4.5 -69 13.5s-38 21.5 -52 37.5
s-24.167 34.833 -30.5 56.5s-7.83301 45.167 -4.5 70.5c3.33301 29.333 13 57.166 29 83.499s35 46.166 57 59.499c6.66699 4 14 7.83301 22 11.5s18.333 7.5 31 11.5l20 6l16 134h82l-23 -192c-12.667 0 -23.667 -0.666992 -33 -2s-17.833 -3.16602 -25.5 -5.49902
s-15.167 -5.66602 -22.5 -9.99902s-15.333 -9.83301 -24 -16.5c-2 -1.33301 -3.66699 -2.66602 -5 -3.99902c-0.666992 0 -1 -0.166992 -1 -0.5s-0.333008 -0.5 -1 -0.5c-13.333 -10 -23.166 -20.833 -29.499 -32.5s-10.5 -25.834 -12.5 -42.501
c-4 -30 2.33301 -54.333 19 -73s39.667 -28 69 -28c28.667 0 53.334 9 74.001 27s32.667 41 36 69c1.33301 6.66699 1.83301 13.167 1.5 19.5s-1.16602 15.5 -2.49902 27.5h82v-15z" />
    <glyph glyph-name="Agrave" unicode="&#xc0;" horiz-adv-x="663" 
d="M294 986l83 37l119 -163l-50 -27zM489 209h-305l-110 -209h-90l417 796l231 -796h-85zM223 286h242l-85 307z" />
    <glyph glyph-name="Aacute" unicode="&#xc1;" horiz-adv-x="663" 
d="M308 860l138 163l79 -37l-171 -153zM489 209h-305l-110 -209h-90l417 796l231 -796h-85zM223 286h242l-85 307z" />
    <glyph glyph-name="Acircumflex" unicode="&#xc2;" horiz-adv-x="663" 
d="M567 883l-63 -44l-88 85l-110 -85l-50 44l171 133zM489 209h-305l-110 -209h-90l417 796l231 -796h-85zM223 286h242l-85 307z" />
    <glyph glyph-name="Atilde" unicode="&#xc3;" horiz-adv-x="663" 
d="M569 944c-24 -53.333 -59.0029 -80 -105.003 -80c-10.667 0 -20.667 1.33301 -30 4s-25 9 -47 19c-17.333 7.33301 -31.166 12.833 -41.499 16.5s-19.166 5.5 -26.499 5.5c-10 0 -18.667 -3.33301 -26 -10s-15 -18.667 -23 -36l-48 39
c9.33301 14.667 15.833 24.5 19.5 29.5s8.16699 10.833 13.5 17.5c8 9.33301 18.333 16.833 31 22.5s25.667 8.5 39 8.5c11.333 0 22.833 -1.66699 34.5 -5s26.167 -9 43.5 -17c21.333 -10 35.833 -16.333 43.5 -19s14.834 -4 21.501 -4c10.667 0 20 3.5 28 10.5
s16.667 19.167 26 36.5zM488.997 209h-305l-110 -209h-90l417 796l231 -796h-85zM222.997 286h242l-85 307z" />
    <glyph glyph-name="Adieresis" unicode="&#xc4;" horiz-adv-x="663" 
d="M319 866c-15.333 0 -28.667 5.33301 -40 16s-17 23.667 -17 39c0 16.667 5.5 30.5 16.5 41.5s24.5 16.5 40.5 16.5c15.333 0 28.5 -5.5 39.5 -16.5s16.5 -24.167 16.5 -39.5c0 -16 -5.5 -29.5 -16.5 -40.5s-24.167 -16.5 -39.5 -16.5zM514.999 866
c-15.333 0 -28.667 5.33301 -40 16s-17 23.667 -17 39c0 16.667 5.5 30.5 16.5 41.5s24.5 16.5 40.5 16.5c15.333 0 28.5 -5.5 39.5 -16.5s16.5 -24.167 16.5 -39.5c0 -16 -5.5 -29.5 -16.5 -40.5s-24.167 -16.5 -39.5 -16.5zM488.998 209h-305l-110 -209h-90l417 796
l231 -796h-85zM222.998 286h242l-85 307z" />
    <glyph glyph-name="Aring" unicode="&#xc5;" horiz-adv-x="663" 
d="M395 826c-12.667 0 -24.834 2.5 -36.501 7.5s-22 11.833 -31 20.5s-16 18.834 -21 30.501s-7.5 24.167 -7.5 37.5c0 27.333 9.33301 50.333 28 69s41.667 28 69 28c26.667 0 49.334 -9.33301 68.001 -28s28 -41.334 28 -68.001c0 -27.333 -9.33301 -50.333 -28 -69
s-41.667 -28 -69 -28zM396 876c13.333 0 24.5 4.49902 33.5 13.499s13.5 20.167 13.5 33.5s-4.5 24.5 -13.5 33.5s-20.167 13.5 -33.5 13.5s-24.666 -4.5 -33.999 -13.5s-14 -19.833 -14 -32.5c0 -13.333 4.66699 -24.666 14 -33.999s20.666 -14 33.999 -14zM489 208.999
h-305l-110 -209h-90l417 796l231 -796h-85zM223 285.999h242l-85 307z" />
    <glyph glyph-name="AE" unicode="&#xc6;" horiz-adv-x="999" 
d="M510 213h-316l-117 -213h-93l415 750h344l22 -77h-306l68 -229h306l22 -76h-306l86 -291h306l22 -77h-394zM238 288h248l-84 301z" />
    <glyph glyph-name="Ccedilla" unicode="&#xc7;" horiz-adv-x="696" 
d="M631 51c-0.666992 -5.33301 -1.99902 -9.16992 -3.99902 -11.5029s-6.33301 -5.16602 -13 -8.49902c-29.333 -15.333 -60.5 -26.833 -93.5 -34.5s-66.5 -11.5 -100.5 -11.5c-52.667 0 -101.167 9 -145.5 27s-82.166 43.333 -113.499 76s-55.833 71.834 -73.5 117.501
s-26.5 95.834 -26.5 150.501c0 59.333 9.5 113.833 28.5 163.5s45.5 92.834 79.5 129.501s74.333 65.167 121 85.5s97.667 30.5 153 30.5c42 0 80.667 -5.33301 116 -16s72 -28.667 110 -54c21.333 -14 32 -24 32 -30l-2 -14l-7 -53v-4c-0.666992 -8 -2.66699 -12 -6 -12
c-1.33301 0 -4 2.33301 -8 7c-12 14 -26.667 27 -44 39s-36.5 22.333 -57.5 31s-42.833 15.334 -65.5 20.001s-45.334 7 -68.001 7c-43.333 0 -83.166 -8.16699 -119.499 -24.5s-67.833 -39.333 -94.5 -69s-47.334 -64.834 -62.001 -105.501s-22 -85 -22 -133
c0 -44 6.66699 -84 20 -120s32.5 -66.5 57.5 -91.5s55.167 -44.333 90.5 -58s74.666 -20.5 117.999 -20.5c20 0 40 1.66699 60 5s39 8.16602 57 14.499s34.5 13.833 49.5 22.5s27.5 18 37.5 28c1.33301 2 2.33301 3 3 3c2 0 3 -1.66699 3 -5v-6zM235.001 -205.004l95 147
l74 -30l-113 -145z" />
    <glyph glyph-name="Egrave" unicode="&#xc8;" horiz-adv-x="515" 
d="M220 986l83 37l119 -163l-50 -27zM220 674l-28 -229h285l-9 -77h-285l-36 -291h285l-10 -77h-367l92 750h368l-10 -76h-285z" />
    <glyph glyph-name="Eacute" unicode="&#xc9;" horiz-adv-x="515" 
d="M234 860l138 163l79 -37l-171 -153zM220 674l-28 -229h285l-9 -77h-285l-36 -291h285l-10 -77h-367l92 750h368l-10 -76h-285z" />
    <glyph glyph-name="Ecircumflex" unicode="&#xca;" horiz-adv-x="515" 
d="M493 883l-63 -44l-88 85l-110 -85l-50 44l171 133zM220 674l-28 -229h285l-9 -77h-285l-36 -291h285l-10 -77h-367l92 750h368l-10 -76h-285z" />
    <glyph glyph-name="Edieresis" unicode="&#xcb;" horiz-adv-x="515" 
d="M245 866c-15.333 0 -28.667 5.33301 -40 16s-17 23.667 -17 39c0 16.667 5.5 30.5 16.5 41.5s24.5 16.5 40.5 16.5c15.333 0 28.5 -5.5 39.5 -16.5s16.5 -24.167 16.5 -39.5c0 -16 -5.5 -29.5 -16.5 -40.5s-24.167 -16.5 -39.5 -16.5zM440.999 866
c-15.333 0 -28.667 5.33301 -40 16s-17 23.667 -17 39c0 16.667 5.5 30.5 16.5 41.5s24.5 16.5 40.5 16.5c15.333 0 28.5 -5.5 39.5 -16.5s16.5 -24.167 16.5 -39.5c0 -16 -5.5 -29.5 -16.5 -40.5s-24.167 -16.5 -39.5 -16.5zM219.998 674l-28 -229h285l-9 -77h-285
l-36 -291h285l-10 -77h-367l92 750h368l-10 -76h-285z" />
    <glyph glyph-name="Igrave" unicode="&#xcc;" horiz-adv-x="255" 
d="M90 986l83 37l119 -163l-50 -27zM55 0l92 750h83l-93 -750h-82z" />
    <glyph glyph-name="Iacute" unicode="&#xcd;" horiz-adv-x="255" 
d="M104 860l138 163l79 -37l-171 -153zM55 0l92 750h83l-93 -750h-82z" />
    <glyph glyph-name="Icircumflex" unicode="&#xce;" horiz-adv-x="255" 
d="M363 883l-63 -44l-88 85l-110 -85l-50 44l171 133zM55 0l92 750h83l-93 -750h-82z" />
    <glyph glyph-name="Idieresis" unicode="&#xcf;" horiz-adv-x="255" 
d="M115 866c-15.333 0 -28.667 5.33301 -40 16s-17 23.667 -17 39c0 16.667 5.5 30.5 16.5 41.5s24.5 16.5 40.5 16.5c15.333 0 28.5 -5.5 39.5 -16.5s16.5 -24.167 16.5 -39.5c0 -16 -5.5 -29.5 -16.5 -40.5s-24.167 -16.5 -39.5 -16.5zM310.999 866
c-15.333 0 -28.667 5.33301 -40 16s-17 23.667 -17 39c0 16.667 5.5 30.5 16.5 41.5s24.5 16.5 40.5 16.5c15.333 0 28.5 -5.5 39.5 -16.5s16.5 -24.167 16.5 -39.5c0 -16 -5.5 -29.5 -16.5 -40.5s-24.167 -16.5 -39.5 -16.5zM54.998 0l92 750h83l-93 -750h-82z" />
    <glyph glyph-name="Eth" unicode="&#xd0;" horiz-adv-x="688" 
d="M511 707c22.667 -14 43.1621 -31.5 61.4951 -52.5s33.833 -44.667 46.5 -71s22.334 -55 29.001 -86s10 -63.167 10 -96.5c0 -42 -5.16699 -82.5 -15.5 -121.5s-25.166 -74.667 -44.499 -107s-42.666 -60.833 -69.999 -85.5s-57.666 -44 -90.999 -58
c-12.667 -5.33301 -25.834 -9.83301 -39.501 -13.5s-28.5 -6.66699 -44.5 -9s-34 -4 -54 -5s-43.333 -1.5 -70 -1.5h-174l42 340h-82l8 70h82l42 340h150c52.667 0 95.334 -3.33301 128.001 -10s61.334 -17.667 86.001 -33zM446.995 123
c19.333 14 36.835 31.3311 52.502 51.998s29 43.167 40 67.5s19.5 50.333 25.5 78s9 55.834 9 84.501c0 42.667 -6.5 82.334 -19.5 119.001s-31.833 66.667 -56.5 90c-22 22 -47.833 37.333 -77.5 46s-69.167 13 -118.5 13h-82l-32 -263h211l-8 -70h-212l-32 -263h94
c51.333 0 92.666 3.5 123.999 10.5s58.666 18.833 81.999 35.5z" />
    <glyph glyph-name="Ntilde" unicode="&#xd1;" horiz-adv-x="804" 
d="M639 944c-24 -53.333 -59.0029 -80 -105.003 -80c-10.667 0 -20.667 1.33301 -30 4s-25 9 -47 19c-17.333 7.33301 -31.166 12.833 -41.499 16.5s-19.166 5.5 -26.499 5.5c-10 0 -18.667 -3.33301 -26 -10s-15 -18.667 -23 -36l-48 39
c9.33301 14.667 15.833 24.5 19.5 29.5s8.16699 10.833 13.5 17.5c8 9.33301 18.333 16.833 31 22.5s25.667 8.5 39 8.5c11.333 0 22.833 -1.66699 34.5 -5s26.167 -9 43.5 -17c21.333 -10 35.833 -16.333 43.5 -19s14.834 -4 21.501 -4c10.667 0 20 3.5 28 10.5
s16.667 19.167 26 36.5zM208.997 581l-72 -581h-82l96 782l473 -617l72 585h83l-97 -787z" />
    <glyph glyph-name="Ograve" unicode="&#xd2;" horiz-adv-x="861" 
d="M393 986l83 37l119 -163l-50 -27zM831 402c0 -60.667 -9.83105 -116.502 -29.498 -167.502s-47 -95 -82 -132s-76.833 -65.833 -125.5 -86.5s-102 -31 -160 -31c-54.667 0 -104.834 9.16699 -150.501 27.5s-85 44 -118 77s-58.667 72.333 -77 118
s-27.5 95.834 -27.5 150.501c0 58.667 10 112.834 30 162.501s47.667 92.667 83 129s77.166 64.666 125.499 84.999s101.166 30.5 158.499 30.5c54.667 0 104.834 -9 150.501 -27s85 -43 118 -75s58.667 -70.167 77 -114.5s27.5 -93.166 27.5 -146.499zM747.002 405.998
c0 43.333 -7.00195 82.1699 -21.002 116.503s-33.667 63.666 -59 87.999s-55.5 43 -90.5 56s-73.833 19.5 -116.5 19.5c-45.333 0 -87.166 -8.16699 -125.499 -24.5s-71.5 -39 -99.5 -68s-50 -63.333 -66 -103s-24 -82.834 -24 -129.501
c0 -42.667 7.33301 -82.167 22 -118.5s35 -67.833 61 -94.5s56.833 -47.334 92.5 -62.001s74.5 -22 116.5 -22c44 0 85 8.33301 123 25s70.833 39.834 98.5 69.501s49.334 64.667 65.001 105s23.5 84.166 23.5 131.499v11z" />
    <glyph glyph-name="Oacute" unicode="&#xd3;" horiz-adv-x="861" 
d="M407 860l138 163l79 -37l-171 -153zM831 402c0 -60.667 -9.83105 -116.502 -29.498 -167.502s-47 -95 -82 -132s-76.833 -65.833 -125.5 -86.5s-102 -31 -160 -31c-54.667 0 -104.834 9.16699 -150.501 27.5s-85 44 -118 77s-58.667 72.333 -77 118
s-27.5 95.834 -27.5 150.501c0 58.667 10 112.834 30 162.501s47.667 92.667 83 129s77.166 64.666 125.499 84.999s101.166 30.5 158.499 30.5c54.667 0 104.834 -9 150.501 -27s85 -43 118 -75s58.667 -70.167 77 -114.5s27.5 -93.166 27.5 -146.499zM747.002 405.998
c0 43.333 -7.00195 82.1699 -21.002 116.503s-33.667 63.666 -59 87.999s-55.5 43 -90.5 56s-73.833 19.5 -116.5 19.5c-45.333 0 -87.166 -8.16699 -125.499 -24.5s-71.5 -39 -99.5 -68s-50 -63.333 -66 -103s-24 -82.834 -24 -129.501
c0 -42.667 7.33301 -82.167 22 -118.5s35 -67.833 61 -94.5s56.833 -47.334 92.5 -62.001s74.5 -22 116.5 -22c44 0 85 8.33301 123 25s70.833 39.834 98.5 69.501s49.334 64.667 65.001 105s23.5 84.166 23.5 131.499v11z" />
    <glyph glyph-name="Ocircumflex" unicode="&#xd4;" horiz-adv-x="861" 
d="M666 883l-63 -44l-88 85l-110 -85l-50 44l171 133zM831 402c0 -60.667 -9.83105 -116.502 -29.498 -167.502s-47 -95 -82 -132s-76.833 -65.833 -125.5 -86.5s-102 -31 -160 -31c-54.667 0 -104.834 9.16699 -150.501 27.5s-85 44 -118 77s-58.667 72.333 -77 118
s-27.5 95.834 -27.5 150.501c0 58.667 10 112.834 30 162.501s47.667 92.667 83 129s77.166 64.666 125.499 84.999s101.166 30.5 158.499 30.5c54.667 0 104.834 -9 150.501 -27s85 -43 118 -75s58.667 -70.167 77 -114.5s27.5 -93.166 27.5 -146.499zM747.002 405.998
c0 43.333 -7.00195 82.1699 -21.002 116.503s-33.667 63.666 -59 87.999s-55.5 43 -90.5 56s-73.833 19.5 -116.5 19.5c-45.333 0 -87.166 -8.16699 -125.499 -24.5s-71.5 -39 -99.5 -68s-50 -63.333 -66 -103s-24 -82.834 -24 -129.501
c0 -42.667 7.33301 -82.167 22 -118.5s35 -67.833 61 -94.5s56.833 -47.334 92.5 -62.001s74.5 -22 116.5 -22c44 0 85 8.33301 123 25s70.833 39.834 98.5 69.501s49.334 64.667 65.001 105s23.5 84.166 23.5 131.499v11z" />
    <glyph glyph-name="Otilde" unicode="&#xd5;" horiz-adv-x="861" 
d="M668 944c-24 -53.333 -59.0029 -80 -105.003 -80c-10.667 0 -20.667 1.33301 -30 4s-25 9 -47 19c-17.333 7.33301 -31.166 12.833 -41.499 16.5s-19.166 5.5 -26.499 5.5c-10 0 -18.667 -3.33301 -26 -10s-15 -18.667 -23 -36l-48 39
c9.33301 14.667 15.833 24.5 19.5 29.5s8.16699 10.833 13.5 17.5c8 9.33301 18.333 16.833 31 22.5s25.667 8.5 39 8.5c11.333 0 22.833 -1.66699 34.5 -5s26.167 -9 43.5 -17c21.333 -10 35.833 -16.333 43.5 -19s14.834 -4 21.501 -4c10.667 0 20 3.5 28 10.5
s16.667 19.167 26 36.5zM830.997 402c0 -60.667 -9.83105 -116.502 -29.498 -167.502s-47 -95 -82 -132s-76.833 -65.833 -125.5 -86.5s-102 -31 -160 -31c-54.667 0 -104.834 9.16699 -150.501 27.5s-85 44 -118 77s-58.667 72.333 -77 118s-27.5 95.834 -27.5 150.501
c0 58.667 10 112.834 30 162.501s47.667 92.667 83 129s77.166 64.666 125.499 84.999s101.166 30.5 158.499 30.5c54.667 0 104.834 -9 150.501 -27s85 -43 118 -75s58.667 -70.167 77 -114.5s27.5 -93.166 27.5 -146.499zM746.999 405.998
c0 43.333 -7.00195 82.1699 -21.002 116.503s-33.667 63.666 -59 87.999s-55.5 43 -90.5 56s-73.833 19.5 -116.5 19.5c-45.333 0 -87.166 -8.16699 -125.499 -24.5s-71.5 -39 -99.5 -68s-50 -63.333 -66 -103s-24 -82.834 -24 -129.501
c0 -42.667 7.33301 -82.167 22 -118.5s35 -67.833 61 -94.5s56.833 -47.334 92.5 -62.001s74.5 -22 116.5 -22c44 0 85 8.33301 123 25s70.833 39.834 98.5 69.501s49.334 64.667 65.001 105s23.5 84.166 23.5 131.499v11z" />
    <glyph glyph-name="Odieresis" unicode="&#xd6;" horiz-adv-x="861" 
d="M418 866c-15.333 0 -28.667 5.33301 -40 16s-17 23.667 -17 39c0 16.667 5.5 30.5 16.5 41.5s24.5 16.5 40.5 16.5c15.333 0 28.5 -5.5 39.5 -16.5s16.5 -24.167 16.5 -39.5c0 -16 -5.5 -29.5 -16.5 -40.5s-24.167 -16.5 -39.5 -16.5zM613.999 866
c-15.333 0 -28.667 5.33301 -40 16s-17 23.667 -17 39c0 16.667 5.5 30.5 16.5 41.5s24.5 16.5 40.5 16.5c15.333 0 28.5 -5.5 39.5 -16.5s16.5 -24.167 16.5 -39.5c0 -16 -5.5 -29.5 -16.5 -40.5s-24.167 -16.5 -39.5 -16.5zM830.998 402
c0 -60.667 -9.83105 -116.502 -29.498 -167.502s-47 -95 -82 -132s-76.833 -65.833 -125.5 -86.5s-102 -31 -160 -31c-54.667 0 -104.834 9.16699 -150.501 27.5s-85 44 -118 77s-58.667 72.333 -77 118s-27.5 95.834 -27.5 150.501c0 58.667 10 112.834 30 162.501
s47.667 92.667 83 129s77.166 64.666 125.499 84.999s101.166 30.5 158.499 30.5c54.667 0 104.834 -9 150.501 -27s85 -43 118 -75s58.667 -70.167 77 -114.5s27.5 -93.166 27.5 -146.499zM747 405.998c0 43.333 -7.00195 82.1699 -21.002 116.503
s-33.667 63.666 -59 87.999s-55.5 43 -90.5 56s-73.833 19.5 -116.5 19.5c-45.333 0 -87.166 -8.16699 -125.499 -24.5s-71.5 -39 -99.5 -68s-50 -63.333 -66 -103s-24 -82.834 -24 -129.501c0 -42.667 7.33301 -82.167 22 -118.5s35 -67.833 61 -94.5
s56.833 -47.334 92.5 -62.001s74.5 -22 116.5 -22c44 0 85 8.33301 123 25s70.833 39.834 98.5 69.501s49.334 64.667 65.001 105s23.5 84.166 23.5 131.499v11z" />
    <glyph glyph-name="multiply" unicode="&#xd7;" horiz-adv-x="1049" 
d="M532 319l-278 -278l-57 56l279 278l-277 277l57 57l276 -277l277 277l57 -57l-277 -277l278 -278l-56 -56z" />
    <glyph glyph-name="Oslash" unicode="&#xd8;" horiz-adv-x="900" 
d="M756 631c50 -66.667 75 -143.669 75 -231.002c0 -83.333 -19 -158 -57 -224c-34 -59.333 -79.667 -105.666 -137 -138.999c-59.333 -34.667 -127 -52 -203 -52c-91.333 0 -172 27 -242 81l-80 -80l-56 56l81 81c-50.667 68.667 -76 147 -76 235
c0 80 18.333 151.667 55 215c33.333 58.667 80 105.334 140 140.001c59.333 34.667 127 52 203 52c90 0 170.333 -26 241 -78l83 83l55 -56zM644 630.998c-53.333 36.667 -114.333 55 -183 55c-89.333 0 -164 -30 -224 -90c-61.333 -62.667 -92 -141 -92 -235
c0 -65.333 17.667 -124.333 53 -177zM252 125.998c54.667 -41.333 116.333 -62 185 -62c86 0 158 29.667 216 89c62.667 63.333 94 144 94 242v11c0 66 -16 122 -48 168z" />
    <glyph glyph-name="Ugrave" unicode="&#xd9;" horiz-adv-x="707" 
d="M316 986l83 37l119 -163l-50 -27zM625 290c-6 -47.333 -13.9961 -86.665 -23.9961 -117.998c-17.333 -58.667 -48.833 -104.5 -94.5 -137.5s-99.834 -49.5 -162.501 -49.5c-38.667 0 -74.167 5.66699 -106.5 17s-60.166 27.166 -83.499 47.499s-41.333 44.833 -54 73.5
s-19 60.334 -19 95.001c0 12.667 0.5 25.167 1.5 37.5s2.16699 25.166 3.5 38.499l56 456h82l-56 -464c-1.33301 -10 -2.33301 -19.833 -3 -29.5s-1 -19.167 -1 -28.5c0 -23.333 2.16699 -42.666 6.5 -57.999s12.166 -30 23.499 -44c15.333 -19.333 35.833 -34.5 61.5 -45.5
s53.5 -16.5 83.5 -16.5c28.667 0 55.167 5 79.5 15s45.166 24.333 62.499 43c17.333 19.333 30.666 42.166 39.999 68.499s16.666 62.166 21.999 107.499l56 452h82z" />
    <glyph glyph-name="Uacute" unicode="&#xda;" horiz-adv-x="707" 
d="M330 860l138 163l79 -37l-171 -153zM625 290c-6 -47.333 -13.9961 -86.665 -23.9961 -117.998c-17.333 -58.667 -48.833 -104.5 -94.5 -137.5s-99.834 -49.5 -162.501 -49.5c-38.667 0 -74.167 5.66699 -106.5 17s-60.166 27.166 -83.499 47.499s-41.333 44.833 -54 73.5
s-19 60.334 -19 95.001c0 12.667 0.5 25.167 1.5 37.5s2.16699 25.166 3.5 38.499l56 456h82l-56 -464c-1.33301 -10 -2.33301 -19.833 -3 -29.5s-1 -19.167 -1 -28.5c0 -23.333 2.16699 -42.666 6.5 -57.999s12.166 -30 23.499 -44c15.333 -19.333 35.833 -34.5 61.5 -45.5
s53.5 -16.5 83.5 -16.5c28.667 0 55.167 5 79.5 15s45.166 24.333 62.499 43c17.333 19.333 30.666 42.166 39.999 68.499s16.666 62.166 21.999 107.499l56 452h82z" />
    <glyph glyph-name="Ucircumflex" unicode="&#xdb;" horiz-adv-x="707" 
d="M589 883l-63 -44l-88 85l-110 -85l-50 44l171 133zM625 290c-6 -47.333 -13.9961 -86.665 -23.9961 -117.998c-17.333 -58.667 -48.833 -104.5 -94.5 -137.5s-99.834 -49.5 -162.501 -49.5c-38.667 0 -74.167 5.66699 -106.5 17s-60.166 27.166 -83.499 47.499
s-41.333 44.833 -54 73.5s-19 60.334 -19 95.001c0 12.667 0.5 25.167 1.5 37.5s2.16699 25.166 3.5 38.499l56 456h82l-56 -464c-1.33301 -10 -2.33301 -19.833 -3 -29.5s-1 -19.167 -1 -28.5c0 -23.333 2.16699 -42.666 6.5 -57.999s12.166 -30 23.499 -44
c15.333 -19.333 35.833 -34.5 61.5 -45.5s53.5 -16.5 83.5 -16.5c28.667 0 55.167 5 79.5 15s45.166 24.333 62.499 43c17.333 19.333 30.666 42.166 39.999 68.499s16.666 62.166 21.999 107.499l56 452h82z" />
    <glyph glyph-name="Udieresis" unicode="&#xdc;" horiz-adv-x="707" 
d="M341 866c-15.333 0 -28.667 5.33301 -40 16s-17 23.667 -17 39c0 16.667 5.5 30.5 16.5 41.5s24.5 16.5 40.5 16.5c15.333 0 28.5 -5.5 39.5 -16.5s16.5 -24.167 16.5 -39.5c0 -16 -5.5 -29.5 -16.5 -40.5s-24.167 -16.5 -39.5 -16.5zM536.999 866
c-15.333 0 -28.667 5.33301 -40 16s-17 23.667 -17 39c0 16.667 5.5 30.5 16.5 41.5s24.5 16.5 40.5 16.5c15.333 0 28.5 -5.5 39.5 -16.5s16.5 -24.167 16.5 -39.5c0 -16 -5.5 -29.5 -16.5 -40.5s-24.167 -16.5 -39.5 -16.5zM624.998 290
c-6 -47.333 -13.9961 -86.665 -23.9961 -117.998c-17.333 -58.667 -48.833 -104.5 -94.5 -137.5s-99.834 -49.5 -162.501 -49.5c-38.667 0 -74.167 5.66699 -106.5 17s-60.166 27.166 -83.499 47.499s-41.333 44.833 -54 73.5s-19 60.334 -19 95.001
c0 12.667 0.5 25.167 1.5 37.5s2.16699 25.166 3.5 38.499l56 456h82l-56 -464c-1.33301 -10 -2.33301 -19.833 -3 -29.5s-1 -19.167 -1 -28.5c0 -23.333 2.16699 -42.666 6.5 -57.999s12.166 -30 23.499 -44c15.333 -19.333 35.833 -34.5 61.5 -45.5s53.5 -16.5 83.5 -16.5
c28.667 0 55.167 5 79.5 15s45.166 24.333 62.499 43c17.333 19.333 30.666 42.166 39.999 68.499s16.666 62.166 21.999 107.499l56 452h82z" />
    <glyph glyph-name="Yacute" unicode="&#xdd;" 
d="M258 860l138 163l79 -37l-171 -153zM288 0h-83l43 342l-195 408h90l156 -329l227 329h97l-294 -417z" />
    <glyph glyph-name="Thorn" unicode="&#xde;" horiz-adv-x="511" 
d="M429 534c21.333 -17.333 37.333 -38.8311 48 -64.498s16 -54.5 16 -86.5c0 -62 -19.333 -114 -58 -156c-12 -12.667 -24.333 -23.334 -37 -32.001s-27 -15.834 -43 -21.501s-34 -9.66699 -54 -12s-43 -3.5 -69 -3.5h-75l-20 -158h-82l71 581l21 169h85l-22 -169h58
c38 0 69.5 -3.83301 94.5 -11.5s47.167 -19.5 66.5 -35.5zM366 274.002c13.333 13.333 23.833 29.5 31.5 48.5s11.5 38.833 11.5 59.5c0 40 -12.167 70.5 -36.5 91.5s-59.5 31.5 -105.5 31.5h-68l-33 -270h72c31.333 0 57 3 77 9s37 16 51 30z" />
    <glyph glyph-name="germandbls" unicode="&#xdf;" horiz-adv-x="556" 
d="M385 441c24 -3.33301 45.501 -10.667 64.501 -22s34.667 -25.833 47 -43.5s21.166 -37.834 26.499 -60.501s6.33301 -46.667 3 -72c-4 -34 -15 -65.833 -33 -95.5s-41 -55.667 -69 -78s-60.167 -40.333 -96.5 -54s-75.5 -21.5 -117.5 -23.5l9 72
c31.333 2 60 7.83301 86 17.5s49 22.5 69 38.5s36.167 34.667 48.5 56s19.833 44.666 22.5 69.999c3.33301 28 1 51.833 -7 71.5s-20.5 35.834 -37.5 48.501s-37.5 22 -61.5 28s-50.333 9 -79 9l9 66c40 2.66699 72.5 15.334 97.5 38.001s39.833 51.667 44.5 87
c4 31.333 -2.66699 55.333 -20 72s-43 25 -77 25c-80 0 -125.333 -45.667 -136 -137l-68 -554h-80l48 388h-45l9 73h45l12 103c7.33301 60 31.333 107.167 72 141.5s92.334 51.5 155.001 51.5c58 0 101.833 -14.667 131.5 -44s41.5 -70 35.5 -122
c-4.66699 -34.667 -16.334 -64.5 -35.001 -89.5s-43 -45.167 -73 -60.5z" />
    <glyph glyph-name="agrave" unicode="&#xe0;" horiz-adv-x="573" 
d="M214 696l83 37l119 -163l-50 -27zM397 0l8.00195 64l-15 -14.5l-14 -12.5c-36 -32 -79 -48 -129 -48c-30.667 0 -59 5.5 -85 16.5s-48.333 26.333 -67 46s-33.167 43.167 -43.5 70.5s-15.5 57.333 -15.5 90c0 38 6 72.833 18 104.5s28.5 59 49.5 82s46.333 41 76 54
s61.834 19.5 96.501 19.5c27.333 0 52.666 -4.33301 75.999 -13c19.333 -6.66699 35.166 -15.167 47.499 -25.5s27.166 -26.5 44.499 -48.5l9 75h79l-56 -460h-79zM431.002 255c0 21.333 -3.83203 40.832 -11.499 58.499s-18.167 32.834 -31.5 45.501s-29 22.5 -47 29.5
s-37.667 10.5 -59 10.5c-23.333 0 -45 -4.66699 -65 -14s-37.5 -22.333 -52.5 -39s-26.667 -36 -35 -58s-12.5 -46 -12.5 -72c0 -22 3.66699 -42.5 11 -61.5s17.5 -35.333 30.5 -49s28.333 -24.5 46 -32.5s36.834 -12 57.501 -12c23.333 0 45.166 5 65.499 15
s38.166 23.5 53.499 40.5s27.5 36.833 36.5 59.5s13.5 46.667 13.5 72v7z" />
    <glyph glyph-name="aacute" unicode="&#xe1;" horiz-adv-x="573" 
d="M228 570l138 163l79 -37l-171 -153zM397 0l8.00195 64l-15 -14.5l-14 -12.5c-36 -32 -79 -48 -129 -48c-30.667 0 -59 5.5 -85 16.5s-48.333 26.333 -67 46s-33.167 43.167 -43.5 70.5s-15.5 57.333 -15.5 90c0 38 6 72.833 18 104.5s28.5 59 49.5 82s46.333 41 76 54
s61.834 19.5 96.501 19.5c27.333 0 52.666 -4.33301 75.999 -13c19.333 -6.66699 35.166 -15.167 47.499 -25.5s27.166 -26.5 44.499 -48.5l9 75h79l-56 -460h-79zM431.002 255c0 21.333 -3.83203 40.832 -11.499 58.499s-18.167 32.834 -31.5 45.501s-29 22.5 -47 29.5
s-37.667 10.5 -59 10.5c-23.333 0 -45 -4.66699 -65 -14s-37.5 -22.333 -52.5 -39s-26.667 -36 -35 -58s-12.5 -46 -12.5 -72c0 -22 3.66699 -42.5 11 -61.5s17.5 -35.333 30.5 -49s28.333 -24.5 46 -32.5s36.834 -12 57.501 -12c23.333 0 45.166 5 65.499 15
s38.166 23.5 53.499 40.5s27.5 36.833 36.5 59.5s13.5 46.667 13.5 72v7z" />
    <glyph glyph-name="acircumflex" unicode="&#xe2;" horiz-adv-x="573" 
d="M487 593l-63 -44l-88 85l-110 -85l-50 44l171 133zM397 0l8.00195 64l-15 -14.5l-14 -12.5c-36 -32 -79 -48 -129 -48c-30.667 0 -59 5.5 -85 16.5s-48.333 26.333 -67 46s-33.167 43.167 -43.5 70.5s-15.5 57.333 -15.5 90c0 38 6 72.833 18 104.5s28.5 59 49.5 82
s46.333 41 76 54s61.834 19.5 96.501 19.5c27.333 0 52.666 -4.33301 75.999 -13c19.333 -6.66699 35.166 -15.167 47.499 -25.5s27.166 -26.5 44.499 -48.5l9 75h79l-56 -460h-79zM431.002 255c0 21.333 -3.83203 40.832 -11.499 58.499s-18.167 32.834 -31.5 45.501
s-29 22.5 -47 29.5s-37.667 10.5 -59 10.5c-23.333 0 -45 -4.66699 -65 -14s-37.5 -22.333 -52.5 -39s-26.667 -36 -35 -58s-12.5 -46 -12.5 -72c0 -22 3.66699 -42.5 11 -61.5s17.5 -35.333 30.5 -49s28.333 -24.5 46 -32.5s36.834 -12 57.501 -12
c23.333 0 45.166 5 65.499 15s38.166 23.5 53.499 40.5s27.5 36.833 36.5 59.5s13.5 46.667 13.5 72v7z" />
    <glyph glyph-name="atilde" unicode="&#xe3;" horiz-adv-x="573" 
d="M489 654c-24 -53.333 -59.0029 -80 -105.003 -80c-10.667 0 -20.667 1.33301 -30 4s-25 9 -47 19c-17.333 7.33301 -31.166 12.833 -41.499 16.5s-19.166 5.5 -26.499 5.5c-10 0 -18.667 -3.33301 -26 -10s-15 -18.667 -23 -36l-48 39
c9.33301 14.667 15.833 24.5 19.5 29.5s8.16699 10.833 13.5 17.5c8 9.33301 18.333 16.833 31 22.5s25.667 8.5 39 8.5c11.333 0 22.833 -1.66699 34.5 -5s26.167 -9 43.5 -17c21.333 -10 35.833 -16.333 43.5 -19s14.834 -4 21.501 -4c10.667 0 20 3.5 28 10.5
s16.667 19.167 26 36.5zM396.997 0l8.00195 64l-15 -14.5l-14 -12.5c-36 -32 -79 -48 -129 -48c-30.667 0 -59 5.5 -85 16.5s-48.333 26.333 -67 46s-33.167 43.167 -43.5 70.5s-15.5 57.333 -15.5 90c0 38 6 72.833 18 104.5s28.5 59 49.5 82s46.333 41 76 54
s61.834 19.5 96.501 19.5c27.333 0 52.666 -4.33301 75.999 -13c19.333 -6.66699 35.166 -15.167 47.499 -25.5s27.166 -26.5 44.499 -48.5l9 75h79l-56 -460h-79zM430.999 255c0 21.333 -3.83203 40.832 -11.499 58.499s-18.167 32.834 -31.5 45.501s-29 22.5 -47 29.5
s-37.667 10.5 -59 10.5c-23.333 0 -45 -4.66699 -65 -14s-37.5 -22.333 -52.5 -39s-26.667 -36 -35 -58s-12.5 -46 -12.5 -72c0 -22 3.66699 -42.5 11 -61.5s17.5 -35.333 30.5 -49s28.333 -24.5 46 -32.5s36.834 -12 57.501 -12c23.333 0 45.166 5 65.499 15
s38.166 23.5 53.499 40.5s27.5 36.833 36.5 59.5s13.5 46.667 13.5 72v7z" />
    <glyph glyph-name="adieresis" unicode="&#xe4;" horiz-adv-x="573" 
d="M239 576c-15.333 0 -28.667 5.33301 -40 16s-17 23.667 -17 39c0 16.667 5.5 30.5 16.5 41.5s24.5 16.5 40.5 16.5c15.333 0 28.5 -5.5 39.5 -16.5s16.5 -24.167 16.5 -39.5c0 -16 -5.5 -29.5 -16.5 -40.5s-24.167 -16.5 -39.5 -16.5zM434.999 576
c-15.333 0 -28.667 5.33301 -40 16s-17 23.667 -17 39c0 16.667 5.5 30.5 16.5 41.5s24.5 16.5 40.5 16.5c15.333 0 28.5 -5.5 39.5 -16.5s16.5 -24.167 16.5 -39.5c0 -16 -5.5 -29.5 -16.5 -40.5s-24.167 -16.5 -39.5 -16.5zM396.998 0l8.00195 64l-15 -14.5l-14 -12.5
c-36 -32 -79 -48 -129 -48c-30.667 0 -59 5.5 -85 16.5s-48.333 26.333 -67 46s-33.167 43.167 -43.5 70.5s-15.5 57.333 -15.5 90c0 38 6 72.833 18 104.5s28.5 59 49.5 82s46.333 41 76 54s61.834 19.5 96.501 19.5c27.333 0 52.666 -4.33301 75.999 -13
c19.333 -6.66699 35.166 -15.167 47.499 -25.5s27.166 -26.5 44.499 -48.5l9 75h79l-56 -460h-79zM431 255c0 21.333 -3.83203 40.832 -11.499 58.499s-18.167 32.834 -31.5 45.501s-29 22.5 -47 29.5s-37.667 10.5 -59 10.5c-23.333 0 -45 -4.66699 -65 -14
s-37.5 -22.333 -52.5 -39s-26.667 -36 -35 -58s-12.5 -46 -12.5 -72c0 -22 3.66699 -42.5 11 -61.5s17.5 -35.333 30.5 -49s28.333 -24.5 46 -32.5s36.834 -12 57.501 -12c23.333 0 45.166 5 65.499 15s38.166 23.5 53.499 40.5s27.5 36.833 36.5 59.5s13.5 46.667 13.5 72
v7z" />
    <glyph glyph-name="aring" unicode="&#xe5;" horiz-adv-x="573" 
d="M315 536c-12.667 0 -24.834 2.5 -36.501 7.5s-22 11.833 -31 20.5s-16 18.834 -21 30.501s-7.5 24.167 -7.5 37.5c0 27.333 9.33301 50.333 28 69s41.667 28 69 28c26.667 0 49.334 -9.33301 68.001 -28s28 -41.334 28 -68.001c0 -27.333 -9.33301 -50.333 -28 -69
s-41.667 -28 -69 -28zM316 586c13.333 0 24.5 4.49902 33.5 13.499s13.5 20.167 13.5 33.5s-4.5 24.5 -13.5 33.5s-20.167 13.5 -33.5 13.5s-24.666 -4.5 -33.999 -13.5s-14 -19.833 -14 -32.5c0 -13.333 4.66699 -24.666 14 -33.999s20.666 -14 33.999 -14z
M397 -0.000976562l8.00195 64l-15 -14.5l-14 -12.5c-36 -32 -79 -48 -129 -48c-30.667 0 -59 5.5 -85 16.5s-48.333 26.333 -67 46s-33.167 43.167 -43.5 70.5s-15.5 57.333 -15.5 90c0 38 6 72.833 18 104.5s28.5 59 49.5 82s46.333 41 76 54s61.834 19.5 96.501 19.5
c27.333 0 52.666 -4.33301 75.999 -13c19.333 -6.66699 35.166 -15.167 47.499 -25.5s27.166 -26.5 44.499 -48.5l9 75h79l-56 -460h-79zM431.002 254.999c0 21.333 -3.83203 40.832 -11.499 58.499s-18.167 32.834 -31.5 45.501s-29 22.5 -47 29.5s-37.667 10.5 -59 10.5
c-23.333 0 -45 -4.66699 -65 -14s-37.5 -22.333 -52.5 -39s-26.667 -36 -35 -58s-12.5 -46 -12.5 -72c0 -22 3.66699 -42.5 11 -61.5s17.5 -35.333 30.5 -49s28.333 -24.5 46 -32.5s36.834 -12 57.501 -12c23.333 0 45.166 5 65.499 15s38.166 23.5 53.499 40.5
s27.5 36.833 36.5 59.5s13.5 46.667 13.5 72v7z" />
    <glyph glyph-name="ae" unicode="&#xe6;" horiz-adv-x="833" 
d="M129 459c24.667 6 46.001 10.334 64.001 13.001s36.667 4 56 4c48.667 0 88.667 -9.33301 120 -28c12.667 -7.33301 22.334 -15 29.001 -23s14 -20.333 22 -37c43.333 58.667 97.666 88 162.999 88c31.333 0 59.666 -5.83301 84.999 -17.5s47.333 -28.167 66 -49.5
s33 -46.666 43 -75.999s15 -62 15 -98v-10.5c0 -3.66699 -0.333008 -7.83398 -1 -12.501h-365v-16c0 -42 13.667 -75.5 41 -100.5s63.333 -37.5 108 -37.5c37.333 0 69.666 10 96.999 30c6 4.66699 11.167 9 15.5 13s10.5 10.333 18.5 19l55 -40
c-48.667 -63.333 -112.334 -95 -191.001 -95c-50.667 0 -93.334 12.333 -128.001 37c-13.333 9.33301 -23.666 18.333 -30.999 27s-15.666 21.667 -24.999 39c-21.333 -36 -45.833 -62.167 -73.5 -78.5s-61.167 -24.5 -100.5 -24.5c-27.333 0 -52.666 4 -75.999 12
s-43.666 19 -60.999 33s-31 30.667 -41 50s-15 40.333 -15 63c0 22 4.66699 42.333 14 61s22.166 35 38.499 49s35.833 24.833 58.5 32.5s47 11.5 73 11.5c30.667 0 58 -4.66699 82 -14s46.333 -24.333 67 -45l3 28l4 35c0.666992 4 1.16699 8 1.5 12s0.5 8 0.5 12
c0 25.333 -10.333 44.666 -31 57.999s-51 20 -91 20c-8 0 -16.167 -0.333008 -24.5 -1s-17.166 -1.66699 -26.499 -3c-12.667 -1.33301 -23.334 -3 -32.001 -5s-21 -5.33301 -37 -10zM717.001 278.001c-3.33301 38.667 -17.167 69.167 -41.5 91.5s-55.833 33.5 -94.5 33.5
c-22 0 -43 -4.5 -63 -13.5s-36.667 -21.833 -50 -38.5c-8 -10 -14.333 -19.833 -19 -29.5s-9.66699 -24.167 -15 -43.5h283zM340 143.001c0 0.666992 -0.166992 1.33203 -0.5 1.99902s-0.5 1.66699 -0.5 3c-2 23.333 -14.333 41.833 -37 55.5s-52.667 20.5 -90 20.5
c-32.667 0 -59.5 -7.66699 -80.5 -23s-31.5 -34.666 -31.5 -57.999c0 -24.667 11 -45 33 -61s50 -24 84 -24c36 0 65.5 7.83301 88.5 23.5s34.5 36.167 34.5 61.5z" />
    <glyph glyph-name="ccedilla" unicode="&#xe7;" horiz-adv-x="439" 
d="M425 327l-13.502 15.002l-11.5 12c-15.333 15.333 -33.5 27.333 -54.5 36s-42.5 13 -64.5 13c-24 0 -46.167 -4.5 -66.5 -13.5s-37.833 -21.667 -52.5 -38s-26.167 -35.833 -34.5 -58.5s-12.5 -47.334 -12.5 -74.001c0 -48 14.333 -86.833 43 -116.5s67 -44.5 115 -44.5
c16.667 0 34 2.66699 52 8c13.333 4.66699 25 9.83398 35 15.501s23 15.5 39 29.5l-11 -91c-22 -12.667 -42.667 -21.667 -62 -27s-41 -8 -65 -8c-33.333 0 -63.833 5.66699 -91.5 17s-51.5 27.333 -71.5 48s-35.667 45.167 -47 73.5s-17 59.5 -17 93.5
c0 37.333 6.16699 71.666 18.5 102.999s29.333 58.666 51 81.999s47.167 41.5 76.5 54.5s61.333 19.5 96 19.5c24.667 0 48.667 -3.66699 72 -11c16.667 -5.33301 30.834 -11.333 42.501 -18s26.834 -17.667 45.501 -33zM106.998 -204.998l95 147l74 -30l-113 -145z" />
    <glyph glyph-name="egrave" unicode="&#xe8;" horiz-adv-x="518" 
d="M186 696l83 37l119 -163l-50 -27zM116 211c1.33301 -48.667 14.501 -86.333 39.501 -113s60.5 -40 106.5 -40c52.667 0 95 20.333 127 61l61 -36c-24.667 -34.667 -51.834 -59.667 -81.501 -75s-65.167 -23 -106.5 -23c-34 0 -65 5.33301 -93 16s-52 26 -72 46
s-35.333 43.833 -46 71.5s-16 58.5 -16 92.5c0 38 5.83301 73.167 17.5 105.5s28 60.333 49 84s45.833 42.167 74.5 55.5s59.667 20 93 20c35.333 0 67.333 -7.33301 96 -22s52.667 -35.667 72 -63c15.333 -22 26.333 -46 33 -72s10 -60 10 -102v-6h-364zM399.001 277.001
c-3.33301 39.333 -16.668 70.167 -40.001 92.5s-54.333 33.5 -93 33.5c-22 0 -42.667 -4.5 -62 -13.5s-35.666 -21.5 -48.999 -37.5c-8.66699 -10.667 -15 -21 -19 -31s-8.66699 -24.667 -14 -44h277z" />
    <glyph glyph-name="eacute" unicode="&#xe9;" horiz-adv-x="518" 
d="M200 570l138 163l79 -37l-171 -153zM116 211c1.33301 -48.667 14.501 -86.333 39.501 -113s60.5 -40 106.5 -40c52.667 0 95 20.333 127 61l61 -36c-24.667 -34.667 -51.834 -59.667 -81.501 -75s-65.167 -23 -106.5 -23c-34 0 -65 5.33301 -93 16s-52 26 -72 46
s-35.333 43.833 -46 71.5s-16 58.5 -16 92.5c0 38 5.83301 73.167 17.5 105.5s28 60.333 49 84s45.833 42.167 74.5 55.5s59.667 20 93 20c35.333 0 67.333 -7.33301 96 -22s52.667 -35.667 72 -63c15.333 -22 26.333 -46 33 -72s10 -60 10 -102v-6h-364zM399.001 277.001
c-3.33301 39.333 -16.668 70.167 -40.001 92.5s-54.333 33.5 -93 33.5c-22 0 -42.667 -4.5 -62 -13.5s-35.666 -21.5 -48.999 -37.5c-8.66699 -10.667 -15 -21 -19 -31s-8.66699 -24.667 -14 -44h277z" />
    <glyph glyph-name="ecircumflex" unicode="&#xea;" horiz-adv-x="518" 
d="M459 593l-63 -44l-88 85l-110 -85l-50 44l171 133zM116 211c1.33301 -48.667 14.501 -86.333 39.501 -113s60.5 -40 106.5 -40c52.667 0 95 20.333 127 61l61 -36c-24.667 -34.667 -51.834 -59.667 -81.501 -75s-65.167 -23 -106.5 -23c-34 0 -65 5.33301 -93 16
s-52 26 -72 46s-35.333 43.833 -46 71.5s-16 58.5 -16 92.5c0 38 5.83301 73.167 17.5 105.5s28 60.333 49 84s45.833 42.167 74.5 55.5s59.667 20 93 20c35.333 0 67.333 -7.33301 96 -22s52.667 -35.667 72 -63c15.333 -22 26.333 -46 33 -72s10 -60 10 -102v-6h-364z
M399.001 277.001c-3.33301 39.333 -16.668 70.167 -40.001 92.5s-54.333 33.5 -93 33.5c-22 0 -42.667 -4.5 -62 -13.5s-35.666 -21.5 -48.999 -37.5c-8.66699 -10.667 -15 -21 -19 -31s-8.66699 -24.667 -14 -44h277z" />
    <glyph glyph-name="edieresis" unicode="&#xeb;" horiz-adv-x="518" 
d="M211 576c-15.333 0 -28.667 5.33301 -40 16s-17 23.667 -17 39c0 16.667 5.5 30.5 16.5 41.5s24.5 16.5 40.5 16.5c15.333 0 28.5 -5.5 39.5 -16.5s16.5 -24.167 16.5 -39.5c0 -16 -5.5 -29.5 -16.5 -40.5s-24.167 -16.5 -39.5 -16.5zM406.999 576
c-15.333 0 -28.667 5.33301 -40 16s-17 23.667 -17 39c0 16.667 5.5 30.5 16.5 41.5s24.5 16.5 40.5 16.5c15.333 0 28.5 -5.5 39.5 -16.5s16.5 -24.167 16.5 -39.5c0 -16 -5.5 -29.5 -16.5 -40.5s-24.167 -16.5 -39.5 -16.5zM115.998 211
c1.33301 -48.667 14.501 -86.333 39.501 -113s60.5 -40 106.5 -40c52.667 0 95 20.333 127 61l61 -36c-24.667 -34.667 -51.834 -59.667 -81.501 -75s-65.167 -23 -106.5 -23c-34 0 -65 5.33301 -93 16s-52 26 -72 46s-35.333 43.833 -46 71.5s-16 58.5 -16 92.5
c0 38 5.83301 73.167 17.5 105.5s28 60.333 49 84s45.833 42.167 74.5 55.5s59.667 20 93 20c35.333 0 67.333 -7.33301 96 -22s52.667 -35.667 72 -63c15.333 -22 26.333 -46 33 -72s10 -60 10 -102v-6h-364zM398.999 277.001c-3.33301 39.333 -16.668 70.167 -40.001 92.5
s-54.333 33.5 -93 33.5c-22 0 -42.667 -4.5 -62 -13.5s-35.666 -21.5 -48.999 -37.5c-8.66699 -10.667 -15 -21 -19 -31s-8.66699 -24.667 -14 -44h277z" />
    <glyph glyph-name="igrave" unicode="&#xec;" horiz-adv-x="208" 
d="M31 696l83 37l119 -163l-50 -27zM34 0l56 460h79l-57 -460h-78z" />
    <glyph glyph-name="iacute" unicode="&#xed;" horiz-adv-x="208" 
d="M45 570l138 163l79 -37l-171 -153zM34 0l56 460h79l-57 -460h-78z" />
    <glyph glyph-name="icircumflex" unicode="&#xee;" horiz-adv-x="208" 
d="M304 593l-63 -44l-88 85l-110 -85l-50 44l171 133zM34 0l56 460h79l-57 -460h-78z" />
    <glyph glyph-name="idieresis" unicode="&#xef;" horiz-adv-x="208" 
d="M76 576c-15.333 0 -28.667 5.33301 -40 16s-17 23.667 -17 39c0 16.667 5.5 30.5 16.5 41.5s24.5 16.5 40.5 16.5c15.333 0 28.5 -5.5 39.5 -16.5s16.5 -24.167 16.5 -39.5c0 -16 -5.5 -29.5 -16.5 -40.5s-24.167 -16.5 -39.5 -16.5zM231.999 576
c-15.333 0 -28.667 5.33301 -40 16s-17 23.667 -17 39c0 16.667 5.5 30.5 16.5 41.5s24.5 16.5 40.5 16.5c15.333 0 28.5 -5.5 39.5 -16.5s16.5 -24.167 16.5 -39.5c0 -16 -5.5 -29.5 -16.5 -40.5s-24.167 -16.5 -39.5 -16.5zM33.998 0l56 460h79l-57 -460h-78z" />
    <glyph glyph-name="eth" unicode="&#xf0;" 
d="M221 657l-1.00195 0.00195312c-22.667 9.33301 -53.667 16.333 -93 21l20 76c29.333 -4.66699 55.833 -9.83398 79.5 -15.501s44.834 -12.167 63.501 -19.5l143 127l38 -44l-125 -112c18.667 -11.333 35.334 -24.333 50.001 -39c78.667 -74 118 -176.667 118 -308
c0 -48.667 -4.66699 -90.667 -14 -126c-17.333 -62.667 -46.333 -114 -87 -154c-50.667 -50 -111.667 -75 -183 -75c-68 0 -123 24 -165 72c-22.667 26.667 -38.334 55.667 -47.001 87c-3.33301 14.667 -5 35 -5 61c0 86 31 157 93 213c51.333 45.333 108 68 170 68
c34.667 0 66 -7 94 -21c16 -8.66699 29 -18.334 39 -29.001c2.66699 -4.66699 10.334 -15.334 23.001 -32.001c-1.33301 2.66699 -2 5.33398 -2 8.00098c-2 4 -3 7 -3 9l-9 30.5c-2.66699 9 -5.66699 17.167 -9 24.5c-22 61.333 -66 111.333 -132 150l-180 -160l-38 44z
M278.998 425.002c-48.667 0 -91.6689 -21.666 -129.002 -64.999c-35.333 -42.667 -53 -92 -53 -148c0 -24.667 2.66699 -44.334 8 -59.001c8.66699 -26.667 22.334 -48.667 41.001 -66c24.667 -22.667 54.334 -34 89.001 -34c52 0 96.333 22 133 66
c36 43.333 54 95.333 54 156c0 26 -2.33301 45 -7 57c-10 30 -26.333 53 -49 69s-48.667 24 -78 24h-9z" />
    <glyph glyph-name="ntilde" unicode="&#xf1;" horiz-adv-x="496" 
d="M450 654c-24 -53.333 -59.0029 -80 -105.003 -80c-10.667 0 -20.667 1.33301 -30 4s-25 9 -47 19c-17.333 7.33301 -31.166 12.833 -41.499 16.5s-19.166 5.5 -26.499 5.5c-10 0 -18.667 -3.33301 -26 -10s-15 -18.667 -23 -36l-48 39
c9.33301 14.667 15.833 24.5 19.5 29.5s8.16699 10.833 13.5 17.5c8 9.33301 18.333 16.833 31 22.5s25.667 8.5 39 8.5c11.333 0 22.833 -1.66699 34.5 -5s26.167 -9 43.5 -17c21.333 -10 35.833 -16.333 43.5 -19s14.834 -4 21.501 -4c10.667 0 20 3.5 28 10.5
s16.667 19.167 26 36.5zM160.997 403c12.667 12 22.5 20.832 29.5 26.499s14.167 11.167 21.5 16.5c26.667 17.333 56.667 26 90 26c42 0 75.5 -12.167 100.5 -36.5s37.5 -56.833 37.5 -97.5c0 -21.333 -2 -48.666 -6 -81.999l-31 -256h-79l32 269
c1.33301 10 2.5 20.5 3.5 31.5s1.5 19.167 1.5 24.5c0 23.333 -6.83301 41.5 -20.5 54.5s-33.167 19.5 -58.5 19.5c-17.333 0 -34.333 -3.33301 -51 -10s-31.334 -16 -44.001 -28c-6.66699 -6.66699 -12.5 -13.5 -17.5 -20.5s-9.16699 -15 -12.5 -24
s-6.16602 -19.5 -8.49902 -31.5s-4.5 -26.333 -6.5 -43l-30 -242h-78l56 460h78z" />
    <glyph glyph-name="ograve" unicode="&#xf2;" 
d="M209 696l83 37l119 -163l-50 -27zM522 238c0 -36.667 -6.16699 -70.3311 -18.5 -100.998s-29.5 -57.334 -51.5 -80.001s-48.167 -40.334 -78.5 -53.001s-63.166 -19 -98.499 -19c-34 0 -65.667 6 -95 18s-54.833 28.667 -76.5 50s-38.5 46.5 -50.5 75.5
s-18 60.5 -18 94.5c0 35.333 6.5 68.5 19.5 99.5s30.833 57.833 53.5 80.5s49.334 40.5 80.001 53.5s63.667 19.5 99 19.5c33.333 0 64.166 -5.66699 92.499 -17s53.166 -27.166 74.499 -47.499s38 -44.333 50 -72s18 -57.834 18 -90.501v-11zM441 245.003
c0 24 -3.99902 45.665 -11.999 64.998s-19 35.833 -33 49.5s-30.5 24.334 -49.5 32.001s-39.833 11.5 -62.5 11.5c-24 0 -46.167 -4.5 -66.5 -13.5s-38 -21.5 -53 -37.5s-26.833 -34.833 -35.5 -56.5s-13 -45.167 -13 -70.5c0 -24 4 -46.167 12 -66.5s19.167 -38 33.5 -53
s31.333 -26.667 51 -35s41.167 -12.5 64.5 -12.5c24 0 46 4.5 66 13.5s37.167 21.333 51.5 37s25.666 34.334 33.999 56.001s12.5 45.5 12.5 71.5v9z" />
    <glyph glyph-name="oacute" unicode="&#xf3;" 
d="M223 570l138 163l79 -37l-171 -153zM522 238c0 -36.667 -6.16699 -70.3311 -18.5 -100.998s-29.5 -57.334 -51.5 -80.001s-48.167 -40.334 -78.5 -53.001s-63.166 -19 -98.499 -19c-34 0 -65.667 6 -95 18s-54.833 28.667 -76.5 50s-38.5 46.5 -50.5 75.5
s-18 60.5 -18 94.5c0 35.333 6.5 68.5 19.5 99.5s30.833 57.833 53.5 80.5s49.334 40.5 80.001 53.5s63.667 19.5 99 19.5c33.333 0 64.166 -5.66699 92.499 -17s53.166 -27.166 74.499 -47.499s38 -44.333 50 -72s18 -57.834 18 -90.501v-11zM441 245.003
c0 24 -3.99902 45.665 -11.999 64.998s-19 35.833 -33 49.5s-30.5 24.334 -49.5 32.001s-39.833 11.5 -62.5 11.5c-24 0 -46.167 -4.5 -66.5 -13.5s-38 -21.5 -53 -37.5s-26.833 -34.833 -35.5 -56.5s-13 -45.167 -13 -70.5c0 -24 4 -46.167 12 -66.5s19.167 -38 33.5 -53
s31.333 -26.667 51 -35s41.167 -12.5 64.5 -12.5c24 0 46 4.5 66 13.5s37.167 21.333 51.5 37s25.666 34.334 33.999 56.001s12.5 45.5 12.5 71.5v9z" />
    <glyph glyph-name="ocircumflex" unicode="&#xf4;" 
d="M482 593l-63 -44l-88 85l-110 -85l-50 44l171 133zM522 238c0 -36.667 -6.16699 -70.3311 -18.5 -100.998s-29.5 -57.334 -51.5 -80.001s-48.167 -40.334 -78.5 -53.001s-63.166 -19 -98.499 -19c-34 0 -65.667 6 -95 18s-54.833 28.667 -76.5 50s-38.5 46.5 -50.5 75.5
s-18 60.5 -18 94.5c0 35.333 6.5 68.5 19.5 99.5s30.833 57.833 53.5 80.5s49.334 40.5 80.001 53.5s63.667 19.5 99 19.5c33.333 0 64.166 -5.66699 92.499 -17s53.166 -27.166 74.499 -47.499s38 -44.333 50 -72s18 -57.834 18 -90.501v-11zM441 245.003
c0 24 -3.99902 45.665 -11.999 64.998s-19 35.833 -33 49.5s-30.5 24.334 -49.5 32.001s-39.833 11.5 -62.5 11.5c-24 0 -46.167 -4.5 -66.5 -13.5s-38 -21.5 -53 -37.5s-26.833 -34.833 -35.5 -56.5s-13 -45.167 -13 -70.5c0 -24 4 -46.167 12 -66.5s19.167 -38 33.5 -53
s31.333 -26.667 51 -35s41.167 -12.5 64.5 -12.5c24 0 46 4.5 66 13.5s37.167 21.333 51.5 37s25.666 34.334 33.999 56.001s12.5 45.5 12.5 71.5v9z" />
    <glyph glyph-name="otilde" unicode="&#xf5;" 
d="M484 654c-24 -53.333 -59.0029 -80 -105.003 -80c-10.667 0 -20.667 1.33301 -30 4s-25 9 -47 19c-17.333 7.33301 -31.166 12.833 -41.499 16.5s-19.166 5.5 -26.499 5.5c-10 0 -18.667 -3.33301 -26 -10s-15 -18.667 -23 -36l-48 39
c9.33301 14.667 15.833 24.5 19.5 29.5s8.16699 10.833 13.5 17.5c8 9.33301 18.333 16.833 31 22.5s25.667 8.5 39 8.5c11.333 0 22.833 -1.66699 34.5 -5s26.167 -9 43.5 -17c21.333 -10 35.833 -16.333 43.5 -19s14.834 -4 21.501 -4c10.667 0 20 3.5 28 10.5
s16.667 19.167 26 36.5zM521.997 238c0 -36.667 -6.16699 -70.3311 -18.5 -100.998s-29.5 -57.334 -51.5 -80.001s-48.167 -40.334 -78.5 -53.001s-63.166 -19 -98.499 -19c-34 0 -65.667 6 -95 18s-54.833 28.667 -76.5 50s-38.5 46.5 -50.5 75.5s-18 60.5 -18 94.5
c0 35.333 6.5 68.5 19.5 99.5s30.833 57.833 53.5 80.5s49.334 40.5 80.001 53.5s63.667 19.5 99 19.5c33.333 0 64.166 -5.66699 92.499 -17s53.166 -27.166 74.499 -47.499s38 -44.333 50 -72s18 -57.834 18 -90.501v-11zM440.997 245.003
c0 24 -3.99902 45.665 -11.999 64.998s-19 35.833 -33 49.5s-30.5 24.334 -49.5 32.001s-39.833 11.5 -62.5 11.5c-24 0 -46.167 -4.5 -66.5 -13.5s-38 -21.5 -53 -37.5s-26.833 -34.833 -35.5 -56.5s-13 -45.167 -13 -70.5c0 -24 4 -46.167 12 -66.5s19.167 -38 33.5 -53
s31.333 -26.667 51 -35s41.167 -12.5 64.5 -12.5c24 0 46 4.5 66 13.5s37.167 21.333 51.5 37s25.666 34.334 33.999 56.001s12.5 45.5 12.5 71.5v9z" />
    <glyph glyph-name="odieresis" unicode="&#xf6;" 
d="M234 576c-15.333 0 -28.667 5.33301 -40 16s-17 23.667 -17 39c0 16.667 5.5 30.5 16.5 41.5s24.5 16.5 40.5 16.5c15.333 0 28.5 -5.5 39.5 -16.5s16.5 -24.167 16.5 -39.5c0 -16 -5.5 -29.5 -16.5 -40.5s-24.167 -16.5 -39.5 -16.5zM429.999 576
c-15.333 0 -28.667 5.33301 -40 16s-17 23.667 -17 39c0 16.667 5.5 30.5 16.5 41.5s24.5 16.5 40.5 16.5c15.333 0 28.5 -5.5 39.5 -16.5s16.5 -24.167 16.5 -39.5c0 -16 -5.5 -29.5 -16.5 -40.5s-24.167 -16.5 -39.5 -16.5zM521.998 238
c0 -36.667 -6.16699 -70.3311 -18.5 -100.998s-29.5 -57.334 -51.5 -80.001s-48.167 -40.334 -78.5 -53.001s-63.166 -19 -98.499 -19c-34 0 -65.667 6 -95 18s-54.833 28.667 -76.5 50s-38.5 46.5 -50.5 75.5s-18 60.5 -18 94.5c0 35.333 6.5 68.5 19.5 99.5
s30.833 57.833 53.5 80.5s49.334 40.5 80.001 53.5s63.667 19.5 99 19.5c33.333 0 64.166 -5.66699 92.499 -17s53.166 -27.166 74.499 -47.499s38 -44.333 50 -72s18 -57.834 18 -90.501v-11zM440.998 245.003c0 24 -3.99902 45.665 -11.999 64.998s-19 35.833 -33 49.5
s-30.5 24.334 -49.5 32.001s-39.833 11.5 -62.5 11.5c-24 0 -46.167 -4.5 -66.5 -13.5s-38 -21.5 -53 -37.5s-26.833 -34.833 -35.5 -56.5s-13 -45.167 -13 -70.5c0 -24 4 -46.167 12 -66.5s19.167 -38 33.5 -53s31.333 -26.667 51 -35s41.167 -12.5 64.5 -12.5
c24 0 46 4.5 66 13.5s37.167 21.333 51.5 37s25.666 34.334 33.999 56.001s12.5 45.5 12.5 71.5v9z" />
    <glyph glyph-name="divide" unicode="&#xf7;" horiz-adv-x="797" 
d="M535 566c0 -15.333 -5.33301 -28.5 -16 -39.5s-23.667 -16.5 -39 -16.5s-28.5 5.5 -39.5 16.5s-16.5 24.167 -16.5 39.5s5.33301 28.333 16 39s24 16 40 16c15.333 0 28.333 -5.33301 39 -16s16 -23.667 16 -39zM121 430h705v-80h-705v80zM534 215
c0 -15.333 -5.33301 -28.5 -16 -39.5s-23.667 -16.5 -39 -16.5s-28.5 5.33301 -39.5 16s-16.5 23.667 -16.5 39s5.33301 28.5 16 39.5s24 16.5 40 16.5c15.333 0 28.333 -5.33301 39 -16s16 -23.667 16 -39z" />
    <glyph glyph-name="oslash" unicode="&#xf8;" horiz-adv-x="602" 
d="M503 378c26 -38 38.999 -80.999 38.999 -128.999v-11c0 -74 -24 -135 -72 -183c-46.667 -46.667 -105 -70 -175 -70c-51.333 0 -98.333 14.333 -141 43l-42 -42l-56 56l42 42c-28.667 41.333 -43 87.666 -43 138.999c0 71.333 24.333 131.333 73 180
s108.334 73 179.001 73c50.667 0 97 -14 139 -42l44 44l56 -56zM391.999 379.001c-26 16 -55.333 24 -88 24c-46 0 -85 -16 -117 -48c-34 -34 -51 -77.333 -51 -130c0 -31.333 6.66699 -59 20 -83zM208.999 83.001c26.667 -16.667 55.666 -25 86.999 -25
c45.333 0 83 15 113 45c34.667 34 52 78.333 52 133v9c-1.33301 26.667 -6.66602 51.667 -15.999 75z" />
    <glyph glyph-name="ugrave" unicode="&#xf9;" horiz-adv-x="501" 
d="M178 696l83 37l119 -163l-50 -27zM428 190c-2.66699 -20 -5.33203 -37.333 -7.99902 -52s-6 -27.5 -10 -38.5s-8.66699 -20.667 -14 -29s-12 -16.5 -20 -24.5c-17.333 -18.667 -38.666 -32.834 -63.999 -42.501s-53 -14.5 -83 -14.5c-54 0 -96.333 13.833 -127 41.5
s-46 65.834 -46 114.501c0 9.33301 0.333008 18.833 1 28.5s1.66699 19.834 3 30.501l31 256h79l-32 -264c-2 -18.667 -3 -35.334 -3 -50.001c0 -26 8.66699 -46.667 26 -62s41 -23 71 -23c19.333 0 37.166 3.66699 53.499 11s29.166 17.666 38.499 30.999
c6.66699 8.66699 11.667 18.834 15 30.501s6.33301 28.5 9 50.5l33 276h79z" />
    <glyph glyph-name="uacute" unicode="&#xfa;" horiz-adv-x="501" 
d="M192 570l138 163l79 -37l-171 -153zM428 190c-2.66699 -20 -5.33203 -37.333 -7.99902 -52s-6 -27.5 -10 -38.5s-8.66699 -20.667 -14 -29s-12 -16.5 -20 -24.5c-17.333 -18.667 -38.666 -32.834 -63.999 -42.501s-53 -14.5 -83 -14.5c-54 0 -96.333 13.833 -127 41.5
s-46 65.834 -46 114.501c0 9.33301 0.333008 18.833 1 28.5s1.66699 19.834 3 30.501l31 256h79l-32 -264c-2 -18.667 -3 -35.334 -3 -50.001c0 -26 8.66699 -46.667 26 -62s41 -23 71 -23c19.333 0 37.166 3.66699 53.499 11s29.166 17.666 38.499 30.999
c6.66699 8.66699 11.667 18.834 15 30.501s6.33301 28.5 9 50.5l33 276h79z" />
    <glyph glyph-name="ucircumflex" unicode="&#xfb;" horiz-adv-x="501" 
d="M451 593l-63 -44l-88 85l-110 -85l-50 44l171 133zM428 190c-2.66699 -20 -5.33203 -37.333 -7.99902 -52s-6 -27.5 -10 -38.5s-8.66699 -20.667 -14 -29s-12 -16.5 -20 -24.5c-17.333 -18.667 -38.666 -32.834 -63.999 -42.501s-53 -14.5 -83 -14.5
c-54 0 -96.333 13.833 -127 41.5s-46 65.834 -46 114.501c0 9.33301 0.333008 18.833 1 28.5s1.66699 19.834 3 30.501l31 256h79l-32 -264c-2 -18.667 -3 -35.334 -3 -50.001c0 -26 8.66699 -46.667 26 -62s41 -23 71 -23c19.333 0 37.166 3.66699 53.499 11
s29.166 17.666 38.499 30.999c6.66699 8.66699 11.667 18.834 15 30.501s6.33301 28.5 9 50.5l33 276h79z" />
    <glyph glyph-name="udieresis" unicode="&#xfc;" horiz-adv-x="501" 
d="M203 576c-15.333 0 -28.667 5.33301 -40 16s-17 23.667 -17 39c0 16.667 5.5 30.5 16.5 41.5s24.5 16.5 40.5 16.5c15.333 0 28.5 -5.5 39.5 -16.5s16.5 -24.167 16.5 -39.5c0 -16 -5.5 -29.5 -16.5 -40.5s-24.167 -16.5 -39.5 -16.5zM398.999 576
c-15.333 0 -28.667 5.33301 -40 16s-17 23.667 -17 39c0 16.667 5.5 30.5 16.5 41.5s24.5 16.5 40.5 16.5c15.333 0 28.5 -5.5 39.5 -16.5s16.5 -24.167 16.5 -39.5c0 -16 -5.5 -29.5 -16.5 -40.5s-24.167 -16.5 -39.5 -16.5zM427.998 190
c-2.66699 -20 -5.33203 -37.333 -7.99902 -52s-6 -27.5 -10 -38.5s-8.66699 -20.667 -14 -29s-12 -16.5 -20 -24.5c-17.333 -18.667 -38.666 -32.834 -63.999 -42.501s-53 -14.5 -83 -14.5c-54 0 -96.333 13.833 -127 41.5s-46 65.834 -46 114.501
c0 9.33301 0.333008 18.833 1 28.5s1.66699 19.834 3 30.501l31 256h79l-32 -264c-2 -18.667 -3 -35.334 -3 -50.001c0 -26 8.66699 -46.667 26 -62s41 -23 71 -23c19.333 0 37.166 3.66699 53.499 11s29.166 17.666 38.499 30.999c6.66699 8.66699 11.667 18.834 15 30.501
s6.33301 28.5 9 50.5l33 276h79z" />
    <glyph glyph-name="yacute" unicode="&#xfd;" horiz-adv-x="479" 
d="M181 570l138 163l79 -37l-171 -153zM15 -263l172 307l-148 416h84l112 -329l183 329h90l-404 -723h-89z" />
    <glyph glyph-name="thorn" unicode="&#xfe;" horiz-adv-x="559" 
d="M31 0l57 459.997l35 290h81l-35 -290l-8 -64c23.333 22.667 46 39.667 68 51c30 16 63.667 24 101 24c61.333 0 110.333 -20.333 147 -61c10 -11.333 18.667 -23.666 26 -36.999s13 -27.666 17 -42.999c4 -14.667 6 -36.667 6 -66c0 -89.333 -30 -161 -90 -215
c-46.667 -41.333 -101 -62 -163 -62c-40 0 -74 9 -102 27c-16.667 10.667 -33.667 27.334 -51 50.001l-8 -64l-32 -263h-81zM134 177.997c6 -37.333 20.332 -66.333 42.999 -87c25.333 -22 56.333 -33 93 -33c40.667 0 77.334 14 110.001 42c42.667 38 64 88.667 64 152
c0 26 -2.33301 45.667 -7 59c-9.33301 27.333 -25.333 49.333 -48 66c-22.667 15.333 -48.334 23 -77.001 23c-45.333 0 -85.333 -16.667 -120 -50c-19.333 -19.333 -34.666 -43.333 -45.999 -72z" />
    <glyph glyph-name="ydieresis" unicode="&#xff;" horiz-adv-x="479" 
d="M192 576c-15.333 0 -28.667 5.33301 -40 16s-17 23.667 -17 39c0 16.667 5.5 30.5 16.5 41.5s24.5 16.5 40.5 16.5c15.333 0 28.5 -5.5 39.5 -16.5s16.5 -24.167 16.5 -39.5c0 -16 -5.5 -29.5 -16.5 -40.5s-24.167 -16.5 -39.5 -16.5zM387.999 576
c-15.333 0 -28.667 5.33301 -40 16s-17 23.667 -17 39c0 16.667 5.5 30.5 16.5 41.5s24.5 16.5 40.5 16.5c15.333 0 28.5 -5.5 39.5 -16.5s16.5 -24.167 16.5 -39.5c0 -16 -5.5 -29.5 -16.5 -40.5s-24.167 -16.5 -39.5 -16.5zM14.998 -263l172 307l-148 416h84l112 -329
l183 329h90l-404 -723h-89z" />
    <glyph glyph-name="Amacron" unicode="&#x100;" horiz-adv-x="663" 
d="M249 941h340l-8 -67h-340zM489 209h-305l-110 -209h-90l417 796l231 -796h-85zM223 286h242l-85 307z" />
    <glyph glyph-name="amacron" unicode="&#x101;" horiz-adv-x="573" 
d="M169 651h340l-8 -67h-340zM397 0l8.00195 64l-15 -14.5l-14 -12.5c-36 -32 -79 -48 -129 -48c-30.667 0 -59 5.5 -85 16.5s-48.333 26.333 -67 46s-33.167 43.167 -43.5 70.5s-15.5 57.333 -15.5 90c0 38 6 72.833 18 104.5s28.5 59 49.5 82s46.333 41 76 54
s61.834 19.5 96.501 19.5c27.333 0 52.666 -4.33301 75.999 -13c19.333 -6.66699 35.166 -15.167 47.499 -25.5s27.166 -26.5 44.499 -48.5l9 75h79l-56 -460h-79zM431.002 255c0 21.333 -3.83203 40.832 -11.499 58.499s-18.167 32.834 -31.5 45.501s-29 22.5 -47 29.5
s-37.667 10.5 -59 10.5c-23.333 0 -45 -4.66699 -65 -14s-37.5 -22.333 -52.5 -39s-26.667 -36 -35 -58s-12.5 -46 -12.5 -72c0 -22 3.66699 -42.5 11 -61.5s17.5 -35.333 30.5 -49s28.333 -24.5 46 -32.5s36.834 -12 57.501 -12c23.333 0 45.166 5 65.499 15
s38.166 23.5 53.499 40.5s27.5 36.833 36.5 59.5s13.5 46.667 13.5 72v7z" />
    <glyph glyph-name="Abreve" unicode="&#x102;" horiz-adv-x="663" 
d="M588 991c-13.333 -42.667 -35.667 -75.833 -67 -99.5s-68.666 -35.5 -111.999 -35.5s-77.833 12 -103.5 36s-40.167 57 -43.5 99h68c7.33301 -24.667 17.666 -42.167 30.999 -52.5s32 -15.5 56 -15.5s43.667 5 59 15s30 27.667 44 53h68zM488.999 209.001h-305l-110 -209
h-90l417 796l231 -796h-85zM222.999 286.001h242l-85 307z" />
    <glyph glyph-name="abreve" unicode="&#x103;" horiz-adv-x="573" 
d="M508 701c-13.333 -42.667 -35.667 -75.833 -67 -99.5s-68.666 -35.5 -111.999 -35.5s-77.833 12 -103.5 36s-40.167 57 -43.5 99h68c7.33301 -24.667 17.666 -42.167 30.999 -52.5s32 -15.5 56 -15.5s43.667 5 59 15s30 27.667 44 53h68zM396.999 0.000976562l8.00195 64
l-15 -14.5l-14 -12.5c-36 -32 -79 -48 -129 -48c-30.667 0 -59 5.5 -85 16.5s-48.333 26.333 -67 46s-33.167 43.167 -43.5 70.5s-15.5 57.333 -15.5 90c0 38 6 72.833 18 104.5s28.5 59 49.5 82s46.333 41 76 54s61.834 19.5 96.501 19.5
c27.333 0 52.666 -4.33301 75.999 -13c19.333 -6.66699 35.166 -15.167 47.499 -25.5s27.166 -26.5 44.499 -48.5l9 75h79l-56 -460h-79zM431.001 255.001c0 21.333 -3.83203 40.832 -11.499 58.499s-18.167 32.834 -31.5 45.501s-29 22.5 -47 29.5s-37.667 10.5 -59 10.5
c-23.333 0 -45 -4.66699 -65 -14s-37.5 -22.333 -52.5 -39s-26.667 -36 -35 -58s-12.5 -46 -12.5 -72c0 -22 3.66699 -42.5 11 -61.5s17.5 -35.333 30.5 -49s28.333 -24.5 46 -32.5s36.834 -12 57.501 -12c23.333 0 45.166 5 65.499 15s38.166 23.5 53.499 40.5
s27.5 36.833 36.5 59.5s13.5 46.667 13.5 72v7z" />
    <glyph glyph-name="Aogonek" unicode="&#x104;" horiz-adv-x="663" 
d="M523 -73c-1.33301 -13.333 1.66797 -23.832 9.00098 -31.499s17.666 -11.5 30.999 -11.5c6 0 11.833 0.666992 17.5 2s10.5 2.66602 14.5 3.99902c4.66699 2 9.33398 4.33301 14.001 7l-22 -65c-6 -3.33301 -12.333 -6.33301 -19 -9
c-6.66699 -2 -13.834 -3.83301 -21.501 -5.5s-16.167 -2.5 -25.5 -2.5c-24 0 -43.5 7.83301 -58.5 23.5s-20.833 37.167 -17.5 64.5c2 14.667 6.16699 28 12.5 40s14.166 22.833 23.499 32.5s19.333 18.167 30 25.5s21 13.333 31 18l-53 190h-305l-110 -209h-90l417 796
l231 -796h-25c-14.667 -4 -27.667 -9.33301 -39 -16c-11.333 -6 -21.166 -13.5 -29.499 -22.5s-13.5 -20.5 -15.5 -34.5zM465.001 286.001l-85 307l-157 -307h242z" />
    <glyph glyph-name="aogonek" unicode="&#x105;" horiz-adv-x="573" 
d="M392 -73c-1.33301 -13.333 1.66895 -23.833 9.00195 -31.5s17.666 -11.5 30.999 -11.5c6 0 11.833 0.666992 17.5 2s10.5 2.66602 14.5 3.99902c4.66699 2 9.33398 4.33301 14.001 7l-22 -65c-6 -3.33301 -12.333 -6.33301 -19 -9
c-6.66699 -2 -13.834 -3.83301 -21.501 -5.5s-16.167 -2.5 -25.5 -2.5c-24 0 -43.5 7.83301 -58.5 23.5s-20.833 37.167 -17.5 64.5c3.33301 26.667 13.5 48.834 30.5 66.501s35.167 32.167 54.5 43.5l6 51l-15 -14.5l-14 -12.5c-36 -32 -79 -48 -129 -48
c-30.667 0 -59 5.5 -85 16.5s-48.333 26.333 -67 46s-33.167 43.167 -43.5 70.5s-15.5 57.333 -15.5 90c0 38 6 72.833 18 104.5s28.5 59 49.5 82s46.333 41 76 54s61.834 19.5 96.501 19.5c27.333 0 52.666 -4.33301 75.999 -13
c19.333 -6.66699 35.166 -15.167 47.499 -25.5s27.166 -26.5 44.499 -48.5l9 75h79l-56 -460c-14.667 -4 -27.667 -9.33301 -39 -16c-11.333 -6 -21.166 -13.5 -29.499 -22.5s-13.5 -20.5 -15.5 -34.5zM262.002 61c23.333 0 45.167 4.99902 65.5 14.999
s38.166 23.5 53.499 40.5s27.5 36.833 36.5 59.5s13.5 46.667 13.5 72v7c0 21.333 -3.83301 40.833 -11.5 58.5s-18.167 32.834 -31.5 45.501s-29 22.5 -47 29.5s-37.667 10.5 -59 10.5c-23.333 0 -45 -4.66699 -65 -14s-37.5 -22.333 -52.5 -39s-26.667 -36 -35 -58
s-12.5 -46 -12.5 -72c0 -22 3.66699 -42.5 11 -61.5s17.5 -35.333 30.5 -49s28.333 -24.5 46 -32.5s36.834 -12 57.501 -12z" />
    <glyph glyph-name="Cacute" unicode="&#x106;" horiz-adv-x="696" 
d="M324 860l138 163l79 -37l-171 -153zM631 51c-0.666992 -5.33301 -1.99902 -9.16992 -3.99902 -11.5029s-6.33301 -5.16602 -13 -8.49902c-29.333 -15.333 -60.5 -26.833 -93.5 -34.5s-66.5 -11.5 -100.5 -11.5c-52.667 0 -101.167 9 -145.5 27
s-82.166 43.333 -113.499 76s-55.833 71.834 -73.5 117.501s-26.5 95.834 -26.5 150.501c0 59.333 9.5 113.833 28.5 163.5s45.5 92.834 79.5 129.501s74.333 65.167 121 85.5s97.667 30.5 153 30.5c42 0 80.667 -5.33301 116 -16s72 -28.667 110 -54
c21.333 -14 32 -24 32 -30l-2 -14l-7 -53v-4c-0.666992 -8 -2.66699 -12 -6 -12c-1.33301 0 -4 2.33301 -8 7c-12 14 -26.667 27 -44 39s-36.5 22.333 -57.5 31s-42.833 15.334 -65.5 20.001s-45.334 7 -68.001 7c-43.333 0 -83.166 -8.16699 -119.499 -24.5
s-67.833 -39.333 -94.5 -69s-47.334 -64.834 -62.001 -105.501s-22 -85 -22 -133c0 -44 6.66699 -84 20 -120s32.5 -66.5 57.5 -91.5s55.167 -44.333 90.5 -58s74.666 -20.5 117.999 -20.5c20 0 40 1.66699 60 5s39 8.16602 57 14.499s34.5 13.833 49.5 22.5
s27.5 18 37.5 28c1.33301 2 2.33301 3 3 3c2 0 3 -1.66699 3 -5v-6z" />
    <glyph glyph-name="cacute" unicode="&#x107;" horiz-adv-x="439" 
d="M161 570l138 163l79 -37l-171 -153zM425 327l-13.502 15.002l-11.5 12c-15.333 15.333 -33.5 27.333 -54.5 36s-42.5 13 -64.5 13c-24 0 -46.167 -4.5 -66.5 -13.5s-37.833 -21.667 -52.5 -38s-26.167 -35.833 -34.5 -58.5s-12.5 -47.334 -12.5 -74.001
c0 -48 14.333 -86.833 43 -116.5s67 -44.5 115 -44.5c16.667 0 34 2.66699 52 8c13.333 4.66699 25 9.83398 35 15.501s23 15.5 39 29.5l-11 -91c-22 -12.667 -42.667 -21.667 -62 -27s-41 -8 -65 -8c-33.333 0 -63.833 5.66699 -91.5 17s-51.5 27.333 -71.5 48
s-35.667 45.167 -47 73.5s-17 59.5 -17 93.5c0 37.333 6.16699 71.666 18.5 102.999s29.333 58.666 51 81.999s47.167 41.5 76.5 54.5s61.333 19.5 96 19.5c24.667 0 48.667 -3.66699 72 -11c16.667 -5.33301 30.834 -11.333 42.501 -18s26.834 -17.667 45.501 -33z" />
    <glyph glyph-name="Cdotaccent" unicode="&#x10a;" horiz-adv-x="696" 
d="M432 863c-16 0 -29.833 5.66602 -41.5 16.999s-17.5 25 -17.5 41c0 16.667 5.66699 30.834 17 42.501s25.333 17.5 42 17.5c16 0 29.833 -5.83301 41.5 -17.5s17.5 -25.5 17.5 -41.5c0 -16.667 -5.66699 -30.667 -17 -42s-25.333 -17 -42 -17zM631 50.999
c-0.666992 -5.33301 -1.99902 -9.16992 -3.99902 -11.5029s-6.33301 -5.16602 -13 -8.49902c-29.333 -15.333 -60.5 -26.833 -93.5 -34.5s-66.5 -11.5 -100.5 -11.5c-52.667 0 -101.167 9 -145.5 27s-82.166 43.333 -113.499 76s-55.833 71.834 -73.5 117.501
s-26.5 95.834 -26.5 150.501c0 59.333 9.5 113.833 28.5 163.5s45.5 92.834 79.5 129.501s74.333 65.167 121 85.5s97.667 30.5 153 30.5c42 0 80.667 -5.33301 116 -16s72 -28.667 110 -54c21.333 -14 32 -24 32 -30l-2 -14l-7 -53v-4c-0.666992 -8 -2.66699 -12 -6 -12
c-1.33301 0 -4 2.33301 -8 7c-12 14 -26.667 27 -44 39s-36.5 22.333 -57.5 31s-42.833 15.334 -65.5 20.001s-45.334 7 -68.001 7c-43.333 0 -83.166 -8.16699 -119.499 -24.5s-67.833 -39.333 -94.5 -69s-47.334 -64.834 -62.001 -105.501s-22 -85 -22 -133
c0 -44 6.66699 -84 20 -120s32.5 -66.5 57.5 -91.5s55.167 -44.333 90.5 -58s74.666 -20.5 117.999 -20.5c20 0 40 1.66699 60 5s39 8.16602 57 14.499s34.5 13.833 49.5 22.5s27.5 18 37.5 28c1.33301 2 2.33301 3 3 3c2 0 3 -1.66699 3 -5v-6z" />
    <glyph glyph-name="cdotaccent" unicode="&#x10b;" horiz-adv-x="439" 
d="M269 573c-16 0 -29.833 5.66602 -41.5 16.999s-17.5 25 -17.5 41c0 16.667 5.66699 30.834 17 42.501s25.333 17.5 42 17.5c16 0 29.833 -5.83301 41.5 -17.5s17.5 -25.5 17.5 -41.5c0 -16.667 -5.66699 -30.667 -17 -42s-25.333 -17 -42 -17zM425 326.999
l-13.502 15.002l-11.5 12c-15.333 15.333 -33.5 27.333 -54.5 36s-42.5 13 -64.5 13c-24 0 -46.167 -4.5 -66.5 -13.5s-37.833 -21.667 -52.5 -38s-26.167 -35.833 -34.5 -58.5s-12.5 -47.334 -12.5 -74.001c0 -48 14.333 -86.833 43 -116.5s67 -44.5 115 -44.5
c16.667 0 34 2.66699 52 8c13.333 4.66699 25 9.83398 35 15.501s23 15.5 39 29.5l-11 -91c-22 -12.667 -42.667 -21.667 -62 -27s-41 -8 -65 -8c-33.333 0 -63.833 5.66699 -91.5 17s-51.5 27.333 -71.5 48s-35.667 45.167 -47 73.5s-17 59.5 -17 93.5
c0 37.333 6.16699 71.666 18.5 102.999s29.333 58.666 51 81.999s47.167 41.5 76.5 54.5s61.333 19.5 96 19.5c24.667 0 48.667 -3.66699 72 -11c16.667 -5.33301 30.834 -11.333 42.501 -18s26.834 -17.667 45.501 -33z" />
    <glyph glyph-name="Ccaron" unicode="&#x10c;" horiz-adv-x="696" 
d="M283 972l63 44l88 -85l110 85l50 -44l-171 -133zM631 51c-0.666992 -5.33301 -1.99902 -9.16992 -3.99902 -11.5029s-6.33301 -5.16602 -13 -8.49902c-29.333 -15.333 -60.5 -26.833 -93.5 -34.5s-66.5 -11.5 -100.5 -11.5c-52.667 0 -101.167 9 -145.5 27
s-82.166 43.333 -113.499 76s-55.833 71.834 -73.5 117.501s-26.5 95.834 -26.5 150.501c0 59.333 9.5 113.833 28.5 163.5s45.5 92.834 79.5 129.501s74.333 65.167 121 85.5s97.667 30.5 153 30.5c42 0 80.667 -5.33301 116 -16s72 -28.667 110 -54
c21.333 -14 32 -24 32 -30l-2 -14l-7 -53v-4c-0.666992 -8 -2.66699 -12 -6 -12c-1.33301 0 -4 2.33301 -8 7c-12 14 -26.667 27 -44 39s-36.5 22.333 -57.5 31s-42.833 15.334 -65.5 20.001s-45.334 7 -68.001 7c-43.333 0 -83.166 -8.16699 -119.499 -24.5
s-67.833 -39.333 -94.5 -69s-47.334 -64.834 -62.001 -105.501s-22 -85 -22 -133c0 -44 6.66699 -84 20 -120s32.5 -66.5 57.5 -91.5s55.167 -44.333 90.5 -58s74.666 -20.5 117.999 -20.5c20 0 40 1.66699 60 5s39 8.16602 57 14.499s34.5 13.833 49.5 22.5
s27.5 18 37.5 28c1.33301 2 2.33301 3 3 3c2 0 3 -1.66699 3 -5v-6z" />
    <glyph glyph-name="ccaron" unicode="&#x10d;" horiz-adv-x="439" 
d="M120 682l63 44l88 -85l110 85l50 -44l-171 -133zM425 327l-13.502 15.002l-11.5 12c-15.333 15.333 -33.5 27.333 -54.5 36s-42.5 13 -64.5 13c-24 0 -46.167 -4.5 -66.5 -13.5s-37.833 -21.667 -52.5 -38s-26.167 -35.833 -34.5 -58.5s-12.5 -47.334 -12.5 -74.001
c0 -48 14.333 -86.833 43 -116.5s67 -44.5 115 -44.5c16.667 0 34 2.66699 52 8c13.333 4.66699 25 9.83398 35 15.501s23 15.5 39 29.5l-11 -91c-22 -12.667 -42.667 -21.667 -62 -27s-41 -8 -65 -8c-33.333 0 -63.833 5.66699 -91.5 17s-51.5 27.333 -71.5 48
s-35.667 45.167 -47 73.5s-17 59.5 -17 93.5c0 37.333 6.16699 71.666 18.5 102.999s29.333 58.666 51 81.999s47.167 41.5 76.5 54.5s61.333 19.5 96 19.5c24.667 0 48.667 -3.66699 72 -11c16.667 -5.33301 30.834 -11.333 42.501 -18s26.834 -17.667 45.501 -33z" />
    <glyph glyph-name="Dcaron" unicode="&#x10e;" horiz-adv-x="688" 
d="M214 972l63 44l88 -85l110 85l50 -44l-171 -133zM297 750c52.667 0 95.3291 -3.33301 127.996 -10s61.334 -17.667 86.001 -33c22.667 -14 43.167 -31.5 61.5 -52.5s33.833 -44.667 46.5 -71s22.334 -55 29.001 -86s10 -63.167 10 -96.5
c0 -42 -5.16699 -82.5 -15.5 -121.5s-25.166 -74.667 -44.499 -107s-42.666 -60.833 -69.999 -85.5s-57.666 -44 -90.999 -58c-12.667 -5.33301 -25.834 -9.83301 -39.501 -13.5s-28.5 -6.66699 -44.5 -9s-34 -4 -54 -5s-43.333 -1.5 -70 -1.5h-174l92 750h150zM240.995 77
c51.333 0 92.668 3.49805 124.001 10.498s58.666 18.833 81.999 35.5c19.333 14 36.833 31.333 52.5 52s29 43.167 40 67.5s19.5 50.333 25.5 78s9 55.834 9 84.501c0 42.667 -6.5 82.334 -19.5 119.001s-31.833 66.667 -56.5 90c-22 22 -47.833 37.333 -77.5 46
s-69.167 13 -118.5 13h-82l-73 -596h94z" />
    <glyph glyph-name="dcaron" unicode="&#x10f;" horiz-adv-x="568" 
d="M615 575l21 178l79 -7l-50 -176zM401 0l8 61.998c-12.667 -12.667 -22.667 -22.167 -30 -28.5s-15.333 -12.166 -24 -17.499c-28.667 -18 -62.334 -27 -101.001 -27c-32 0 -61.5 5.66699 -88.5 17s-50.333 27 -70 47s-35 43.833 -46 71.5s-16.5 57.834 -16.5 90.501
c0 36.667 6 70.667 18 102s28.833 58.5 50.5 81.5s47.167 41 76.5 54s61 19.5 95 19.5c22.667 0 42.834 -2.66699 60.501 -8s35.167 -14 52.5 -26c11.333 -8 21 -16 29 -24s18.667 -20.333 32 -37l46 373h79l-92 -750h-79zM431 257.998
c0 21.333 -3.83203 40.499 -11.499 57.499s-18.167 31.833 -31.5 44.5s-29.333 22.334 -48 29.001s-38.667 10 -60 10c-23.333 0 -45.166 -4.66699 -65.499 -14s-38 -22.166 -53 -38.499s-26.667 -35.833 -35 -58.5s-12.5 -47 -12.5 -73c0 -22 3.66699 -42.5 11 -61.5
s17.666 -35.333 30.999 -49s29 -24.334 47 -32.001s38 -11.5 60 -11.5c23.333 0 45.166 5 65.499 15s38 23.5 53 40.5s27 37.167 36 60.5s13.5 48 13.5 74v7z" />
    <glyph glyph-name="Dcroat" unicode="&#x110;" horiz-adv-x="688" 
d="M511 707c22.667 -14 43.1621 -31.5 61.4951 -52.5s33.833 -44.667 46.5 -71s22.334 -55 29.001 -86s10 -63.167 10 -96.5c0 -42 -5.16699 -82.5 -15.5 -121.5s-25.166 -74.667 -44.499 -107s-42.666 -60.833 -69.999 -85.5s-57.666 -44 -90.999 -58
c-12.667 -5.33301 -25.834 -9.83301 -39.501 -13.5s-28.5 -6.66699 -44.5 -9s-34 -4 -54 -5s-43.333 -1.5 -70 -1.5h-174l42 340h-82l8 70h82l42 340h150c52.667 0 95.334 -3.33301 128.001 -10s61.334 -17.667 86.001 -33zM446.995 123
c19.333 14 36.835 31.3311 52.502 51.998s29 43.167 40 67.5s19.5 50.333 25.5 78s9 55.834 9 84.501c0 42.667 -6.5 82.334 -19.5 119.001s-31.833 66.667 -56.5 90c-22 22 -47.833 37.333 -77.5 46s-69.167 13 -118.5 13h-82l-32 -263h211l-8 -70h-212l-32 -263h94
c51.333 0 92.666 3.5 123.999 10.5s58.666 18.833 81.999 35.5z" />
    <glyph glyph-name="dcroat" unicode="&#x111;" horiz-adv-x="568" 
d="M611 593l-58 -0.00195312l-73 -593h-79l8 62c-12.667 -12.667 -22.667 -22.167 -30 -28.5s-15.333 -12.166 -24 -17.499c-28.667 -18 -62.334 -27 -101.001 -27c-32 0 -61.5 5.66699 -88.5 17s-50.333 27 -70 47s-35 43.833 -46 71.5s-16.5 57.834 -16.5 90.501
c0 36.667 6 70.667 18 102s28.833 58.5 50.5 81.5s47.167 41 76.5 54s61 19.5 95 19.5c22.667 0 42.834 -2.66699 60.501 -8s35.167 -14 52.5 -26c11.333 -8 21 -16 29 -24s18.667 -20.333 32 -37l27 216h-150l8 70h150l11 87h79l-11 -87h58zM431 257.998
c0 21.333 -3.83203 40.499 -11.499 57.499s-18.167 31.833 -31.5 44.5s-29.333 22.334 -48 29.001s-38.667 10 -60 10c-23.333 0 -45.166 -4.66699 -65.499 -14s-38 -22.166 -53 -38.499s-26.667 -35.833 -35 -58.5s-12.5 -47 -12.5 -73c0 -22 3.66699 -42.5 11 -61.5
s17.666 -35.333 30.999 -49s29 -24.334 47 -32.001s38 -11.5 60 -11.5c23.333 0 45.166 5 65.499 15s38 23.5 53 40.5s27 37.167 36 60.5s13.5 48 13.5 74v7z" />
    <glyph glyph-name="Emacron" unicode="&#x112;" horiz-adv-x="515" 
d="M175 941h340l-8 -67h-340zM220 674l-28 -229h285l-9 -77h-285l-36 -291h285l-10 -77h-367l92 750h368l-10 -76h-285z" />
    <glyph glyph-name="emacron" unicode="&#x113;" horiz-adv-x="518" 
d="M141 651h340l-8 -67h-340zM116 211c1.33301 -48.667 14.501 -86.333 39.501 -113s60.5 -40 106.5 -40c52.667 0 95 20.333 127 61l61 -36c-24.667 -34.667 -51.834 -59.667 -81.501 -75s-65.167 -23 -106.5 -23c-34 0 -65 5.33301 -93 16s-52 26 -72 46
s-35.333 43.833 -46 71.5s-16 58.5 -16 92.5c0 38 5.83301 73.167 17.5 105.5s28 60.333 49 84s45.833 42.167 74.5 55.5s59.667 20 93 20c35.333 0 67.333 -7.33301 96 -22s52.667 -35.667 72 -63c15.333 -22 26.333 -46 33 -72s10 -60 10 -102v-6h-364zM399.001 277.001
c-3.33301 39.333 -16.668 70.167 -40.001 92.5s-54.333 33.5 -93 33.5c-22 0 -42.667 -4.5 -62 -13.5s-35.666 -21.5 -48.999 -37.5c-8.66699 -10.667 -15 -21 -19 -31s-8.66699 -24.667 -14 -44h277z" />
    <glyph glyph-name="Edotaccent" unicode="&#x116;" horiz-adv-x="515" 
d="M342 863c-16 0 -29.833 5.66602 -41.5 16.999s-17.5 25 -17.5 41c0 16.667 5.66699 30.834 17 42.501s25.333 17.5 42 17.5c16 0 29.833 -5.83301 41.5 -17.5s17.5 -25.5 17.5 -41.5c0 -16.667 -5.66699 -30.667 -17 -42s-25.333 -17 -42 -17zM220 673.999l-28 -229h285
l-9 -77h-285l-36 -291h285l-10 -77h-367l92 750h368l-10 -76h-285z" />
    <glyph glyph-name="edotaccent" unicode="&#x117;" horiz-adv-x="518" 
d="M308 573c-16 0 -29.833 5.66602 -41.5 16.999s-17.5 25 -17.5 41c0 16.667 5.66699 30.834 17 42.501s25.333 17.5 42 17.5c16 0 29.833 -5.83301 41.5 -17.5s17.5 -25.5 17.5 -41.5c0 -16.667 -5.66699 -30.667 -17 -42s-25.333 -17 -42 -17zM116 210.999
c1.33301 -48.667 14.501 -86.333 39.501 -113s60.5 -40 106.5 -40c52.667 0 95 20.333 127 61l61 -36c-24.667 -34.667 -51.834 -59.667 -81.501 -75s-65.167 -23 -106.5 -23c-34 0 -65 5.33301 -93 16s-52 26 -72 46s-35.333 43.833 -46 71.5s-16 58.5 -16 92.5
c0 38 5.83301 73.167 17.5 105.5s28 60.333 49 84s45.833 42.167 74.5 55.5s59.667 20 93 20c35.333 0 67.333 -7.33301 96 -22s52.667 -35.667 72 -63c15.333 -22 26.333 -46 33 -72s10 -60 10 -102v-6h-364zM399.001 277c-3.33301 39.333 -16.668 70.167 -40.001 92.5
s-54.333 33.5 -93 33.5c-22 0 -42.667 -4.5 -62 -13.5s-35.666 -21.5 -48.999 -37.5c-8.66699 -10.667 -15 -21 -19 -31s-8.66699 -24.667 -14 -44h277z" />
    <glyph glyph-name="Eogonek" unicode="&#x118;" horiz-adv-x="515" 
d="M220 674l-28.001 -228.999h285l-9 -77h-285l-36 -291h285l-10 -77c-14.667 -4 -27.667 -9.33301 -39 -16c-11.333 -6 -21.166 -13.5 -29.499 -22.5s-13.5 -20.5 -15.5 -34.5c-1.33301 -13.333 1.66699 -23.833 9 -31.5s17.666 -11.5 30.999 -11.5
c6 0 11.833 0.666992 17.5 2s10.5 2.66602 14.5 3.99902c4.66699 2 9.33398 4.33301 14.001 7l-22 -65c-6 -3.33301 -12.333 -6.33301 -19 -9c-6.66699 -2 -13.834 -3.83301 -21.501 -5.5s-16.167 -2.5 -25.5 -2.5c-24 0 -43.5 7.83301 -58.5 23.5
s-20.833 37.167 -17.5 64.5c2.66699 22 10.334 40.833 23.001 56.5s26.667 29.167 42 40.5h-270l92 750h368l-10 -76h-285z" />
    <glyph glyph-name="eogonek" unicode="&#x119;" horiz-adv-x="518" 
d="M480 211l-364.001 0.00390625c1.33301 -48.667 14.5 -86.334 39.5 -113.001s60.5 -40 106.5 -40c52.667 0 95 20.333 127 61l61 -36c-10 -14 -20.167 -26.333 -30.5 -37s-21.5 -19.667 -33.5 -27c-11.333 -10.667 -23.5 -24.334 -36.5 -41.001s-20.5 -33.667 -22.5 -51
c-1.33301 -13.333 1.66699 -23.833 9 -31.5s17.666 -11.5 30.999 -11.5c6 0 11.833 0.666992 17.5 2s10.834 2.66602 15.501 3.99902c4.66699 2 9.33398 4.33301 14.001 7l-22 -65c-6 -3.33301 -12.667 -6.33301 -20 -9c-6 -2 -13 -3.83301 -21 -5.5s-16.667 -2.5 -26 -2.5
c-24 0 -43.667 7.16699 -59 21.5s-21.333 34.166 -18 59.499c2.66699 21.333 10.5 39.833 23.5 55.5s25.167 28.167 36.5 37.5c-7.33301 -1.33301 -14.833 -2.33301 -22.5 -3s-15.5 -1 -23.5 -1c-34 0 -65 5.33301 -93 16s-52 26 -72 46s-35.333 43.833 -46 71.5
s-16 58.5 -16 92.5c0 38 5.83301 73.167 17.5 105.5s28 60.333 49 84s45.833 42.167 74.5 55.5s59.667 20 93 20c35.333 0 67.333 -7.33301 96 -22s52.667 -35.667 72 -63c15.333 -22 26.333 -46 33 -72s10 -60 10 -102v-6zM398.999 277.004
c-3.33301 39.333 -16.668 70.167 -40.001 92.5s-54.333 33.5 -93 33.5c-22 0 -42.667 -4.5 -62 -13.5s-35.666 -21.5 -48.999 -37.5c-8.66699 -10.667 -15 -21 -19 -31s-8.66699 -24.667 -14 -44h277z" />
    <glyph glyph-name="Ecaron" unicode="&#x11a;" horiz-adv-x="515" 
d="M193 972l63 44l88 -85l110 85l50 -44l-171 -133zM220 674l-28 -229h285l-9 -77h-285l-36 -291h285l-10 -77h-367l92 750h368l-10 -76h-285z" />
    <glyph glyph-name="ecaron" unicode="&#x11b;" horiz-adv-x="518" 
d="M159 682l63 44l88 -85l110 85l50 -44l-171 -133zM116 211c1.33301 -48.667 14.501 -86.333 39.501 -113s60.5 -40 106.5 -40c52.667 0 95 20.333 127 61l61 -36c-24.667 -34.667 -51.834 -59.667 -81.501 -75s-65.167 -23 -106.5 -23c-34 0 -65 5.33301 -93 16
s-52 26 -72 46s-35.333 43.833 -46 71.5s-16 58.5 -16 92.5c0 38 5.83301 73.167 17.5 105.5s28 60.333 49 84s45.833 42.167 74.5 55.5s59.667 20 93 20c35.333 0 67.333 -7.33301 96 -22s52.667 -35.667 72 -63c15.333 -22 26.333 -46 33 -72s10 -60 10 -102v-6h-364z
M399.001 277.001c-3.33301 39.333 -16.668 70.167 -40.001 92.5s-54.333 33.5 -93 33.5c-22 0 -42.667 -4.5 -62 -13.5s-35.666 -21.5 -48.999 -37.5c-8.66699 -10.667 -15 -21 -19 -31s-8.66699 -24.667 -14 -44h277z" />
    <glyph glyph-name="Gbreve" unicode="&#x11e;" horiz-adv-x="818" 
d="M665 991c-13.333 -42.667 -35.667 -75.833 -67 -99.5s-68.666 -35.5 -111.999 -35.5s-77.833 12 -103.5 36s-40.167 57 -43.5 99h68c7.33301 -24.667 17.666 -42.167 30.999 -52.5s32 -15.5 56 -15.5s43.667 5 59 15s30 27.667 44 53h68zM783.999 358.001
c-3.33301 -24 -6.83789 -44.666 -10.5049 -61.999s-7.5 -33 -11.5 -47s-8.5 -27 -13.5 -39s-10.833 -24.667 -17.5 -38c-32 -60.667 -74.5 -107 -127.5 -139s-114.167 -48 -183.5 -48c-52 0 -100 9.16699 -144 27.5s-81.833 43.833 -113.5 76.5s-56.5 71.5 -74.5 116.5
s-27 94.167 -27 147.5c0 59.333 9.83301 114.166 29.5 164.499s46.834 93.666 81.501 129.999s75.834 64.833 123.501 85.5s99.5 31 155.5 31c86.667 0 161.334 -24 224.001 -72l22.5 -19.5c7 -6.33301 14 -13.333 21 -21s14.167 -16.334 21.5 -26.001l26 -35.5l-58 -51
c-14.667 22 -26.5 38.5 -35.5 49.5s-20.167 21.833 -33.5 32.5c-54 42.667 -117.333 64 -190 64c-44 0 -84.667 -8.16699 -122 -24.5s-69.5 -39 -96.5 -68s-48 -63.833 -63 -104.5s-22.5 -85 -22.5 -133c0 -42.667 6.83301 -82 20.5 -118s32.834 -66.667 57.501 -92
s54 -45.166 88 -59.499s71.333 -21.5 112 -21.5c88.667 0 158.334 31.333 209.001 94c6.66699 8 12.5 15.833 17.5 23.5s9.83301 16.334 14.5 26.001s9 20.5 13 32.5s8.33301 26 13 42h-222l9 76h307z" />
    <glyph glyph-name="gbreve" unicode="&#x11f;" horiz-adv-x="582" 
d="M512 701c-13.333 -42.667 -35.667 -75.833 -67 -99.5s-68.666 -35.5 -111.999 -35.5s-77.833 12 -103.5 36s-40.167 57 -43.5 99h68c7.33301 -24.667 17.666 -42.167 30.999 -52.5s32 -15.5 56 -15.5s43.667 5 59 15s30 27.667 44 53h68zM485.999 -2.99902
c-2.66699 -25.333 -5.83301 -47.3301 -9.5 -65.9971s-7.83398 -35.167 -12.501 -49.5s-10.167 -27 -16.5 -38s-13.833 -21.833 -22.5 -32.5c-20 -24.667 -45.5 -43.5 -76.5 -56.5s-65.5 -19.5 -103.5 -19.5c-16.667 0 -33.167 1.33301 -49.5 4s-31.5 6.66699 -45.5 12
c-32 12 -58.667 29.667 -80 53c-8 8.66699 -14.667 17.5 -20 26.5s-9.66602 18.667 -12.999 29s-5.83301 22.166 -7.5 35.499s-2.5 28.666 -2.5 45.999h75c1.33301 -22 3.5 -38.833 6.5 -50.5s8.5 -23.167 16.5 -34.5c11.333 -15.333 27.166 -27.166 47.499 -35.499
s43.166 -12.5 68.499 -12.5s48.5 4 69.5 12s38.167 19.667 51.5 35c11.333 13.333 20.5 29.666 27.5 48.999s12.167 44.666 15.5 75.999l9 76l-30 -25c-36 -28 -78.333 -42 -127 -42c-30.667 0 -59.167 5.66699 -85.5 17s-49.166 27 -68.499 47s-34.5 43.833 -45.5 71.5
s-16.5 57.5 -16.5 89.5c0 36.667 6.16699 70.667 18.5 102s29.5 58.5 51.5 81.5s47.833 41.167 77.5 54.5s61.834 20 96.501 20c38 0 72.333 -9 103 -27c12 -7.33301 22.333 -15 31 -23s20 -20.333 34 -37l10 75h78zM443 251.004c0 22.667 -3.83105 43 -11.498 61
s-18.167 33.5 -31.5 46.5s-29.333 23 -48 30s-39 10.5 -61 10.5c-24 0 -46.333 -4.66699 -67 -14s-38.5 -22 -53.5 -38s-26.833 -35 -35.5 -57s-13 -46 -13 -72c0 -22.667 3.83301 -43.667 11.5 -63s18.167 -36 31.5 -50s29.333 -24.833 48 -32.5s39 -11.5 61 -11.5
c23.333 0 45.166 4.66699 65.499 14s38.166 22.333 53.499 39s27.5 36 36.5 58s13.5 45.667 13.5 71v8z" />
    <glyph glyph-name="Gdotaccent" unicode="&#x120;" horiz-adv-x="818" 
d="M493 863c-16 0 -29.833 5.66602 -41.5 16.999s-17.5 25 -17.5 41c0 16.667 5.66699 30.834 17 42.501s25.333 17.5 42 17.5c16 0 29.833 -5.83301 41.5 -17.5s17.5 -25.5 17.5 -41.5c0 -16.667 -5.66699 -30.667 -17 -42s-25.333 -17 -42 -17zM784 357.999
c-3.33301 -24 -6.83789 -44.666 -10.5049 -61.999s-7.5 -33 -11.5 -47s-8.5 -27 -13.5 -39s-10.833 -24.667 -17.5 -38c-32 -60.667 -74.5 -107 -127.5 -139s-114.167 -48 -183.5 -48c-52 0 -100 9.16699 -144 27.5s-81.833 43.833 -113.5 76.5s-56.5 71.5 -74.5 116.5
s-27 94.167 -27 147.5c0 59.333 9.83301 114.166 29.5 164.499s46.834 93.666 81.501 129.999s75.834 64.833 123.501 85.5s99.5 31 155.5 31c86.667 0 161.334 -24 224.001 -72l22.5 -19.5c7 -6.33301 14 -13.333 21 -21s14.167 -16.334 21.5 -26.001l26 -35.5l-58 -51
c-14.667 22 -26.5 38.5 -35.5 49.5s-20.167 21.833 -33.5 32.5c-54 42.667 -117.333 64 -190 64c-44 0 -84.667 -8.16699 -122 -24.5s-69.5 -39 -96.5 -68s-48 -63.833 -63 -104.5s-22.5 -85 -22.5 -133c0 -42.667 6.83301 -82 20.5 -118s32.834 -66.667 57.501 -92
s54 -45.166 88 -59.499s71.333 -21.5 112 -21.5c88.667 0 158.334 31.333 209.001 94c6.66699 8 12.5 15.833 17.5 23.5s9.83301 16.334 14.5 26.001s9 20.5 13 32.5s8.33301 26 13 42h-222l9 76h307z" />
    <glyph glyph-name="gdotaccent" unicode="&#x121;" horiz-adv-x="582" 
d="M340 573c-16 0 -29.833 5.66602 -41.5 16.999s-17.5 25 -17.5 41c0 16.667 5.66699 30.834 17 42.501s25.333 17.5 42 17.5c16 0 29.833 -5.83301 41.5 -17.5s17.5 -25.5 17.5 -41.5c0 -16.667 -5.66699 -30.667 -17 -42s-25.333 -17 -42 -17zM486 -3.00098
c-2.66699 -25.333 -5.83301 -47.3301 -9.5 -65.9971s-7.83398 -35.167 -12.501 -49.5s-10.167 -27 -16.5 -38s-13.833 -21.833 -22.5 -32.5c-20 -24.667 -45.5 -43.5 -76.5 -56.5s-65.5 -19.5 -103.5 -19.5c-16.667 0 -33.167 1.33301 -49.5 4s-31.5 6.66699 -45.5 12
c-32 12 -58.667 29.667 -80 53c-8 8.66699 -14.667 17.5 -20 26.5s-9.66602 18.667 -12.999 29s-5.83301 22.166 -7.5 35.499s-2.5 28.666 -2.5 45.999h75c1.33301 -22 3.5 -38.833 6.5 -50.5s8.5 -23.167 16.5 -34.5c11.333 -15.333 27.166 -27.166 47.499 -35.499
s43.166 -12.5 68.499 -12.5s48.5 4 69.5 12s38.167 19.667 51.5 35c11.333 13.333 20.5 29.666 27.5 48.999s12.167 44.666 15.5 75.999l9 76l-30 -25c-36 -28 -78.333 -42 -127 -42c-30.667 0 -59.167 5.66699 -85.5 17s-49.166 27 -68.499 47s-34.5 43.833 -45.5 71.5
s-16.5 57.5 -16.5 89.5c0 36.667 6.16699 70.667 18.5 102s29.5 58.5 51.5 81.5s47.833 41.167 77.5 54.5s61.834 20 96.501 20c38 0 72.333 -9 103 -27c12 -7.33301 22.333 -15 31 -23s20 -20.333 34 -37l10 75h78zM443.001 251.002c0 22.667 -3.83105 43 -11.498 61
s-18.167 33.5 -31.5 46.5s-29.333 23 -48 30s-39 10.5 -61 10.5c-24 0 -46.333 -4.66699 -67 -14s-38.5 -22 -53.5 -38s-26.833 -35 -35.5 -57s-13 -46 -13 -72c0 -22.667 3.83301 -43.667 11.5 -63s18.167 -36 31.5 -50s29.333 -24.833 48 -32.5s39 -11.5 61 -11.5
c23.333 0 45.166 4.66699 65.499 14s38.166 22.333 53.499 39s27.5 36 36.5 58s13.5 45.667 13.5 71v8z" />
    <glyph glyph-name="uni0122" unicode="&#x122;" horiz-adv-x="818" 
d="M784 358c-3.33301 -24 -6.83789 -44.666 -10.5049 -61.999s-7.5 -33 -11.5 -47s-8.5 -27 -13.5 -39s-10.833 -24.667 -17.5 -38c-32 -60.667 -74.5 -107 -127.5 -139s-114.167 -48 -183.5 -48c-52 0 -100 9.16699 -144 27.5s-81.833 43.833 -113.5 76.5
s-56.5 71.5 -74.5 116.5s-27 94.167 -27 147.5c0 59.333 9.83301 114.166 29.5 164.499s46.834 93.666 81.501 129.999s75.834 64.833 123.501 85.5s99.5 31 155.5 31c86.667 0 161.334 -24 224.001 -72l22.5 -19.5c7 -6.33301 14 -13.333 21 -21
s14.167 -16.334 21.5 -26.001l26 -35.5l-58 -51c-14.667 22 -26.5 38.5 -35.5 49.5s-20.167 21.833 -33.5 32.5c-54 42.667 -117.333 64 -190 64c-44 0 -84.667 -8.16699 -122 -24.5s-69.5 -39 -96.5 -68s-48 -63.833 -63 -104.5s-22.5 -85 -22.5 -133
c0 -42.667 6.83301 -82 20.5 -118s32.834 -66.667 57.501 -92s54 -45.166 88 -59.499s71.333 -21.5 112 -21.5c88.667 0 158.334 31.333 209.001 94c6.66699 8 12.5 15.833 17.5 23.5s9.83301 16.334 14.5 26.001s9 20.5 13 32.5s8.33301 26 13 42h-222l9 76h307z
M335.995 -64.999h75l-40 -220h-51z" />
    <glyph glyph-name="uni0123" unicode="&#x123;" horiz-adv-x="582" 
d="M329 794h61l-13 -230h-91zM486 -3c-2.66699 -25.333 -5.83301 -47.3301 -9.5 -65.9971s-7.83398 -35.167 -12.501 -49.5s-10.167 -27 -16.5 -38s-13.833 -21.833 -22.5 -32.5c-20 -24.667 -45.5 -43.5 -76.5 -56.5s-65.5 -19.5 -103.5 -19.5
c-16.667 0 -33.167 1.33301 -49.5 4s-31.5 6.66699 -45.5 12c-32 12 -58.667 29.667 -80 53c-8 8.66699 -14.667 17.5 -20 26.5s-9.66602 18.667 -12.999 29s-5.83301 22.166 -7.5 35.499s-2.5 28.666 -2.5 45.999h75c1.33301 -22 3.5 -38.833 6.5 -50.5
s8.5 -23.167 16.5 -34.5c11.333 -15.333 27.166 -27.166 47.499 -35.499s43.166 -12.5 68.499 -12.5s48.5 4 69.5 12s38.167 19.667 51.5 35c11.333 13.333 20.5 29.666 27.5 48.999s12.167 44.666 15.5 75.999l9 76l-30 -25c-36 -28 -78.333 -42 -127 -42
c-30.667 0 -59.167 5.66699 -85.5 17s-49.166 27 -68.499 47s-34.5 43.833 -45.5 71.5s-16.5 57.5 -16.5 89.5c0 36.667 6.16699 70.667 18.5 102s29.5 58.5 51.5 81.5s47.833 41.167 77.5 54.5s61.834 20 96.501 20c38 0 72.333 -9 103 -27c12 -7.33301 22.333 -15 31 -23
s20 -20.333 34 -37l10 75h78zM443.001 251.003c0 22.667 -3.83105 43 -11.498 61s-18.167 33.5 -31.5 46.5s-29.333 23 -48 30s-39 10.5 -61 10.5c-24 0 -46.333 -4.66699 -67 -14s-38.5 -22 -53.5 -38s-26.833 -35 -35.5 -57s-13 -46 -13 -72
c0 -22.667 3.83301 -43.667 11.5 -63s18.167 -36 31.5 -50s29.333 -24.833 48 -32.5s39 -11.5 61 -11.5c23.333 0 45.166 4.66699 65.499 14s38.166 22.333 53.499 39s27.5 36 36.5 58s13.5 45.667 13.5 71v8z" />
    <glyph glyph-name="Hbar" unicode="&#x126;" horiz-adv-x="700" 
d="M728 564h-76l-69 -564h-83l46 374h-363l-46 -374h-82l69 564h-83l10 70h82l14 116h83l-14 -116h363l14 116h82l-14 -116h77zM570 564h-363l-14 -114h363z" />
    <glyph glyph-name="hbar" unicode="&#x127;" horiz-adv-x="496" 
d="M297 472c43.333 0 77.999 -11.501 103.999 -34.501s39 -53.5 39 -91.5c0 -9.33301 -0.5 -19.5 -1.5 -30.5s-2.16699 -23.167 -3.5 -36.5l-34 -279h-79l34 279c2 18 3 33.333 3 46c0 23.333 -7.16699 41.5 -21.5 54.5s-34.166 19.5 -59.499 19.5
c-18 0 -35.333 -3.5 -52 -10.5s-31 -16.5 -43 -28.5c-12 -12.667 -20.833 -26.5 -26.5 -41.5s-10.167 -37.5 -13.5 -67.5l-31 -251h-78l72 593h-53l8 70h53l11 87h79l-11 -87h155l-8 -70h-155l-23 -184c12.667 12 22.5 20.833 29.5 26.5s14.5 10.834 22.5 15.501
c24 14 51.667 21 83 21z" />
    <glyph glyph-name="Imacron" unicode="&#x12a;" horiz-adv-x="255" 
d="M60 990h262v-70h-262v70zM55 0l92 750h83l-93 -750h-82z" />
    <glyph glyph-name="imacron" unicode="&#x12b;" horiz-adv-x="208" 
d="M1 700h262v-70h-262v70zM34 0l56 460h79l-57 -460h-78z" />
    <glyph glyph-name="Iogonek" unicode="&#x12e;" horiz-adv-x="255" 
d="M53 -73c-1.33301 -13.333 1.66797 -23.8311 9.00098 -31.498s17.666 -11.5 30.999 -11.5c6 0 11.833 0.666992 17.5 2s10.5 2.66602 14.5 3.99902c4.66699 2 9.33398 4.33301 14.001 7l-22 -65c-6 -3.33301 -12.333 -6.33301 -19 -9
c-6.66699 -2 -13.834 -3.83301 -21.501 -5.5s-16.167 -2.5 -25.5 -2.5c-24 0 -43.5 7.83301 -58.5 23.5s-20.833 37.167 -17.5 64.5c3.33301 26 13.166 47.667 29.499 65s33.5 31.666 51.5 42.999l91 739h83l-93 -750c-14.667 -4 -27.667 -9.33301 -39 -16
c-11.333 -6 -21.166 -13.5 -29.499 -22.5s-13.5 -20.5 -15.5 -34.5z" />
    <glyph glyph-name="iogonek" unicode="&#x12f;" horiz-adv-x="208" 
d="M153 691c16 0 29.833 -5.83398 41.5 -17.501s17.5 -25.5 17.5 -41.5c0 -16.667 -5.66699 -30.667 -17 -42s-25.333 -17 -42 -17c-16 0 -29.833 5.66699 -41.5 17s-17.5 25 -17.5 41c0 16.667 5.66699 30.834 17 42.501s25.333 17.5 42 17.5zM112 -0.000976562
c-14.667 -4 -27.665 -9.33301 -38.998 -16c-11.333 -6 -21.166 -13.5 -29.499 -22.5s-13.5 -20.5 -15.5 -34.5c-1.33301 -13.333 1.66699 -23.833 9 -31.5s17.666 -11.5 30.999 -11.5c6 0 11.833 0.666992 17.5 2s10.5 2.66602 14.5 3.99902
c4.66699 2 9.33398 4.33301 14.001 7l-22 -65c-6 -3.33301 -12.333 -6.33301 -19 -9c-6.66699 -2 -13.834 -3.83301 -21.501 -5.5s-16.167 -2.5 -25.5 -2.5c-24 0 -43.5 7.83301 -58.5 23.5s-20.833 37.167 -17.5 64.5s13.666 49.833 30.999 67.5
s35.666 31.834 54.999 42.501l54 447h79z" />
    <glyph glyph-name="Idotaccent" unicode="&#x130;" horiz-adv-x="255" 
d="M212 863c-16 0 -29.833 5.66602 -41.5 16.999s-17.5 25 -17.5 41c0 16.667 5.66699 30.834 17 42.501s25.333 17.5 42 17.5c16 0 29.833 -5.83301 41.5 -17.5s17.5 -25.5 17.5 -41.5c0 -16.667 -5.66699 -30.667 -17 -42s-25.333 -17 -42 -17zM55 -0.000976562l92 750h83
l-93 -750h-82z" />
    <glyph glyph-name="dotlessi" unicode="&#x131;" horiz-adv-x="208" 
d="M34 0l56 460h79l-57 -460h-78z" />
    <glyph glyph-name="uni0136" unicode="&#x136;" horiz-adv-x="622" 
d="M582 0h-105l-294 370l-46 -370h-82l92 750h83l-40 -326l335 326h108l-371 -353zM238 -65h75l-40 -220h-51z" />
    <glyph glyph-name="uni0137" unicode="&#x137;" horiz-adv-x="465" 
d="M441 0h-103l-198 226l-28 -226h-78l91 750h79l-58 -476l210 186h110l-249 -211zM160 -65h75l-40 -220h-51z" />
    <glyph glyph-name="Lacute" unicode="&#x139;" horiz-adv-x="405" 
d="M179 860l138 163l79 -37l-171 -153zM55 0l92 750h83l-83 -673h229l-10 -77h-311z" />
    <glyph glyph-name="lacute" unicode="&#x13a;" horiz-adv-x="200" 
d="M78 860l138 163l79 -37l-171 -153zM34 0l91 750h79l-92 -750h-78z" />
    <glyph glyph-name="uni013B" unicode="&#x13b;" horiz-adv-x="405" 
d="M55 0l92 750h83l-83 -673h229l-10 -77h-311zM156 -65h75l-40 -220h-51z" />
    <glyph glyph-name="uni013C" unicode="&#x13c;" horiz-adv-x="200" 
d="M34 0l91 750h79l-92 -750h-78zM27 -65h75l-40 -220h-51z" />
    <glyph glyph-name="Lcaron" unicode="&#x13d;" horiz-adv-x="405" 
d="M334 575l21 178l79 -7l-50 -176zM55 0l92 750h83l-83 -673h229l-10 -77h-311z" />
    <glyph glyph-name="lcaron" unicode="&#x13e;" horiz-adv-x="200" 
d="M253 575l21 178l79 -7l-50 -176zM34 0l91 750h79l-92 -750h-78z" />
    <glyph glyph-name="Lslash" unicode="&#x141;" horiz-adv-x="413" 
d="M186 328l-31 -251h229l-10 -77h-311l35 282l-71 -45l9 77l71 46l48 390h83l-42 -345l124 81l-9 -77z" />
    <glyph glyph-name="lslash" unicode="&#x142;" horiz-adv-x="231" 
d="M235 456l-9 -76l-66 -45l-41 -335h-78l35 290l-65 -44l9 76l65 44l47 384h79l-41 -338z" />
    <glyph glyph-name="Nacute" unicode="&#x143;" horiz-adv-x="804" 
d="M378 860l138 163l79 -37l-171 -153zM209 581l-72 -581h-82l96 782l473 -617l72 585h83l-97 -787z" />
    <glyph glyph-name="nacute" unicode="&#x144;" horiz-adv-x="496" 
d="M189 570l138 163l79 -37l-171 -153zM161 403c12.667 12 22.5 20.832 29.5 26.499s14.167 11.167 21.5 16.5c26.667 17.333 56.667 26 90 26c42 0 75.5 -12.167 100.5 -36.5s37.5 -56.833 37.5 -97.5c0 -21.333 -2 -48.666 -6 -81.999l-31 -256h-79l32 269
c1.33301 10 2.5 20.5 3.5 31.5s1.5 19.167 1.5 24.5c0 23.333 -6.83301 41.5 -20.5 54.5s-33.167 19.5 -58.5 19.5c-17.333 0 -34.333 -3.33301 -51 -10s-31.334 -16 -44.001 -28c-6.66699 -6.66699 -12.5 -13.5 -17.5 -20.5s-9.16699 -15 -12.5 -24
s-6.16602 -19.5 -8.49902 -31.5s-4.5 -26.333 -6.5 -43l-30 -242h-78l56 460h78z" />
    <glyph glyph-name="uni0145" unicode="&#x145;" horiz-adv-x="804" 
d="M209 581l-72 -581h-82l96 782l473 -617l72 585h83l-97 -787zM329 -65h75l-40 -220h-51z" />
    <glyph glyph-name="uni0146" unicode="&#x146;" horiz-adv-x="496" 
d="M161 403c12.667 12 22.5 20.832 29.5 26.499s14.167 11.167 21.5 16.5c26.667 17.333 56.667 26 90 26c42 0 75.5 -12.167 100.5 -36.5s37.5 -56.833 37.5 -97.5c0 -21.333 -2 -48.666 -6 -81.999l-31 -256h-79l32 269c1.33301 10 2.5 20.5 3.5 31.5s1.5 19.167 1.5 24.5
c0 23.333 -6.83301 41.5 -20.5 54.5s-33.167 19.5 -58.5 19.5c-17.333 0 -34.333 -3.33301 -51 -10s-31.334 -16 -44.001 -28c-6.66699 -6.66699 -12.5 -13.5 -17.5 -20.5s-9.16699 -15 -12.5 -24s-6.16602 -19.5 -8.49902 -31.5s-4.5 -26.333 -6.5 -43l-30 -242h-78l56 460
h78zM175 -65.001h75l-40 -220h-51z" />
    <glyph glyph-name="Ncaron" unicode="&#x147;" horiz-adv-x="804" 
d="M337 972l63 44l88 -85l110 85l50 -44l-171 -133zM209 581l-72 -581h-82l96 782l473 -617l72 585h83l-97 -787z" />
    <glyph glyph-name="ncaron" unicode="&#x148;" horiz-adv-x="496" 
d="M148 682l63 44l88 -85l110 85l50 -44l-171 -133zM161 403c12.667 12 22.5 20.832 29.5 26.499s14.167 11.167 21.5 16.5c26.667 17.333 56.667 26 90 26c42 0 75.5 -12.167 100.5 -36.5s37.5 -56.833 37.5 -97.5c0 -21.333 -2 -48.666 -6 -81.999l-31 -256h-79l32 269
c1.33301 10 2.5 20.5 3.5 31.5s1.5 19.167 1.5 24.5c0 23.333 -6.83301 41.5 -20.5 54.5s-33.167 19.5 -58.5 19.5c-17.333 0 -34.333 -3.33301 -51 -10s-31.334 -16 -44.001 -28c-6.66699 -6.66699 -12.5 -13.5 -17.5 -20.5s-9.16699 -15 -12.5 -24
s-6.16602 -19.5 -8.49902 -31.5s-4.5 -26.333 -6.5 -43l-30 -242h-78l56 460h78z" />
    <glyph glyph-name="Omacron" unicode="&#x14c;" horiz-adv-x="861" 
d="M348 941h340l-8 -67h-340zM831 402c0 -60.667 -9.83105 -116.502 -29.498 -167.502s-47 -95 -82 -132s-76.833 -65.833 -125.5 -86.5s-102 -31 -160 -31c-54.667 0 -104.834 9.16699 -150.501 27.5s-85 44 -118 77s-58.667 72.333 -77 118s-27.5 95.834 -27.5 150.501
c0 58.667 10 112.834 30 162.501s47.667 92.667 83 129s77.166 64.666 125.499 84.999s101.166 30.5 158.499 30.5c54.667 0 104.834 -9 150.501 -27s85 -43 118 -75s58.667 -70.167 77 -114.5s27.5 -93.166 27.5 -146.499zM747.002 405.998
c0 43.333 -7.00195 82.1699 -21.002 116.503s-33.667 63.666 -59 87.999s-55.5 43 -90.5 56s-73.833 19.5 -116.5 19.5c-45.333 0 -87.166 -8.16699 -125.499 -24.5s-71.5 -39 -99.5 -68s-50 -63.333 -66 -103s-24 -82.834 -24 -129.501
c0 -42.667 7.33301 -82.167 22 -118.5s35 -67.833 61 -94.5s56.833 -47.334 92.5 -62.001s74.5 -22 116.5 -22c44 0 85 8.33301 123 25s70.833 39.834 98.5 69.501s49.334 64.667 65.001 105s23.5 84.166 23.5 131.499v11z" />
    <glyph glyph-name="omacron" unicode="&#x14d;" 
d="M164 651h340l-8 -67h-340zM522 238c0 -36.667 -6.16699 -70.3311 -18.5 -100.998s-29.5 -57.334 -51.5 -80.001s-48.167 -40.334 -78.5 -53.001s-63.166 -19 -98.499 -19c-34 0 -65.667 6 -95 18s-54.833 28.667 -76.5 50s-38.5 46.5 -50.5 75.5s-18 60.5 -18 94.5
c0 35.333 6.5 68.5 19.5 99.5s30.833 57.833 53.5 80.5s49.334 40.5 80.001 53.5s63.667 19.5 99 19.5c33.333 0 64.166 -5.66699 92.499 -17s53.166 -27.166 74.499 -47.499s38 -44.333 50 -72s18 -57.834 18 -90.501v-11zM441 245.003
c0 24 -3.99902 45.665 -11.999 64.998s-19 35.833 -33 49.5s-30.5 24.334 -49.5 32.001s-39.833 11.5 -62.5 11.5c-24 0 -46.167 -4.5 -66.5 -13.5s-38 -21.5 -53 -37.5s-26.833 -34.833 -35.5 -56.5s-13 -45.167 -13 -70.5c0 -24 4 -46.167 12 -66.5s19.167 -38 33.5 -53
s31.333 -26.667 51 -35s41.167 -12.5 64.5 -12.5c24 0 46 4.5 66 13.5s37.167 21.333 51.5 37s25.666 34.334 33.999 56.001s12.5 45.5 12.5 71.5v9z" />
    <glyph glyph-name="Ohungarumlaut" unicode="&#x150;" horiz-adv-x="861" 
d="M320 853l119 163l79 -36l-151 -153zM470 853l119 163l79 -36l-151 -153zM831 402c0 -60.667 -9.83105 -116.502 -29.498 -167.502s-47 -95 -82 -132s-76.833 -65.833 -125.5 -86.5s-102 -31 -160 -31c-54.667 0 -104.834 9.16699 -150.501 27.5s-85 44 -118 77
s-58.667 72.333 -77 118s-27.5 95.834 -27.5 150.501c0 58.667 10 112.834 30 162.501s47.667 92.667 83 129s77.166 64.666 125.499 84.999s101.166 30.5 158.499 30.5c54.667 0 104.834 -9 150.501 -27s85 -43 118 -75s58.667 -70.167 77 -114.5
s27.5 -93.166 27.5 -146.499zM747.002 405.998c0 43.333 -7.00195 82.1699 -21.002 116.503s-33.667 63.666 -59 87.999s-55.5 43 -90.5 56s-73.833 19.5 -116.5 19.5c-45.333 0 -87.166 -8.16699 -125.499 -24.5s-71.5 -39 -99.5 -68s-50 -63.333 -66 -103
s-24 -82.834 -24 -129.501c0 -42.667 7.33301 -82.167 22 -118.5s35 -67.833 61 -94.5s56.833 -47.334 92.5 -62.001s74.5 -22 116.5 -22c44 0 85 8.33301 123 25s70.833 39.834 98.5 69.501s49.334 64.667 65.001 105s23.5 84.166 23.5 131.499v11z" />
    <glyph glyph-name="ohungarumlaut" unicode="&#x151;" 
d="M136 563l119 163l79 -36l-151 -153zM286 563l119 163l79 -36l-151 -153zM522 238c0 -36.667 -6.16699 -70.3311 -18.5 -100.998s-29.5 -57.334 -51.5 -80.001s-48.167 -40.334 -78.5 -53.001s-63.166 -19 -98.499 -19c-34 0 -65.667 6 -95 18s-54.833 28.667 -76.5 50
s-38.5 46.5 -50.5 75.5s-18 60.5 -18 94.5c0 35.333 6.5 68.5 19.5 99.5s30.833 57.833 53.5 80.5s49.334 40.5 80.001 53.5s63.667 19.5 99 19.5c33.333 0 64.166 -5.66699 92.499 -17s53.166 -27.166 74.499 -47.499s38 -44.333 50 -72s18 -57.834 18 -90.501v-11z
M441 245.003c0 24 -3.99902 45.665 -11.999 64.998s-19 35.833 -33 49.5s-30.5 24.334 -49.5 32.001s-39.833 11.5 -62.5 11.5c-24 0 -46.167 -4.5 -66.5 -13.5s-38 -21.5 -53 -37.5s-26.833 -34.833 -35.5 -56.5s-13 -45.167 -13 -70.5c0 -24 4 -46.167 12 -66.5
s19.167 -38 33.5 -53s31.333 -26.667 51 -35s41.167 -12.5 64.5 -12.5c24 0 46 4.5 66 13.5s37.167 21.333 51.5 37s25.666 34.334 33.999 56.001s12.5 45.5 12.5 71.5v9z" />
    <glyph glyph-name="OE" unicode="&#x152;" horiz-adv-x="1084" 
d="M872 673l-28.998 -230.998h292l-9 -77h-292l-36 -288h293l-9 -77h-376l16 100l-37 -31c-10.667 -8.66699 -21 -16.334 -31 -23.001s-19.833 -12.5 -29.5 -17.5s-20.5 -9.83301 -32.5 -14.5c-48.667 -19.333 -100.334 -29 -155.001 -29s-105 9.33301 -151 28
s-85.667 44.5 -119 77.5s-59.333 72.333 -78 118s-28 95.5 -28 149.5c0 59.333 10.167 113.833 30.5 163.5s48.666 92.667 84.999 129s79.333 64.666 129 84.999s103.834 30.5 162.501 30.5c44.667 0 84.667 -5.5 120 -16.5s67.666 -27.5 96.999 -49.5
c8 -6 15.5 -12.333 22.5 -19s14 -14 21 -22s14.333 -17.333 22 -28l26.5 -38l20 157h375l-11 -77h-289zM749.002 388.002c0 44 -7.16797 84.333 -21.501 121s-34.333 68.167 -60 94.5s-56.167 47 -91.5 62s-74.333 22.5 -117 22.5c-44.667 0 -86.167 -8.5 -124.5 -25.5
s-71.5 -40.5 -99.5 -70.5s-49.833 -65.333 -65.5 -106s-23.5 -85 -23.5 -133c0 -42.667 7.16699 -81.667 21.5 -117s34.333 -65.833 60 -91.5s56.334 -45.667 92.001 -60s74.5 -21.5 116.5 -21.5c45.333 0 87.166 8.16699 125.499 24.5s71.333 38.833 99 67.5
s49.334 63 65.001 103s23.5 83.333 23.5 130z" />
    <glyph glyph-name="oe" unicode="&#x153;" horiz-adv-x="883" 
d="M868 87c-26.667 -36 -54.8291 -62.0029 -84.4961 -78.0029s-64.5 -24 -104.5 -24c-22.667 0 -44.834 2.83301 -66.501 8.5s-41.167 13.834 -58.5 24.501c-16.667 10 -29.667 20.167 -39 30.5s-20 26.5 -32 48.5c-48 -74.667 -116 -112 -204 -112c-35.333 0 -68 6 -98 18
s-55.833 28.833 -77.5 50.5s-38.667 47.334 -51 77.001s-18.5 61.834 -18.5 96.501c0 36 6.33301 69.167 19 99.5s30.167 56.5 52.5 78.5s49 39.333 80 52s64.5 19 100.5 19c57.333 0 106.666 -15.333 147.999 -46c14 -10.667 25 -20.5 33 -29.5s17.333 -23.167 28 -42.5
c11.333 18.667 20.666 32.5 27.999 41.5s17.333 18.5 30 28.5c40 32 85.333 48 136 48c32 0 60.667 -5.5 86 -16.5s47 -26.833 65 -47.5s31.833 -45.5 41.5 -74.5s14.5 -61.5 14.5 -97.5v-13.5c0 -5 -0.333008 -10.5 -1 -16.5h-365
c1.33301 -19.333 2.83301 -33.833 4.5 -43.5s5.16699 -20.5 10.5 -32.5c10 -22.667 27.333 -41 52 -55s52 -21 82 -21c53.333 0 95.666 23 126.999 69zM454.005 236.997c0 24.667 -4.16406 47.1689 -12.4971 67.502s-20 37.833 -35 52.5s-32.833 26 -53.5 34
s-43.334 12 -68.001 12s-47.334 -4.5 -68.001 -13.5s-38.5 -21.333 -53.5 -37s-26.833 -34.334 -35.5 -56.001s-13 -45.5 -13 -71.5c0 -24 4.16699 -46.333 12.5 -67s19.666 -38.334 33.999 -53.001s31.5 -26.167 51.5 -34.5s42 -12.5 66 -12.5
c24.667 0 47.667 4.66699 69 14s39.833 22 55.5 38s28 34.833 37 56.5s13.5 45.167 13.5 70.5zM819.008 275.999c-2.66699 40.667 -15.333 72 -38 94s-54 33 -94 33s-73 -11 -99 -33s-43.333 -53.333 -52 -94h283z" />
    <glyph glyph-name="Racute" unicode="&#x154;" horiz-adv-x="543" 
d="M226 860l138 163l79 -37l-171 -153zM270 750c38 0 69.332 -3.16699 93.999 -9.5s46.334 -16.5 65.001 -30.5c21.333 -17.333 38.333 -39.833 51 -67.5s19 -57.5 19 -89.5c0 -60.667 -18.333 -110 -55 -148s-87.667 -60.667 -153 -68l206 -337h-92l-197 332h-30l-41 -332
h-82l92 750h123zM233.999 400c34 0 61.168 2.83301 81.501 8.5s38.166 15.5 53.499 29.5c14 13.333 25.167 30.333 33.5 51s12.5 42 12.5 64c0 80.667 -49 121 -147 121h-48l-33 -274h47z" />
    <glyph glyph-name="racute" unicode="&#x155;" horiz-adv-x="342" 
d="M112 570l138 163l79 -37l-171 -153zM308 379c-11.333 6 -20.834 10.333 -28.501 13s-16.167 4 -25.5 4c-11.333 0 -21.666 -2 -30.999 -6c-23.333 -9.33301 -41.5 -26.166 -54.5 -50.499s-22.167 -58.5 -27.5 -102.5l-29 -237h-78l56 460h78l-6 -52
c14.667 15.333 26 26.166 34 32.499s17 12.166 27 17.499c17.333 9.33301 37.333 14 60 14c14 0 26 -1.66699 36 -5s22.333 -10.666 37 -21.999z" />
    <glyph glyph-name="uni0156" unicode="&#x156;" horiz-adv-x="543" 
d="M270 750c38 0 69.332 -3.16699 93.999 -9.5s46.334 -16.5 65.001 -30.5c21.333 -17.333 38.333 -39.833 51 -67.5s19 -57.5 19 -89.5c0 -60.667 -18.333 -110 -55 -148s-87.667 -60.667 -153 -68l206 -337h-92l-197 332h-30l-41 -332h-82l92 750h123zM233.999 400
c34 0 61.168 2.83301 81.501 8.5s38.166 15.5 53.499 29.5c14 13.333 25.167 30.333 33.5 51s12.5 42 12.5 64c0 80.667 -49 121 -147 121h-48l-33 -274h47zM199 -65h75l-40 -220h-51z" />
    <glyph glyph-name="uni0157" unicode="&#x157;" horiz-adv-x="342" 
d="M308 379c-11.333 6 -20.834 10.333 -28.501 13s-16.167 4 -25.5 4c-11.333 0 -21.666 -2 -30.999 -6c-23.333 -9.33301 -41.5 -26.166 -54.5 -50.499s-22.167 -58.5 -27.5 -102.5l-29 -237h-78l56 460h78l-6 -52c14.667 15.333 26 26.166 34 32.499s17 12.166 27 17.499
c17.333 9.33301 37.333 14 60 14c14 0 26 -1.66699 36 -5s22.333 -10.666 37 -21.999zM27.999 -65h75l-40 -220h-51z" />
    <glyph glyph-name="Rcaron" unicode="&#x158;" horiz-adv-x="543" 
d="M185 972l63 44l88 -85l110 85l50 -44l-171 -133zM270 750c38 0 69.332 -3.16699 93.999 -9.5s46.334 -16.5 65.001 -30.5c21.333 -17.333 38.333 -39.833 51 -67.5s19 -57.5 19 -89.5c0 -60.667 -18.333 -110 -55 -148s-87.667 -60.667 -153 -68l206 -337h-92l-197 332
h-30l-41 -332h-82l92 750h123zM233.999 400c34 0 61.168 2.83301 81.501 8.5s38.166 15.5 53.499 29.5c14 13.333 25.167 30.333 33.5 51s12.5 42 12.5 64c0 80.667 -49 121 -147 121h-48l-33 -274h47z" />
    <glyph glyph-name="rcaron" unicode="&#x159;" horiz-adv-x="342" 
d="M71 682l63 44l88 -85l110 85l50 -44l-171 -133zM308 379c-11.333 6 -20.834 10.333 -28.501 13s-16.167 4 -25.5 4c-11.333 0 -21.666 -2 -30.999 -6c-23.333 -9.33301 -41.5 -26.166 -54.5 -50.499s-22.167 -58.5 -27.5 -102.5l-29 -237h-78l56 460h78l-6 -52
c14.667 15.333 26 26.166 34 32.499s17 12.166 27 17.499c17.333 9.33301 37.333 14 60 14c14 0 26 -1.66699 36 -5s22.333 -10.666 37 -21.999z" />
    <glyph glyph-name="Sacute" unicode="&#x15a;" horiz-adv-x="507" 
d="M230 860l138 163l79 -37l-171 -153zM443 594c-8.66699 16 -15.8301 28.0049 -21.4971 36.0049s-13.167 16 -22.5 24c-25.333 21.333 -55.333 32 -90 32c-18 0 -34.667 -3.16699 -50 -9.5s-28.666 -15 -39.999 -26s-20.333 -23.833 -27 -38.5s-10 -30.667 -10 -48
c0 -14 1.66699 -26.333 5 -37s9.5 -21.334 18.5 -32.001s21 -21.667 36 -33s34.5 -24 58.5 -38l40.5 -26c12.333 -8 23.833 -16 34.5 -24c60.667 -44.667 91 -102.334 91 -173.001c0 -31.333 -5.5 -60.333 -16.5 -87s-26.5 -49.5 -46.5 -68.5s-43.833 -33.833 -71.5 -44.5
s-57.834 -16 -90.501 -16c-31.333 0 -61.166 5.33301 -89.499 16s-53.166 26 -74.499 46l-18.5 19c-5.66699 6 -10.834 12.833 -15.501 20.5s-9.33398 16.167 -14.001 25.5s-10 20.666 -16 33.999l65 38c8.66699 -19.333 15.667 -34 21 -44s12.666 -19.667 21.999 -29
c14.667 -15.333 32.167 -27 52.5 -35s42.166 -12 65.499 -12c42 0 76.167 13.333 102.5 40s39.5 61.334 39.5 104.001c0 15.333 -1.83301 29.166 -5.5 41.499s-10.334 24.333 -20.001 36s-22.667 23.667 -39 36s-37.5 26.166 -63.5 41.499c-32 19.333 -59 37.333 -81 54
c-48.667 38 -73 87.333 -73 148c0 29.333 5.16699 56.166 15.5 80.499s24.833 45.333 43.5 63s41 31.5 67 41.5s54.333 15 85 15c55.333 0 101.666 -17.333 138.999 -52c10.667 -9.33301 19.334 -18.5 26.001 -27.5s15 -22.833 25 -41.5z" />
    <glyph glyph-name="sacute" unicode="&#x15b;" horiz-adv-x="380" 
d="M131 570l138 163l79 -37l-171 -153zM299 368c-29.333 23.333 -58.3311 35.001 -86.998 35.001c-21.333 0 -39.166 -5.83301 -53.499 -17.5s-21.5 -26.167 -21.5 -43.5c0 -11.333 2.33301 -20.666 7 -27.999c5.33301 -8.66699 12.666 -16.334 21.999 -23.001
s26.333 -15.667 51 -27c21.333 -10 39.166 -19.833 53.499 -29.5s25.666 -19.834 33.999 -30.501s14.333 -22.167 18 -34.5s5.5 -26.5 5.5 -42.5c0 -20.667 -4 -39.667 -12 -57s-19.333 -32.333 -34 -45s-31.834 -22.5 -51.501 -29.5s-41.5 -10.5 -65.5 -10.5
c-19.333 0 -37 2.33301 -53 7s-31.333 12.667 -46 24c-12 8.66699 -21.833 17.5 -29.5 26.5s-16.5 22.5 -26.5 40.5l60 38c13.333 -22.667 27.333 -38.834 42 -48.501s32.667 -14.5 54 -14.5c24 0 43.333 6.33301 58 19s22 29 22 49c0 13.333 -2.33301 23.333 -7 30
c-4.66699 8.66699 -12.167 16.334 -22.5 23.001s-29.166 16.667 -56.499 30c-37.333 17.333 -64 36 -80 56s-24 44.333 -24 73c0 20 3.83301 38.333 11.5 55s18.5 31.167 32.5 43.5s30.5 22 49.5 29s39.833 10.5 62.5 10.5c27.333 0 51.5 -4.5 72.5 -13.5
s42.5 -23.833 64.5 -44.5z" />
    <glyph glyph-name="Scedilla" unicode="&#x15e;" horiz-adv-x="507" 
d="M443 594c-8.66699 16 -15.8301 28.0049 -21.4971 36.0049s-13.167 16 -22.5 24c-25.333 21.333 -55.333 32 -90 32c-18 0 -34.667 -3.16699 -50 -9.5s-28.666 -15 -39.999 -26s-20.333 -23.833 -27 -38.5s-10 -30.667 -10 -48c0 -14 1.66699 -26.333 5 -37
s9.5 -21.334 18.5 -32.001s21 -21.667 36 -33s34.5 -24 58.5 -38l40.5 -26c12.333 -8 23.833 -16 34.5 -24c60.667 -44.667 91 -102.334 91 -173.001c0 -31.333 -5.5 -60.333 -16.5 -87s-26.5 -49.5 -46.5 -68.5s-43.833 -33.833 -71.5 -44.5s-57.834 -16 -90.501 -16
c-31.333 0 -61.166 5.33301 -89.499 16s-53.166 26 -74.499 46l-18.5 19c-5.66699 6 -10.834 12.833 -15.501 20.5s-9.33398 16.167 -14.001 25.5s-10 20.666 -16 33.999l65 38c8.66699 -19.333 15.667 -34 21 -44s12.666 -19.667 21.999 -29
c14.667 -15.333 32.167 -27 52.5 -35s42.166 -12 65.499 -12c42 0 76.167 13.333 102.5 40s39.5 61.334 39.5 104.001c0 15.333 -1.83301 29.166 -5.5 41.499s-10.334 24.333 -20.001 36s-22.667 23.667 -39 36s-37.5 26.166 -63.5 41.499c-32 19.333 -59 37.333 -81 54
c-48.667 38 -73 87.333 -73 148c0 29.333 5.16699 56.166 15.5 80.499s24.833 45.333 43.5 63s41 31.5 67 41.5s54.333 15 85 15c55.333 0 101.666 -17.333 138.999 -52c10.667 -9.33301 19.334 -18.5 26.001 -27.5s15 -22.833 25 -41.5zM141.004 -204.995l95 147l74 -30
l-113 -145z" />
    <glyph glyph-name="scedilla" unicode="&#x15f;" horiz-adv-x="380" 
d="M299 368c-29.333 23.333 -58.3311 35.001 -86.998 35.001c-21.333 0 -39.166 -5.83301 -53.499 -17.5s-21.5 -26.167 -21.5 -43.5c0 -11.333 2.33301 -20.666 7 -27.999c5.33301 -8.66699 12.666 -16.334 21.999 -23.001s26.333 -15.667 51 -27
c21.333 -10 39.166 -19.833 53.499 -29.5s25.666 -19.834 33.999 -30.501s14.333 -22.167 18 -34.5s5.5 -26.5 5.5 -42.5c0 -20.667 -4 -39.667 -12 -57s-19.333 -32.333 -34 -45s-31.834 -22.5 -51.501 -29.5s-41.5 -10.5 -65.5 -10.5c-19.333 0 -37 2.33301 -53 7
s-31.333 12.667 -46 24c-12 8.66699 -21.833 17.5 -29.5 26.5s-16.5 22.5 -26.5 40.5l60 38c13.333 -22.667 27.333 -38.834 42 -48.501s32.667 -14.5 54 -14.5c24 0 43.333 6.33301 58 19s22 29 22 49c0 13.333 -2.33301 23.333 -7 30
c-4.66699 8.66699 -12.167 16.334 -22.5 23.001s-29.166 16.667 -56.499 30c-37.333 17.333 -64 36 -80 56s-24 44.333 -24 73c0 20 3.83301 38.333 11.5 55s18.5 31.167 32.5 43.5s30.5 22 49.5 29s39.833 10.5 62.5 10.5c27.333 0 51.5 -4.5 72.5 -13.5
s42.5 -23.833 64.5 -44.5zM77.002 -204.999l95 147l74 -30l-113 -145z" />
    <glyph glyph-name="Scaron" unicode="&#x160;" horiz-adv-x="507" 
d="M189 972l63 44l88 -85l110 85l50 -44l-171 -133zM443 594c-8.66699 16 -15.8301 28.0049 -21.4971 36.0049s-13.167 16 -22.5 24c-25.333 21.333 -55.333 32 -90 32c-18 0 -34.667 -3.16699 -50 -9.5s-28.666 -15 -39.999 -26s-20.333 -23.833 -27 -38.5
s-10 -30.667 -10 -48c0 -14 1.66699 -26.333 5 -37s9.5 -21.334 18.5 -32.001s21 -21.667 36 -33s34.5 -24 58.5 -38l40.5 -26c12.333 -8 23.833 -16 34.5 -24c60.667 -44.667 91 -102.334 91 -173.001c0 -31.333 -5.5 -60.333 -16.5 -87s-26.5 -49.5 -46.5 -68.5
s-43.833 -33.833 -71.5 -44.5s-57.834 -16 -90.501 -16c-31.333 0 -61.166 5.33301 -89.499 16s-53.166 26 -74.499 46l-18.5 19c-5.66699 6 -10.834 12.833 -15.501 20.5s-9.33398 16.167 -14.001 25.5s-10 20.666 -16 33.999l65 38c8.66699 -19.333 15.667 -34 21 -44
s12.666 -19.667 21.999 -29c14.667 -15.333 32.167 -27 52.5 -35s42.166 -12 65.499 -12c42 0 76.167 13.333 102.5 40s39.5 61.334 39.5 104.001c0 15.333 -1.83301 29.166 -5.5 41.499s-10.334 24.333 -20.001 36s-22.667 23.667 -39 36s-37.5 26.166 -63.5 41.499
c-32 19.333 -59 37.333 -81 54c-48.667 38 -73 87.333 -73 148c0 29.333 5.16699 56.166 15.5 80.499s24.833 45.333 43.5 63s41 31.5 67 41.5s54.333 15 85 15c55.333 0 101.666 -17.333 138.999 -52c10.667 -9.33301 19.334 -18.5 26.001 -27.5s15 -22.833 25 -41.5z" />
    <glyph glyph-name="scaron" unicode="&#x161;" horiz-adv-x="380" 
d="M90 682l63 44l88 -85l110 85l50 -44l-171 -133zM299 368c-29.333 23.333 -58.3311 35.001 -86.998 35.001c-21.333 0 -39.166 -5.83301 -53.499 -17.5s-21.5 -26.167 -21.5 -43.5c0 -11.333 2.33301 -20.666 7 -27.999c5.33301 -8.66699 12.666 -16.334 21.999 -23.001
s26.333 -15.667 51 -27c21.333 -10 39.166 -19.833 53.499 -29.5s25.666 -19.834 33.999 -30.501s14.333 -22.167 18 -34.5s5.5 -26.5 5.5 -42.5c0 -20.667 -4 -39.667 -12 -57s-19.333 -32.333 -34 -45s-31.834 -22.5 -51.501 -29.5s-41.5 -10.5 -65.5 -10.5
c-19.333 0 -37 2.33301 -53 7s-31.333 12.667 -46 24c-12 8.66699 -21.833 17.5 -29.5 26.5s-16.5 22.5 -26.5 40.5l60 38c13.333 -22.667 27.333 -38.834 42 -48.501s32.667 -14.5 54 -14.5c24 0 43.333 6.33301 58 19s22 29 22 49c0 13.333 -2.33301 23.333 -7 30
c-4.66699 8.66699 -12.167 16.334 -22.5 23.001s-29.166 16.667 -56.499 30c-37.333 17.333 -64 36 -80 56s-24 44.333 -24 73c0 20 3.83301 38.333 11.5 55s18.5 31.167 32.5 43.5s30.5 22 49.5 29s39.833 10.5 62.5 10.5c27.333 0 51.5 -4.5 72.5 -13.5
s42.5 -23.833 64.5 -44.5z" />
    <glyph glyph-name="uni0162" unicode="&#x162;" horiz-adv-x="456" 
d="M320 674l-83 -674h-82l83 674h-187l9 76h450l-10 -76h-180zM115 -205l95 147l74 -30l-113 -145z" />
    <glyph glyph-name="uni0163" unicode="&#x163;" horiz-adv-x="253" 
d="M162 394l-48 -394h-79l48 394h-57l9 72h57l23 190h78l-23 -190h90l-8 -72h-90zM-7 -205l95 147l74 -30l-113 -145z" />
    <glyph glyph-name="Tcaron" unicode="&#x164;" horiz-adv-x="456" 
d="M163 972l63 44l88 -85l110 85l50 -44l-171 -133zM320 674l-83 -674h-82l83 674h-187l9 76h450l-10 -76h-180z" />
    <glyph glyph-name="tcaron" unicode="&#x165;" horiz-adv-x="253" 
d="M232 575l21 178l79 -7l-50 -176zM162 394l-48 -394h-79l48 394h-57l9 72h57l23 190h78l-23 -190h90l-8 -72h-90z" />
    <glyph glyph-name="Tbar" unicode="&#x166;" horiz-adv-x="456" 
d="M320 674l-22 -179h148l-8 -70h-149l-52 -425h-82l52 425h-145l8 70h146l22 179h-187l9 76h450l-10 -76h-180z" />
    <glyph glyph-name="tbar" unicode="&#x167;" horiz-adv-x="253" 
d="M162 394l-8 -64h83l-8 -70h-83l-32 -260h-79l32 260h-47l8 70h47l8 64h-57l9 72h57l23 190h78l-23 -190h90l-8 -72h-90z" />
    <glyph glyph-name="Umacron" unicode="&#x16a;" horiz-adv-x="707" 
d="M271 941h340l-8 -67h-340zM625 290c-6 -47.333 -13.9961 -86.665 -23.9961 -117.998c-17.333 -58.667 -48.833 -104.5 -94.5 -137.5s-99.834 -49.5 -162.501 -49.5c-38.667 0 -74.167 5.66699 -106.5 17s-60.166 27.166 -83.499 47.499s-41.333 44.833 -54 73.5
s-19 60.334 -19 95.001c0 12.667 0.5 25.167 1.5 37.5s2.16699 25.166 3.5 38.499l56 456h82l-56 -464c-1.33301 -10 -2.33301 -19.833 -3 -29.5s-1 -19.167 -1 -28.5c0 -23.333 2.16699 -42.666 6.5 -57.999s12.166 -30 23.499 -44c15.333 -19.333 35.833 -34.5 61.5 -45.5
s53.5 -16.5 83.5 -16.5c28.667 0 55.167 5 79.5 15s45.166 24.333 62.499 43c17.333 19.333 30.666 42.166 39.999 68.499s16.666 62.166 21.999 107.499l56 452h82z" />
    <glyph glyph-name="umacron" unicode="&#x16b;" horiz-adv-x="501" 
d="M133 651h340l-8 -67h-340zM428 190c-2.66699 -20 -5.33203 -37.333 -7.99902 -52s-6 -27.5 -10 -38.5s-8.66699 -20.667 -14 -29s-12 -16.5 -20 -24.5c-17.333 -18.667 -38.666 -32.834 -63.999 -42.501s-53 -14.5 -83 -14.5c-54 0 -96.333 13.833 -127 41.5
s-46 65.834 -46 114.501c0 9.33301 0.333008 18.833 1 28.5s1.66699 19.834 3 30.501l31 256h79l-32 -264c-2 -18.667 -3 -35.334 -3 -50.001c0 -26 8.66699 -46.667 26 -62s41 -23 71 -23c19.333 0 37.166 3.66699 53.499 11s29.166 17.666 38.499 30.999
c6.66699 8.66699 11.667 18.834 15 30.501s6.33301 28.5 9 50.5l33 276h79z" />
    <glyph glyph-name="Uring" unicode="&#x16e;" horiz-adv-x="707" 
d="M417 826c-12.667 0 -24.834 2.5 -36.501 7.5s-22 11.833 -31 20.5s-16 18.834 -21 30.501s-7.5 24.167 -7.5 37.5c0 27.333 9.33301 50.333 28 69s41.667 28 69 28c26.667 0 49.334 -9.33301 68.001 -28s28 -41.334 28 -68.001c0 -27.333 -9.33301 -50.333 -28 -69
s-41.667 -28 -69 -28zM418 876c13.333 0 24.5 4.49902 33.5 13.499s13.5 20.167 13.5 33.5s-4.5 24.5 -13.5 33.5s-20.167 13.5 -33.5 13.5s-24.666 -4.5 -33.999 -13.5s-14 -19.833 -14 -32.5c0 -13.333 4.66699 -24.666 14 -33.999s20.666 -14 33.999 -14zM625 289.999
c-6 -47.333 -13.9961 -86.665 -23.9961 -117.998c-17.333 -58.667 -48.833 -104.5 -94.5 -137.5s-99.834 -49.5 -162.501 -49.5c-38.667 0 -74.167 5.66699 -106.5 17s-60.166 27.166 -83.499 47.499s-41.333 44.833 -54 73.5s-19 60.334 -19 95.001
c0 12.667 0.5 25.167 1.5 37.5s2.16699 25.166 3.5 38.499l56 456h82l-56 -464c-1.33301 -10 -2.33301 -19.833 -3 -29.5s-1 -19.167 -1 -28.5c0 -23.333 2.16699 -42.666 6.5 -57.999s12.166 -30 23.499 -44c15.333 -19.333 35.833 -34.5 61.5 -45.5s53.5 -16.5 83.5 -16.5
c28.667 0 55.167 5 79.5 15s45.166 24.333 62.499 43c17.333 19.333 30.666 42.166 39.999 68.499s16.666 62.166 21.999 107.499l56 452h82z" />
    <glyph glyph-name="uring" unicode="&#x16f;" horiz-adv-x="501" 
d="M279 536c-12.667 0 -24.834 2.5 -36.501 7.5s-22 11.833 -31 20.5s-16 18.834 -21 30.501s-7.5 24.167 -7.5 37.5c0 27.333 9.33301 50.333 28 69s41.667 28 69 28c26.667 0 49.334 -9.33301 68.001 -28s28 -41.334 28 -68.001c0 -27.333 -9.33301 -50.333 -28 -69
s-41.667 -28 -69 -28zM280 586c13.333 0 24.5 4.49902 33.5 13.499s13.5 20.167 13.5 33.5s-4.5 24.5 -13.5 33.5s-20.167 13.5 -33.5 13.5s-24.666 -4.5 -33.999 -13.5s-14 -19.833 -14 -32.5c0 -13.333 4.66699 -24.666 14 -33.999s20.666 -14 33.999 -14zM428 189.999
c-2.66699 -20 -5.33203 -37.333 -7.99902 -52s-6 -27.5 -10 -38.5s-8.66699 -20.667 -14 -29s-12 -16.5 -20 -24.5c-17.333 -18.667 -38.666 -32.834 -63.999 -42.501s-53 -14.5 -83 -14.5c-54 0 -96.333 13.833 -127 41.5s-46 65.834 -46 114.501
c0 9.33301 0.333008 18.833 1 28.5s1.66699 19.834 3 30.501l31 256h79l-32 -264c-2 -18.667 -3 -35.334 -3 -50.001c0 -26 8.66699 -46.667 26 -62s41 -23 71 -23c19.333 0 37.166 3.66699 53.499 11s29.166 17.666 38.499 30.999c6.66699 8.66699 11.667 18.834 15 30.501
s6.33301 28.5 9 50.5l33 276h79z" />
    <glyph glyph-name="Uhungarumlaut" unicode="&#x170;" horiz-adv-x="707" 
d="M243 853l119 163l79 -36l-151 -153zM393 853l119 163l79 -36l-151 -153zM625 290c-6 -47.333 -13.9961 -86.665 -23.9961 -117.998c-17.333 -58.667 -48.833 -104.5 -94.5 -137.5s-99.834 -49.5 -162.501 -49.5c-38.667 0 -74.167 5.66699 -106.5 17
s-60.166 27.166 -83.499 47.499s-41.333 44.833 -54 73.5s-19 60.334 -19 95.001c0 12.667 0.5 25.167 1.5 37.5s2.16699 25.166 3.5 38.499l56 456h82l-56 -464c-1.33301 -10 -2.33301 -19.833 -3 -29.5s-1 -19.167 -1 -28.5c0 -23.333 2.16699 -42.666 6.5 -57.999
s12.166 -30 23.499 -44c15.333 -19.333 35.833 -34.5 61.5 -45.5s53.5 -16.5 83.5 -16.5c28.667 0 55.167 5 79.5 15s45.166 24.333 62.499 43c17.333 19.333 30.666 42.166 39.999 68.499s16.666 62.166 21.999 107.499l56 452h82z" />
    <glyph glyph-name="uhungarumlaut" unicode="&#x171;" horiz-adv-x="501" 
d="M105 563l119 163l79 -36l-151 -153zM255 563l119 163l79 -36l-151 -153zM428 190c-2.66699 -20 -5.33203 -37.333 -7.99902 -52s-6 -27.5 -10 -38.5s-8.66699 -20.667 -14 -29s-12 -16.5 -20 -24.5c-17.333 -18.667 -38.666 -32.834 -63.999 -42.501s-53 -14.5 -83 -14.5
c-54 0 -96.333 13.833 -127 41.5s-46 65.834 -46 114.501c0 9.33301 0.333008 18.833 1 28.5s1.66699 19.834 3 30.501l31 256h79l-32 -264c-2 -18.667 -3 -35.334 -3 -50.001c0 -26 8.66699 -46.667 26 -62s41 -23 71 -23c19.333 0 37.166 3.66699 53.499 11
s29.166 17.666 38.499 30.999c6.66699 8.66699 11.667 18.834 15 30.501s6.33301 28.5 9 50.5l33 276h79z" />
    <glyph glyph-name="Uogonek" unicode="&#x172;" horiz-adv-x="707" 
d="M681 750l-55.999 -459.997c-6 -47.333 -14 -86.666 -24 -117.999c-9.33301 -31.333 -23 -59.166 -41 -83.499s-39.333 -44.5 -64 -60.5c-5.33301 -4.66699 -11.833 -10.667 -19.5 -18s-15 -15.5 -22 -24.5s-13.167 -18.5 -18.5 -28.5s-8.66602 -20 -9.99902 -30
c-1.33301 -13.333 1.66699 -23.833 9 -31.5s17.666 -11.5 30.999 -11.5c6 0 11.833 0.666992 17.5 2s10.834 2.66602 15.501 3.99902c4.66699 2 9.33398 4.33301 14.001 7l-22 -65c-6 -3.33301 -12.667 -6.33301 -20 -9c-6 -2 -13 -3.83301 -21 -5.5s-16.667 -2.5 -26 -2.5
c-24 0 -43.667 7.16699 -59 21.5s-21.333 34.166 -18 59.499c1.33301 11.333 4.5 22 9.5 32s10.833 19.167 17.5 27.5s13.5 15.666 20.5 21.999s13.167 11.5 18.5 15.5c-23.333 -5.33301 -46.333 -8 -69 -8c-38.667 0 -74.167 5.66699 -106.5 17
s-60.166 27.166 -83.499 47.499s-41.333 44.833 -54 73.5s-19 60.334 -19 95.001c0 12.667 0.5 25.167 1.5 37.5s2.16699 25.166 3.5 38.499l56 456h82l-56 -464c-1.33301 -10 -2.33301 -19.833 -3 -29.5s-1 -19.167 -1 -28.5c0 -23.333 2.16699 -42.666 6.5 -57.999
s12.166 -30 23.499 -44c15.333 -19.333 35.833 -34.5 61.5 -45.5s53.5 -16.5 83.5 -16.5c28.667 0 55.167 5 79.5 15s45.166 24.333 62.499 43c17.333 19.333 30.666 42.166 39.999 68.499s16.666 62.166 21.999 107.499l56 452h82z" />
    <glyph glyph-name="uogonek" unicode="&#x173;" horiz-adv-x="501" 
d="M460 460l-31.998 -269.998c-2.66699 -20 -5.33398 -37.333 -8.00098 -52s-6 -27.5 -10 -38.5s-8.66699 -20.667 -14 -29s-12 -16.5 -20 -24.5c-8.66699 -10 -19 -18.667 -31 -26c-11.333 -10.667 -23.666 -24.334 -36.999 -41.001s-21.333 -34 -24 -52
c-1.33301 -13.333 1.66699 -23.833 9 -31.5s17.666 -11.5 30.999 -11.5c6 0 11.833 0.666992 17.5 2s10.834 2.66602 15.501 3.99902c4.66699 2 9.33398 4.33301 14.001 7l-22 -65c-6 -3.33301 -12.667 -6.33301 -20 -9c-6 -2 -13 -3.83301 -21 -5.5s-16.667 -2.5 -26 -2.5
c-24 0 -43.667 7.16699 -59 21.5s-21.333 34.166 -18 59.499c1.33301 11.333 4.5 22 9.5 32s10.667 19 17 27s13 15.167 20 21.5s13.167 11.5 18.5 15.5c-12.667 -2 -26.334 -3 -41.001 -3c-54 0 -96.333 13.833 -127 41.5s-46 65.834 -46 114.501
c0 9.33301 0.333008 18.833 1 28.5s1.66699 19.834 3 30.501l31 256h79l-32 -264c-2 -18.667 -3 -35.334 -3 -50.001c0 -26 8.66699 -46.667 26 -62s41 -23 71 -23c19.333 0 37.166 3.66699 53.499 11s29.166 17.666 38.499 30.999c6.66699 8.66699 11.667 18.834 15 30.501
s6.33301 28.5 9 50.5l33 276h79z" />
    <glyph glyph-name="Wcircumflex" unicode="&#x174;" horiz-adv-x="1006" 
d="M738 883l-63 -44l-88 85l-110 -85l-50 44l171 133zM543 550l-285 -584l-197 784h85l139 -564l280 586l144 -584l267 562h91l-382 -784z" />
    <glyph glyph-name="wcircumflex" unicode="&#x175;" horiz-adv-x="702" 
d="M551 593l-63 -44l-88 85l-110 -85l-50 44l171 133zM351 293l-183 -332l-153 499h83l93 -318l181 328l97 -328l173 318h89l-281 -499z" />
    <glyph glyph-name="Ycircumflex" unicode="&#x176;" 
d="M517 883l-63 -44l-88 85l-110 -85l-50 44l171 133zM288 0h-83l43 342l-195 408h90l156 -329l227 329h97l-294 -417z" />
    <glyph glyph-name="ycircumflex" unicode="&#x177;" horiz-adv-x="479" 
d="M440 593l-63 -44l-88 85l-110 -85l-50 44l171 133zM15 -263l172 307l-148 416h84l112 -329l183 329h90l-404 -723h-89z" />
    <glyph glyph-name="Ydieresis" unicode="&#x178;" 
d="M269 866c-15.333 0 -28.667 5.33301 -40 16s-17 23.667 -17 39c0 16.667 5.5 30.5 16.5 41.5s24.5 16.5 40.5 16.5c15.333 0 28.5 -5.5 39.5 -16.5s16.5 -24.167 16.5 -39.5c0 -16 -5.5 -29.5 -16.5 -40.5s-24.167 -16.5 -39.5 -16.5zM464.999 866
c-15.333 0 -28.667 5.33301 -40 16s-17 23.667 -17 39c0 16.667 5.5 30.5 16.5 41.5s24.5 16.5 40.5 16.5c15.333 0 28.5 -5.5 39.5 -16.5s16.5 -24.167 16.5 -39.5c0 -16 -5.5 -29.5 -16.5 -40.5s-24.167 -16.5 -39.5 -16.5zM287.998 0h-83l43 342l-195 408h90l156 -329
l227 329h97l-294 -417z" />
    <glyph glyph-name="Zacute" unicode="&#x179;" horiz-adv-x="665" 
d="M309 860l138 163l79 -37l-171 -153zM565 77l-10 -77h-533l496 674h-360l9 76h502l-497 -673h393z" />
    <glyph glyph-name="zacute" unicode="&#x17a;" horiz-adv-x="507" 
d="M195 570l138 163l79 -37l-171 -153zM454 72l-9 -72h-443l341 389h-258l8 71h405l-341 -388h297z" />
    <glyph glyph-name="Zdotaccent" unicode="&#x17b;" horiz-adv-x="665" 
d="M417 863c-16 0 -29.833 5.66602 -41.5 16.999s-17.5 25 -17.5 41c0 16.667 5.66699 30.834 17 42.501s25.333 17.5 42 17.5c16 0 29.833 -5.83301 41.5 -17.5s17.5 -25.5 17.5 -41.5c0 -16.667 -5.66699 -30.667 -17 -42s-25.333 -17 -42 -17zM565 76.999l-10 -77h-533
l496 674h-360l9 76h502l-497 -673h393z" />
    <glyph glyph-name="zdotaccent" unicode="&#x17c;" horiz-adv-x="507" 
d="M303 573c-16 0 -29.833 5.66602 -41.5 16.999s-17.5 25 -17.5 41c0 16.667 5.66699 30.834 17 42.501s25.333 17.5 42 17.5c16 0 29.833 -5.83301 41.5 -17.5s17.5 -25.5 17.5 -41.5c0 -16.667 -5.66699 -30.667 -17 -42s-25.333 -17 -42 -17zM454 71.999l-9 -72h-443
l341 389h-258l8 71h405l-341 -388h297z" />
    <glyph glyph-name="Zcaron" unicode="&#x17d;" horiz-adv-x="665" 
d="M268 972l63 44l88 -85l110 85l50 -44l-171 -133zM565 77l-10 -77h-533l496 674h-360l9 76h502l-497 -673h393z" />
    <glyph glyph-name="zcaron" unicode="&#x17e;" horiz-adv-x="507" 
d="M154 682l63 44l88 -85l110 85l50 -44l-171 -133zM454 72l-9 -72h-443l341 389h-258l8 71h405l-341 -388h297z" />
    <glyph glyph-name="florin" unicode="&#x192;" horiz-adv-x="638" 
d="M529 386h-121.996l-99 -324c-20.667 -70 -40.334 -118.667 -59.001 -146c-20 -32 -45.333 -56.333 -76 -73c-37.333 -19.333 -78 -29 -122 -29c-6.66699 0 -14.334 0.5 -23.001 1.5l-29 3.5l25 74h5.5c2.33301 0 5.16602 -0.333008 8.49902 -1h12
c11.333 0 21.5 0.5 30.5 1.5s17.167 2.16699 24.5 3.5c20 5.33301 38.333 15.333 55 30c10 8.66699 19.333 22 28 40c16.667 32 29.667 64.667 39 98l98 321h-81l19 67h83l51 169c14 46.667 32.667 83.667 56 111c31.333 35.333 74.666 53 129.999 53
c16.667 0 37.667 -3.66699 63 -11l-23 -75c-20 7.33301 -36.333 11 -49 11c-26.667 0 -47 -7.66699 -61 -23c-14 -16.667 -27.333 -46 -40 -88l-45 -147h120z" />
    <glyph glyph-name="uni0218" unicode="&#x218;" horiz-adv-x="507" 
d="M443 594c-8.66699 16 -15.8301 28.0049 -21.4971 36.0049s-13.167 16 -22.5 24c-25.333 21.333 -55.333 32 -90 32c-18 0 -34.667 -3.16699 -50 -9.5s-28.666 -15 -39.999 -26s-20.333 -23.833 -27 -38.5s-10 -30.667 -10 -48c0 -14 1.66699 -26.333 5 -37
s9.5 -21.334 18.5 -32.001s21 -21.667 36 -33s34.5 -24 58.5 -38l40.5 -26c12.333 -8 23.833 -16 34.5 -24c60.667 -44.667 91 -102.334 91 -173.001c0 -31.333 -5.5 -60.333 -16.5 -87s-26.5 -49.5 -46.5 -68.5s-43.833 -33.833 -71.5 -44.5s-57.834 -16 -90.501 -16
c-31.333 0 -61.166 5.33301 -89.499 16s-53.166 26 -74.499 46l-18.5 19c-5.66699 6 -10.834 12.833 -15.501 20.5s-9.33398 16.167 -14.001 25.5s-10 20.666 -16 33.999l65 38c8.66699 -19.333 15.667 -34 21 -44s12.666 -19.667 21.999 -29
c14.667 -15.333 32.167 -27 52.5 -35s42.166 -12 65.499 -12c42 0 76.167 13.333 102.5 40s39.5 61.334 39.5 104.001c0 15.333 -1.83301 29.166 -5.5 41.499s-10.334 24.333 -20.001 36s-22.667 23.667 -39 36s-37.5 26.166 -63.5 41.499c-32 19.333 -59 37.333 -81 54
c-48.667 38 -73 87.333 -73 148c0 29.333 5.16699 56.166 15.5 80.499s24.833 45.333 43.5 63s41 31.5 67 41.5s54.333 15 85 15c55.333 0 101.666 -17.333 138.999 -52c10.667 -9.33301 19.334 -18.5 26.001 -27.5s15 -22.833 25 -41.5zM181.004 -64.9951h75l-40 -220h-51z
" />
    <glyph glyph-name="uni0219" unicode="&#x219;" horiz-adv-x="380" 
d="M299 368c-29.333 23.333 -58.3311 35.001 -86.998 35.001c-21.333 0 -39.166 -5.83301 -53.499 -17.5s-21.5 -26.167 -21.5 -43.5c0 -11.333 2.33301 -20.666 7 -27.999c5.33301 -8.66699 12.666 -16.334 21.999 -23.001s26.333 -15.667 51 -27
c21.333 -10 39.166 -19.833 53.499 -29.5s25.666 -19.834 33.999 -30.501s14.333 -22.167 18 -34.5s5.5 -26.5 5.5 -42.5c0 -20.667 -4 -39.667 -12 -57s-19.333 -32.333 -34 -45s-31.834 -22.5 -51.501 -29.5s-41.5 -10.5 -65.5 -10.5c-19.333 0 -37 2.33301 -53 7
s-31.333 12.667 -46 24c-12 8.66699 -21.833 17.5 -29.5 26.5s-16.5 22.5 -26.5 40.5l60 38c13.333 -22.667 27.333 -38.834 42 -48.501s32.667 -14.5 54 -14.5c24 0 43.333 6.33301 58 19s22 29 22 49c0 13.333 -2.33301 23.333 -7 30
c-4.66699 8.66699 -12.167 16.334 -22.5 23.001s-29.166 16.667 -56.499 30c-37.333 17.333 -64 36 -80 56s-24 44.333 -24 73c0 20 3.83301 38.333 11.5 55s18.5 31.167 32.5 43.5s30.5 22 49.5 29s39.833 10.5 62.5 10.5c27.333 0 51.5 -4.5 72.5 -13.5
s42.5 -23.833 64.5 -44.5zM117.002 -64.999h75l-40 -220h-51z" />
    <glyph glyph-name="uni021A" unicode="&#x21a;" horiz-adv-x="456" 
d="M320 674l-83 -674h-82l83 674h-187l9 76h450l-10 -76h-180zM155 -65h75l-40 -220h-51z" />
    <glyph glyph-name="uni021B" unicode="&#x21b;" horiz-adv-x="253" 
d="M162 394l-48 -394h-79l48 394h-57l9 72h57l23 190h78l-23 -190h90l-8 -72h-90zM33 -65h75l-40 -220h-51z" />
    <glyph glyph-name="uni0237" unicode="&#x237;" horiz-adv-x="201" 
d="M-1 -263l91 723h79l-92 -723h-78z" />
    <glyph glyph-name="gravecomb" unicode="&#x300;" horiz-adv-x="0" 
d="M-493 696l83 37l119 -163l-50 -27z" />
    <glyph glyph-name="acutecomb" unicode="&#x301;" horiz-adv-x="0" 
d="M-373 570l138 163l79 -37l-171 -153z" />
    <glyph glyph-name="uni0302" unicode="&#x302;" horiz-adv-x="0" 
d="M-234 593l-63 -44l-88 85l-110 -85l-50 44l171 133z" />
    <glyph glyph-name="tildecomb" unicode="&#x303;" horiz-adv-x="0" 
d="M-172 654c-24 -53.333 -59 -80 -105 -80c-10.667 0 -20.667 1.33301 -30 4s-25 9 -47 19c-17.333 7.33301 -31.166 12.833 -41.499 16.5s-19.166 5.5 -26.499 5.5c-10 0 -18.667 -3.33301 -26 -10s-15 -18.667 -23 -36l-48 39c9.33301 14.667 15.833 24.5 19.5 29.5
s8.16699 10.833 13.5 17.5c8 9.33301 18.333 16.833 31 22.5s25.667 8.5 39 8.5c11.333 0 22.833 -1.66699 34.5 -5s26.167 -9 43.5 -17c21.333 -10 35.666 -16.333 42.999 -19s14.666 -4 21.999 -4c10.667 0 20 3.5 28 10.5s16.667 19.167 26 36.5z" />
    <glyph glyph-name="uni0304" unicode="&#x304;" horiz-adv-x="0" 
d="M-538 651h340l-8 -67h-340z" />
    <glyph glyph-name="uni0306" unicode="&#x306;" horiz-adv-x="0" 
d="M-180 701c-13.333 -42.667 -35.667 -75.833 -67 -99.5s-68.666 -35.5 -111.999 -35.5s-77.833 12 -103.5 36s-40.167 57 -43.5 99h68c7.33301 -24.667 17.666 -42.167 30.999 -52.5s32 -15.5 56 -15.5s43.667 5 59 15s30 27.667 44 53h68z" />
    <glyph glyph-name="uni0307" unicode="&#x307;" horiz-adv-x="0" 
d="M-362 573c-16 0 -29.833 5.66602 -41.5 16.999s-17.5 25 -17.5 41c0 16.667 5.66699 30.834 17 42.501s25.333 17.5 42 17.5c16 0 29.833 -5.83301 41.5 -17.5s17.5 -25.5 17.5 -41.5c0 -16.667 -5.66699 -30.667 -17 -42s-25.333 -17 -42 -17z" />
    <glyph glyph-name="uni0308" unicode="&#x308;" horiz-adv-x="0" 
d="M-487 576c-15.333 0 -28.667 5.33301 -40 16s-17 23.667 -17 39c0 16.667 5.5 30.5 16.5 41.5s24.5 16.5 40.5 16.5c15.333 0 28.5 -5.5 39.5 -16.5s16.5 -24.167 16.5 -39.5c0 -16 -5.5 -29.5 -16.5 -40.5s-24.167 -16.5 -39.5 -16.5zM-291.001 576
c-15.333 0 -28.667 5.33301 -40 16s-17 23.667 -17 39c0 16.667 5.5 30.5 16.5 41.5s24.5 16.5 40.5 16.5c15.333 0 28.5 -5.5 39.5 -16.5s16.5 -24.167 16.5 -39.5c0 -16 -5.5 -29.5 -16.5 -40.5s-24.167 -16.5 -39.5 -16.5z" />
    <glyph glyph-name="uni030A" unicode="&#x30a;" horiz-adv-x="0" 
d="M-377 536c-13.333 0 -25.668 2.5 -37.001 7.5s-21.5 11.833 -30.5 20.5s-16 18.834 -21 30.501s-7.5 24.167 -7.5 37.5c0 27.333 9.33301 50.333 28 69s41.667 28 69 28c26.667 0 49.334 -9.33301 68.001 -28s28 -41.334 28 -68.001c0 -27.333 -9.33301 -50.333 -28 -69
s-41.667 -28 -69 -28zM-376.002 586c13.333 0 24.5 4.49902 33.5 13.499s13.5 20.167 13.5 33.5s-4.5 24.5 -13.5 33.5s-20.167 13.5 -33.5 13.5s-24.666 -4.5 -33.999 -13.5s-14 -19.833 -14 -32.5c0 -13.333 4.66699 -24.666 14 -33.999s20.666 -14 33.999 -14z" />
    <glyph glyph-name="uni030B" unicode="&#x30b;" horiz-adv-x="0" 
d="M-483 563l119 163l79 -36l-151 -153zM-333 563l119 163l79 -36l-151 -153z" />
    <glyph glyph-name="uni030C" unicode="&#x30c;" horiz-adv-x="0" 
d="M-535 682l63 44l88 -85l110 85l50 -44l-171 -133z" />
    <glyph glyph-name="uni0312" unicode="&#x312;" horiz-adv-x="0" 
d="M-497 794h61l-13 -230h-91z" />
    <glyph glyph-name="dotbelowcomb" unicode="&#x323;" horiz-adv-x="0" 
d="M-362 -227c-16 0 -29.833 5.66602 -41.5 16.999s-17.5 25 -17.5 41c0 16.667 5.66699 30.834 17 42.501s25.333 17.5 42 17.5c16 0 29.833 -5.83301 41.5 -17.5s17.5 -25.5 17.5 -41.5c0 -16.667 -5.66699 -30.667 -17 -42s-25.333 -17 -42 -17z" />
    <glyph glyph-name="uni0326" unicode="&#x326;" horiz-adv-x="0" 
d="M-119 -65h75l-40 -220h-51z" />
    <glyph glyph-name="uni0327" unicode="&#x327;" horiz-adv-x="0" 
d="M-391 -205l95 147l74 -30l-113 -145z" />
    <glyph glyph-name="uni0328" unicode="&#x328;" horiz-adv-x="0" 
d="M-355 -185c-24 0 -43.666 7.16797 -58.999 21.501s-21.333 34.166 -18 59.499c2 16.667 7.33301 31.5 16 44.5s17.667 24.167 27 33.5c11.333 10.667 24 20.334 38 29.001l80 35c-14 -11.333 -26.667 -23 -38 -35c-10.667 -11.333 -20.167 -23.333 -28.5 -36
s-13.5 -26 -15.5 -40c-1.33301 -13.333 1.66699 -23.833 9 -31.5s17.666 -11.5 30.999 -11.5c6 0 11.833 0.666992 17.5 2s10.5 2.66602 14.5 3.99902c5.33301 2 10.333 4.33301 15 7l-22 -65c-6 -3.33301 -12.667 -6.33301 -20 -9c-6 -2 -13 -3.83301 -21 -5.5
s-16.667 -2.5 -26 -2.5z" />
    <glyph glyph-name="anoteleia" unicode="&#x387;" horiz-adv-x="135" 
d="M67 453c19.333 0 35.667 -6.66699 49 -20c13.333 -12.667 20 -28 20 -46c0 -19.333 -6.66699 -36.333 -20 -51c-14.667 -12.667 -31 -19 -49 -19c-18.667 0 -34 6.33301 -46 19c-14 13.333 -21 30 -21 50c0 18.667 6.66699 34.667 20 48c12 12.667 27.667 19 47 19z" />
    <glyph glyph-name="pi" unicode="&#x3c0;" horiz-adv-x="657" 
d="M88 462l9 77h593l-9 -77h-82l-57 -462h-84l57 462h-258l-57 -462h-84l57 462h-85z" />
    <glyph glyph-name="Wgrave" unicode="&#x1e80;" horiz-adv-x="1006" 
d="M465 986l83 37l119 -163l-50 -27zM543 550l-285 -584l-197 784h85l139 -564l280 586l144 -584l267 562h91l-382 -784z" />
    <glyph glyph-name="wgrave" unicode="&#x1e81;" horiz-adv-x="702" 
d="M278 696l83 37l119 -163l-50 -27zM351 293l-183 -332l-153 499h83l93 -318l181 328l97 -328l173 318h89l-281 -499z" />
    <glyph glyph-name="Wacute" unicode="&#x1e82;" horiz-adv-x="1006" 
d="M479 860l138 163l79 -37l-171 -153zM543 550l-285 -584l-197 784h85l139 -564l280 586l144 -584l267 562h91l-382 -784z" />
    <glyph glyph-name="wacute" unicode="&#x1e83;" horiz-adv-x="702" 
d="M292 570l138 163l79 -37l-171 -153zM351 293l-183 -332l-153 499h83l93 -318l181 328l97 -328l173 318h89l-281 -499z" />
    <glyph glyph-name="Wdieresis" unicode="&#x1e84;" horiz-adv-x="1006" 
d="M490 866c-15.333 0 -28.667 5.33301 -40 16s-17 23.667 -17 39c0 16.667 5.5 30.5 16.5 41.5s24.5 16.5 40.5 16.5c15.333 0 28.5 -5.5 39.5 -16.5s16.5 -24.167 16.5 -39.5c0 -16 -5.5 -29.5 -16.5 -40.5s-24.167 -16.5 -39.5 -16.5zM685.999 866
c-15.333 0 -28.667 5.33301 -40 16s-17 23.667 -17 39c0 16.667 5.5 30.5 16.5 41.5s24.5 16.5 40.5 16.5c15.333 0 28.5 -5.5 39.5 -16.5s16.5 -24.167 16.5 -39.5c0 -16 -5.5 -29.5 -16.5 -40.5s-24.167 -16.5 -39.5 -16.5zM542.998 550l-285 -584l-197 784h85l139 -564
l280 586l144 -584l267 562h91l-382 -784z" />
    <glyph glyph-name="wdieresis" unicode="&#x1e85;" horiz-adv-x="702" 
d="M303 576c-15.333 0 -28.667 5.33301 -40 16s-17 23.667 -17 39c0 16.667 5.5 30.5 16.5 41.5s24.5 16.5 40.5 16.5c15.333 0 28.5 -5.5 39.5 -16.5s16.5 -24.167 16.5 -39.5c0 -16 -5.5 -29.5 -16.5 -40.5s-24.167 -16.5 -39.5 -16.5zM498.999 576
c-15.333 0 -28.667 5.33301 -40 16s-17 23.667 -17 39c0 16.667 5.5 30.5 16.5 41.5s24.5 16.5 40.5 16.5c15.333 0 28.5 -5.5 39.5 -16.5s16.5 -24.167 16.5 -39.5c0 -16 -5.5 -29.5 -16.5 -40.5s-24.167 -16.5 -39.5 -16.5zM350.998 293l-183 -332l-153 499h83l93 -318
l181 328l97 -328l173 318h89l-281 -499z" />
    <glyph glyph-name="Ygrave" unicode="&#x1ef2;" 
d="M244 986l83 37l119 -163l-50 -27zM288 0h-83l43 342l-195 408h90l156 -329l227 329h97l-294 -417z" />
    <glyph glyph-name="ygrave" unicode="&#x1ef3;" horiz-adv-x="479" 
d="M167 696l83 37l119 -163l-50 -27zM15 -263l172 307l-148 416h84l112 -329l183 329h90l-404 -723h-89z" />
    <glyph glyph-name="uni2011" unicode="&#x2011;" horiz-adv-x="181" 
d="M4 240h181l-8 -61h-181z" />
    <glyph glyph-name="figuredash" unicode="&#x2012;" horiz-adv-x="610" 
d="M121 276h375l-8 -72h-375z" />
    <glyph glyph-name="endash" unicode="&#x2013;" horiz-adv-x="610" 
d="M121 276h375l-8 -72h-375z" />
    <glyph glyph-name="emdash" unicode="&#x2014;" horiz-adv-x="609" 
d="M4 276h609l-8 -72h-609z" />
    <glyph glyph-name="uni2015" unicode="&#x2015;" horiz-adv-x="609" 
d="M4 276h609l-8 -72h-609z" />
    <glyph glyph-name="quoteleft" unicode="&#x2018;" horiz-adv-x="194" 
d="M33 491l56 259h72l-75 -259h-53z" />
    <glyph glyph-name="quoteright" unicode="&#x2019;" horiz-adv-x="194" 
d="M33 491l56 259h72l-75 -259h-53z" />
    <glyph glyph-name="quotesinglbase" unicode="&#x201a;" horiz-adv-x="194" 
d="M161 109l-56 -259h-72l75 259h53z" />
    <glyph glyph-name="quotedblleft" unicode="&#x201c;" horiz-adv-x="336" 
d="M41 490l24 260h73l-44 -260h-53zM205 490l24 260h74l-45 -260h-53z" />
    <glyph glyph-name="quotedblright" unicode="&#x201d;" horiz-adv-x="336" 
d="M41 490l24 260h73l-44 -260h-53zM205 490l24 260h74l-45 -260h-53z" />
    <glyph glyph-name="quotedblbase" unicode="&#x201e;" horiz-adv-x="336" 
d="M131 109l-24 -260h-74l45 260h53zM295 109l-24 -260h-73l44 260h53z" />
    <glyph glyph-name="dagger" unicode="&#x2020;" horiz-adv-x="638" 
d="M437 636h166l-9 -78h-166l-93 -756h-81l93 756h-166l9 78h166l23 184h81z" />
    <glyph glyph-name="daggerdbl" unicode="&#x2021;" horiz-adv-x="638" 
d="M524 -14h-166l-20 -184h-81l20 184h-166l9 78h166l61 494h-166l9 78h166l23 184h81l-23 -184h166l-9 -78h-166l-61 -494h166z" />
    <glyph glyph-name="bullet" unicode="&#x2022;" horiz-adv-x="746" 
d="M546 381c0 -21.333 -4.16895 -41.5 -12.502 -60.5s-19.5 -35.5 -33.5 -49.5s-30.333 -25.167 -49 -33.5s-38.667 -12.5 -60 -12.5s-41.5 4.16699 -60.5 12.5s-35.667 19.5 -50 33.5s-25.666 30.5 -33.999 49.5s-12.5 39.167 -12.5 60.5s4.16699 41.5 12.5 60.5
s19.5 35.5 33.5 49.5s30.333 25.167 49 33.5s38.334 12.5 59.001 12.5c22 0 42.667 -4 62 -12s36 -19 50 -33s25.167 -30.5 33.5 -49.5s12.5 -39.5 12.5 -61.5z" />
    <glyph glyph-name="ellipsis" unicode="&#x2026;" horiz-adv-x="896" 
d="M148 46c0 -15.333 -5.33301 -28.332 -16 -38.999s-24 -16 -40 -16c-14 0 -26 5.16699 -36 15.5s-15 23.166 -15 38.499s5 28 15 38s22.333 15 37 15c15.333 0 28.333 -5.16699 39 -15.5s16 -22.5 16 -36.5zM643 46.001c0 -15.333 -5.33301 -28.332 -16 -38.999
s-24 -16 -40 -16c-14 0 -26 5.16699 -36 15.5s-15 23.166 -15 38.499s5 28 15 38s22.333 15 37 15c15.333 0 28.333 -5.16699 39 -15.5s16 -22.5 16 -36.5zM395 45.002c0 -15.333 -5.33301 -28.167 -16 -38.5s-23.667 -15.5 -39 -15.5
c-14.667 0 -26.834 5.16699 -36.501 15.5s-14.5 22.833 -14.5 37.5c0 15.333 4.83301 28 14.5 38s21.834 15 36.501 15c15.333 0 28.333 -5.16699 39 -15.5s16 -22.5 16 -36.5z" />
    <glyph glyph-name="perthousand" unicode="&#x2030;" horiz-adv-x="1167" 
d="M185 782c50 0 92.001 -17.333 126.001 -52c35.333 -35.333 53 -80.666 53 -135.999c0 -54.667 -18 -100 -54 -136c-34 -34.667 -76 -52 -126 -52c-50.667 0 -93.334 17.333 -128.001 52c-36 36 -54 81.333 -54 136c0 53.333 17.667 98.666 53 135.999
c34 34.667 77.333 52 130 52zM203.001 -23l-76 43l437 753l74 -43zM184.001 711c-27.333 0 -51.332 -9.66699 -71.999 -29c-22 -22 -33 -51.333 -33 -88c0 -36 11 -65 33 -87c20.667 -19.333 44.667 -29 72 -29s50.666 9.66699 69.999 29c22.667 22 34 51.333 34 88
c0 36 -11.333 65.333 -34 88c-18.667 18.667 -42 28 -70 28zM581.002 344c49.333 0 91 -17.001 125 -51.001c36 -36 54 -81.667 54 -137s-18 -101 -54 -137c-34 -34.667 -76 -52 -126 -52c-51.333 0 -94 17.333 -128 52c-36 36 -54 81.333 -54 136
s18.333 100.334 55 137.001c34 34.667 76.667 52 128 52zM987.002 343.999c49.333 0 90.999 -17 124.999 -51c36 -36 54 -82 54 -138c0 -54.667 -18 -100 -54 -136c-34.667 -34.667 -77 -52 -127 -52c-50.667 0 -93 17.333 -127 52c-36 36 -54 81.333 -54 136
c0 55.333 18.333 101 55 137c32.667 34.667 75.334 52 128.001 52zM580.001 271.999c-28.667 0 -52.667 -9.66699 -72 -29c-22 -22 -33 -51 -33 -87c0 -36.667 11 -66 33 -88c19.333 -18.667 43.333 -28 72 -28s52.334 9.33301 71.001 28c22 22 33 51.333 33 88
c0 36 -11 65.333 -33 88c-18.667 18.667 -42.334 28 -71.001 28zM986.001 271.999c-28.667 0 -52.668 -9.66699 -72.001 -29c-22 -22 -33 -51 -33 -87s11 -65 33 -87c20.667 -19.333 44.667 -29 72 -29c28 0 51.667 9.66699 71 29c22 22 33 50.667 33 86
c0 36.667 -11.333 66 -34 88c-19.333 19.333 -42.666 29 -69.999 29z" />
    <glyph glyph-name="guilsinglleft" unicode="&#x2039;" horiz-adv-x="332" 
d="M31 240l194 211l48 -41l-155 -170l113 -165l-58 -42z" />
    <glyph glyph-name="guilsinglright" unicode="&#x203a;" horiz-adv-x="332" 
d="M24 75l155 165l-113 170l57 41l142 -211l-194 -207z" />
    <glyph glyph-name="fraction" unicode="&#x2044;" horiz-adv-x="211" 
d="M386 790l39 -25l-564 -805l-39 25z" />
    <glyph glyph-name="uni2070" unicode="&#x2070;" horiz-adv-x="355" 
d="M258 952c37.333 0 66.832 -15.333 88.499 -46s32.5 -72 32.5 -124c0 -30 -4 -60 -12 -90s-18.667 -56.667 -32 -80c-11.333 -20 -26.5 -35.667 -45.5 -47s-39.167 -17 -60.5 -17c-38.667 0 -69 15.333 -91 46s-33 72.667 -33 126c0 32.667 4 63.167 12 91.5
s18.833 52.833 32.5 73.5s29.834 37 48.501 49s38.667 18 60 18zM257.999 900c-14 0 -26.832 -4.83105 -38.499 -14.498s-21.834 -22.834 -30.501 -39.501s-15.5 -36.5 -20.5 -59.5s-7.5 -47.5 -7.5 -73.5c0 -35.333 5.83301 -63 17.5 -83s27.5 -30 47.5 -30
c14.667 0 28 4.66699 40 14s22 22.666 30 39.999c8 18 14.333 38.667 19 62s7 46 7 68c0 36 -5.66699 64.333 -17 85s-27 31 -47 31z" />
    <glyph glyph-name="uni2074" unicode="&#x2074;" horiz-adv-x="326" 
d="M248 558l10 72h-183l285 363l-38 -313h36l-6 -50h-37l-9 -72h-58zM175 680h88l18 139z" />
    <glyph glyph-name="uni2075" unicode="&#x2075;" horiz-adv-x="300" 
d="M211 892l-26.001 -79c6.66699 1.33301 12.167 2.33301 16.5 3s9.16602 1 14.499 1c36 0 64.167 -11.167 84.5 -33.5s30.5 -53.5 30.5 -93.5c0 -42.667 -12.667 -77 -38 -103s-58.666 -39 -99.999 -39c-30 0 -55.333 6 -76 18s-39 30.667 -55 56l41 33
c15.333 -20.667 29.333 -35 42 -43s28.334 -12 47.001 -12c25.333 0 45.333 8.33301 60 25s22 39 22 67c0 25.333 -7 45 -21 59s-33.333 21 -58 21c-13.333 0 -26.333 -2.16699 -39 -6.5s-28 -11.5 -46 -21.5l65 202h163l-7 -54h-120z" />
    <glyph glyph-name="uni2076" unicode="&#x2076;" horiz-adv-x="337" 
d="M217 809c7.33301 1.33301 13.168 2.33008 17.501 2.99707s9.5 1 15.5 1c34 0 61 -10.667 81 -32s30 -49.666 30 -84.999c0 -20.667 -3.66699 -40 -11 -58s-17.5 -33.667 -30.5 -47s-28.167 -23.833 -45.5 -31.5s-36 -11.5 -56 -11.5
c-18.667 0 -35.834 3.16699 -51.501 9.5s-29.167 15.333 -40.5 27s-20.333 25.334 -27 41.001s-10 32.5 -10 50.5c0 18.667 4 37.834 12 57.501s21 41.5 39 65.5l122 164l43 -34zM232.002 763.997c-23.333 0 -43.668 -8.83203 -61.001 -26.499s-26 -39.167 -26 -64.5
c0 -22 6.66699 -39.667 20 -53s31 -20 53 -20c24.667 0 45.334 8.66699 62.001 26s25 38.666 25 63.999c0 21.333 -6.83301 39 -20.5 53s-31.167 21 -52.5 21z" />
    <glyph glyph-name="uni2077" unicode="&#x2077;" horiz-adv-x="341" 
d="M91 574l214 317h-189l7 54h283l-269 -399z" />
    <glyph glyph-name="uni2078" unicode="&#x2078;" horiz-adv-x="330" 
d="M294 763c8 -5.33301 14.166 -9.66699 18.499 -13s8.5 -7.33301 12.5 -12c16 -19.333 24 -43.333 24 -72c0 -34.667 -11.833 -63 -35.5 -85s-53.5 -33 -89.5 -33c-38 0 -68.5 10.667 -91.5 32s-34.5 49 -34.5 83c0 25.333 6 46.5 18 63.5s31 30.833 57 41.5
c-16 11.333 -27.5 23.333 -34.5 36s-10.5 27.667 -10.5 45c0 30.667 10.667 55.5 32 74.5s49.333 28.5 84 28.5c32.667 0 58.834 -9.33301 78.501 -28s29.5 -43.667 29.5 -75c0 -20 -4.33301 -36.667 -13 -50s-23.667 -25.333 -45 -36zM240.999 899.999
c-16 0 -29.499 -5.33301 -40.499 -16s-16.5 -24 -16.5 -40c0 -15.333 5.16699 -27.666 15.5 -36.999s23.166 -14 38.499 -14c17.333 0 31.333 5.16699 42 15.5s16 23.166 16 38.499c0 16 -5 28.833 -15 38.5s-23.333 14.5 -40 14.5zM225 733.999
c-21.333 0 -38.5 -6.33301 -51.5 -19s-19.5 -29.334 -19.5 -50.001c0 -19.333 6.5 -35 19.5 -47s29.5 -18 49.5 -18s36.5 6.66699 49.5 20s19.5 30.333 19.5 51c0 18.667 -6.16699 33.834 -18.5 45.501s-28.5 17.5 -48.5 17.5z" />
    <glyph glyph-name="uni2079" unicode="&#x2079;" horiz-adv-x="338" 
d="M241 684c-6 -1.33301 -10.667 -2.33105 -14 -2.99805s-7.66602 -1 -12.999 -1c-36 0 -64.5 10.667 -85.5 32s-31.5 50 -31.5 86c0 20.667 3.83301 40 11.5 58s18 33.5 31 46.5s28.333 23.333 46 31s36.5 11.5 56.5 11.5c18 0 34.833 -3.16699 50.5 -9.5
s29.167 -15.333 40.5 -27s20.166 -25.334 26.499 -41.001s9.5 -32.834 9.5 -51.501s-4 -37.667 -12 -57s-21 -41 -39 -65l-122 -164l-44 34zM240 892.002c-24.667 0 -45.168 -8.83203 -61.501 -26.499s-24.5 -39.834 -24.5 -66.501c0 -21.333 6.5 -38.5 19.5 -51.5
s30.5 -19.5 52.5 -19.5c24 0 44.333 8.66699 61 26s25 38.333 25 63c0 22 -6.66699 40 -20 54s-30.666 21 -51.999 21z" />
    <glyph glyph-name="uni2080" unicode="&#x2080;" horiz-adv-x="355" 
d="M164 194c37.333 0 66.832 -15.333 88.499 -46s32.5 -72 32.5 -124c0 -30 -4 -60 -12 -90s-18.667 -56.667 -32 -80c-11.333 -20 -26.5 -35.667 -45.5 -47s-39.167 -17 -60.5 -17c-38.667 0 -69 15.333 -91 46s-33 72.667 -33 126c0 32.667 4 63.167 12 91.5
s18.833 52.833 32.5 73.5s29.834 37 48.501 49s38.667 18 60 18zM163.999 142c-14 0 -26.832 -4.83105 -38.499 -14.498s-21.834 -22.834 -30.501 -39.501s-15.5 -36.5 -20.5 -59.5s-7.5 -47.5 -7.5 -73.5c0 -35.333 5.83301 -63 17.5 -83s27.5 -30 47.5 -30
c14.667 0 28 4.66699 40 14s22 22.666 30 39.999c8 18 14.333 38.667 19 62s7 46 7 68c0 36 -5.66699 64.333 -17 85s-27 31 -47 31z" />
    <glyph glyph-name="uni2081" unicode="&#x2081;" horiz-adv-x="210" 
d="M41 -200l41 338h-77l27 54h115l-48 -392h-58z" />
    <glyph glyph-name="uni2082" unicode="&#x2082;" horiz-adv-x="315" 
d="M-27 -200l155.999 172.004l29.5 33l16 18.5c3.66699 4.33301 6.5 8 8.5 11s4 6.5 6 10.5c6.66699 12 10 24.667 10 38c0 19.333 -5.83301 34.5 -17.5 45.5s-27.5 16.5 -47.5 16.5c-22 0 -38.5 -6.33301 -49.5 -19s-17.833 -33.334 -20.5 -62.001h-55
c1.33301 22 4 39.667 8 53s10.333 25.666 19 36.999c22 29.333 55.333 44 100 44c36 0 64.833 -10.333 86.5 -31s32.5 -48.334 32.5 -83.001c0 -11.333 -1 -21.5 -3 -30.5s-5.5 -18.333 -10.5 -28s-12.167 -20.334 -21.5 -32.001s-21.666 -25.5 -36.999 -41.5l-90 -98h140
l-7 -54h-253z" />
    <glyph glyph-name="uni2083" unicode="&#x2083;" horiz-adv-x="329" 
d="M48 -106c5.33301 -34.667 26.665 -52 63.998 -52c21.333 0 38.666 6.5 51.999 19.5s20 29.833 20 50.5s-6.16699 35.834 -18.5 45.501s-32.166 14.834 -59.499 15.501l7 52c2.66699 -0.666992 5.33398 -1 8.00098 -1h6c19.333 0 34.5 5.66699 45.5 17
s16.5 27.666 16.5 48.999c0 15.333 -4.66699 27.666 -14 36.999s-22 14 -38 14c-34.667 0 -54 -21 -58 -63h-51c1.33301 19.333 3.83301 35 7.5 47s9.83398 23 18.501 33c20.667 24 50.334 36 89.001 36c32 0 57 -9 75 -27s27 -42.333 27 -73c0 -23.333 -5 -42.5 -15 -57.5
s-26 -27.5 -48 -37.5c39.333 -14.667 59 -44.667 59 -90c0 -36 -11.833 -64.833 -35.5 -86.5s-54.834 -32.5 -93.501 -32.5c-34 0 -61.333 9 -82 27s-32.667 43.667 -36 77h54z" />
    <glyph glyph-name="uni2084" unicode="&#x2084;" horiz-adv-x="326" 
d="M154 -200l10 72h-183l285 363l-38 -313h36l-6 -50h-37l-9 -72h-58zM81 -78h88l18 139z" />
    <glyph glyph-name="uni2085" unicode="&#x2085;" horiz-adv-x="300" 
d="M117 134l-26.001 -79c6.66699 1.33301 12.167 2.33301 16.5 3s9.16602 1 14.499 1c36 0 64.167 -11.167 84.5 -33.5s30.5 -53.5 30.5 -93.5c0 -42.667 -12.667 -77 -38 -103s-58.666 -39 -99.999 -39c-30 0 -55.333 6 -76 18s-39 30.667 -55 56l41 33
c15.333 -20.667 29.333 -35 42 -43s28.334 -12 47.001 -12c25.333 0 45.333 8.33301 60 25s22 39 22 67c0 25.333 -7 45 -21 59s-33.333 21 -58 21c-13.333 0 -26.333 -2.16699 -39 -6.5s-28 -11.5 -46 -21.5l65 202h163l-7 -54h-120z" />
    <glyph glyph-name="uni2086" unicode="&#x2086;" horiz-adv-x="337" 
d="M123 51c7.33301 1.33301 13.168 2.33008 17.501 2.99707s9.5 1 15.5 1c34 0 61 -10.667 81 -32s30 -49.666 30 -84.999c0 -20.667 -3.66699 -40 -11 -58s-17.5 -33.667 -30.5 -47s-28.167 -23.833 -45.5 -31.5s-36 -11.5 -56 -11.5
c-18.667 0 -35.834 3.16699 -51.501 9.5s-29.167 15.333 -40.5 27s-20.333 25.334 -27 41.001s-10 32.5 -10 50.5c0 18.667 4 37.834 12 57.501s21 41.5 39 65.5l122 164l43 -34zM138.002 5.99707c-23.333 0 -43.668 -8.83203 -61.001 -26.499s-26 -39.167 -26 -64.5
c0 -22 6.66699 -39.667 20 -53s31 -20 53 -20c24.667 0 45.334 8.66699 62.001 26s25 38.666 25 63.999c0 21.333 -6.83301 39 -20.5 53s-31.167 21 -52.5 21z" />
    <glyph glyph-name="uni2087" unicode="&#x2087;" horiz-adv-x="341" 
d="M-3 -184l214 317h-189l7 54h283l-269 -399z" />
    <glyph glyph-name="uni2088" unicode="&#x2088;" horiz-adv-x="330" 
d="M200 5c8 -5.33301 14.166 -9.66699 18.499 -13s8.5 -7.33301 12.5 -12c16 -19.333 24 -43.333 24 -72c0 -34.667 -11.833 -63 -35.5 -85s-53.5 -33 -89.5 -33c-38 0 -68.5 10.667 -91.5 32s-34.5 49 -34.5 83c0 25.333 6 46.5 18 63.5s31 30.833 57 41.5
c-16 11.333 -27.5 23.333 -34.5 36s-10.5 27.667 -10.5 45c0 30.667 10.667 55.5 32 74.5s49.333 28.5 84 28.5c32.667 0 58.834 -9.33301 78.501 -28s29.5 -43.667 29.5 -75c0 -20 -4.33301 -36.667 -13 -50s-23.667 -25.333 -45 -36zM146.999 141.999
c-16 0 -29.499 -5.33301 -40.499 -16s-16.5 -24 -16.5 -40c0 -15.333 5.16699 -27.666 15.5 -36.999s23.166 -14 38.499 -14c17.333 0 31.333 5.16699 42 15.5s16 23.166 16 38.499c0 16 -5 28.833 -15 38.5s-23.333 14.5 -40 14.5zM131 -24.001
c-21.333 0 -38.5 -6.33301 -51.5 -19s-19.5 -29.334 -19.5 -50.001c0 -19.333 6.5 -35 19.5 -47s29.5 -18 49.5 -18s36.5 6.66699 49.5 20s19.5 30.333 19.5 51c0 18.667 -6.16699 33.834 -18.5 45.501s-28.5 17.5 -48.5 17.5z" />
    <glyph glyph-name="uni2089" unicode="&#x2089;" horiz-adv-x="338" 
d="M147 -74c-6 -1.33301 -10.667 -2.33105 -14 -2.99805s-7.66602 -1 -12.999 -1c-36 0 -64.5 10.667 -85.5 32s-31.5 50 -31.5 86c0 20.667 3.83301 40 11.5 58s18 33.5 31 46.5s28.333 23.333 46 31s36.5 11.5 56.5 11.5c18 0 34.833 -3.16699 50.5 -9.5
s29.167 -15.333 40.5 -27s20.166 -25.334 26.499 -41.001s9.5 -32.834 9.5 -51.501s-4 -37.667 -12 -57s-21 -41 -39 -65l-122 -164l-44 34zM146 134.002c-24.667 0 -45.168 -8.83203 -61.501 -26.499s-24.5 -39.834 -24.5 -66.501c0 -21.333 6.5 -38.5 19.5 -51.5
s30.5 -19.5 52.5 -19.5c24 0 44.333 8.66699 61 26s25 38.333 25 63c0 22 -6.66699 40 -20 54s-30.666 21 -51.999 21z" />
    </font>
</defs>
</svg>
